<?xml version="1.0" encoding="utf-8"?>
<!-- Generator: Adobe Illustrator 17.1.0, SVG Export Plug-In . SVG Version: 6.00 Build 0)  -->
<!DOCTYPE svg PUBLIC "-//W3C//DTD SVG 1.1//EN" "http://www.w3.org/Graphics/SVG/1.1/DTD/svg11.dtd">
<svg version="1.1" id="Layer_1" xmlns="http://www.w3.org/2000/svg" xmlns:xlink="http://www.w3.org/1999/xlink" x="0px" y="0px"
	 viewBox="0 0 374.7 146.5" style="enable-background:new 0 0 374.7 146.5;" xml:space="preserve">
<style type="text/css">
	.st0{fill-rule:evenodd;clip-rule:evenodd;fill:#45BFB9;}
	.st1{fill:none;stroke:#FFFFFF;stroke-width:0.2065;stroke-miterlimit:3.8637;}
	.st2{fill-rule:evenodd;clip-rule:evenodd;fill:#FFFFFF;}
	.st3{fill:none;}
	.st4{fill:#C1E3DF;}
	.st5{fill:#45BFB9;}
	.st6{fill:#F2A093;}
</style>
<g>
	<path class="st0" d="M23.5,90.3c-0.1-0.4-0.1-0.7-0.1-1.1c0-0.4,0.1-0.7,0.3-1.1c0.2-0.3,0.3-0.5,0.6-0.6c0.2,0,0.3,0,0.4,0.1
		c0.2,0.1,0.3,0.3,0.4,0.5c0.2,0.3,0.1,0.6,0.2,0.9c0.1,0.2,0.1,0.3,0.2,0.5c0.1,0.1,0.1,0.2,0.2,0.3c0.1,0.2,0.2,0.2,0.4,0.4
		c0.2,0.2,0.3,0.3,0.4,0.5c0.1,0.3,0,0.6-0.2,0.9c-0.2,0.2-0.4,0.3-0.7,0.4c-0.4,0.1-0.7-0.1-1.1-0.3C23.8,91.3,23.7,90.9,23.5,90.3
		z"/>
	<g>
		<path class="st0" d="M24.8,34.3c0,0-1.3-6.6-0.9-10.7c0.5-5.5,2.8-8.2,4.7-13.4C29,8.9,29.4,8.2,29.7,7c0.5-1.7-0.1-3.1,1-4.5
			c0.5-0.6,0.9-0.9,1.7-1.3c1.4-0.8,2.4-1.2,4-0.9c1.7,0.3,2.3,1.4,3.6,2.5c4.9,3.7,6.9,6.7,10.7,11.5c2.2,2.8,3.1,4.6,5.4,7.3
			c2.3,2.8,3.9,4.2,6.4,6.8c0,0,3.3-0.6,5.4-0.6c3.2-0.1,4.9,0.6,8.1,0.8c3.2,0.2,5,0.3,8.3,0.1c3.2-0.2,4.9-0.8,8.1-0.9
			c3.3-0.2,5.1-0.3,8.4,0.2c3.4,0.5,5.3,1.4,8.6,2.6c3.3,1.2,5.2,1.8,8.3,3.5c1.8,1,2.8,1.6,4.4,2.8c0.9,0.6,1.4,1,2.2,1.8
			c0.5,0.6,1.2,0.8,1.2,1.5c0,0.6-0.1,1-0.5,1.3c-0.5,0.4-0.9,0.2-1.5,0.2c-1.3-0.1-1.9-0.9-3.1-1.5c-1.1-0.6-1.7-1.1-2.9-1.4
			c-1.2-0.4-2-0.2-3.3-0.3c-1.9-0.1-3,0.3-5,0.1c-1.8-0.2-3,0-4.4-1c-0.9-0.6-1.1-1.3-1.8-2.1c0,0-0.9,0-1.5,0
			c-1.9,0.1-3,0.4-4.9,0.8c-2.8,0.6-4.2,1.5-7,2.3c-2.7,0.7-4.1,1.6-6.9,1.7c-2.4,0-3.8-0.4-6.1-1.1c-1.3-0.4-2-0.9-3.3-1.2
			c-1.1-0.3-1.8-0.5-3-0.6c-0.5,0-0.8,0-1.3,0c0,0,1.1,2.4,1.7,4c0.4,1.3,0.6,2.1,0.9,3.5c0.2,0.9,0.6,1.4,0.5,2.4
			c-0.1,0.5,0,1-0.4,1.3c-0.3,0.2-0.5,0.3-0.9,0.3c-1,0-1.1-1.1-1.8-1.9c-0.7-0.7-1.1-1.2-1.9-1.9c-0.8-0.7-1.3-1.1-2.3-1.7
			c-0.7-0.4-1.2-0.6-1.9-1c-1-0.7-1.3-1.3-2.2-2.2c0,0-1.1,0.3-1.9,0.5c-2.5,0.8-3.8,1.7-6.3,2.4c-2.9,0.7-4.6,0.6-7.5,1
			c0,0-0.7,2.4-1.5,3.7c-0.9,1.2-1.5,1.9-2.8,2.7c-2.7,1.6-5,0.8-8.2,0.3c-1.7-0.3-2.5-1.1-4.2-1.1c-0.8,0-1.3-0.1-2.1,0.1
			c-1.5,0.4-2.2,1.2-3.3,2.3c-0.9,0.9-1.4,1.4-2,2.5c-0.8,1.4-0.9,2.4-1,4c-0.2,2.3,0.6,3.6,0.8,5.9c0.2,2.4,0.2,3.7,0.1,6.1
			c-0.1,2.3-0.1,3.6-0.6,5.9c-0.4,1.6-0.7,2.5-1.2,4c-0.6,1.8-1.1,2.8-1.8,4.5c0,0,1.2,0.9,1.8,1.8c0.4,0.6,0.5,1,0.7,1.7
			c0.2,0.9,0.1,1.4,0.2,2.3c0,0.6-0.4,1-0.1,1.5c0.3,0.3,0.6,0.4,1,0.4c0.4,0,0.7-0.2,1.1-0.2c0.3,0,0.6,0,0.9,0.2
			c0.3,0.2,0.4,0.4,0.6,0.6c0.2,0.2,0.3,0.4,0.5,0.6c0,0,0.3-0.3,0.5-0.4c1.1-0.9,1.9-0.9,3.2-1.4c1.5-0.5,2.4-0.6,4-1
			c1-0.2,1.8,0.1,2.7-0.5c0.3-0.2,0.5-0.3,0.7-0.6c0.2-0.4,0.1-0.7,0.2-1.1c0,0-1,0.3-1.7,0.4c-0.8,0.1-1.2,0.1-2,0.1
			C30,89.1,29.2,89,28,88.5c-1-0.4-1.5-0.7-2.4-1.4c-0.6-0.5-0.9-0.8-1.3-1.4c-0.2-0.3-0.4-0.5-0.4-0.8c0-0.4,0.1-0.6,0.3-1
			c0.1-0.4,0.3-0.7,0.4-1.1c0.1-0.4,0.2-0.6,0-1c-0.2-0.3-0.5-0.4-0.8-0.5c-0.4-0.1-0.6,0-1,0.1c-0.4,0.1-0.6,0.2-0.9,0.4
			c-0.4,0.2-0.5,0.5-0.8,0.8c-0.2,0.2-0.3,0.5-0.6,0.6c-0.3,0-0.4-0.1-0.6-0.2c-0.5-0.4-0.2-1-0.3-1.7c-0.2-2.7,0.1-4.5,1.3-6.9
			c2.2-4.2,5.5-6.2,10.3-6.5c3.9-0.2,7,0.5,9.5,3.6c2.3,2.8,2.1,5.6,1.7,9.2c-0.3,2.5-0.8,4-2.1,6.2c-0.8,1.5-1.3,2.4-2.6,3.5
			c-1.6,1.4-2.9,1.7-5,2.2c-1.4,0.3-2.2,0.1-3.6,0.5c-1.3,0.3-2.2,0.4-3.3,1.3c-0.5,0.4-0.6,0.8-1.1,1.3c-0.3,0.3-0.3,0.8-0.8,0.8
			c-0.2,0-0.4-0.1-0.6-0.2c-0.5-0.3-0.6-0.6-1-1.1c-0.2-0.2-0.2-0.4-0.4-0.6c-0.1-0.1-0.2-0.1-0.4-0.2c-0.6-0.2-1,0.1-1.7,0.1
			c-0.6,0-1,0.3-1.5-0.1c-0.4-0.2-0.4-0.5-0.6-0.9c-0.4-0.8-0.1-1.4-0.1-2.4c0-0.6,0.2-1,0.2-1.7c-0.1-0.6-0.2-0.9-0.5-1.4
			c-0.2-0.4-0.5-0.5-0.8-0.8c0,0-0.5,2.7-0.5,4.4c-0.1,2,0.2,3.1,0.3,5c0.1,2.6,0.2,4,0,6.6c-0.2,2.7-0.8,4.2-1,6.9
			c-0.1,2.8,0.1,4.3,0.3,7.1c0.2,2.7,0.5,4.2,0.6,6.9c0.1,2.3,0.4,3.6,0.1,5.9c-0.3,2.4-0.9,3.6-1.8,5.9c-0.5,1.3-0.8,2.1-1.4,3.3
			c-0.4,0.8-0.5,1.3-1.1,1.9c-0.4,0.4-0.6,1-1.2,0.9c-0.2,0-0.4-0.1-0.6-0.3c-0.3-0.3-0.1-0.7-0.2-1.1c-0.2-1.8,0.4-2.8,0.4-4.6
			c0.1-2.9-0.4-4.5-0.6-7.3c-0.1-2.1-0.7-3.3-0.3-5.3c0.3-1.6,0.8-2.3,1.3-3.8c0,0-0.5-1.4-0.8-2.3c-0.5-1.5-0.8-2.3-1.2-3.8
			c-0.7-2.8-0.9-4.4-1.1-7.3c-0.2-2.4-0.2-3.8-0.1-6.3c0.1-2.3,0.2-3.5,0.4-5.8c0.2-2.9,0.6-4.5,0.4-7.3c-0.2-2.1-0.4-3.3-1.1-5.3
			c-0.8-2.4-1.5-3.7-2.9-5.7c-1.1-1.6-1.9-2.3-3.1-3.8c-0.3-0.4-0.6-0.6-0.8-1c-0.9-1.5-0.4-2.7,0.1-4.4c0.4-1.6,1.3-2.3,2.1-3.8
			c1.9-3.4,2.8-5.5,5-8.8c3.2-4.8,5.2-7.5,9.4-11.4c1-1,1.7-1.5,2.7-2.4c0,0,0.8-1.4,1.4-2.3C22.4,36.3,24.8,34.3,24.8,34.3z"/>
		<path class="st1" d="M24.8,34.3c0,0-1.3-6.6-0.9-10.7c0.5-5.5,2.8-8.2,4.7-13.4C29,8.9,29.4,8.2,29.7,7c0.5-1.7-0.1-3.1,1-4.5
			c0.5-0.6,0.9-0.9,1.7-1.3c1.4-0.8,2.4-1.2,4-0.9c1.7,0.3,2.3,1.4,3.6,2.5c4.9,3.7,6.9,6.7,10.7,11.5c2.2,2.8,3.1,4.6,5.4,7.3
			c2.3,2.8,3.9,4.2,6.4,6.8c0,0,3.3-0.6,5.4-0.6c3.2-0.1,4.9,0.6,8.1,0.8c3.2,0.2,5,0.3,8.3,0.1c3.2-0.2,4.9-0.8,8.1-0.9
			c3.3-0.2,5.1-0.3,8.4,0.2c3.4,0.5,5.3,1.4,8.6,2.6c3.3,1.2,5.2,1.8,8.3,3.5c1.8,1,2.8,1.6,4.4,2.8c0.9,0.6,1.4,1,2.2,1.8
			c0.5,0.6,1.2,0.8,1.2,1.5c0,0.6-0.1,1-0.5,1.3c-0.5,0.4-0.9,0.2-1.5,0.2c-1.3-0.1-1.9-0.9-3.1-1.5c-1.1-0.6-1.7-1.1-2.9-1.4
			c-1.2-0.4-2-0.2-3.3-0.3c-1.9-0.1-3,0.3-5,0.1c-1.8-0.2-3,0-4.4-1c-0.9-0.6-1.1-1.3-1.8-2.1c0,0-0.9,0-1.5,0
			c-1.9,0.1-3,0.4-4.9,0.8c-2.8,0.6-4.2,1.5-7,2.3c-2.7,0.7-4.1,1.6-6.9,1.7c-2.4,0-3.8-0.4-6.1-1.1c-1.3-0.4-2-0.9-3.3-1.2
			c-1.1-0.3-1.8-0.5-3-0.6c-0.5,0-0.8,0-1.3,0c0,0,1.1,2.4,1.7,4c0.4,1.3,0.6,2.1,0.9,3.5c0.2,0.9,0.6,1.4,0.5,2.4
			c-0.1,0.5,0,1-0.4,1.3c-0.3,0.2-0.5,0.3-0.9,0.3c-1,0-1.1-1.1-1.8-1.9c-0.7-0.7-1.1-1.2-1.9-1.9c-0.8-0.7-1.3-1.1-2.3-1.7
			c-0.7-0.4-1.2-0.6-1.9-1c-1-0.7-1.3-1.3-2.2-2.2c0,0-1.1,0.3-1.9,0.5c-2.5,0.8-3.8,1.7-6.3,2.4c-2.9,0.7-4.6,0.6-7.5,1
			c0,0-0.7,2.4-1.5,3.7c-0.9,1.2-1.5,1.9-2.8,2.7c-2.7,1.6-5,0.8-8.2,0.3c-1.7-0.3-2.5-1.1-4.2-1.1c-0.8,0-1.3-0.1-2.1,0.1
			c-1.5,0.4-2.2,1.2-3.3,2.3c-0.9,0.9-1.4,1.4-2,2.5c-0.8,1.4-0.9,2.4-1,4c-0.2,2.3,0.6,3.6,0.8,5.9c0.2,2.4,0.2,3.7,0.1,6.1
			c-0.1,2.3-0.1,3.6-0.6,5.9c-0.4,1.6-0.7,2.5-1.2,4c-0.6,1.8-1.1,2.8-1.8,4.5c0,0,1.2,0.9,1.8,1.8c0.4,0.6,0.5,1,0.7,1.7
			c0.2,0.9,0.1,1.4,0.2,2.3c0,0.6-0.4,1-0.1,1.5c0.3,0.3,0.6,0.4,1,0.4c0.4,0,0.7-0.2,1.1-0.2c0.3,0,0.6,0,0.9,0.2
			c0.3,0.2,0.4,0.4,0.6,0.6c0.2,0.2,0.3,0.4,0.5,0.6c0,0,0.3-0.3,0.5-0.4c1.1-0.9,1.9-0.9,3.2-1.4c1.5-0.5,2.4-0.6,4-1
			c1-0.2,1.8,0.1,2.7-0.5c0.3-0.2,0.5-0.3,0.7-0.6c0.2-0.4,0.1-0.7,0.2-1.1c0,0-1,0.3-1.7,0.4c-0.8,0.1-1.2,0.1-2,0.1
			C30,89.1,29.2,89,28,88.5c-1-0.4-1.5-0.7-2.4-1.4c-0.6-0.5-0.9-0.8-1.3-1.4c-0.2-0.3-0.4-0.5-0.4-0.8c0-0.4,0.1-0.6,0.3-1
			c0.1-0.4,0.3-0.7,0.4-1.1c0.1-0.4,0.2-0.6,0-1c-0.2-0.3-0.5-0.4-0.8-0.5c-0.4-0.1-0.6,0-1,0.1c-0.4,0.1-0.6,0.2-0.9,0.4
			c-0.4,0.2-0.5,0.5-0.8,0.8c-0.2,0.2-0.3,0.5-0.6,0.6c-0.3,0-0.4-0.1-0.6-0.2c-0.5-0.4-0.2-1-0.3-1.7c-0.2-2.7,0.1-4.5,1.3-6.9
			c2.2-4.2,5.5-6.2,10.3-6.5c3.9-0.2,7,0.5,9.5,3.6c2.3,2.8,2.1,5.6,1.7,9.2c-0.3,2.5-0.8,4-2.1,6.2c-0.8,1.5-1.3,2.4-2.6,3.5
			c-1.6,1.4-2.9,1.7-5,2.2c-1.4,0.3-2.2,0.1-3.6,0.5c-1.3,0.3-2.2,0.4-3.3,1.3c-0.5,0.4-0.6,0.8-1.1,1.3c-0.3,0.3-0.3,0.8-0.8,0.8
			c-0.2,0-0.4-0.1-0.6-0.2c-0.5-0.3-0.6-0.6-1-1.1c-0.2-0.2-0.2-0.4-0.4-0.6c-0.1-0.1-0.2-0.1-0.4-0.2c-0.6-0.2-1,0.1-1.7,0.1
			c-0.6,0-1,0.3-1.5-0.1c-0.4-0.2-0.4-0.5-0.6-0.9c-0.4-0.8-0.1-1.4-0.1-2.4c0-0.6,0.2-1,0.2-1.7c-0.1-0.6-0.2-0.9-0.5-1.4
			c-0.2-0.4-0.5-0.5-0.8-0.8c0,0-0.5,2.7-0.5,4.4c-0.1,2,0.2,3.1,0.3,5c0.1,2.6,0.2,4,0,6.6c-0.2,2.7-0.8,4.2-1,6.9
			c-0.1,2.8,0.1,4.3,0.3,7.1c0.2,2.7,0.5,4.2,0.6,6.9c0.1,2.3,0.4,3.6,0.1,5.9c-0.3,2.4-0.9,3.6-1.8,5.9c-0.5,1.3-0.8,2.1-1.4,3.3
			c-0.4,0.8-0.5,1.3-1.1,1.9c-0.4,0.4-0.6,1-1.2,0.9c-0.2,0-0.4-0.1-0.6-0.3c-0.3-0.3-0.1-0.7-0.2-1.1c-0.2-1.8,0.4-2.8,0.4-4.6
			c0.1-2.9-0.4-4.5-0.6-7.3c-0.1-2.1-0.7-3.3-0.3-5.3c0.3-1.6,0.8-2.3,1.3-3.8c0,0-0.5-1.4-0.8-2.3c-0.5-1.5-0.8-2.3-1.2-3.8
			c-0.7-2.8-0.9-4.4-1.1-7.3c-0.2-2.4-0.2-3.8-0.1-6.3c0.1-2.3,0.2-3.5,0.4-5.8c0.2-2.9,0.6-4.5,0.4-7.3c-0.2-2.1-0.4-3.3-1.1-5.3
			c-0.8-2.4-1.5-3.7-2.9-5.7c-1.1-1.6-1.9-2.3-3.1-3.8c-0.3-0.4-0.6-0.6-0.8-1c-0.9-1.5-0.4-2.7,0.1-4.4c0.4-1.6,1.3-2.3,2.1-3.8
			c1.9-3.4,2.8-5.5,5-8.8c3.2-4.8,5.2-7.5,9.4-11.4c1-1,1.7-1.5,2.7-2.4c0,0,0.8-1.4,1.4-2.3C22.4,36.3,24.8,34.3,24.8,34.3z"/>
		<path class="st2" d="M51.9,31.2c-2.3-0.1-3.6-0.3-5.9-0.5c-2.8-0.2-4.4-0.5-7.3-0.5c-1.6,0-2.6-0.3-4.1,0.3
			c-0.8,0.3-1.3,0.4-1.9,1c-0.6,0.7-0.7,1.3-0.7,2.3c0,1.1,0.5,1.7,1,2.6c0.6,1.1,1.2,1.6,2.1,2.4c1.8,1.5,3.1,2.1,5.4,2.6
			c2.5,0.6,4,0.3,6.6,0.1c3.3-0.3,5.1-1,8.2-2c2.9-0.9,4.4-1.7,7.2-2.8c1.6-0.6,2.5-1.1,4.2-1.6c1-0.3,1.6-0.5,2.6-0.6
			c0.8,0,1.2,0.1,2,0.2c1.7,0.3,2.6,0.6,4.2,1.1c1.8,0.5,2.6,1.2,4.4,1.5c0.9,0.2,1.4,0.3,2.4,0.3c1.6,0,2.5-0.3,4-0.7
			c1.8-0.5,2.8-1.1,4.5-1.7c1.1-0.4,1.8-0.6,2.9-0.9c1.4-0.4,2.2-0.7,3.7-1.1c1.5-0.4,2.3-0.6,3.8-0.7c0.8-0.1,1.4-0.3,2.2-0.1
			c0.6,0.2,1.1,0.3,1.4,0.8c0.2,0.3,0.2,0.6,0.4,1c0.2,0.5,0.2,0.9,0.6,1.2c0.4,0.3,0.7,0.4,1.1,0.6c0.7,0.2,1.2,0.1,2,0.1
			c1.1,0,1.7-0.2,2.8-0.2c1.2,0,1.8,0,3,0.2c0.9,0.2,1.4,0.4,2.3,0.7c0,0-2.3-1.5-3.8-2.3c-2.1-1.1-3.4-1.6-5.6-2.4
			c-1.9-0.7-2.9-1.1-4.9-1.5c-3-0.6-4.8-0.5-7.9-0.4c-3,0.1-4.7,0.7-7.7,0.9c-3.8,0.3-6,0.6-9.8,0.1c-1.3-0.2-2.1-0.6-3.4-0.7
			c-1.8-0.2-2.8-0.1-4.5-0.1c-3,0-4.6,0.2-7.6,0.4c-2.7,0.1-4.2,0.3-6.8,0.3C54,31.3,53.2,31.2,51.9,31.2z"/>
		<path class="st2" d="M63.1,39c0,0,0.9-0.3,1.5-0.6c0.5-0.2,0.9-0.4,1.4-0.6c0,0,1,1.6,1.6,2.6c1,1.8,1.3,3,2.1,5
			c0,0-1.5-1.9-2.6-3c-0.6-0.7-1-1.1-1.7-1.7c-0.5-0.4-0.9-0.4-1.3-0.8C63.6,39.5,63.1,39,63.1,39z"/>
		<path class="st2" d="M59.7,28.8c0,0-2.3-2-3.7-3.4c-2.8-2.8-3.9-4.8-6.3-7.9c-2.1-2.6-3.2-4.2-5.4-6.8c-1.6-1.8-2.5-2.8-4.2-4.4
			c-1.4-1.3-1.9-2.5-3.7-3.1c-0.8-0.3-1.2-0.6-2-0.4c-0.7,0.2-0.9,0.6-1.4,1.1c-0.8,0.9-0.7,1.8-1,2.9c-0.2,0.8-0.3,1.2-0.5,2
			c-0.7,2.4-1.6,3.6-2.5,5.9c-0.7,1.8-1.3,2.8-1.8,4.6c-0.4,1.7-0.4,2.7-0.4,4.4c0,2,0.2,3.1,0.6,5.1c0.2,1.1,0.4,1.8,0.7,2.9
			c0,0,0.9-0.8,1.6-1.2c1-0.7,1.7-0.9,2.9-1.3c1.4-0.5,2.2-0.7,3.7-0.9c1.4-0.2,2.3-0.1,3.7-0.1c0,0-0.5-0.7-0.8-1.2
			c-0.6-0.9-0.9-1.5-1.3-2.5c-0.6-1.4-0.7-2.3-0.8-3.9c-0.1-1.5-0.1-2.4,0.1-3.9c0.1-0.9,0.2-1.4,0.3-2.4c0-1.2-0.1-1.8-0.3-3
			c-0.1-0.8-0.1-1.2-0.4-2c-0.1-0.4-0.4-0.5-0.5-0.9c0-0.3-0.1-0.5,0.1-0.7c0.1-0.1,0.2-0.2,0.4-0.2c0.4-0.1,0.7,0,1.1,0.3
			c0.6,0.4,0.7,0.9,1,1.6c0.7,1.3,0.8,2.1,1.3,3.5c0.5,1.4,0.7,2.3,1.4,3.6c0.7,1.3,1.2,1.9,2.2,3c1.4,1.4,2.4,1.9,4.1,3
			c1.4,0.9,2.4,1.1,3.8,2.1c0.9,0.6,1.4,1,2.1,1.8c0.8,0.8,0.9,1.7,1.9,2.3C57.1,29.4,59.7,28.8,59.7,28.8z"/>
		<path class="st2" d="M23.2,49.3c0,0-3.3-0.2-5.3,0.2c-1.7,0.3-2.5,0.9-4.1,1.4c0,0-1.2,1.6-1.8,2.7c-0.9,1.6-1.2,2.6-1.8,4.3
			c-0.8,2.5-0.8,4.1-1.6,6.6c-0.5,1.6-0.8,2.5-1.5,4c-0.5,1.1-1.2,1.5-1.4,2.6c-0.2,0.9-0.3,1.5,0,2.4c0.4,1.4,1.6,1.6,2.4,2.9
			c1,1.6,1.3,2.6,1.8,4.4c0.6,2.3,0.3,3.7,0.4,6.1c0.1,4-0.2,6.2-0.3,10.2c-0.1,2.9-0.4,4.6-0.2,7.5c0.2,3.3,0.4,5.1,1.4,8.3
			c0.4,1.2,0.7,1.9,1.1,3.1c0.3,0.8,0.5,1.2,0.6,2.1c0.1,0.8,0,1.3-0.1,2.1c-0.2,1.3-0.8,2-0.9,3.3c-0.2,1.7,0.2,2.6,0.4,4.3
			c0.2,1.7,0.4,2.7,0.4,4.4c0,1.1,0,1.7-0.1,2.8c0,0,1.1-2.4,1.4-4c0.3-1.4,0.4-2.2,0.4-3.7c0-1.9-0.6-3-0.8-4.9
			c-0.2-2.1-0.2-3.2-0.3-5.3c0-2,0.1-3.1,0.2-5.2c0.2-3.7,0.4-5.8,0.6-9.5c0.1-2,0.3-3.1,0.3-5c0-2.5-0.5-3.9-0.6-6.4
			c-0.1-1.4-0.3-2.2-0.1-3.6c0.2-1.3,0.7-2,1.2-3.3c0.8-1.9,1.6-2.9,2.3-4.9c0.3-0.7,0.4-1.2,0.6-1.9c0.2-0.5,0.3-0.8,0.4-1.3
			c0.3-1.6-0.1-2.5-0.3-4.1c-0.2-2.6-0.4-4-0.7-6.6c-0.3-2.3-0.9-3.6-0.9-5.9c0-1.4-0.1-2.3,0.4-3.6c0.5-1.2,1.1-1.8,2-2.8
			c0.9-1,1.4-1.6,2.4-2.4C22,50.1,23.2,49.3,23.2,49.3z"/>
		<path class="st0" d="M4.4,125.5v-2.8c0.2,0,0.4,0,0.8,0c0.3,0,0.5,0,0.6,0c0.2,0,0.4,0.1,0.5,0.1c0.2,0.1,0.4,0.4,0.4,0.7
			c0,0.2-0.1,0.4-0.2,0.5c-0.1,0.1-0.3,0.2-0.5,0.2c0.2,0,0.3,0.1,0.4,0.2c0.2,0.1,0.2,0.3,0.2,0.6v0.2c0,0,0,0.1,0,0.1
			c0,0,0,0.1,0,0.1l0,0.1H6c0-0.1,0-0.2,0-0.4c0-0.2,0-0.3,0-0.3c0-0.1-0.1-0.2-0.2-0.2c-0.1,0-0.1,0-0.2,0l-0.2,0H5.1v1H4.4z
			 M5.7,123.3c-0.1,0-0.2-0.1-0.4-0.1H5.1v0.8h0.3c0.2,0,0.3,0,0.4-0.1s0.1-0.2,0.1-0.3C5.9,123.5,5.8,123.4,5.7,123.3z M7.2,125.9
			c-0.5,0.5-1.1,0.7-1.8,0.7c-0.7,0-1.3-0.2-1.8-0.7c-0.5-0.5-0.7-1.1-0.7-1.8c0-0.7,0.3-1.3,0.8-1.8c0.5-0.5,1.1-0.7,1.7-0.7
			c0.7,0,1.3,0.2,1.8,0.7c0.5,0.5,0.7,1.1,0.7,1.8C8,124.9,7.7,125.5,7.2,125.9z M4,122.7c-0.4,0.4-0.6,0.9-0.6,1.5
			c0,0.6,0.2,1.1,0.6,1.5c0.4,0.4,0.9,0.6,1.5,0.6c0.6,0,1.1-0.2,1.5-0.6c0.4-0.4,0.6-0.9,0.6-1.5c0-0.6-0.2-1-0.6-1.5
			c-0.4-0.4-0.9-0.6-1.5-0.6C4.9,122.1,4.4,122.3,4,122.7z"/>
	</g>
</g>
<path class="st3" d="M-86.7-1792.8"/>
<path class="st3" d="M-86.7,2207.2"/>
<path class="st3" d="M-86.7-1792.8"/>
<path class="st3" d="M-86.7,2207.2"/>
<path class="st3" d="M-86.7-1792.8"/>
<path class="st3" d="M-86.7,2207.2"/>
<path class="st3" d="M-86.7-1792.8"/>
<path class="st3" d="M-86.7,2207.2"/>
<path class="st3" d="M-86.7-1792.8"/>
<path class="st3" d="M-86.7,2207.2"/>
<path class="st3" d="M-86.7-1792.8"/>
<path class="st3" d="M-86.7,2207.2"/>
<path class="st3" d="M-86.7-1792.8"/>
<path class="st3" d="M-86.7,2207.2"/>
<path class="st3" d="M-86.7-1792.8"/>
<path class="st3" d="M-86.7,2207.2"/>
<path class="st3" d="M-86.7-1792.8"/>
<path class="st3" d="M-86.7,2207.2"/>
<path class="st3" d="M-86.7-1792.8"/>
<path class="st3" d="M-86.7,2207.2"/>
<path class="st3" d="M-86.7-1792.8"/>
<path class="st3" d="M-86.7,2207.2"/>
<path class="st3" d="M-86.7-1792.8"/>
<path class="st3" d="M-86.7,2207.2"/>
<path class="st3" d="M-86.7-1792.8"/>
<path class="st3" d="M-86.7,2207.2"/>
<path class="st3" d="M-86.7-1792.8"/>
<path class="st3" d="M-86.7,2207.2"/>
<path class="st3" d="M-86.7-1792.8"/>
<path class="st3" d="M-86.7,2207.2"/>
<path class="st3" d="M-86.7-1792.8"/>
<path class="st3" d="M-86.7,2207.2"/>
<path class="st3" d="M-86.7-1792.8"/>
<path class="st3" d="M-86.7,2207.2"/>
<path class="st3" d="M-86.7-1792.8"/>
<path class="st3" d="M-86.7,2207.2"/>
<path class="st3" d="M-86.7-1792.8"/>
<path class="st3" d="M-86.7,2207.2"/>
<path class="st3" d="M-86.7-1792.8"/>
<path class="st3" d="M-86.7,2207.2"/>
<path class="st3" d="M-86.7-1792.8"/>
<path class="st3" d="M-86.7,2207.2"/>
<path class="st3" d="M-86.7-1792.8"/>
<path class="st3" d="M-86.7,2207.2"/>
<path class="st3" d="M-86.7-1792.8"/>
<path class="st3" d="M-86.7,2207.2"/>
<path class="st3" d="M-86.7-1792.8"/>
<path class="st3" d="M-86.7,2207.2"/>
<path class="st3" d="M-86.7-1792.8"/>
<path class="st3" d="M-86.7,2207.2"/>
<path class="st3" d="M-86.7-1792.8"/>
<path class="st3" d="M-86.7,2207.2"/>
<path class="st3" d="M-86.7-1792.8"/>
<path class="st3" d="M-86.7,2207.2"/>
<path class="st3" d="M-86.7-1792.8"/>
<path class="st3" d="M-86.7,2207.2"/>
<path class="st3" d="M-86.7-1792.8"/>
<path class="st3" d="M-86.7,2207.2"/>
<path class="st3" d="M-86.7-1792.8"/>
<path class="st3" d="M-86.7,2207.2"/>
<path class="st3" d="M-86.7-1792.8"/>
<path class="st3" d="M-86.7,2207.2"/>
<path class="st3" d="M-86.7-1792.8"/>
<path class="st3" d="M-86.7,2207.2"/>
<path class="st3" d="M-86.7-1792.8"/>
<path class="st3" d="M-86.7,2207.2"/>
<path class="st3" d="M-86.7-1792.8"/>
<path class="st3" d="M-86.7,2207.2"/>
<path class="st3" d="M-86.7-1792.8"/>
<path class="st3" d="M-86.7,2207.2"/>
<path class="st3" d="M-86.7-1792.8"/>
<path class="st3" d="M-86.7,2207.2"/>
<path class="st3" d="M-86.7-1792.8"/>
<path class="st3" d="M-86.7,2207.2"/>
<path class="st3" d="M-86.7-1792.8"/>
<path class="st3" d="M-86.7,2207.2"/>
<path class="st3" d="M-86.7-1792.8"/>
<path class="st3" d="M-86.7,2207.2"/>
<path class="st3" d="M-86.7-1792.8"/>
<path class="st3" d="M-86.7,2207.2"/>
<path class="st3" d="M-86.7-1792.8"/>
<path class="st3" d="M-86.7,2207.2"/>
<path class="st3" d="M-86.7-1792.8"/>
<path class="st3" d="M-86.7,2207.2"/>
<path class="st3" d="M-86.7-1792.8"/>
<path class="st3" d="M-86.7,2207.2"/>
<path class="st3" d="M-86.7-1792.8"/>
<path class="st3" d="M-86.7,2207.2"/>
<path class="st3" d="M-86.7-1792.8"/>
<path class="st3" d="M-86.7,2207.2"/>
<path class="st3" d="M-86.7-1792.8"/>
<path class="st3" d="M-86.7,2207.2"/>
<path class="st3" d="M-86.7-1792.8"/>
<path class="st3" d="M-86.7,2207.2"/>
<path class="st3" d="M-86.7-1792.8"/>
<path class="st3" d="M-86.7,2207.2"/>
<path class="st3" d="M-86.7-1792.8"/>
<path class="st3" d="M-86.7,2207.2"/>
<path class="st3" d="M-86.7-1792.8"/>
<path class="st3" d="M-86.7,2207.2"/>
<path class="st3" d="M-86.7-1792.8"/>
<path class="st3" d="M-86.7,2207.2"/>
<g>
	<path class="st4" d="M43.1,127.1l6.6,5.1h-2.3l-6.6-5.1H43.1z M47.9,127.1l6.6,5.1h-2.4l-6.6-5.1H47.9z M51.2,126l6.7,5.2l-0.4,1.1
		H57l-6.7-5.1h0.5L51.2,126z M52.2,123l6.8,5.2l-0.5,1.5l-6.7-5.2L52.2,123z M53.2,120.1l6.7,5.2l-0.5,1.4l-6.7-5.2L53.2,120.1z
		 M56.9,119.2l6.6,5.1h-2.4l-6.6-5.1H56.9z M58.4,105.5l3,2.4h-2.4l-1-0.9L58.4,105.5z M63.7,107.9l-4.9-3.8l0.5-1.4l6.7,5l-0.1,0.2
		H63.7z M61.7,119.2l6.6,5.1h-2.3l-6.7-5.1H61.7z M60.4,99.7l6.7,5.1l-0.5,1.5l-6.7-5.2L60.4,99.7z M61.4,96.8l5,3.9l0.9,2.6l-6.4-5
		L61.4,96.8z M64.7,95.6l0.8,2.4l-3.6-2.7l0.5-1.4L64.7,95.6z M63.3,91.5l0.6,1.7l-0.9-0.8L63.3,91.5z M66.5,119.2l6.6,5.1h-2.3
		l-6.7-5.1H66.5z M75.3,79l0.3,0.9L69,74.9L68.7,74L75.3,79z M71.3,119.2l2.3,1.7l0.9,2.6l-5.6-4.3H71.3z M70,77.5l6.6,5.1l1,2.6
		L71,80.1L70,77.5z M71.9,82.7l6.6,5.1l1,2.6l-6.6-5.1L71.9,82.7z M73.8,87.9l6.6,5l1,2.7l-6.6-5.1L73.8,87.9z M75.7,93.1l6.6,5.1
		l1,2.6l-6.6-5.1L75.7,93.1z M77.6,98.2l6.5,5.1l1,2.7l-6.6-5.2L77.6,98.2z M81.5,127.1l6.5,5.1h-2.3l-6.5-5.1H81.5z M79.5,103.4
		l6.6,5.1l1,2.6l-6.6-5.1L79.5,103.4z M81.4,108.5l6.6,5.2l1,2.6l-6.6-5.1L81.4,108.5z M83.4,113.7l6.5,5.1l1,2.6l-6.6-5.1
		L83.4,113.7z M86.4,127.1l6.6,5.1h-2.5l-6.5-5.1H86.4z M85.2,118.8l6.5,5.2l1,2.6l-6.6-5.1L85.2,118.8z M87.1,124l6.5,5.1l0.9,2.6
		l-6.5-5.1L87.1,124z"/>
	<path class="st4" d="M102.9,103.6v1.9l-6.7-5.2v-1.8L102.9,103.6z M103.1,101.9l-6.7-5.1c0-0.5,0.1-1.1,0.2-1.7l6.7,5.2
		L103.1,101.9z M96.8,104.5c-0.2-0.8-0.4-1.5-0.4-2.2l6.5,5.1c0.1,0.7,0.1,1.4,0.3,2L96.8,104.5z M103.7,98.8l-6.6-5.2
		c0.1-0.5,0.3-1,0.5-1.4l6.7,5.1C104,97.8,103.9,98.2,103.7,98.8z M97.6,106.9l6.1,4.6c0.1,0.9,0.4,1.7,0.7,2.4l-5-3.9
		C98.7,109.2,98.1,108.2,97.6,106.9z M104.9,95.9l-6.8-5.2c0.2-0.4,0.5-0.9,0.8-1.3l6.7,5.2C105.3,95,105.1,95.5,104.9,95.9z
		 M106.4,93.4l-6.7-5.2c0.3-0.4,0.6-0.8,0.9-1.1l6.8,5.2L106.4,93.4z M101.3,126.3c1,0.4,2.1,0.7,3.3,1l6,4.6
		c-2.1-0.6-4.5-2.1-7.4-4.3L101.3,126.3z M108.4,91.2l-6.7-5.1c0.3-0.4,0.7-0.7,1.2-1l6.7,5.2L108.4,91.2z M110.9,89.4l-6.7-5.2
		l1.4-0.8l6.7,5.2L110.9,89.4z M114,88.1l-6.7-5.2c0.6-0.2,1.3-0.3,2-0.4l6.5,5.1L114,88.1z M120.9,87.9c-0.9-0.2-1.9-0.3-2.8-0.3
		l-6.5-5.1c1,0,2.1,0.2,3,0.5L120.9,87.9z M125.5,139.6l5.4,4.2c-3.1-1.2-7-3.6-8.3-4.5l-2.4-1.8C121.7,138.1,123.6,139,125.5,139.6
		z M121.3,126c0.2-0.1,0.4-0.2,0.6-0.3l2,1.6C122.9,126.9,122,126.4,121.3,126z M124.8,124.2l6.4,4.9c-0.9-0.1-2-0.2-3.2-0.6
		l-4.5-3.6L124.8,124.2z M127.4,122.5l6.6,5.1l-1.3,0.9l-6.5-5.1L127.4,122.5z M129.6,120.6l6.7,5l-1.1,1l-6.6-5.1L129.6,120.6z
		 M132.4,141.2l6.5,5c-1.2-0.2-2.3-0.5-3.4-0.8l-6.2-4.7C130.3,140.8,131.2,141,132.4,141.2z M131.6,118.4l6.6,5.1l-0.9,1.1
		l-6.7-5.1L131.6,118.4z M133.4,116l6.7,5.1l-0.8,1.2l-6.7-5L133.4,116z M140.7,90.2l-6.1-4.7c-0.6-1.1-1.3-2.4-2-3.4l3.5,2.9
		C137.8,86.2,139.4,88,140.7,90.2z M134.8,113.4l6.7,5.1l-0.8,1.4l-6.7-5.1L134.8,113.4z M137.3,141l6.7,5.2l-0.1,0.3
		c-0.6,0-1.5,0-2.2,0l-6.6-5.1c0.7,0.1,1.4,0.1,2.1,0.1L137.3,141z M136,110.6l6.7,5.2l-0.6,1.4l-6.6-5.2L136,110.6z M143.3,95.8
		l-6.5-5c-0.3-0.8-0.6-1.7-0.8-2.5l6.4,5C142.7,94.1,143,95,143.3,95.8z M136.9,107.6l6.7,5.1c-0.1,0.5-0.3,1.1-0.4,1.6l-6.7-5.2
		C136.6,108.6,136.7,108.2,136.9,107.6z M137.5,104.4l6.7,5.2c-0.1,0.6-0.1,1.1-0.3,1.6l-6.7-5.1C137.3,105.5,137.4,105,137.5,104.4
		z M144.2,100.3l-6.6-5.1l-0.3-2.2l6.6,5.1C144,98.8,144.2,99.6,144.2,100.3z M138.1,138.2l6.7,5.2c-0.2,0.5-0.4,1.1-0.5,1.4
		l-6.7-5.2L138.1,138.2z M137.8,100.9l6.7,5.2l-0.1,1.7l-6.7-5.2C137.8,102.2,137.8,101.5,137.8,100.9z M144.5,104.2l-6.7-5.2
		l-0.1-1.9l6.7,5.1L144.5,104.2z M139.3,135.3l6.7,5.2l-0.6,1.4l-6.7-5.2L139.3,135.3z M146.5,139.1l-6.7-5.2l0.4-1.5l6.7,5.2
		C146.8,138,146.6,138.6,146.5,139.1z"/>
	<path class="st4" d="M152.7,75.2l6.7,5.2v1.9l-6.7-5.2V75.2z M152.7,78.9l6.7,5.2v1.8l-6.7-5.1V78.9z M152.7,82.6l6.7,5.2v1.8
		l-6.7-5.1V82.6z M152.7,86.3l6.7,5.2v1.8l-6.7-5.2V86.3z M152.7,90l6.7,5.1V97l-6.7-5.2V90z M152.7,93.8l6.7,5.1v1.9l-6.7-5.2V93.8
		z M152.7,97.4l6.7,5.2v1.9l-6.7-5.2V97.4z M152.7,101.1l6.7,5.2v1.8l-6.7-5.1V101.1z M152.7,104.8l6.7,5.2c0,0.6,0,1.3,0.1,1.9
		l-6.7-5.1C152.7,106.2,152.7,105.5,152.7,104.8z M154.2,111.6c-0.4-0.8-0.8-1.6-1-2.6l6.5,5c0.1,0.8,0.4,1.6,0.7,2.3L154.2,111.6z
		 M154.9,127c1,0.4,2.2,0.7,3.5,0.8l6.3,4.9c-2.1-0.5-4-1.4-5.9-2.8L154.9,127z M167.7,133l-6.6-5h2.3l6.6,5
		c-0.3,0.1-0.8,0.1-1.2,0.1C168.5,133.1,168.1,133.1,167.7,133z M167.5,127.4l6.7,5.1c-0.7,0.2-1.3,0.3-1.9,0.4l-6.6-5.1
		L167.5,127.4z M176,132l-6.7-5.1c0.5-0.2,1.1-0.4,1.7-0.6l6.6,5.2C177,131.7,176.5,131.8,176,132z M179.1,130.7l-6.7-5.2l1.4-0.8
		l6.7,5.2L179.1,130.7z M181.7,129.1l-6.7-5.2l1.1-0.9l6.7,5.2C182.4,128.5,182.1,128.8,181.7,129.1z M183.9,127l-6.7-5.2l0.9-1.1
		l6.7,5.2L183.9,127z M185.7,124.7l-6.7-5.2l0.8-1.2l6.7,5.2L185.7,124.7z M181.1,115.7l6.7,5.1c-0.2,0.5-0.4,1.1-0.7,1.4l-6.7-5.2
		L181.1,115.7z M188.4,119.4l-6.7-5.2l0.4-1.5l6.7,5.2C188.7,118.4,188.5,118.9,188.4,119.4z M189.2,116.3l-6.7-5.2l0.3-1.6l6.7,5.2
		C189.4,115.2,189.3,115.8,189.2,116.3z M189.8,113l-6.7-5.2c0.1-0.5,0.1-1.1,0.1-1.7l6.7,5.2L189.8,113z M190,78.9v1l-6.7-5.2v-1
		L190,78.9z M183.3,76.5l6.7,5.2v1.8l-6.7-5.2V76.5z M183.3,80.3l6.7,5.2v1.8l-6.7-5.2V80.3z M183.3,83.9l6.7,5.2v1.8l-6.7-5.2V83.9
		z M183.3,87.6l6.7,5.2v1.8l-6.7-5.2V87.6z M183.3,91.3l6.7,5.2v1.9l-6.7-5.2V91.3z M183.3,95l6.7,5.2v1.9l-6.7-5.2V95z M183.3,98.8
		l6.7,5.2v1.8l-6.7-5.1V98.8z M190,109.5l-6.7-5.1v-1.9l6.7,5.2V109.5z"/>
	<path class="st4" d="M194.3,127.1l6.5,5.1h-2.3l-6.6-5.1H194.3z M199.1,127.1l6.6,5.1h-2.3l-6.6-5.1H199.1z M203.9,127.1l6.6,5.1
		h-2.4l-6.6-5.1H203.9z M201.5,84.6l6.7,5.2v1.8l-6.7-5.2V84.6z M208.2,95.3l-6.7-5.2v-1.8l6.7,5.1V95.3z M201.5,92l4.3,3.3h-2.5
		l-1.9-1.4V92z M208.2,112v1.8l-6.7-5.2v-1.8L208.2,112z M205.8,115.6l-4.3-3.3v-1.8l6.7,5.1H205.8z M201.5,114.2l1.8,1.4h-1.8
		V114.2z M204.6,83.3l6.7,5.1h-2.4l-6.6-5.1H204.6z M206.4,106.8l6.7,5.1h-2.5l-6.6-5.1H206.4z M208.6,127.1l6.6,5.1h-2.3l-6.6-5.1
		H208.6z M209.5,83.3l6.7,5.1h-2.5l-6.5-5.1H209.5z M211.2,106.8l6.6,5.1h-2.4l-6.7-5.1H211.2z M213.5,127.1l6.5,5.1h-2.3l-6.6-5.1
		H213.5z M214.3,83.3l6.6,5.1h-2.4l-6.7-5.1H214.3z M216,106.8l6.6,5.1h-2.3l-6.6-5.1H216z M218.4,127.1l6.5,5.1h-2.4l-6.6-5.1
		H218.4z M219.1,83.3l6.7,5.1h-2.4l-6.7-5.1H219.1z M218.1,97.2l6.7,5.2v1.9l-6.7-5.2V97.2z M218.1,101l6.7,5.2v1.8l-6.7-5.2V101z
		 M218.1,104.7l6.7,5.2v1.8l-6.7-5.2V104.7z M227.3,132.2l-6.5-5.1h1.1v-1l6.7,5.2v0.9H227.3z M221.3,73.7l6.7,5.2v1.9l-6.7-5.2
		V73.7z M221.3,77.4l6.7,5.2v1.9l-6.7-5.2V77.4z M221.3,81.1l6.7,5.2v1.9l-6.7-5.2V81.1z M221.9,118.8l6.7,5.1v1.9l-6.7-5.2V118.8z
		 M221.9,122.4l6.7,5.2v1.8l-6.7-5.2V122.4z"/>
	<path class="st4" d="M225,83.3h1.6l6.6,5.1h-1.6L225,83.3z M235.5,88.4l-6.5-5.1h2.4l4.1,3.2V88.4z M235.5,84.7l-1.7-1.4h1.7V84.7z
		 M237.9,127.1h2.3l6.5,5.1h-2.3L237.9,127.1z M245,127.1l6.5,5.1h-2.5l-6.5-5.1H245z M247.5,125.3l6.7,5.2v1.7H254l-6.6-5.1h0.1
		V125.3z M247.5,84.6l6.7,5.2v1.8l-6.7-5.1V84.6z M247.5,88.3l6.7,5.2v1.8l-6.7-5.1V88.3z M247.5,92l6.7,5.2V99l-6.7-5.2V92z
		 M247.5,95.7l6.7,5.1v1.9l-6.7-5.2V95.7z M247.5,99.4l6.7,5.1v1.9l-6.7-5.2V99.4z M247.5,103.1l6.7,5.2v1.9l-6.7-5.2V103.1z
		 M247.5,106.8l6.7,5.2v1.8l-6.7-5.1V106.8z M247.5,110.5l6.7,5.2v1.8l-6.7-5.2V110.5z M247.5,114.2l6.7,5.2v1.8l-6.7-5.2V114.2z
		 M247.5,117.9l6.7,5.1v1.9l-6.7-5.2V117.9z M247.5,121.7l6.7,5.1v1.9l-6.7-5.2V121.7z M250.6,83.3l6.5,5.1h-2.4l-6.5-5.1H250.6z
		 M255.4,83.3l6.6,5.1h-2.4l-6.6-5.1H255.4z M260.1,83.3l6.7,5.1h-2.4l-6.6-5.1H260.1z M267.1,78.9v0.5l-6.7-5.2v-0.5L267.1,78.9z
		 M260.4,76l6.7,5.2v1.9l-6.7-5.2V76z M260.4,79.7l6.7,5.2v1.8l-6.7-5.2V79.7z"/>
	<path class="st4" d="M262.1,83.3h1.6l6.6,5.1h-1.6L262.1,83.3z M272.6,88.4l-6.5-5.1h2.4l4.1,3.2V88.4z M272.6,84.7l-1.7-1.4h1.7
		V84.7z M275,127.1h2.3l6.5,5.1h-2.3L275,127.1z M282.1,127.1l6.5,5.1h-2.5l-6.5-5.1H282.1z M284.6,125.3l6.7,5.2v1.7h-0.2l-6.6-5.1
		h0.1V125.3z M284.6,84.6l6.7,5.2v1.8l-6.7-5.1V84.6z M284.6,88.3l6.7,5.2v1.8l-6.7-5.1V88.3z M284.6,92l6.7,5.2V99l-6.7-5.2V92z
		 M284.6,95.7l6.7,5.1v1.9l-6.7-5.2V95.7z M284.6,99.4l6.7,5.1v1.9l-6.7-5.2V99.4z M284.6,103.1l6.7,5.2v1.9l-6.7-5.2V103.1z
		 M284.6,106.8l6.7,5.2v1.8l-6.7-5.1V106.8z M284.6,110.5l6.7,5.2v1.8l-6.7-5.2V110.5z M284.6,114.2l6.7,5.2v1.8l-6.7-5.2V114.2z
		 M284.6,117.9l6.7,5.1v1.9l-6.7-5.2V117.9z M284.6,121.7l6.7,5.1v1.9l-6.7-5.2V121.7z M287.7,83.3l6.5,5.1h-2.4l-6.5-5.1H287.7z
		 M292.5,83.3l6.6,5.1h-2.4l-6.6-5.1H292.5z M297.2,83.3l6.7,5.1h-2.4l-6.6-5.1H297.2z M304.2,78.9v0.5l-6.7-5.2v-0.5L304.2,78.9z
		 M297.5,76l6.7,5.2v1.9l-6.7-5.2V76z M297.5,79.7l6.7,5.2v1.8l-6.7-5.2V79.7z"/>
	<path class="st4" d="M305,127.1l6.5,5.1h-2.3l-6.6-5.1H305z M309.8,127.1l6.6,5.1H314l-6.6-5.1H309.8z M314.6,127.1l6.6,5.1h-2.4
		l-6.6-5.1H314.6z M312.3,84.6l6.7,5.2v1.8l-6.7-5.2V84.6z M318.9,95.3l-6.7-5.2v-1.8l6.7,5.1V95.3z M312.3,92l4.3,3.3h-2.5
		l-1.9-1.4V92z M318.9,112v1.8l-6.7-5.2v-1.8L318.9,112z M316.5,115.6l-4.3-3.3v-1.8l6.7,5.1H316.5z M312.3,114.2l1.8,1.4h-1.8
		V114.2z M315.4,83.3l6.7,5.1h-2.4l-6.6-5.1H315.4z M317.1,106.8l6.7,5.1h-2.5l-6.6-5.1H317.1z M319.4,127.1l6.6,5.1h-2.3l-6.6-5.1
		H319.4z M320.2,83.3l6.7,5.1h-2.5l-6.5-5.1H320.2z M321.9,106.8l6.6,5.1h-2.4l-6.7-5.1H321.9z M324.2,127.1l6.5,5.1h-2.3l-6.6-5.1
		H324.2z M325,83.3l6.6,5.1h-2.4l-6.7-5.1H325z M326.7,106.8l6.6,5.1h-2.3l-6.6-5.1H326.7z M329.1,127.1l6.5,5.1h-2.4l-6.6-5.1
		H329.1z M329.8,83.3l6.7,5.1H334l-6.7-5.1H329.8z M328.8,97.2l6.7,5.2v1.9l-6.7-5.2V97.2z M328.8,101l6.7,5.2v1.8l-6.7-5.2V101z
		 M328.8,104.7l6.7,5.2v1.8l-6.7-5.2V104.7z M338,132.2l-6.5-5.1h1.1v-1l6.7,5.2v0.9H338z M332,73.7l6.7,5.2v1.9l-6.7-5.2V73.7z
		 M332,77.4l6.7,5.2v1.9l-6.7-5.2V77.4z M332,81.1l6.7,5.2v1.9L332,83V81.1z M332.6,118.8l6.7,5.1v1.9l-6.7-5.2V118.8z M332.6,122.4
		l6.7,5.2v1.8l-6.7-5.2V122.4z"/>
	<path class="st4" d="M338.4,125.5c1.2,0.6,2.7,1.1,4.3,1.6l5.9,4.5c-2.8-1-5.5-2.5-8.1-4.4l-0.8-0.6L338.4,125.5z M348.7,128
		l6.6,5.1c-0.9-0.1-1.9-0.2-2.8-0.4l-6.5-5C346.9,127.9,347.7,128,348.7,128z M347.2,86l6.7,5.2c0,0.4,0,0.8,0.1,1.1
		C349.4,90.2,347.3,88.3,347.2,86z M347.5,84.5c0.2-0.4,0.6-0.8,1.1-1.1l6.7,5.2c-0.5,0.3-0.8,0.8-1,1.1L347.5,84.5z M348.8,103.9
		c3,1.7,4.9,2.7,6.1,4.2l-2.6-1.4L348.8,103.9z M352.2,82.5l6.6,5.1c-0.8,0.1-1.5,0.2-2,0.3l-6.7-5.2
		C350.7,82.6,351.4,82.6,352.2,82.5z M357.8,133.1l-6.7-5.2c0.7,0,1.4-0.1,2.1-0.2l6.7,5.1C359.2,133,358.4,133.1,357.8,133.1z
		 M361.3,87.8l-6.5-5c1.4,0.3,3,0.9,4.4,1.6l5.6,4.3C363.7,88.2,362.4,87.9,361.3,87.8z M361.8,132.6l-6.6-5.1l1.8-0.5l6.7,5.2
		L361.8,132.6z M365.3,131.6l-6.6-5.2c0.5-0.2,1-0.5,1.4-0.7l6.7,5.2L365.3,131.6z M368.1,130l-6.6-5.2l1.2-0.9l6.7,5.2
		C369,129.5,368.5,129.8,368.1,130z M363,83.4l6.7,5.2l-0.5,1.5l-6.7-5.2L363,83.4z M364,80.6l6.7,5.2l-0.5,1.4l-6.7-5.2L364,80.6z
		 M370.4,128.1l-6.7-5.2l0.9-1l6.8,5.1L370.4,128.1z M372.1,107.1l-6.2-4.8c-0.5-0.9-1.3-1.9-2-2.7l3.4,2.5
		C369.2,103.5,370.8,105.2,372.1,107.1z M365,77.6l6.7,5.2l-0.5,1.5l-6.7-5.2L365,77.6z M372.2,125.8l-6.7-5.2
		c0.2-0.4,0.4-0.8,0.7-1.3l6.7,5.2C372.7,124.9,372.5,125.3,372.2,125.8z M373.5,123.1l-6.7-5.2c0.1-0.4,0.3-0.9,0.5-1.4l6.7,5.2
		C373.9,122.1,373.7,122.6,373.5,123.1z M374.4,112.6l-6.6-5.1c-0.2-0.8-0.3-1.6-0.6-2.4l6.5,5.1C374,111,374.2,111.7,374.4,112.6z
		 M374.4,120l-6.7-5.2c0.1-0.5,0.2-1,0.2-1.7l6.7,5.2C374.5,118.9,374.5,119.5,374.4,120z M374.6,114.6c0.1,0.7,0.1,1.3,0.1,1.9
		l-6.7-5.1c0-0.6,0-1.2-0.1-1.9L374.6,114.6z"/>
</g>
<g>
	<path class="st5" d="M73.7,118.1H52.8l-2.8,7.9H39.8l19.5-53.1h8L86.8,126H76.4L73.7,118.1z M79.5,122.2H81L63.8,76.8h-1.1
		l-17.2,45.4H47l3-8h26.5L79.5,122.2z M63.3,79L76,112.9H50.5L63.3,79z M56,109h14.5l-7.2-20.6L56,109z"/>
	<path class="st5" d="M111,72c14.5,0,25.9,11.4,25.9,27.5c0,13.1-7.5,23.1-18.1,26.3c4.3,2.7,9.9,4.9,17.2,4.9
		c1.1,0,2.3-0.1,3.5-0.2c0,3.4-2.3,6.4-3,9.9c-11.9,0-21-6.1-30.1-13.9c-12.2-2-21.2-12.7-21.2-27C85.1,83.4,96.5,72,111,72z
		 M108.8,122.8c5.9,7.3,14.1,12.1,24.7,13.2c0.1-0.5,0.5-0.9,0.6-1.4c-9.8-0.7-18.1-5.2-23.6-11.7h0.4c12.1,0,21.5-9.8,21.5-23.4
		c0-13.7-9.4-23.4-21.5-23.4s-21.5,9.8-21.5,23.4C89.5,112.3,97.7,121.7,108.8,122.8z M111,77.4c11.2,0,20.1,9,20.1,22.1
		c0,13-8.9,22.1-20.1,22.1c-11.2,0-20.1-9-20.1-22.1C90.8,86.4,99.7,77.4,111,77.4z M126.8,99.4c0-10.7-6.6-18-15.8-18
		s-15.8,7.4-15.8,18c0,10.8,7.3,18,15.8,18S126.8,110.2,126.8,99.4z"/>
	<path class="st5" d="M141.7,103.5V72.9h9.9v31.3c0,9.3,5,13.3,10.3,13.3c5.4,0,10.3-3.9,10.3-13.3V72.9h9.9v30.6
		c0,16.1-9.2,23.4-20.3,23.4S141.7,119.6,141.7,103.5z M178,103.5V76.7h-1.4v27.5c0,11.9-6.8,17.3-14.6,17.3s-14.6-5.4-14.6-17.3
		V76.7H146v26.8c0,13.5,7.2,19.3,16,19.3S178,117,178,103.5z"/>
	<path class="st5" d="M190.6,72.9h29.6v9.3h-19.7v14.3h16.5v9.3h-16.5v11.1h20.3v9.3h-30.3V72.9z M194.9,122h22.2v-1.4h-20.8v-19h17
		v-1.4h-17V78.2h20.2v-1.4h-21.6V122z"/>
	<path class="st5" d="M236.6,82.2h-12.9v-9.3h35.7v9.3h-12.9V126h-9.9V82.2z M240.8,122.2h1.4v-44h13.4v-1.4h-28.1v1.4h13.4V122.2z"
		/>
	<path class="st5" d="M273.6,82.2h-12.9v-9.3h35.7v9.3h-12.9V126h-9.9V82.2z M277.9,122.2h1.4v-44h13.4v-1.4h-28.1v1.4h13.4V122.2z"
		/>
	<path class="st5" d="M301.3,72.9h29.6v9.3h-19.7v14.3h16.5v9.3h-16.5v11.1h20.3v9.3h-30.3V72.9z M305.6,122h22.2v-1.4h-20.8v-19h17
		v-1.4h-17V78.2h20.2v-1.4h-21.6V122z"/>
	<path class="st5" d="M336.1,86.4c0-8.6,5.5-14.4,15.5-14.4c4.6,0,9.4,1.4,13,3.7l-3,8.6c-2.5-1.8-5.8-3-9-3c-4.3,0-6.4,1.7-6.4,4.5
		c0,3,1.8,4.7,8.3,8c8.4,4.2,12.5,8.9,12.5,16.9c0,9.8-6.1,16.1-17.4,16.1c-5,0-10.4-1.6-14.5-4.3l3-8.8c3.1,2.4,7.3,3.7,11,3.7
		c4.8,0,7.8-2.1,7.8-5.8c0-3.9-2.5-6.1-8.4-8.9C338.9,98.2,336.1,93.3,336.1,86.4z M361.3,111.5c0,6.2-3.9,10-11.8,10
		c-3,0-6.8-0.8-9.6-2.5l-0.5,1.4c2.8,1.7,6.8,2.5,10.1,2.5c8.2,0,13.1-3.9,13.1-11.4c0-6.8-3.1-9.8-10.3-13.5
		c-8.3-4.2-10.5-7.2-10.5-11.6c0-5.5,3.7-9,10-9c2.8,0,5.4,0.5,7.8,1.7l0.4-1.3c-2.2-1.1-5.3-1.8-8.3-1.8c-6.7,0-11.2,3.8-11.2,10.4
		c0,5.7,3.2,8.9,10.8,12.7C358.4,102.7,361.3,105.5,361.3,111.5z"/>
</g>
<g>
	<path class="st6" d="M108,46h7c2,0,3.5,0.6,4.5,1.6c0.9,0.9,1.3,2.1,1.3,3.5v0c0,2.5-1.3,4-3.3,4.8l3.8,5.5h-4l-3.3-4.9h0h-2.6v4.9
		H108V46z M114.8,53.5c1.6,0,2.6-0.9,2.6-2.2v0c0-1.5-1-2.2-2.7-2.2h-3.4v4.4H114.8z"/>
	<path class="st6" d="M132.8,46h3.4v15.4h-3.4V46z"/>
	<path class="st6" d="M147.5,46h3.7l4,10.8l4-10.8h3.7l-6.2,15.5h-3L147.5,46z"/>
	<path class="st6" d="M174.1,46h11.6v3h-8.3v3.1h7.3v3h-7.3v3.2h8.4v3h-11.7V46z"/>
	<path class="st6" d="M197.7,46h7c2,0,3.5,0.6,4.5,1.6c0.9,0.9,1.3,2.1,1.3,3.5v0c0,2.5-1.3,4-3.3,4.8l3.8,5.5h-4l-3.3-4.9h0h-2.6
		v4.9h-3.4V46z M204.5,53.5c1.6,0,2.6-0.9,2.6-2.2v0c0-1.5-1-2.2-2.7-2.2h-3.4v4.4H204.5z"/>
	<path class="st6" d="M221.3,59.2l2-2.4c1.4,1.1,2.8,1.9,4.6,1.9c1.4,0,2.2-0.5,2.2-1.5v0c0-0.9-0.5-1.3-3.1-2
		c-3.1-0.8-5.1-1.7-5.1-4.7v0c0-2.8,2.2-4.6,5.4-4.6c2.2,0,4.2,0.7,5.7,2l-1.8,2.6c-1.4-0.9-2.7-1.5-4-1.5c-1.3,0-2,0.6-2,1.3v0
		c0,1,0.7,1.3,3.3,2c3.1,0.8,4.9,1.9,4.9,4.6v0c0,3.1-2.3,4.8-5.7,4.8C225.5,61.6,223.2,60.8,221.3,59.2z"/>
	<path class="st6" d="M245.4,46h3.4v15.4h-3.4V46z"/>
	<path class="st6" d="M261.4,46h6c4.8,0,8.2,3.3,8.2,7.7v0c0,4.3-3.3,7.7-8.2,7.7h-6V46z M267.4,58.4c2.8,0,4.6-1.9,4.6-4.6v0
		c0-2.7-1.9-4.6-4.6-4.6h-2.6v9.3H267.4z"/>
	<path class="st6" d="M287.4,46H299v3h-8.3v3.1h7.3v3h-7.3v3.2h8.4v3h-11.7V46z"/>
</g>
<path class="st3" d="M-86.7-1792.8"/>
<path class="st3" d="M-86.7,2207.2"/>
<path class="st3" d="M-86.7-1792.8"/>
<path class="st3" d="M-86.7,2207.2"/>
<path class="st3" d="M-86.7-1792.8"/>
<path class="st3" d="M-86.7,2207.2"/>
<path class="st3" d="M-86.7-1792.8"/>
<path class="st3" d="M-86.7,2207.2"/>
<path class="st3" d="M-86.7-1792.8"/>
<path class="st3" d="M-86.7,2207.2"/>
<path class="st3" d="M-86.7-1792.8"/>
<path class="st3" d="M-86.7,2207.2"/>
<path class="st3" d="M-86.7-1792.8"/>
<path class="st3" d="M-86.7,2207.2"/>
<path class="st3" d="M-86.7-1792.8"/>
<path class="st3" d="M-86.7,2207.2"/>
<path class="st3" d="M-86.7-1792.8"/>
<path class="st3" d="M-86.7,2207.2"/>
<path class="st3" d="M-86.7,2207.2"/>
<path class="st3" d="M-86.7-1792.8"/>
</svg>
