<?xml version="1.0" encoding="utf-8"?>
<!-- Generator: Adobe Illustrator 17.1.0, SVG Export Plug-In . SVG Version: 6.00 Build 0)  -->
<!DOCTYPE svg PUBLIC "-//W3C//DTD SVG 1.1//EN" "http://www.w3.org/Graphics/SVG/1.1/DTD/svg11.dtd">
<svg version="1.1" id="Layer_1" xmlns="http://www.w3.org/2000/svg" xmlns:xlink="http://www.w3.org/1999/xlink" x="0px" y="0px"
	 viewBox="0 0 281.4 137.5" style="enable-background:new 0 0 281.4 137.5;" xml:space="preserve">
<style type="text/css">
	.st0{fill:#EA5A49;}
	.st1{fill:#206082;}
</style>
<g>
	<path class="st0" d="M24.8,19.5c-0.5-6.4-3.6-8.3-6.2-8.3c-3.8,0-5.8,2.7-5.8,7.4c0,12.8,23.8,18.9,23.8,39.2
		C36.5,70.1,28.9,77,18,77C7.1,77,0.9,67.4,0.4,56.2l11.1-1.8c0.5,7.6,3.2,11.3,7,11.3c4.1,0,6.8-2.4,6.8-6.8
		c0-14.8-23.8-18.8-23.8-40.2C1.6,6.7,8.2,0,19.7,0c9.5,0,15.2,7.6,16.2,18.2L24.8,19.5z"/>
	<path class="st0" d="M44,1h11.7v56.5c0,5.5,2,8.2,6.2,8.2c4.2,0,6.2-2.7,6.2-8.2V1h11.7v56c0,12.9-6.8,19.9-17.9,19.9
		C50.8,77,44,69.9,44,57.1V1z"/>
	<path class="st0" d="M136.6,1v74.9h-10.2V17.4h-0.2l-10.6,58.5H110L99.5,17.4h-0.2v58.5H89.1V1h15.4l8.3,43.8h0.2L121.2,1H136.6z"
		/>
	<path class="st0" d="M192.9,1v74.9h-10.2V17.4h-0.2L172,75.9h-5.7l-10.6-58.5h-0.2v58.5h-10.2V1h15.4l8.3,43.8h0.2L177.5,1H192.9z"
		/>
	<path class="st0" d="M202.2,75.9V1h31.3v11.2h-19.6v19.3H229v11.2h-15.1v22h20.9v11.2H202.2z"/>
	<path class="st0" d="M254.5,75.9h-11.7V1h16.4C272.3,1,279,7.2,279,23.1c0,12-4.2,16.9-8.2,18.9l9.9,33.9h-11.9l-8.3-31
		c-1.5,0.2-4,0.3-6,0.3V75.9z M254.5,34.6h4.1c6.3,0,8.7-2.6,8.7-11.5c0-8.9-2.4-11.5-8.7-11.5h-4.1V34.6z"/>
</g>
<g>
	<path class="st1" d="M17.7,95.6c-0.3-4.7-2.6-6-4.5-6c-2.7,0-4.3,2-4.3,5.4c0,9.3,17.3,13.8,17.3,28.6c0,9-5.5,14-13.5,14
		c-7.9,0-12.4-7-12.8-15.1l8.1-1.3c0.3,5.5,2.3,8.2,5.1,8.2c3,0,4.9-1.7,4.9-5c0-10.8-17.3-13.7-17.3-29.3c0-8.7,4.8-13.6,13.2-13.6
		c6.9,0,11.1,5.5,11.8,13.2L17.7,95.6z"/>
	<path class="st1" d="M46.5,82.1h7l5.8,34.8h0.1l4.7-34.8h8l-8.7,54.6h-7.1l-6.2-36.1H50l-5.8,36.1H37l-9.4-54.6h8l5.2,34.8H41
		L46.5,82.1z"/>
	<path class="st1" d="M77.8,136.7V82.1h8.5v54.6H77.8z"/>
	<path class="st1" d="M128.9,82.1v54.6h-7.4V94.1h-0.1l-7.7,42.6h-4.1l-7.7-42.6h-0.1v42.6h-7.4V82.1h11.2l6,31.9h0.1l6-31.9H128.9z
		"/>
	<path class="st1" d="M167.2,100.3v-4.2c0-4.6-1.9-6.6-4.1-6.6c-3.4,0-4.5,2-4.5,6v27.7c0,4.1,1.1,6,4.5,6c3.1,0,4.1-2,4.1-5.5v-6.6
		h8.5v6.3c0,7.7-4.1,14-12.6,14c-8.9,0-13.1-6.3-13.1-14V95.3c0-7.7,4.1-14,13.1-14c8.5,0,12.6,6.8,12.6,15v4H167.2z"/>
	<path class="st1" d="M188.3,136.7H180l9.1-54.6h10.6l9.1,54.6h-8.2l-1.5-12.1h-9.3L188.3,136.7z M191,116.4h6.9L194.5,93h-0.1
		L191,116.4z"/>
	<path class="st1" d="M247,82.1v54.6h-7.4V94.1h-0.1l-7.7,42.6h-4.1L220,94.1h-0.1v42.6h-7.4V82.1h11.2l6,31.9h0.1l6-31.9H247z"/>
	<path class="st1" d="M253.8,136.7V82.1h12.2c10.5,0,15.4,4.5,15.4,16.1s-4.9,16.1-15.4,16.1h-3.7v22.4H253.8z M262.3,106.6h3.3
		c5.6,0,7.3-1.9,7.3-8.4s-1.7-8.4-7.3-8.4h-3.3V106.6z"/>
</g>
</svg>
