<?xml version="1.0" encoding="utf-8"?>
<!-- Generator: Adobe Illustrator 17.1.0, SVG Export Plug-In . SVG Version: 6.00 Build 0)  -->
<!DOCTYPE svg PUBLIC "-//W3C//DTD SVG 1.1//EN" "http://www.w3.org/Graphics/SVG/1.1/DTD/svg11.dtd">
<svg version="1.1" id="Layer_1" xmlns="http://www.w3.org/2000/svg" xmlns:xlink="http://www.w3.org/1999/xlink" x="0px" y="0px"
	 viewBox="0 0 315.7 107.8" style="enable-background:new 0 0 315.7 107.8;" xml:space="preserve">
<style type="text/css">
	.st0{fill:#00BCB4;}
	.st1{fill:#E27C00;}
	.st2{fill:#509ED6;}
	.st3{fill:#4792CE;}
	.st4{fill:#3071B8;}
</style>
<path class="st0" d="M33.6,56.7l-4.9,23.2c-0.2,0.9-0.3,1.6-0.3,2.2c0,1.9,0.9,2.9,2.8,2.9c2.7,0,4.5-3,5.5-6.4h2.9
	c-3.9,11.1-10,12.6-13.7,12.6c-3.8,0-6.3-2.2-6.7-6.3c-2.1,3.1-5.3,6.3-10.2,6.3c-4.6,0-9.1-2.9-9.1-11C0,71,5.7,56.4,17.5,56.4
	c3.9,0,5.5,1.5,5.5,3.5v0.5l0.8-3.6H33.6z M10.1,79.3c0,5.3,2.2,5.3,3.4,5.3c2,0,4.8-2,5.7-6l3.3-15.4c0-0.8-0.6-2.6-2.8-2.6
	C13.8,60.6,10.1,72.9,10.1,79.3z"/>
<path class="st0" d="M69.4,56.7l-10.4,48.7l-10.3,2.5l4.3-20.4c-2,2.1-4.6,3.8-8.1,3.8c-4.6,0-9.1-2.9-9.1-11
	c0-9.2,5.7-23.9,17.5-23.9c3.9,0,5.5,1.5,5.5,3.6l0.7-3.3H69.4z M46,79.3c0,5.3,2.2,5.3,3.4,5.3c1.8,0,4.2-1.6,5.3-4.8l3.6-16.8
	c-0.1-0.8-0.8-2.3-2.8-2.3C49.7,60.6,46,72.9,46,79.3z"/>
<path class="st0" d="M101.2,56.7l-4.9,23.2c-0.2,0.9-0.3,1.6-0.3,2.2c0,1.9,0.9,2.5,2.8,2.5c2.7,0,4.5-2.6,5.5-6h2.9
	c-3.9,11.1-10,12.6-13.7,12.6c-3.9,0-6.3-2.3-6.8-6.5c-3.4,5.6-7.2,6.5-10.1,6.5c-4.1,0-7.3-2.5-7.3-8.2c0-1.3,0.2-2.8,0.5-4.4
	l4.6-21.9h9.8l-4.9,23.2c-0.1,0.7-0.2,1.3-0.2,1.9c0,1.6,0.5,2.8,2,2.8c2.7,0,4.4-2.6,5.5-6l4.6-21.9H101.2z"/>
<path class="st0" d="M136.9,56.7L132,79.9c-0.2,0.9-0.3,1.6-0.3,2.2c0,1.9,0.9,2.5,2.8,2.5c0.6,0,1-0.1,1.5-0.3
	c-1.8,4.8-3.1,6.9-6.8,6.9s-6.1-2.4-6.7-6.3c-2,3.1-5.3,6.3-10.2,6.3c-4.6,0-9.1-2.9-9.1-11c0-9.2,5.7-23.9,17.5-23.9
	c3.9,0,5.5,1.5,5.5,3.5v0.5l0.8-3.6H136.9z M113.3,79.3c0,5.3,2.2,5.3,3.4,5.3c2,0,4.8-2,5.7-6l3.3-15.4c0-0.8-0.6-2.6-2.8-2.6
	C117.1,60.6,113.3,72.9,113.3,79.3z"/>
<path class="st1" d="M180.9,79.9c-0.2,0.8-0.3,1.7-0.3,2.5c0,1.6,0.6,2.8,2.8,2.8c2.7,0,5.6-4,7.2-7h3.2
	c-3.1,3.7-9.3,12.5-14.6,12.5s-8.5-2.3-8.5-7.4c0-1.1,0.1-2.2,0.4-3.5l2.6-12.3c0.1-0.6,0.2-1.2,0.2-1.8c0-2.5-1.3-4-3.1-4
	c-1.5,0-2.7,0.4-4,1.2c0.2,0.8,0.3,1.6,0.3,2.4c0,0.5-0.1,1-0.1,1.4l-5,23.9h-9.9l4.9-23.2c0.1-0.6,0.2-1.2,0.2-1.8
	c0-2.5-1.3-4-3.1-4c-1.6,0-2.8,0.5-4.2,1.4L144,90.8h-9.8l7.2-34.1h9.8l-0.8,3.6c2.7-2,5.9-3.6,8.8-3.6c2.5,0,5.3,1.8,6.8,4.5
	c3-2.4,6.6-4.5,10-4.5c3.8,0,7.8,4,7.8,8.6c0,0.5-0.1,1-0.1,1.6L180.9,79.9z M213.6,66c0.4,0.4,1,0.6,2,0.6c3.2,0,4.6-2.3,7.2-3.3
	l0.3,1.4c-2.1,2.7-5.7,4.9-9.6,6c-1.3,13.7-8.7,20.5-15.5,20.5c-7.3,0-10.4-3.1-10.4-11.2c0-16.8,8.5-24,17.9-24
	C211.8,56,213.4,61.1,213.6,66z M208.3,71.4c-2,0-2.9-1.4-2.9-3.1c0-2,1.2-4.1,3-4.8c-0.2-2.3-1-3.5-2.9-3.5
	c-6.4,0-9.1,13.9-9.1,19.4c0,4.1,1.9,5.2,4.6,5.2C205.2,84.6,207.5,78,208.3,71.4z M234.8,45.9c0,0-1,4.6-2.3,10.8h4.1l-0.5,2.7
	h-4.1c-4.7,21.5-4.6,22.2-4.6,22.6c0,1.6,0.7,2.6,3.4,2.6s6.3-3.8,9-6h2.3c-3.1,3.1-10.8,12.2-16.2,12.2c-5.3,0-8.5-2.3-8.5-7.4
	c0-3.6,3.5-18.1,4.7-23.9h-2.3l0.5-2.7h2.3l2-9.4L234.8,45.9z M251.6,56.7l-4.9,23.2c-0.1,0.8-0.3,1.5-0.3,2.1
	c0,1.5,0.7,2.6,3.4,2.6s6.3-3.8,9-6h2.3c-3.1,3.1-10.8,12.2-16.2,12.2c-5.3,0-8.5-2.3-8.5-7.4c0-1,0.1-2.2,0.4-3.5l4.9-23.2H251.6z
	 M248.4,42.2c3,0,5.5,2.5,5.5,5.5c0,3-2.5,5.4-5.5,5.4c-3,0-5.4-2.4-5.4-5.4C243,44.7,245.4,42.2,248.4,42.2z M281.4,66
	c0.4,0.4,1,0.6,2,0.6c3.2,0,4.6-2.3,7.2-3.3l0.3,1.4c-2.1,2.7-5.7,4.9-9.6,6c-1.3,13.7-8.7,20.5-15.5,20.5
	c-7.3,0-10.4-3.1-10.4-11.2c0-16.8,8.5-24,17.9-24C279.7,56,281.3,61.1,281.4,66z M276.2,71.4c-2,0-2.9-1.4-2.9-3.1
	c0-2,1.2-4.1,3-4.8c-0.2-2.3-1-3.5-2.9-3.5c-6.4,0-9.1,13.9-9.1,19.4c0,4.1,1.9,5.2,4.6,5.2C273,84.6,275.4,78,276.2,71.4z
	 M308.6,90.8c-4.4,0-7-2.3-7-7.4c0-1.1,0.1-2.2,0.4-3.5l2.6-12.3c0.1-0.6,0.2-1.2,0.2-1.8c0-2.5-1.3-4-3.1-4c-1.6,0-2.9,0.5-4.3,1.4
	l-5.8,27.5h-9.8l7.2-34.1h9.8l-0.8,3.7c2.8-2,5.9-3.7,8.9-3.7c3.8,0,7.8,4,7.8,8.6c0,0.5-0.1,1-0.1,1.6c-0.3,2.3-3.3,14.3-3.3,15.8
	c0,1.2,0.5,2.1,2.5,2.1c0.5,0,1.2,0,1.8-0.2C313.8,90.4,310.9,90.8,308.6,90.8z"/>
<path class="st2" d="M115.7,14.8c0.1-0.2,0.1-0.4,0.2-0.6c2.7-3.9,6.1-7,10.9-8.2c3.4-0.9,6.9-0.9,10.2,0c2.9,0.7,5.7,1.6,8.4,2.8
	c3.2,1.4,6.3,3.2,9.4,5c3.8,2.2,7.7,4.4,11.8,6.2c2.5,1.1,5.1,1.8,7.9,1.7c5.6-0.3,9.6-3.9,10.3-9.4c0.2-1.6,0-3.2,0-4.9
	c2.1,1.8,3.3,3.9,4.1,6.3c1.2,3.4,1,6.8-0.1,10.1c-0.2,0.7-1.6,3.3-2.1,4c-2.1,3.5-5.3,5.8-9.2,6.9c-4.9,1.4-9.6,0.6-14.3-1.2
	c-3.6-1.4-6.8-3.4-9.9-5.5c-2.2-1.5-4.2-3.4-6.3-5.1c-4.5-3.8-9.1-7.6-14.8-9.6c-3.9-1.4-7.9-2.1-12-0.7
	C118.7,13.2,117.3,14,115.7,14.8z"/>
<path class="st3" d="M112.2,24.5c0.3-1.3,0.5-2.7,1.1-4c1.3-3,3.4-5,6.7-6c5.1-1.7,9.6-0.5,14.1,1.8c4.4,2.3,8.2,5.3,11.9,8.5
	c3.9,3.4,7.9,6.7,12.4,9.2c4.1,2.3,8.3,4.2,13.1,4.3c0.9,0,1.8-0.1,2.9-0.2c-0.2,0.3-0.3,0.5-0.5,0.7c-2.7,2.9-6,4.5-9.8,5.2
	c-6.3,1.1-12.3,0.2-17.6-3.4c-2.6-1.8-5-4.1-7.3-6.3c-3.1-3-5.8-6.3-9-9.1c-1.7-1.5-4-2.4-6.1-3.2c-1.9-0.8-4-1-6.1-0.6
	c-1.9,0.4-3.5,1.3-4.7,2.8c-0.2,0.2-0.4,0.4-0.6,0.6C112.5,24.6,112.4,24.5,112.2,24.5z"/>
<path class="st4" d="M151,44.7c-2,1.7-4.1,2.5-6.6,2.5c-2,0-3.8-0.5-5.6-1.5c-1.2-0.7-2.6-1.1-3.6-2c-1.4-1.1-2.6-2.5-3.8-3.8
	c-2.3-2.6-4.5-5.2-6.9-7.7c-1.2-1.2-2.5-2.4-4-3.2c-3.1-1.7-6.1-0.3-6.9,3.1c-0.2,0.9-0.4,1.9-0.6,3.1c-0.2-0.5-0.3-0.8-0.4-1.1
	c-0.8-3-0.7-5.9,0.9-8.5c1.5-2.3,3.8-3.2,6.4-2.9c3.5,0.3,6.6,1.9,9,4.3c3,3,5.7,6.4,8.7,9.5c2.9,3.1,5.8,6.1,10,7.4
	C148.7,44.3,149.8,44.4,151,44.7z"/>
<path class="st2" d="M172.3,17.4c0.3-0.9,0.6-1.6,0.7-2.3c0.2-2-0.9-3.4-2-4.9c-0.7-0.9-1.4-1.7-2-2.6c-1.2-1.9-1.2-4.2,0-5.8
	c1.6-2.1,4.4-2.5,6.7-0.8c3.1,2.2,4,5.4,3.4,9c-0.5,3.2-2,5.7-5.2,6.9C173.5,17.2,172.9,17.2,172.3,17.4z"/>
<path class="st2" d="M167.7,13.7c-1.5-0.2-3-0.5-4.4-0.6c-1.3-0.2-2.4-0.9-2.7-1.9c-0.3-1.1,0.4-2.3,1.6-2.5
	C165.1,8.1,168.1,11,167.7,13.7z"/>
</svg>
