<?xml version="1.0" encoding="utf-8"?>
<!-- Generator: Adobe Illustrator 17.1.0, SVG Export Plug-In . SVG Version: 6.00 Build 0)  -->
<!DOCTYPE svg PUBLIC "-//W3C//DTD SVG 1.1//EN" "http://www.w3.org/Graphics/SVG/1.1/DTD/svg11.dtd">
<svg version="1.1" id="Layer_1" xmlns="http://www.w3.org/2000/svg" xmlns:xlink="http://www.w3.org/1999/xlink" x="0px" y="0px"
	 viewBox="0 0 256.3 154.9" style="enable-background:new 0 0 256.3 154.9;" xml:space="preserve">
<style type="text/css">
	.st0{fill:#FFFFFF;}
	.st1{fill:none;}
	.st2{fill:#B8B09C;}
	.st3{fill:#6EDBD5;}
	.st4{fill:#0071CE;}
	.st5{fill:#00BCB4;}
	.st6{fill:#00ADD8;}
	.st7{fill:#E27C00;}
</style>
<path class="st0" d="M254.2,9.1c-1.5-1.7-3.8-2.7-6.1-2.7H8.3c-2.3,0-4.6,1-6.1,2.7c-1.5,1.7-2.3,4-2.1,6.4l10.4,107.3
	c0.4,4.2,3.8,8,7.9,8.9l103.8,22.8c1.3,0.3,3,0.5,4.8,0.5c1.8,0,3.5-0.2,4.8-0.5l105.6-23.3c4.1-0.9,7.5-4.7,7.9-8.8l11-106.8
	C256.5,13.2,255.8,10.8,254.2,9.1z"/>
<g>
	<g>
		<polygon class="st1" points="118.7,142.2 126.6,143.8 134.4,142.2 		"/>
		<polygon class="st1" points="204.9,127.4 204.9,123.1 48.3,123.1 48.3,127.4 49,127.5 204.1,127.5 		"/>
		<polygon class="st1" points="150.8,138.7 102.3,138.7 106.3,139.6 146.9,139.6 		"/>
		<polygon class="st1" points="142.6,140.5 110.5,140.5 114.4,141.3 138.7,141.3 		"/>
		<polygon class="st1" points="167.2,135.3 85.9,135.3 89.9,136.1 163.2,136.1 		"/>
		<polygon class="st1" points="175.4,133.6 77.7,133.6 81.7,134.4 171.4,134.4 		"/>
		<polygon class="st1" points="183.6,131.8 69.6,131.8 73.5,132.7 179.6,132.7 		"/>
		<polygon class="st1" points="159,137 94.1,137 98.1,137.8 155,137.8 		"/>
		<polygon class="st1" points="199.9,128.4 53.2,128.4 57.1,129.2 196,129.2 		"/>
		<polygon class="st1" points="191.7,130.1 61.4,130.1 65.3,131 187.8,131 		"/>
		<polygon class="st2" points="204.1,127.5 49,127.5 53.2,128.4 199.9,128.4 		"/>
		<polygon class="st2" points="196,129.2 57.1,129.2 61.4,130.1 191.7,130.1 		"/>
		<polygon class="st2" points="179.6,132.7 73.5,132.7 77.7,133.6 175.4,133.6 		"/>
		<polygon class="st2" points="187.8,131 65.3,131 69.6,131.8 183.6,131.8 		"/>
		<polygon class="st2" points="171.4,134.4 81.7,134.4 85.9,135.3 167.2,135.3 		"/>
		<polygon class="st2" points="163.2,136.1 89.9,136.1 94.1,137 159,137 		"/>
		<polygon class="st2" points="155,137.8 98.1,137.8 102.3,138.7 150.8,138.7 		"/>
		<polygon class="st2" points="146.9,139.6 106.3,139.6 110.5,140.5 142.6,140.5 		"/>
		<polygon class="st2" points="138.7,141.3 114.4,141.3 118.7,142.2 134.4,142.2 		"/>
	</g>
	<g>
		<path class="st3" d="M241.7,31c-7.8,0-14.7-2.2-18.9-5.7c-4.2,3.4-11.1,5.7-18.9,5.7c-7.8,0-14.7-2.2-18.9-5.7
			c-4.2,3.4-11.1,5.7-18.9,5.7c-7.8,0-14.7-2.2-18.9-5.7c-4.2,3.4-11.1,5.7-18.9,5.7c-7.8,0-14.7-2.2-18.9-5.7
			C104.9,28.8,98,31,90.2,31c-7.8,0-14.7-2.2-18.9-5.7C67,28.8,60.1,31,52.3,31c-7.8,0-14.7-2.2-18.9-5.7C29.1,28.8,22.2,31,14.4,31
			c-0.9,0-1.8,0-2.7-0.1l5.1,48.4h222.5l5.2-48.4C243.6,31,242.7,31,241.7,31z"/>
		<path class="st4" d="M237.8,94.6l4.7-44.2c-2.4-0.9-4.4-2-6.1-3.4c-4.2,3.4-11.1,5.7-18.9,5.7c-7.8,0-14.7-2.2-18.9-5.7
			c-4.2,3.4-11.1,5.7-18.9,5.7c-7.8,0-14.7-2.2-18.9-5.7c-4.2,3.4-11.1,5.7-18.9,5.7c-7.8,0-14.7-2.2-18.9-5.7
			c-4.2,3.4-11.1,5.7-18.9,5.7c-7.8,0-14.7-2.2-18.9-5.7c-4.2,3.4-11.1,5.7-18.9,5.7c-7.8,0-14.7-2.2-18.9-5.7
			c-4.2,3.4-11.1,5.7-18.9,5.7c-5.3,0-10.4-1.1-14.3-2.8l4.6,44.8H237.8z"/>
	</g>
	<path class="st5" d="M127,152.4c-1.5,0-3.1-0.1-4.3-0.4L18.9,129.2c-3-0.7-5.6-3.6-5.9-6.7L2.5,15.2C2.4,13.6,2.9,12,4,10.8
		C5,9.6,6.6,8.9,8.3,8.9h107.4v4.4H8.3c-0.4,0-0.8,0.1-1,0.4C7,14,6.9,14.4,7,14.8l10.4,107.3c0.1,1.2,1.3,2.5,2.4,2.8l103.8,22.8
		c1.8,0.4,4.9,0.4,6.7,0l105.6-23.3c1.1-0.3,2.4-1.6,2.5-2.8l11-106.8c0.1-0.5-0.1-0.8-0.3-1c-0.2-0.2-0.5-0.4-1-0.4H140.6V8.9
		h107.4c1.6,0,3.2,0.7,4.3,1.9s1.6,2.8,1.4,4.5l-11,106.8c-0.3,3.1-2.9,6-5.9,6.7L131.3,152C130,152.3,128.5,152.4,127,152.4z"/>
	<g>
		<path class="st4" d="M80.3,117.7c0,0.8-0.2,1.4-0.7,1.9c-0.5,0.5-1.1,0.9-1.9,1.2c-0.8,0.3-1.6,0.5-2.6,0.6
			c-0.9,0.1-1.9,0.2-2.8,0.2c-1.2,0-2.3-0.1-3.3-0.2c-1-0.2-2-0.4-2.8-0.7v0.5h-1.9v-3.8h1.9v1.4c0.6,0.3,1.5,0.6,2.6,0.8
			c1.1,0.2,2.3,0.3,3.6,0.3c1,0,1.9-0.1,2.6-0.2c0.7-0.1,1.3-0.3,1.8-0.5c0.5-0.2,0.8-0.4,1.1-0.7c0.2-0.3,0.3-0.5,0.3-0.8
			c0-0.6-0.2-1-0.7-1.3c-0.5-0.3-1.2-0.5-2-0.6l-6.2-0.6c-0.3,0-0.7-0.1-1.3-0.2c-0.5-0.1-1-0.3-1.5-0.6c-0.5-0.3-0.9-0.6-1.3-1.1
			c-0.4-0.5-0.5-1.1-0.5-1.8c0-0.8,0.2-1.4,0.7-1.9c0.5-0.5,1.1-0.9,1.8-1.2c0.7-0.3,1.6-0.5,2.5-0.6c0.9-0.1,1.9-0.2,2.8-0.2
			c1.1,0,2.1,0.1,3,0.2c1,0.2,1.8,0.4,2.6,0.6V108h1.9v3.8H78v-1.4c-0.6-0.3-1.4-0.6-2.3-0.8c-1-0.2-2.1-0.3-3.3-0.3
			c-1,0-1.9,0.1-2.6,0.2c-0.7,0.1-1.3,0.3-1.8,0.5c-0.5,0.2-0.8,0.4-1,0.7c-0.2,0.3-0.3,0.5-0.3,0.8c0,0.6,0.2,1,0.7,1.3
			c0.5,0.3,1.2,0.5,2,0.6l6.2,0.6c0.3,0,0.8,0.1,1.3,0.2c0.5,0.1,1,0.3,1.5,0.6c0.5,0.3,0.9,0.6,1.3,1.1
			C80.1,116.3,80.3,117,80.3,117.7z"/>
		<path class="st4" d="M96.2,108c0.7,0,1.4,0.1,2,0.4c0.6,0.2,1.2,0.6,1.7,1c0.5,0.4,0.8,0.9,1.1,1.5c0.3,0.6,0.4,1.2,0.4,1.8
			s-0.1,1.3-0.4,1.8c-0.3,0.6-0.6,1.1-1.1,1.5c-0.5,0.4-1,0.8-1.7,1c-0.6,0.2-1.3,0.4-2,0.4h-7.8v1.9h3.8v1.9h-9.5v-1.9h3.8v-9.5
			h-3.8V108H96.2z M96,115.6c0.5,0,0.9-0.1,1.3-0.2c0.4-0.2,0.8-0.4,1-0.6c0.3-0.3,0.5-0.6,0.7-0.9c0.2-0.3,0.3-0.7,0.3-1.1
			c0-0.4-0.1-0.8-0.3-1.1c-0.2-0.3-0.4-0.6-0.7-0.9c-0.3-0.3-0.6-0.5-1-0.6c-0.4-0.2-0.8-0.2-1.3-0.2h-7.7v5.7H96z"/>
		<path class="st4" d="M121.7,121.3h-18.9v-1.9h3.8v-9.5h-3.8V108h9.5v1.9h-3.8v9.5h11.4v-1.9h1.9V121.3z"/>
		<path class="st4" d="M128.3,119.4l5.5-9.5h-3.6V108h11.4v1.9h-3.7l5.5,9.5h3.9v1.9h-9.5v-1.9h3.3l-1-1.9h-8.4l-1.1,1.9h3.4v1.9
			h-9.5v-1.9H128.3z M138.9,115.6l-3.1-5.7l-3.2,5.7H138.9z"/>
		<path class="st4" d="M166,117.7c0,0.8-0.2,1.4-0.7,1.9c-0.5,0.5-1.1,0.9-1.9,1.2c-0.8,0.3-1.6,0.5-2.6,0.6
			c-0.9,0.1-1.9,0.2-2.8,0.2c-1.2,0-2.3-0.1-3.3-0.2c-1-0.2-2-0.4-2.8-0.7v0.5H150v-3.8h1.9v1.4c0.6,0.3,1.5,0.6,2.6,0.8
			c1.1,0.2,2.3,0.3,3.6,0.3c1,0,1.9-0.1,2.6-0.2c0.7-0.1,1.3-0.3,1.8-0.5c0.5-0.2,0.8-0.4,1.1-0.7c0.2-0.3,0.3-0.5,0.3-0.8
			c0-0.6-0.2-1-0.7-1.3c-0.5-0.3-1.2-0.5-2-0.6l-6.2-0.6c-0.3,0-0.7-0.1-1.3-0.2c-0.5-0.1-1-0.3-1.5-0.6c-0.5-0.3-0.9-0.6-1.3-1.1
			c-0.4-0.5-0.5-1.1-0.5-1.8c0-0.8,0.2-1.4,0.7-1.9c0.5-0.5,1.1-0.9,1.8-1.2c0.7-0.3,1.6-0.5,2.5-0.6c0.9-0.1,1.9-0.2,2.8-0.2
			c1.1,0,2.1,0.1,3,0.2c1,0.2,1.8,0.4,2.6,0.6V108h1.9v3.8h-1.9v-1.4c-0.6-0.3-1.4-0.6-2.3-0.8c-1-0.2-2.1-0.3-3.3-0.3
			c-1,0-1.9,0.1-2.6,0.2c-0.7,0.1-1.3,0.3-1.8,0.5c-0.5,0.2-0.8,0.4-1,0.7c-0.2,0.3-0.3,0.5-0.3,0.8c0,0.6,0.2,1,0.7,1.3
			s1.2,0.5,2,0.6l6.2,0.6c0.3,0,0.8,0.1,1.3,0.2c0.5,0.1,1,0.3,1.5,0.6c0.5,0.3,0.9,0.6,1.3,1.1C165.9,116.3,166,117,166,117.7z"/>
		<path class="st4" d="M187.3,119.4h3.8v1.9h-9.5v-1.9h3.8v-3.8h-11.4v3.8h3.8v1.9h-9.5v-1.9h3.8v-9.5h-3.8V108h9.5v1.9h-3.8v3.8
			h11.4v-3.8h-3.8V108h9.5v1.9h-3.8V119.4z"/>
	</g>
	<g>
		<polygon class="st2" points="53.4,107.4 54.8,111.6 59.3,111.6 55.6,114.3 57,118.5 53.4,115.9 49.8,118.5 51.2,114.3 47.5,111.6 
			52,111.6 		"/>
		<polygon class="st2" points="202.9,107.4 204.3,111.6 208.8,111.6 205.2,114.3 206.6,118.5 202.9,115.9 199.3,118.5 200.7,114.3 
			197.1,111.6 201.5,111.6 		"/>
	</g>
	<g>
		<g>
			<path class="st6" d="M36.9,101.7V39.6h9.7v62.1H36.9z"/>
			<path class="st6" d="M56.2,101.7V39.6h9L77,75.1h0.2V39.6h8.8v62.1h-8.4L65.1,62.9h-0.2v38.8H56.2z"/>
			<path class="st6" d="M93.6,101.7V39.6h9.7v52.8h15.2v9.3H93.6z"/>
			<path class="st6" d="M129,101.7h-9.4L130,39.6h12l10.4,62.1h-9.4L141.3,88h-10.6L129,101.7z M132.1,78.7h7.8L136.1,52h-0.2
				L132.1,78.7z"/>
			<path class="st6" d="M156.9,101.7V39.6h9l11.8,35.5h0.2V39.6h8.8v62.1h-8.4l-12.4-38.8h-0.2v38.8H156.9z"/>
			<path class="st6" d="M194.8,39.6h14.4c10,0,15.3,6,15.3,18.8V83c0,12.7-5.3,18.8-15.3,18.8h-14.4V39.6z M204.5,93h3.4
				c5.2,0,7-2.2,7-8.7V57.1c0-6.5-1.8-8.7-7-8.7h-3.4V93z"/>
		</g>
		<g>
			<g>
				<path class="st7" d="M34.3,99.5V37.4H44v62.1H34.3z"/>
				<path class="st0" d="M44.3,99.8H33.9V37.1h10.4V99.8z M34.6,99.2h9V37.7h-9V99.2z"/>
			</g>
			<g>
				<path class="st7" d="M53.5,99.5V37.4h9l11.8,35.5h0.2V37.4h8.8v62.1h-8.4L62.4,60.7h-0.2v38.8H53.5z"/>
				<path class="st0" d="M83.6,99.8h-9L62.6,62.4v37.5h-9.4V37.1h9.6l11.4,34.3V37.1h9.4V99.8z M75,99.2h7.9V37.7h-8.1v35.5h-0.7
					L62.3,37.7h-8.4v61.4h8.1V60.4h0.7l0.1,0.2L75,99.2z"/>
			</g>
			<g>
				<path class="st7" d="M91,99.5V37.4h9.7v52.8h15.2v9.3H91z"/>
				<path class="st0" d="M116.3,99.8H90.6V37.1H101v52.8h15.2V99.8z M91.3,99.2h24.3v-8.6h-15.2V37.7h-9V99.2z"/>
			</g>
			<g>
				<path class="st7" d="M126.3,99.5h-9.4l10.4-62.1h12l10.4,62.1h-9.4l-1.7-13.8H128L126.3,99.5z M129.5,76.5h7.8l-3.8-26.7h-0.2
					L129.5,76.5z"/>
				<path class="st0" d="M150.2,99.8h-10.1l-1.7-13.8h-10l-1.7,13.8h-10.1l10.5-62.8h12.6l0,0.3L150.2,99.8z M140.7,99.2h8.7
					l-10.3-61.4h-11.5l-10.3,61.4h8.7l1.7-13.8H139L140.7,99.2z M137.7,76.8h-8.6l3.9-27.3h0.7L137.7,76.8z M129.8,76.1h7.1
					l-3.5-24.5L129.8,76.1z"/>
			</g>
			<g>
				<path class="st7" d="M154.2,99.5V37.4h9L175,72.9h0.2V37.4h8.8v62.1h-8.4l-12.4-38.8H163v38.8H154.2z"/>
				<path class="st0" d="M184.3,99.8h-9l-0.1-0.2l-11.9-37.2v37.5h-9.4V37.1h9.6l11.4,34.3V37.1h9.4V99.8z M175.8,99.2h7.9V37.7
					h-8.1v35.5h-0.7L163,37.7h-8.4v61.4h8.1V60.4h0.7l0.1,0.2L175.8,99.2z"/>
			</g>
			<g>
				<path class="st7" d="M192.2,37.4h14.4c10,0,15.3,6,15.3,18.8v24.6c0,12.7-5.3,18.8-15.3,18.8h-14.4V37.4z M201.9,90.7h3.4
					c5.2,0,7-2.2,7-8.7V54.9c0-6.5-1.8-8.7-7-8.7h-3.4V90.7z"/>
				<path class="st0" d="M206.6,99.8h-14.7V37.1h14.7c10.4,0,15.7,6.4,15.7,19.1v24.6C222.2,93.4,216.9,99.8,206.6,99.8z
					 M192.5,99.2h14.1c10,0,15-6.2,15-18.4V56.2c0-12.2-5-18.4-15-18.4h-14.1V99.2z M205.2,91.1h-3.7V45.8h3.7c5.4,0,7.3,2.4,7.3,9
					V82C212.5,88.7,210.6,91.1,205.2,91.1z M202.2,90.4h3c5,0,6.6-2,6.6-8.4V54.9c0-6.3-1.6-8.4-6.6-8.4h-3V90.4z"/>
			</g>
		</g>
	</g>
	<path class="st4" d="M144.8,1.4C143.3,0,141.6,0,141.5,0c-1.5,0-2.8,0.5-3.7,1.5c-1.9,2-1.8,5.3-1.8,5.4v7.3h-15.8l0-3.3h13.4V9.1
		h-13.4l0-2.2c0,0-0.1-2.5,1.2-3.9c0.5-0.5,1.2-0.8,2.1-0.8c0,0,1,0,1.8,0.8c0.7,0.7,1.1,1.9,1.2,3.4l2.2,0
		c-0.1-2.2-0.7-3.9-1.9-5.1C125.3,0,123.6,0,123.4,0c-1.5,0-2.8,0.5-3.7,1.5c-1.9,2-1.8,5.3-1.8,5.4v19h2.2l0-5H136v7h2.2l0-21
		c0,0-0.1-2.5,1.2-3.8c0.5-0.5,1.2-0.8,2.1-0.8c0,0,1,0,1.8,0.8c0.7,0.7,1.1,1.9,1.2,3.4l2.2,0C146.6,4.2,146,2.5,144.8,1.4z
		 M120.1,19.1l0-3.2H136v3.2H120.1z"/>
	<path class="st7" d="M126.5,144.4c-0.4-0.1-0.6-0.4-0.5-0.8l0,0c0.1-0.4,0.4-0.6,0.8-0.5l0,0c0.4,0.1,0.6,0.4,0.5,0.8l0,0
		c-0.1,0.3-0.3,0.5-0.6,0.5l0,0C126.6,144.4,126.5,144.4,126.5,144.4z M128.6,143.5c-0.1-0.4,0.2-0.7,0.5-0.8l0,0
		c0.4-0.1,0.7,0.2,0.8,0.5l0,0c0.1,0.4-0.2,0.7-0.5,0.8l0,0c0,0-0.1,0-0.1,0l0,0C128.9,144,128.6,143.8,128.6,143.5z M123.9,143.9
		c-0.4-0.1-0.6-0.4-0.5-0.8l0,0c0.1-0.4,0.4-0.6,0.8-0.5l0,0c0.4,0.1,0.6,0.4,0.5,0.8l0,0c-0.1,0.3-0.3,0.5-0.6,0.5l0,0
		C124,143.9,123.9,143.9,123.9,143.9z M131.2,143c-0.1-0.4,0.2-0.7,0.5-0.8l0,0c0.4-0.1,0.7,0.2,0.8,0.5l0,0
		c0.1,0.4-0.2,0.7-0.5,0.8l0,0c0,0-0.1,0-0.1,0l0,0C131.5,143.5,131.2,143.3,131.2,143z M121.3,143.3c-0.4-0.1-0.6-0.4-0.5-0.8l0,0
		c0.1-0.4,0.4-0.6,0.8-0.5l0,0c0.4,0.1,0.6,0.4,0.5,0.8l0,0c-0.1,0.3-0.4,0.5-0.7,0.5l0,0C121.3,143.3,121.3,143.3,121.3,143.3z
		 M133.8,142.4c-0.1-0.4,0.2-0.7,0.5-0.8l0,0c0.4-0.1,0.7,0.2,0.8,0.5l0,0c0.1,0.4-0.2,0.7-0.5,0.8l0,0c0,0-0.1,0-0.1,0l0,0
		C134.1,142.9,133.9,142.7,133.8,142.4z M118.6,142.8c-0.4-0.1-0.6-0.4-0.5-0.8l0,0c0.1-0.4,0.4-0.6,0.8-0.5l0,0
		c0.4,0.1,0.6,0.4,0.5,0.8l0,0c-0.1,0.3-0.4,0.5-0.7,0.5l0,0C118.7,142.8,118.7,142.8,118.6,142.8z M136.4,141.9
		c-0.1-0.4,0.2-0.7,0.5-0.8l0,0c0.4-0.1,0.7,0.1,0.8,0.5l0,0c0.1,0.4-0.2,0.7-0.5,0.8l0,0c0,0-0.1,0-0.1,0l0,0
		C136.7,142.4,136.5,142.2,136.4,141.9z M116,142.2c-0.4-0.1-0.6-0.4-0.5-0.8l0,0c0.1-0.4,0.4-0.6,0.8-0.5l0,0
		c0.4,0.1,0.6,0.4,0.5,0.8l0,0c-0.1,0.3-0.4,0.5-0.7,0.5l0,0C116.1,142.2,116.1,142.2,116,142.2z M139,141.3
		c-0.1-0.4,0.2-0.7,0.5-0.8l0,0c0.4-0.1,0.7,0.2,0.8,0.5l0,0c0.1,0.4-0.2,0.7-0.5,0.8l0,0c0,0-0.1,0-0.1,0l0,0
		C139.4,141.9,139.1,141.6,139,141.3z M113.4,141.7c-0.4-0.1-0.6-0.4-0.5-0.8l0,0c0.1-0.4,0.4-0.6,0.8-0.5l0,0
		c0.4,0.1,0.6,0.4,0.5,0.8l0,0c-0.1,0.3-0.4,0.5-0.7,0.5l0,0C113.5,141.7,113.5,141.7,113.4,141.7z M141.6,140.8
		c-0.1-0.4,0.2-0.7,0.5-0.8l0,0c0.4-0.1,0.7,0.2,0.8,0.5l0,0c0.1,0.4-0.2,0.7-0.5,0.8l0,0c0,0-0.1,0-0.1,0l0,0
		C142,141.3,141.7,141.1,141.6,140.8z M110.8,141.1c-0.4-0.1-0.6-0.4-0.5-0.8l0,0c0.1-0.4,0.4-0.6,0.8-0.5l0,0
		c0.4,0.1,0.6,0.4,0.5,0.8l0,0c-0.1,0.3-0.4,0.5-0.7,0.5l0,0C110.9,141.2,110.9,141.1,110.8,141.1z M144.2,140.2
		c-0.1-0.4,0.2-0.7,0.5-0.8l0,0c0.4-0.1,0.7,0.2,0.8,0.5l0,0c0.1,0.4-0.2,0.7-0.5,0.8l0,0c0,0-0.1,0-0.1,0l0,0
		C144.6,140.8,144.3,140.5,144.2,140.2z M108.2,140.6c-0.4-0.1-0.6-0.4-0.5-0.8l0,0c0.1-0.4,0.4-0.6,0.8-0.5l0,0
		c0.4,0.1,0.6,0.4,0.5,0.8l0,0c-0.1,0.3-0.3,0.5-0.7,0.5l0,0C108.3,140.6,108.2,140.6,108.2,140.6z M146.8,139.7
		c-0.1-0.4,0.2-0.7,0.5-0.8l0,0c0.4-0.1,0.7,0.2,0.8,0.5l0,0c0.1,0.4-0.2,0.7-0.5,0.8l0,0c0,0-0.1,0-0.1,0l0,0
		C147.2,140.2,146.9,140,146.8,139.7z M105.6,140c-0.4-0.1-0.6-0.4-0.5-0.8l0,0c0.1-0.4,0.4-0.6,0.8-0.5l0,0
		c0.4,0.1,0.6,0.4,0.5,0.8l0,0c-0.1,0.3-0.4,0.5-0.7,0.5l0,0C105.7,140.1,105.6,140.1,105.6,140z M149.4,139.1
		c-0.1-0.4,0.2-0.7,0.5-0.8l0,0c0.4-0.1,0.7,0.1,0.8,0.5l0,0c0.1,0.4-0.1,0.7-0.5,0.8l0,0c0,0-0.1,0-0.1,0l0,0
		C149.8,139.7,149.5,139.4,149.4,139.1z M103,139.5c-0.4-0.1-0.6-0.4-0.5-0.8l0,0c0.1-0.4,0.4-0.6,0.8-0.5l0,0
		c0.4,0.1,0.6,0.4,0.5,0.8l0,0c-0.1,0.3-0.3,0.5-0.6,0.5l0,0C103.1,139.5,103,139.5,103,139.5z M152.1,138.6
		c-0.1-0.4,0.2-0.7,0.5-0.8l0,0c0.4-0.1,0.7,0.2,0.8,0.5l0,0c0.1,0.4-0.2,0.7-0.5,0.8l0,0c-0.1,0-0.1,0-0.1,0l0,0
		C152.4,139.1,152.1,138.9,152.1,138.6z M100.4,139c-0.4-0.1-0.6-0.4-0.5-0.8l0,0c0.1-0.4,0.4-0.6,0.8-0.5l0,0
		c0.4,0.1,0.6,0.4,0.5,0.8l0,0c-0.1,0.3-0.4,0.5-0.7,0.5l0,0C100.5,139,100.4,139,100.4,139z M154.7,138c-0.1-0.4,0.2-0.7,0.5-0.8
		l0,0c0.3-0.1,0.7,0.1,0.8,0.5l0,0c0.1,0.4-0.2,0.7-0.5,0.8l0,0c0,0-0.1,0-0.1,0l0,0C155,138.6,154.7,138.4,154.7,138z M97.8,138.4
		c-0.4-0.1-0.6-0.4-0.5-0.8l0,0c0.1-0.4,0.4-0.6,0.8-0.5l0,0c0.4,0.1,0.6,0.4,0.5,0.8l0,0c-0.1,0.3-0.3,0.5-0.6,0.5l0,0
		C97.9,138.4,97.8,138.4,97.8,138.4z M157.3,137.5c-0.1-0.4,0.2-0.7,0.5-0.8l0,0c0.4-0.1,0.7,0.2,0.8,0.5l0,0
		c0.1,0.4-0.2,0.7-0.5,0.8l0,0c0,0-0.1,0-0.1,0l0,0C157.6,138,157.3,137.8,157.3,137.5z M95.2,137.9c-0.4-0.1-0.6-0.4-0.5-0.8l0,0
		c0.1-0.4,0.4-0.6,0.8-0.5l0,0c0.4,0.1,0.6,0.4,0.5,0.8l0,0c-0.1,0.3-0.3,0.5-0.7,0.5l0,0C95.2,137.9,95.2,137.9,95.2,137.9z
		 M159.9,136.9c-0.1-0.4,0.2-0.7,0.5-0.8l0,0c0.4-0.1,0.7,0.2,0.8,0.5l0,0c0.1,0.4-0.2,0.7-0.5,0.8l0,0c-0.1,0-0.1,0-0.1,0l0,0
		C160.2,137.5,160,137.3,159.9,136.9z M92.5,137.3c-0.4-0.1-0.6-0.4-0.5-0.8l0,0c0.1-0.4,0.4-0.6,0.8-0.5l0,0
		c0.4,0.1,0.6,0.4,0.5,0.8l0,0c-0.1,0.3-0.4,0.5-0.7,0.5l0,0C92.6,137.3,92.6,137.3,92.5,137.3z M162.5,136.4
		c-0.1-0.4,0.2-0.7,0.5-0.8l0,0c0.4-0.1,0.7,0.2,0.8,0.5l0,0c0.1,0.4-0.1,0.7-0.5,0.8l0,0c0,0-0.1,0-0.1,0l0,0
		C162.8,136.9,162.6,136.7,162.5,136.4z M89.9,136.8c-0.4-0.1-0.6-0.4-0.5-0.8l0,0c0.1-0.4,0.4-0.6,0.8-0.5l0,0
		c0.4,0.1,0.6,0.4,0.5,0.8l0,0c-0.1,0.3-0.3,0.5-0.6,0.5l0,0C90,136.8,90,136.8,89.9,136.8z M165.1,135.8c-0.1-0.4,0.1-0.7,0.5-0.8
		l0,0c0.4-0.1,0.7,0.2,0.8,0.5l0,0c0.1,0.4-0.2,0.7-0.5,0.8l0,0c0,0-0.1,0-0.1,0l0,0C165.4,136.4,165.2,136.2,165.1,135.8z
		 M87.3,136.2c-0.4-0.1-0.6-0.4-0.5-0.8l0,0c0.1-0.4,0.4-0.6,0.8-0.5l0,0c0.4,0.1,0.6,0.4,0.5,0.8l0,0c-0.1,0.3-0.3,0.5-0.6,0.5l0,0
		C87.4,136.2,87.4,136.2,87.3,136.2z M167.7,135.3c-0.1-0.4,0.2-0.7,0.5-0.8l0,0c0.4-0.1,0.7,0.1,0.8,0.5l0,0
		c0.1,0.4-0.2,0.7-0.5,0.8l0,0c0,0-0.1,0-0.1,0l0,0C168.1,135.8,167.8,135.6,167.7,135.3z M84.7,135.7c-0.4-0.1-0.6-0.4-0.5-0.8l0,0
		c0.1-0.4,0.4-0.6,0.8-0.5l0,0c0.4,0.1,0.6,0.4,0.5,0.8l0,0c-0.1,0.3-0.3,0.5-0.6,0.5l0,0C84.8,135.7,84.8,135.7,84.7,135.7z
		 M170.3,134.8c-0.1-0.4,0.2-0.7,0.5-0.8l0,0c0.4-0.1,0.7,0.2,0.8,0.5l0,0c0.1,0.4-0.1,0.7-0.5,0.8l0,0c0,0-0.1,0-0.1,0l0,0
		C170.7,135.3,170.4,135.1,170.3,134.8z M82.1,135.1c-0.4-0.1-0.6-0.4-0.5-0.8l0,0c0.1-0.4,0.4-0.6,0.8-0.5l0,0
		c0.4,0.1,0.6,0.4,0.5,0.8l0,0c-0.1,0.3-0.3,0.5-0.6,0.5l0,0C82.2,135.2,82.1,135.2,82.1,135.1z M172.9,134.2
		c-0.1-0.4,0.1-0.7,0.5-0.8l0,0c0.4-0.1,0.7,0.2,0.8,0.5l0,0c0.1,0.4-0.2,0.7-0.5,0.8l0,0c0,0-0.1,0-0.1,0l0,0
		C173.3,134.7,173,134.5,172.9,134.2z M79.5,134.6c-0.4-0.1-0.6-0.4-0.5-0.8l0,0c0.1-0.4,0.4-0.6,0.8-0.5l0,0
		c0.4,0.1,0.6,0.4,0.5,0.8l0,0c-0.1,0.3-0.3,0.5-0.6,0.5l0,0C79.6,134.6,79.5,134.6,79.5,134.6z M175.5,133.7
		c-0.1-0.4,0.2-0.7,0.5-0.8l0,0c0.4-0.1,0.7,0.2,0.8,0.5l0,0c0.1,0.4-0.2,0.7-0.5,0.8l0,0c0,0-0.1,0-0.1,0l0,0
		C175.9,134.2,175.6,134,175.5,133.7z M76.9,134.1c-0.4-0.1-0.6-0.4-0.5-0.8l0,0c0.1-0.4,0.4-0.6,0.8-0.5l0,0
		c0.4,0.1,0.6,0.4,0.5,0.8l0,0c-0.1,0.3-0.3,0.5-0.7,0.5l0,0C77,134.1,76.9,134.1,76.9,134.1z M178.2,133.1
		c-0.1-0.4,0.2-0.7,0.5-0.8l0,0c0.4-0.1,0.7,0.2,0.8,0.5l0,0c0.1,0.4-0.1,0.7-0.5,0.8l0,0c0,0-0.1,0-0.1,0l0,0
		C178.5,133.6,178.2,133.4,178.2,133.1z M74.3,133.5c-0.4-0.1-0.6-0.4-0.5-0.8l0,0c0.1-0.4,0.4-0.6,0.8-0.5l0,0
		c0.4,0.1,0.6,0.4,0.5,0.8l0,0c-0.1,0.3-0.3,0.5-0.6,0.5l0,0C74.4,133.5,74.3,133.5,74.3,133.5z M180.8,132.6
		c-0.1-0.4,0.1-0.7,0.5-0.8l0,0c0.4-0.1,0.7,0.2,0.8,0.5l0,0c0.1,0.4-0.2,0.7-0.5,0.8l0,0c-0.1,0-0.1,0-0.1,0l0,0
		C181.1,133.1,180.8,132.9,180.8,132.6z M71.7,133c-0.4-0.1-0.6-0.4-0.5-0.8l0,0c0.1-0.4,0.4-0.6,0.8-0.5l0,0
		c0.4,0.1,0.6,0.4,0.5,0.8l0,0c-0.1,0.3-0.3,0.5-0.6,0.5l0,0C71.8,133,71.7,133,71.7,133z M183.4,132c-0.1-0.4,0.2-0.7,0.5-0.8l0,0
		c0.4-0.1,0.7,0.2,0.8,0.5l0,0c0.1,0.4-0.2,0.7-0.5,0.8l0,0c0,0-0.1,0-0.1,0l0,0C183.7,132.5,183.4,132.3,183.4,132z M69,132.4
		c-0.4-0.1-0.6-0.4-0.5-0.8l0,0c0.1-0.4,0.4-0.6,0.8-0.5l0,0c0.4,0.1,0.6,0.4,0.5,0.8l0,0c-0.1,0.3-0.3,0.5-0.6,0.5l0,0
		C69.1,132.4,69.1,132.4,69,132.4z M186,131.5c-0.1-0.4,0.2-0.7,0.5-0.8l0,0c0.4-0.1,0.7,0.2,0.8,0.5l0,0c0.1,0.4-0.1,0.7-0.5,0.8
		l0,0c0,0-0.1,0-0.1,0l0,0C186.3,132,186,131.8,186,131.5z M66.4,131.9c-0.4-0.1-0.6-0.4-0.5-0.8l0,0c0.1-0.4,0.4-0.6,0.8-0.5l0,0
		c0.4,0.1,0.6,0.4,0.5,0.8l0,0c-0.1,0.3-0.3,0.5-0.6,0.5l0,0C66.5,131.9,66.5,131.9,66.4,131.9z M188.6,130.9
		c-0.1-0.4,0.1-0.7,0.5-0.8l0,0c0.4-0.1,0.7,0.1,0.8,0.5l0,0c0.1,0.4-0.2,0.7-0.5,0.8l0,0c-0.1,0-0.1,0-0.1,0l0,0
		C188.9,131.5,188.7,131.2,188.6,130.9z M63.8,131.3c-0.4-0.1-0.6-0.4-0.5-0.8l0,0c0.1-0.4,0.4-0.6,0.8-0.5l0,0
		c0.4,0.1,0.6,0.4,0.5,0.8l0,0c-0.1,0.3-0.3,0.5-0.6,0.5l0,0C63.9,131.3,63.9,131.3,63.8,131.3z M191.2,130.4
		c-0.1-0.4,0.2-0.7,0.5-0.8l0,0c0.4-0.1,0.7,0.2,0.8,0.5l0,0c0.1,0.4-0.1,0.7-0.5,0.8l0,0c0,0-0.1,0-0.1,0l0,0
		C191.5,130.9,191.3,130.7,191.2,130.4z M61.2,130.8c-0.4-0.1-0.6-0.4-0.5-0.8l0,0c0.1-0.4,0.4-0.6,0.8-0.5l0,0
		c0.4,0.1,0.6,0.4,0.5,0.8l0,0c-0.1,0.3-0.3,0.5-0.6,0.5l0,0C61.3,130.8,61.3,130.8,61.2,130.8z M193.8,129.8
		c-0.1-0.4,0.1-0.7,0.5-0.8l0,0c0.4-0.1,0.7,0.2,0.8,0.5l0,0c0.1,0.4-0.2,0.7-0.5,0.8l0,0c0,0-0.1,0-0.1,0l0,0
		C194.2,130.4,193.9,130.1,193.8,129.8z M58.6,130.2c-0.4-0.1-0.6-0.4-0.5-0.8l0,0c0.1-0.4,0.4-0.6,0.8-0.5l0,0
		c0.4,0.1,0.6,0.4,0.5,0.8l0,0c-0.1,0.3-0.3,0.5-0.7,0.5l0,0C58.7,130.3,58.7,130.2,58.6,130.2z M196.4,129.3
		c-0.1-0.4,0.1-0.7,0.5-0.8l0,0c0.4-0.1,0.7,0.2,0.8,0.5l0,0c0.1,0.4-0.2,0.7-0.5,0.8l0,0c0,0-0.1,0-0.1,0l0,0
		C196.8,129.8,196.5,129.6,196.4,129.3z M56,129.7c-0.4-0.1-0.6-0.4-0.5-0.8l0,0c0.1-0.4,0.4-0.6,0.8-0.5l0,0
		c0.4,0.1,0.6,0.4,0.5,0.8l0,0c-0.1,0.3-0.3,0.5-0.6,0.5l0,0C56.1,129.7,56,129.7,56,129.7z M199,128.7c-0.1-0.4,0.2-0.7,0.5-0.8
		l0,0c0.4-0.1,0.7,0.2,0.8,0.5l0,0c0.1,0.4-0.1,0.7-0.5,0.8l0,0c0,0-0.1,0-0.1,0l0,0C199.4,129.3,199.1,129,199,128.7z M53.4,129.1
		c-0.4-0.1-0.6-0.4-0.5-0.8l0,0c0.1-0.4,0.4-0.6,0.8-0.5l0,0c0.4,0.1,0.6,0.4,0.5,0.8l0,0c-0.1,0.3-0.3,0.5-0.6,0.5l0,0
		C53.5,129.2,53.4,129.2,53.4,129.1z M201.6,128.2c-0.1-0.4,0.1-0.7,0.5-0.8l0,0c0.4-0.1,0.7,0.2,0.8,0.5l0,0
		c0.1,0.4-0.2,0.7-0.5,0.8l0,0c0,0-0.1,0-0.1,0l0,0C202,128.7,201.7,128.5,201.6,128.2z M50.8,128.6c-0.4-0.1-0.6-0.4-0.5-0.8l0,0
		c0.1-0.4,0.4-0.6,0.8-0.5l0,0c0.4,0.1,0.6,0.4,0.5,0.8l0,0c-0.1,0.3-0.3,0.5-0.6,0.5l0,0C50.9,128.6,50.8,128.6,50.8,128.6z
		 M204.3,127.6c-0.1-0.4,0.2-0.7,0.5-0.8l0,0c0.4-0.1,0.7,0.2,0.8,0.5l0,0c0.1,0.4-0.2,0.7-0.5,0.8l0,0c0,0-0.1,0-0.1,0l0,0
		C204.6,128.2,204.3,128,204.3,127.6z M48.2,128.1c-0.4-0.1-0.6-0.4-0.5-0.8l0,0c0.1-0.4,0.4-0.6,0.8-0.5l0,0
		c0.4,0.1,0.6,0.4,0.5,0.8l0,0c-0.1,0.3-0.3,0.5-0.7,0.5l0,0C48.3,128.1,48.2,128.1,48.2,128.1z M206.9,127.1
		c-0.1-0.4,0.2-0.7,0.5-0.8l0,0c0.4-0.1,0.7,0.1,0.8,0.5l0,0c0.1,0.4-0.1,0.7-0.5,0.8l0,0c0,0-0.1,0-0.1,0l0,0
		C207.2,127.6,206.9,127.4,206.9,127.1z M45.6,127.5c-0.4-0.1-0.6-0.4-0.5-0.8l0,0c0.1-0.4,0.4-0.6,0.8-0.5l0,0
		c0.4,0.1,0.6,0.4,0.5,0.8l0,0c-0.1,0.3-0.3,0.5-0.6,0.5l0,0C45.6,127.5,45.6,127.5,45.6,127.5z M209.5,126.5
		c-0.1-0.4,0.1-0.7,0.5-0.8l0,0c0.4-0.1,0.7,0.1,0.8,0.5l0,0c0.1,0.4-0.2,0.7-0.5,0.8l0,0c-0.1,0-0.1,0-0.1,0l0,0
		C209.8,127.1,209.5,126.9,209.5,126.5z M42.9,127c-0.4-0.1-0.6-0.4-0.5-0.8l0,0c0.1-0.4,0.4-0.6,0.8-0.5l0,0
		c0.4,0.1,0.6,0.4,0.5,0.8l0,0c-0.1,0.3-0.3,0.5-0.6,0.5l0,0C43,127,43,127,42.9,127z M212.1,126c-0.1-0.4,0.2-0.7,0.5-0.8l0,0
		c0.4-0.1,0.7,0.2,0.8,0.5l0,0c0.1,0.4-0.2,0.7-0.5,0.8l0,0c0,0-0.1,0-0.1,0l0,0C212.4,126.5,212.1,126.3,212.1,126z M40.3,126.4
		c-0.4-0.1-0.6-0.4-0.5-0.8l0,0c0.1-0.4,0.4-0.6,0.8-0.5l0,0c0.4,0.1,0.6,0.4,0.5,0.8l0,0c-0.1,0.3-0.4,0.5-0.7,0.5l0,0
		C40.4,126.4,40.4,126.4,40.3,126.4z M214.7,125.4c-0.1-0.4,0.2-0.7,0.5-0.8l0,0c0.4-0.1,0.7,0.2,0.8,0.5l0,0
		c0.1,0.4-0.1,0.7-0.5,0.8l0,0c0,0-0.1,0-0.1,0l0,0C215,126,214.8,125.8,214.7,125.4z M37.7,125.9c-0.4-0.1-0.6-0.4-0.5-0.8l0,0
		c0.1-0.4,0.4-0.6,0.8-0.5l0,0c0.4,0.1,0.6,0.4,0.5,0.8l0,0c-0.1,0.3-0.3,0.5-0.7,0.5l0,0C37.8,125.9,37.8,125.9,37.7,125.9z
		 M217.3,124.9c-0.1-0.4,0.2-0.7,0.5-0.8l0,0c0.4-0.1,0.7,0.2,0.8,0.5l0,0c0.1,0.4-0.2,0.7-0.5,0.8l0,0c0,0-0.1,0-0.1,0l0,0
		C217.6,125.4,217.4,125.2,217.3,124.9z M35.1,125.3c-0.4-0.1-0.6-0.4-0.5-0.8l0,0c0.1-0.4,0.4-0.6,0.8-0.5l0,0
		c0.4,0.1,0.6,0.4,0.5,0.8l0,0c-0.1,0.3-0.4,0.5-0.7,0.5l0,0C35.2,125.3,35.2,125.3,35.1,125.3z M219.9,124.4
		c-0.1-0.4,0.2-0.7,0.5-0.8l0,0c0.4-0.1,0.7,0.2,0.8,0.5l0,0c0.1,0.4-0.1,0.7-0.5,0.8l0,0c0,0-0.1,0-0.1,0l0,0
		C220.3,124.9,220,124.7,219.9,124.4z M32.5,124.8c-0.4-0.1-0.6-0.4-0.5-0.8l0,0c0.1-0.4,0.4-0.6,0.8-0.5l0,0
		c0.4,0.1,0.6,0.4,0.5,0.8l0,0c-0.1,0.3-0.4,0.5-0.6,0.5l0,0C32.6,124.8,32.5,124.8,32.5,124.8z M222.5,123.8
		c-0.1-0.4,0.2-0.7,0.5-0.8l0,0c0.4-0.1,0.7,0.2,0.8,0.5l0,0c0.1,0.4-0.2,0.7-0.5,0.8l0,0c0,0-0.1,0-0.1,0l0,0
		C222.9,124.3,222.6,124.1,222.5,123.8z M29.9,124.2c-0.4-0.1-0.6-0.4-0.5-0.8l0,0c0.1-0.4,0.4-0.6,0.8-0.5l0,0
		c0.4,0.1,0.6,0.4,0.5,0.8l0,0c-0.1,0.3-0.3,0.5-0.7,0.5l0,0C30,124.3,29.9,124.3,29.9,124.2z M225.1,123.3
		c-0.1-0.4,0.2-0.7,0.5-0.8l0,0c0.4-0.1,0.7,0.2,0.8,0.5l0,0c0.1,0.4-0.2,0.7-0.5,0.8l0,0c0,0-0.1,0-0.1,0l0,0
		C225.5,123.8,225.2,123.6,225.1,123.3z M27.3,123.7c-0.4-0.1-0.6-0.4-0.5-0.8l0,0c0.1-0.4,0.4-0.6,0.8-0.5l0,0
		c0.4,0.1,0.6,0.4,0.5,0.8l0,0c-0.1,0.3-0.4,0.5-0.7,0.5l0,0C27.4,123.7,27.3,123.7,27.3,123.7z M227.7,122.7
		c-0.1-0.4,0.2-0.7,0.5-0.8l0,0c0.4-0.1,0.7,0.1,0.8,0.5l0,0c0.1,0.4-0.2,0.7-0.5,0.8l0,0c0,0-0.1,0-0.1,0l0,0
		C228.1,123.2,227.8,123,227.7,122.7z M24.7,123.2c-0.4-0.1-0.6-0.4-0.5-0.8l0,0c0.1-0.4,0.4-0.6,0.8-0.5l0,0
		c0.4,0.1,0.6,0.4,0.5,0.8l0,0c-0.1,0.3-0.4,0.5-0.7,0.5l0,0C24.8,123.2,24.7,123.2,24.7,123.2z M230.3,122.2
		c-0.1-0.4,0.2-0.7,0.5-0.8l0,0c0.4-0.1,0.7,0.1,0.8,0.5l0,0c0.1,0.4-0.2,0.7-0.5,0.8l0,0c0,0-0.1,0-0.1,0l0,0
		C230.7,122.7,230.4,122.5,230.3,122.2z M21.9,122.1c-0.3-0.2-0.3-0.6-0.1-0.9l0,0c0.2-0.3,0.6-0.3,0.9-0.1v0
		c0.3,0.2,0.3,0.6,0.1,0.9l0,0c-0.1,0.2-0.3,0.3-0.5,0.3l0,0C22.2,122.2,22.1,122.2,21.9,122.1z M233,121.6
		c-0.2-0.3-0.1-0.7,0.2-0.9l0,0c0.3-0.2,0.7-0.1,0.9,0.1l0,0c0.2,0.3,0.1,0.7-0.2,0.9l0,0c0,0,0,0,0,0l0,0c-0.1,0.1-0.2,0.1-0.4,0.1
		l0,0C233.3,121.8,233.1,121.7,233,121.6z M20.2,119.6c-0.1-0.3,0.1-0.7,0.4-0.8l0,0c0.3-0.1,0.7,0.1,0.8,0.4l0,0
		c0.1,0.4-0.1,0.7-0.4,0.8l0,0c-0.1,0-0.1,0-0.2,0l0,0C20.6,120.1,20.3,119.9,20.2,119.6z M234.8,119.6c-0.4-0.1-0.6-0.5-0.5-0.8
		l0,0c0.1-0.4,0.5-0.6,0.8-0.5l0,0c0.4,0.1,0.6,0.5,0.5,0.8l0,0c-0.1,0.3-0.3,0.5-0.6,0.5l0,0C234.9,119.7,234.8,119.6,234.8,119.6z
		 M19.8,116.8c0-0.4,0.2-0.7,0.6-0.7l0,0c0.4,0,0.7,0.2,0.7,0.6l0,0c0,0.4-0.2,0.7-0.6,0.7l0,0c0,0-0.1,0-0.1,0l0,0
		C20.2,117.4,19.9,117.2,19.8,116.8z M235.2,117c-0.4,0-0.6-0.4-0.6-0.7l0,0c0-0.4,0.4-0.6,0.7-0.6l0,0c0.4,0,0.6,0.4,0.6,0.7l0,0
		C235.9,116.8,235.6,117,235.2,117L235.2,117C235.2,117,235.2,117,235.2,117z M19.6,114.2c0-0.4,0.2-0.7,0.6-0.7l0,0
		c0.4,0,0.7,0.2,0.7,0.6l0,0c0,0.4-0.2,0.7-0.6,0.7l0,0c0,0,0,0-0.1,0l0,0C19.9,114.8,19.6,114.5,19.6,114.2z M235.5,114.4
		c-0.4,0-0.6-0.4-0.6-0.7l0,0c0-0.4,0.4-0.6,0.7-0.6l0,0c0.4,0,0.6,0.4,0.6,0.7l0,0C236.2,114.1,235.9,114.4,235.5,114.4
		L235.5,114.4C235.5,114.4,235.5,114.4,235.5,114.4z M19.3,111.5c0-0.4,0.2-0.7,0.6-0.7l0,0c0.4,0,0.7,0.2,0.7,0.6l0,0
		c0,0.4-0.2,0.7-0.6,0.7l0,0c0,0,0,0-0.1,0l0,0C19.6,112.1,19.3,111.9,19.3,111.5z M235.8,111.7c-0.4,0-0.6-0.4-0.6-0.7l0,0
		c0-0.4,0.4-0.6,0.7-0.6l0,0c0.4,0,0.6,0.4,0.6,0.7l0,0C236.5,111.5,236.2,111.7,235.8,111.7L235.8,111.7
		C235.8,111.7,235.8,111.7,235.8,111.7z M19,108.9c0-0.4,0.2-0.7,0.6-0.7l0,0c0.4,0,0.7,0.2,0.7,0.6l0,0c0,0.4-0.2,0.7-0.6,0.7l0,0
		c0,0,0,0-0.1,0l0,0C19.3,109.5,19.1,109.2,19,108.9z M236.1,109c-0.4,0-0.6-0.4-0.6-0.7l0,0c0-0.4,0.4-0.6,0.7-0.6l0,0
		c0.4,0,0.6,0.4,0.6,0.7l0,0C236.8,108.8,236.5,109.1,236.1,109L236.1,109C236.1,109.1,236.1,109.1,236.1,109z M18.7,106.2
		c0-0.4,0.2-0.7,0.6-0.7l0,0c0.4,0,0.7,0.2,0.7,0.6l0,0c0,0.4-0.2,0.7-0.6,0.7l0,0c0,0,0,0-0.1,0l0,0
		C19.1,106.8,18.8,106.6,18.7,106.2z M236.3,106.4c-0.4,0-0.6-0.4-0.6-0.7l0,0c0-0.4,0.4-0.6,0.7-0.6l0,0c0.4,0,0.6,0.4,0.6,0.7l0,0
		C237,106.1,236.8,106.4,236.3,106.4L236.3,106.4C236.4,106.4,236.4,106.4,236.3,106.4z M18.5,103.6c0-0.4,0.2-0.7,0.6-0.7l0,0
		c0.4,0,0.7,0.2,0.7,0.6l0,0c0,0.4-0.2,0.7-0.6,0.7l0,0c0,0-0.1,0-0.1,0l0,0C18.8,104.2,18.5,103.9,18.5,103.6z M236.6,103.7
		c-0.4,0-0.6-0.4-0.6-0.7l0,0c0-0.4,0.4-0.6,0.7-0.6l0,0c0.4,0,0.6,0.4,0.6,0.7l0,0C237.3,103.5,237,103.8,236.6,103.7L236.6,103.7
		C236.7,103.8,236.7,103.8,236.6,103.7z M18.2,100.9c0-0.4,0.2-0.7,0.6-0.7l0,0c0.4,0,0.7,0.2,0.7,0.6l0,0c0,0.4-0.2,0.7-0.6,0.7
		l0,0c0,0-0.1,0-0.1,0l0,0C18.5,101.5,18.2,101.3,18.2,100.9z M236.9,101.1c-0.4,0-0.6-0.4-0.6-0.7l0,0c0-0.4,0.4-0.6,0.7-0.6l0,0
		c0.4,0,0.6,0.4,0.6,0.7l0,0C237.6,100.8,237.3,101.1,236.9,101.1L236.9,101.1C237,101.1,236.9,101.1,236.9,101.1z M17.9,98.3
		c0-0.4,0.2-0.7,0.6-0.7l0,0c0.4,0,0.7,0.2,0.7,0.6l0,0c0,0.4-0.2,0.7-0.6,0.7l0,0c0,0-0.1,0-0.1,0l0,0C18.3,98.9,18,98.6,17.9,98.3
		z M237.2,98.4c-0.4,0-0.6-0.4-0.6-0.7l0,0c0-0.4,0.4-0.6,0.7-0.6l0,0c0.4,0,0.6,0.4,0.6,0.7l0,0C237.9,98.2,237.6,98.4,237.2,98.4
		L237.2,98.4C237.3,98.4,237.2,98.4,237.2,98.4z M17.7,95.6c0-0.4,0.2-0.7,0.6-0.7l0,0c0.4,0,0.7,0.2,0.7,0.6l0,0
		c0,0.4-0.2,0.7-0.6,0.7l0,0c0,0,0,0-0.1,0l0,0C18,96.2,17.7,96,17.7,95.6z M237.5,95.8c-0.4,0-0.6-0.4-0.6-0.7l0,0
		c0-0.4,0.4-0.6,0.7-0.6l0,0c0.4,0,0.6,0.4,0.6,0.7l0,0C238.2,95.5,237.9,95.8,237.5,95.8L237.5,95.8
		C237.5,95.8,237.5,95.8,237.5,95.8z M17.4,93c0-0.4,0.2-0.7,0.6-0.7l0,0c0.4,0,0.7,0.2,0.7,0.6l0,0c0,0.4-0.2,0.7-0.6,0.7l0,0
		c0,0,0,0-0.1,0l0,0C17.7,93.6,17.4,93.3,17.4,93z M237.8,93.1c-0.4,0-0.6-0.4-0.6-0.7l0,0c0-0.4,0.4-0.6,0.7-0.6l0,0
		c0.4,0,0.6,0.4,0.6,0.7l0,0C238.5,92.9,238.2,93.1,237.8,93.1L237.8,93.1C237.8,93.1,237.8,93.1,237.8,93.1z M17.1,90.3
		c0-0.4,0.2-0.7,0.6-0.7l0,0c0.4,0,0.7,0.2,0.7,0.6l0,0c0,0.4-0.2,0.7-0.6,0.7l0,0c0,0,0,0-0.1,0l0,0C17.4,90.9,17.2,90.7,17.1,90.3
		z M238.1,90.5c-0.4,0-0.6-0.4-0.6-0.7l0,0c0-0.4,0.4-0.6,0.7-0.6l0,0c0.4,0,0.6,0.4,0.6,0.7l0,0C238.8,90.2,238.5,90.5,238.1,90.5
		L238.1,90.5C238.1,90.5,238.1,90.5,238.1,90.5z M16.8,87.7c0-0.4,0.2-0.7,0.6-0.7l0,0c0.4,0,0.7,0.2,0.7,0.6l0,0
		c0,0.4-0.2,0.7-0.6,0.7l0,0c0,0,0,0-0.1,0l0,0C17.2,88.3,16.9,88,16.8,87.7z M238.4,87.8c-0.4,0-0.6-0.4-0.6-0.7l0,0
		c0-0.4,0.4-0.6,0.7-0.6l0,0c0.4,0,0.6,0.4,0.6,0.7l0,0C239.1,87.6,238.8,87.8,238.4,87.8L238.4,87.8
		C238.4,87.8,238.4,87.8,238.4,87.8z M16.6,85c0-0.4,0.2-0.7,0.6-0.7l0,0c0.4,0,0.7,0.2,0.7,0.6l0,0c0,0.4-0.2,0.7-0.6,0.7l0,0
		c0,0,0,0-0.1,0l0,0C16.9,85.6,16.6,85.3,16.6,85z M238.6,85.2c-0.4,0-0.6-0.4-0.6-0.7l0,0c0-0.4,0.4-0.6,0.7-0.6l0,0
		c0.4,0,0.6,0.4,0.6,0.7l0,0C239.3,84.9,239,85.2,238.6,85.2L238.6,85.2C238.7,85.2,238.7,85.2,238.6,85.2z M16.3,82.4
		c0-0.4,0.2-0.7,0.6-0.7l0,0c0.4,0,0.7,0.2,0.7,0.6l0,0c0,0.4-0.2,0.7-0.6,0.7l0,0c0,0,0,0-0.1,0l0,0C16.6,82.9,16.3,82.7,16.3,82.4
		z M238.9,82.5c-0.4,0-0.6-0.4-0.6-0.7l0,0c0-0.4,0.4-0.6,0.7-0.6l0,0c0.4,0,0.6,0.4,0.6,0.7l0,0C239.6,82.3,239.3,82.5,238.9,82.5
		L238.9,82.5C239,82.5,239,82.5,238.9,82.5z M16,79.7c0-0.4,0.2-0.7,0.6-0.7l0,0c0.4,0,0.7,0.2,0.7,0.6l0,0c0,0.4-0.2,0.7-0.6,0.7
		l0,0c0,0,0,0-0.1,0l0,0C16.4,80.3,16.1,80,16,79.7z M239.2,79.9c-0.4,0-0.6-0.4-0.6-0.7l0,0c0-0.4,0.4-0.6,0.7-0.6l0,0
		c0.4,0,0.6,0.4,0.6,0.7l0,0C239.9,79.6,239.6,79.9,239.2,79.9L239.2,79.9C239.3,79.9,239.2,79.9,239.2,79.9z M15.8,77
		c0-0.4,0.2-0.7,0.6-0.7l0,0c0.4,0,0.7,0.2,0.7,0.6l0,0c0,0.4-0.2,0.7-0.6,0.7l0,0c0,0,0,0-0.1,0l0,0C16.1,77.6,15.8,77.4,15.8,77z
		 M239.5,77.2c-0.4,0-0.6-0.4-0.6-0.7l0,0c0-0.4,0.4-0.6,0.7-0.6l0,0c0.4,0,0.6,0.4,0.6,0.7l0,0C240.2,77,239.9,77.2,239.5,77.2
		L239.5,77.2C239.6,77.2,239.5,77.2,239.5,77.2z M15.5,74.4c0-0.4,0.2-0.7,0.6-0.7l0,0c0.4,0,0.7,0.2,0.7,0.6l0,0
		c0,0.4-0.2,0.7-0.6,0.7l0,0c0,0,0,0-0.1,0l0,0C15.8,75,15.5,74.7,15.5,74.4z M239.8,74.6c-0.4,0-0.6-0.4-0.6-0.7l0,0
		c0-0.4,0.4-0.6,0.7-0.6l0,0c0.4,0,0.6,0.4,0.6,0.7l0,0C240.5,74.3,240.2,74.6,239.8,74.6L239.8,74.6
		C239.8,74.6,239.8,74.6,239.8,74.6z M15.2,71.7c0-0.4,0.2-0.7,0.6-0.7l0,0c0.4,0,0.7,0.2,0.7,0.6l0,0c0,0.4-0.2,0.7-0.6,0.7l0,0
		c0,0,0,0-0.1,0l0,0C15.5,72.3,15.3,72.1,15.2,71.7z M240.1,71.9c-0.4,0-0.6-0.4-0.6-0.7l0,0c0-0.4,0.4-0.6,0.7-0.6l0,0
		c0.4,0,0.6,0.4,0.6,0.7l0,0C240.8,71.7,240.5,71.9,240.1,71.9L240.1,71.9C240.1,71.9,240.1,71.9,240.1,71.9z M14.9,69.1
		c0-0.4,0.2-0.7,0.6-0.7l0,0c0.4,0,0.7,0.2,0.7,0.6l0,0c0,0.4-0.2,0.7-0.6,0.7l0,0c0,0,0,0-0.1,0l0,0C15.3,69.7,15,69.4,14.9,69.1z
		 M240.4,69.3c-0.4,0-0.6-0.4-0.6-0.7l0,0c0-0.4,0.4-0.6,0.7-0.6l0,0c0.4,0,0.6,0.4,0.6,0.7l0,0C241.1,69,240.8,69.3,240.4,69.3
		L240.4,69.3C240.4,69.3,240.4,69.3,240.4,69.3z M14.7,66.4c0-0.4,0.2-0.7,0.6-0.7l0,0c0.4,0,0.7,0.2,0.7,0.6l0,0
		c0,0.4-0.2,0.7-0.6,0.7l0,0c0,0,0,0-0.1,0l0,0C15,67,14.7,66.8,14.7,66.4z M240.7,66.6c-0.4,0-0.6-0.4-0.6-0.7l0,0
		c0-0.4,0.4-0.6,0.7-0.6l0,0c0.4,0,0.6,0.4,0.6,0.7l0,0C241.3,66.4,241.1,66.6,240.7,66.6L240.7,66.6
		C240.7,66.6,240.7,66.6,240.7,66.6z M14.4,63.8c0-0.4,0.2-0.7,0.6-0.7l0,0c0.4,0,0.7,0.2,0.7,0.6l0,0c0,0.4-0.2,0.7-0.6,0.7l0,0
		c0,0,0,0-0.1,0l0,0C14.7,64.4,14.4,64.1,14.4,63.8z M240.9,64c-0.4,0-0.6-0.4-0.6-0.7l0,0c0-0.4,0.4-0.6,0.7-0.6l0,0
		c0.4,0,0.6,0.4,0.6,0.7l0,0C241.6,63.7,241.3,64,240.9,64L240.9,64C241,64,241,64,240.9,64z M14.1,61.1c0-0.4,0.2-0.7,0.6-0.7l0,0
		c0.4,0,0.7,0.2,0.7,0.6l0,0c0,0.4-0.2,0.7-0.6,0.7l0,0c0,0,0,0-0.1,0l0,0C14.5,61.7,14.2,61.5,14.1,61.1z M241.2,61.3
		c-0.4,0-0.6-0.4-0.6-0.7l0,0c0-0.4,0.4-0.6,0.7-0.6l0,0c0.4,0,0.6,0.4,0.6,0.7l0,0C241.9,61.1,241.6,61.3,241.2,61.3L241.2,61.3
		C241.3,61.3,241.2,61.3,241.2,61.3z M13.9,58.5c0-0.4,0.2-0.7,0.6-0.7l0,0c0.4,0,0.7,0.2,0.7,0.6l0,0c0,0.4-0.2,0.7-0.6,0.7l0,0
		c0,0,0,0-0.1,0l0,0C14.2,59.1,13.9,58.8,13.9,58.5z M241.5,58.7c-0.4,0-0.6-0.4-0.6-0.7l0,0c0-0.4,0.4-0.6,0.7-0.6l0,0
		c0.4,0,0.6,0.4,0.6,0.7l0,0C242.2,58.4,241.9,58.7,241.5,58.7L241.5,58.7C241.6,58.7,241.5,58.7,241.5,58.7z M13.6,55.8
		c0-0.4,0.2-0.7,0.6-0.7l0,0c0.4,0,0.7,0.2,0.7,0.6l0,0c0,0.4-0.2,0.7-0.6,0.7l0,0c0,0,0,0-0.1,0l0,0C13.9,56.4,13.6,56.2,13.6,55.8
		z M241.8,56c-0.4,0-0.6-0.4-0.6-0.7l0,0c0-0.4,0.4-0.6,0.7-0.6l0,0c0.4,0,0.6,0.4,0.6,0.7l0,0C242.5,55.8,242.2,56,241.8,56
		L241.8,56C241.8,56,241.8,56,241.8,56z M13.3,53.2c0-0.4,0.2-0.7,0.6-0.7l0,0c0.4,0,0.7,0.2,0.7,0.6l0,0c0,0.4-0.2,0.7-0.6,0.7l0,0
		c0,0,0,0-0.1,0l0,0C13.6,53.8,13.4,53.5,13.3,53.2z M242.1,53.4c-0.4,0-0.6-0.4-0.6-0.7l0,0c0-0.4,0.4-0.6,0.7-0.6l0,0
		c0.4,0,0.6,0.4,0.6,0.7l0,0C242.8,53.1,242.5,53.4,242.1,53.4L242.1,53.4C242.1,53.4,242.1,53.4,242.1,53.4z M13,50.5
		c0-0.4,0.2-0.7,0.6-0.7l0,0c0.4,0,0.7,0.2,0.7,0.6l0,0c0,0.4-0.2,0.7-0.6,0.7l0,0c0,0,0,0-0.1,0l0,0C13.4,51.1,13.1,50.9,13,50.5z
		 M242.4,50.7c-0.4,0-0.6-0.4-0.6-0.7l0,0c0-0.4,0.4-0.6,0.7-0.6l0,0c0.4,0,0.6,0.4,0.6,0.7l0,0C243.1,50.5,242.8,50.7,242.4,50.7
		L242.4,50.7C242.4,50.7,242.4,50.7,242.4,50.7z M12.8,47.9c0-0.4,0.2-0.7,0.6-0.7l0,0c0.4,0,0.7,0.2,0.7,0.6l0,0
		c0,0.4-0.2,0.7-0.6,0.7l0,0c0,0,0,0-0.1,0l0,0C13.1,48.5,12.8,48.2,12.8,47.9z M242.7,48.1c-0.4,0-0.6-0.4-0.6-0.7l0,0
		c0-0.4,0.4-0.6,0.7-0.6l0,0c0.4,0,0.6,0.4,0.6,0.7l0,0C243.4,47.8,243.1,48.1,242.7,48.1L242.7,48.1
		C242.7,48.1,242.7,48.1,242.7,48.1z M12.5,45.2c0-0.4,0.2-0.7,0.6-0.7l0,0c0.4,0,0.7,0.2,0.7,0.6l0,0c0,0.4-0.2,0.7-0.6,0.7l0,0
		c0,0,0,0-0.1,0l0,0C12.8,45.8,12.5,45.6,12.5,45.2z M242.9,45.4c-0.4,0-0.6-0.4-0.6-0.7l0,0c0-0.4,0.4-0.6,0.7-0.6l0,0
		c0.4,0,0.6,0.4,0.6,0.7l0,0C243.6,45.2,243.4,45.4,242.9,45.4L242.9,45.4C243,45.4,243,45.4,242.9,45.4z M12.2,42.6
		c0-0.4,0.2-0.7,0.6-0.7l0,0c0.4,0,0.7,0.2,0.7,0.6l0,0c0,0.4-0.2,0.7-0.6,0.7l0,0c0,0,0,0-0.1,0l0,0C12.6,43.2,12.3,42.9,12.2,42.6
		z M243.2,42.8c-0.4,0-0.6-0.4-0.6-0.7l0,0c0-0.4,0.4-0.6,0.7-0.6l0,0c0.4,0,0.6,0.4,0.6,0.7l0,0C243.9,42.5,243.6,42.8,243.2,42.8
		L243.2,42.8C243.3,42.8,243.3,42.8,243.2,42.8z M12,39.9c0-0.4,0.2-0.7,0.6-0.7l0,0c0.4,0,0.7,0.2,0.7,0.6l0,0
		c0,0.4-0.2,0.7-0.6,0.7l0,0c0,0,0,0-0.1,0l0,0C12.3,40.5,12,40.2,12,39.9z M243.5,40.1c-0.4,0-0.6-0.4-0.6-0.7l0,0
		c0-0.4,0.4-0.6,0.7-0.6l0,0c0.4,0,0.6,0.4,0.6,0.7l0,0C244.2,39.9,243.9,40.1,243.5,40.1L243.5,40.1
		C243.6,40.1,243.5,40.1,243.5,40.1z M11.7,37.3c0-0.4,0.2-0.7,0.6-0.7l0,0c0.4,0,0.7,0.2,0.7,0.6l0,0c0,0.4-0.2,0.7-0.6,0.7l0,0
		c0,0,0,0-0.1,0l0,0C12,37.9,11.7,37.6,11.7,37.3z M243.8,37.5c-0.4,0-0.6-0.4-0.6-0.7l0,0c0-0.4,0.4-0.6,0.7-0.6l0,0
		c0.4,0,0.6,0.4,0.6,0.7l0,0C244.5,37.2,244.2,37.5,243.8,37.5L243.8,37.5C243.9,37.5,243.8,37.5,243.8,37.5z M11.4,34.6
		c0-0.4,0.2-0.7,0.6-0.7l0,0c0.4,0,0.7,0.2,0.7,0.6l0,0c0,0.4-0.2,0.7-0.6,0.7l0,0c0,0,0,0-0.1,0l0,0C11.7,35.2,11.5,34.9,11.4,34.6
		z M244.1,34.8c-0.4,0-0.6-0.4-0.6-0.7l0,0c0-0.4,0.4-0.6,0.7-0.6l0,0c0.4,0,0.6,0.4,0.6,0.7l0,0C244.8,34.6,244.5,34.8,244.1,34.8
		L244.1,34.8C244.1,34.8,244.1,34.8,244.1,34.8z M11.1,31.9c0-0.4,0.2-0.7,0.6-0.7l0,0c0.4,0,0.7,0.2,0.7,0.6l0,0
		c0,0.4-0.2,0.7-0.6,0.7l0,0c0,0,0,0-0.1,0l0,0C11.5,32.5,11.2,32.3,11.1,31.9z M244.4,32.2c-0.4,0-0.6-0.4-0.6-0.7l0,0
		c0-0.4,0.4-0.6,0.7-0.6l0,0c0.4,0,0.6,0.4,0.6,0.7l0,0C245.1,31.9,244.8,32.2,244.4,32.2L244.4,32.2
		C244.4,32.2,244.4,32.2,244.4,32.2z M10.9,29.3c0-0.4,0.2-0.7,0.6-0.7l0,0c0.4,0,0.7,0.2,0.7,0.6l0,0c0,0.4-0.2,0.7-0.6,0.7l0,0
		c0,0,0,0-0.1,0l0,0C11.2,29.9,10.9,29.6,10.9,29.3z M244.7,29.5c-0.4,0-0.6-0.4-0.6-0.7l0,0c0-0.4,0.4-0.6,0.7-0.6l0,0
		c0.4,0,0.6,0.4,0.6,0.7l0,0C245.4,29.3,245.1,29.5,244.7,29.5L244.7,29.5C244.7,29.5,244.7,29.5,244.7,29.5z M10.6,26.6
		c0-0.4,0.2-0.7,0.6-0.7l0,0c0.4,0,0.7,0.2,0.7,0.6l0,0c0,0.4-0.2,0.7-0.6,0.7l0,0c0,0-0.1,0-0.1,0l0,0C10.9,27.2,10.6,27,10.6,26.6
		z M245,26.9c-0.4,0-0.6-0.4-0.6-0.7l0,0c0-0.4,0.4-0.6,0.7-0.6l0,0c0.4,0,0.6,0.4,0.6,0.7l0,0C245.7,26.6,245.4,26.9,245,26.9
		L245,26.9C245,26.9,245,26.9,245,26.9z M10.3,24c0-0.4,0.2-0.7,0.6-0.7l0,0c0.4,0,0.7,0.2,0.7,0.6l0,0c0,0.4-0.2,0.7-0.6,0.7l0,0
		c0,0-0.1,0-0.1,0l0,0C10.7,24.6,10.4,24.3,10.3,24z M245.2,24.2c-0.4,0-0.6-0.4-0.6-0.7l0,0c0-0.4,0.4-0.6,0.7-0.6l0,0
		c0.4,0,0.6,0.4,0.6,0.7l0,0C245.9,24,245.7,24.2,245.2,24.2L245.2,24.2C245.3,24.2,245.3,24.2,245.2,24.2z M10.1,21.3
		c0-0.4,0.2-0.7,0.6-0.7l0,0c0.4,0,0.7,0.2,0.7,0.6l0,0c0,0.4-0.2,0.7-0.6,0.7l0,0c0,0-0.1,0-0.1,0l0,0
		C10.4,21.9,10.1,21.7,10.1,21.3z M245.5,21.6c-0.4,0-0.6-0.4-0.6-0.8l0,0c0-0.4,0.4-0.6,0.8-0.6l0,0c0.4,0,0.6,0.4,0.6,0.8l0,0
		C246.2,21.3,245.9,21.6,245.5,21.6L245.5,21.6C245.6,21.6,245.5,21.6,245.5,21.6z M10.8,19.3c-0.3-0.2-0.4-0.6-0.2-0.9l0,0
		c0.2-0.3,0.6-0.4,0.9-0.2l0,0c0.3,0.2,0.4,0.6,0.2,0.9l0,0c-0.1,0.2-0.3,0.3-0.6,0.3l0,0C11.1,19.4,10.9,19.3,10.8,19.3z
		 M244.5,18.8c-0.2-0.3-0.2-0.7,0.1-0.9l0,0c0.3-0.2,0.7-0.2,0.9,0.1l0,0c0.2,0.3,0.2,0.7-0.1,0.9l0,0c-0.1,0.1-0.3,0.1-0.4,0.1l0,0
		C244.8,19,244.6,18.9,244.5,18.8z M12.8,17.6c0-0.4,0.2-0.7,0.6-0.7l0,0c0.4,0,0.7,0.2,0.7,0.6l0,0c0,0.4-0.2,0.7-0.6,0.7l0,0
		c0,0-0.1,0-0.1,0l0,0C13.2,18.2,12.9,18,12.8,17.6z M239.3,17.5c0-0.4,0.3-0.7,0.7-0.7l0,0c0.4,0,0.7,0.3,0.7,0.7l0,0
		c0,0.4-0.3,0.7-0.7,0.7l0,0C239.6,18.2,239.3,17.9,239.3,17.5z M236.6,17.5c0-0.4,0.3-0.7,0.7-0.7l0,0c0.4,0,0.7,0.3,0.7,0.7l0,0
		c0,0.4-0.3,0.7-0.7,0.7l0,0C236.9,18.2,236.6,17.9,236.6,17.5z M233.9,17.5c0-0.4,0.3-0.7,0.7-0.7l0,0c0.4,0,0.7,0.3,0.7,0.7l0,0
		c0,0.4-0.3,0.7-0.7,0.7l0,0C234.2,18.2,233.9,17.9,233.9,17.5z M231.3,17.5c0-0.4,0.3-0.7,0.7-0.7l0,0c0.4,0,0.7,0.3,0.7,0.7l0,0
		c0,0.4-0.3,0.7-0.7,0.7l0,0C231.6,18.2,231.3,17.9,231.3,17.5z M228.6,17.5c0-0.4,0.3-0.7,0.7-0.7l0,0c0.4,0,0.7,0.3,0.7,0.7l0,0
		c0,0.4-0.3,0.7-0.7,0.7l0,0C228.9,18.2,228.6,17.9,228.6,17.5z M225.9,17.5c0-0.4,0.3-0.7,0.7-0.7l0,0c0.4,0,0.7,0.3,0.7,0.7l0,0
		c0,0.4-0.3,0.7-0.7,0.7l0,0C226.2,18.2,225.9,17.9,225.9,17.5z M223.3,17.5c0-0.4,0.3-0.7,0.7-0.7l0,0c0.4,0,0.7,0.3,0.7,0.7l0,0
		c0,0.4-0.3,0.7-0.7,0.7l0,0C223.6,18.2,223.3,17.9,223.3,17.5z M220.6,17.5c0-0.4,0.3-0.7,0.7-0.7l0,0c0.4,0,0.7,0.3,0.7,0.7l0,0
		c0,0.4-0.3,0.7-0.7,0.7l0,0C220.9,18.2,220.6,17.9,220.6,17.5z M217.9,17.5c0-0.4,0.3-0.7,0.7-0.7l0,0c0.4,0,0.7,0.3,0.7,0.7l0,0
		c0,0.4-0.3,0.7-0.7,0.7l0,0C218.2,18.2,217.9,17.9,217.9,17.5z M215.3,17.5c0-0.4,0.3-0.7,0.7-0.7l0,0c0.4,0,0.7,0.3,0.7,0.7l0,0
		c0,0.4-0.3,0.7-0.7,0.7l0,0C215.6,18.2,215.3,17.9,215.3,17.5z M212.6,17.5c0-0.4,0.3-0.7,0.7-0.7l0,0c0.4,0,0.7,0.3,0.7,0.7l0,0
		c0,0.4-0.3,0.7-0.7,0.7l0,0C212.9,18.2,212.6,17.9,212.6,17.5z M209.9,17.5c0-0.4,0.3-0.7,0.7-0.7l0,0c0.4,0,0.7,0.3,0.7,0.7l0,0
		c0,0.4-0.3,0.7-0.7,0.7l0,0C210.2,18.2,209.9,17.9,209.9,17.5z M207.3,17.5c0-0.4,0.3-0.7,0.7-0.7l0,0c0.4,0,0.7,0.3,0.7,0.7l0,0
		c0,0.4-0.3,0.7-0.7,0.7l0,0C207.6,18.2,207.3,17.9,207.3,17.5z M204.6,17.5c0-0.4,0.3-0.7,0.7-0.7l0,0c0.4,0,0.7,0.3,0.7,0.7l0,0
		c0,0.4-0.3,0.7-0.7,0.7l0,0C204.9,18.2,204.6,17.9,204.6,17.5z M201.9,17.5c0-0.4,0.3-0.7,0.7-0.7l0,0c0.4,0,0.7,0.3,0.7,0.7l0,0
		c0,0.4-0.3,0.7-0.7,0.7l0,0C202.2,18.2,201.9,17.9,201.9,17.5z M199.3,17.5c0-0.4,0.3-0.7,0.7-0.7l0,0c0.4,0,0.7,0.3,0.7,0.7l0,0
		c0,0.4-0.3,0.7-0.7,0.7l0,0C199.6,18.2,199.3,17.9,199.3,17.5z M196.6,17.5c0-0.4,0.3-0.7,0.7-0.7l0,0c0.4,0,0.7,0.3,0.7,0.7l0,0
		c0,0.4-0.3,0.7-0.7,0.7l0,0C196.9,18.2,196.6,17.9,196.6,17.5z M193.9,17.5c0-0.4,0.3-0.7,0.7-0.7l0,0c0.4,0,0.7,0.3,0.7,0.7l0,0
		c0,0.4-0.3,0.7-0.7,0.7l0,0C194.2,18.2,193.9,17.9,193.9,17.5z M191.3,17.5c0-0.4,0.3-0.7,0.7-0.7l0,0c0.4,0,0.7,0.3,0.7,0.7l0,0
		c0,0.4-0.3,0.7-0.7,0.7l0,0C191.6,18.2,191.3,17.9,191.3,17.5z M114.2,17.5c0-0.4,0.3-0.7,0.7-0.7l0,0c0.4,0,0.7,0.3,0.7,0.7l0,0
		c0,0.4-0.3,0.7-0.7,0.7l0,0C114.5,18.2,114.2,17.9,114.2,17.5z M111.5,17.5c0-0.4,0.3-0.7,0.7-0.7l0,0c0.4,0,0.7,0.3,0.7,0.7l0,0
		c0,0.4-0.3,0.7-0.7,0.7l0,0C111.8,18.2,111.5,17.9,111.5,17.5z M108.8,17.5c0-0.4,0.3-0.7,0.7-0.7l0,0c0.4,0,0.7,0.3,0.7,0.7l0,0
		c0,0.4-0.3,0.7-0.7,0.7l0,0C109.1,18.2,108.8,17.9,108.8,17.5z M106.2,17.5c0-0.4,0.3-0.7,0.7-0.7l0,0c0.4,0,0.7,0.3,0.7,0.7l0,0
		c0,0.4-0.3,0.7-0.7,0.7l0,0C106.5,18.2,106.2,17.9,106.2,17.5z M103.5,17.5c0-0.4,0.3-0.7,0.7-0.7l0,0c0.4,0,0.7,0.3,0.7,0.7l0,0
		c0,0.4-0.3,0.7-0.7,0.7l0,0C103.8,18.2,103.5,17.9,103.5,17.5z M100.8,17.5c0-0.4,0.3-0.7,0.7-0.7l0,0c0.4,0,0.7,0.3,0.7,0.7l0,0
		c0,0.4-0.3,0.7-0.7,0.7l0,0C101.1,18.2,100.8,17.9,100.8,17.5z M98.2,17.5c0-0.4,0.3-0.7,0.7-0.7l0,0c0.4,0,0.7,0.3,0.7,0.7l0,0
		c0,0.4-0.3,0.7-0.7,0.7l0,0C98.5,18.2,98.2,17.9,98.2,17.5z M95.5,17.5c0-0.4,0.3-0.7,0.7-0.7l0,0c0.4,0,0.7,0.3,0.7,0.7l0,0
		c0,0.4-0.3,0.7-0.7,0.7l0,0C95.8,18.2,95.5,17.9,95.5,17.5z M92.8,17.5c0-0.4,0.3-0.7,0.7-0.7l0,0c0.4,0,0.7,0.3,0.7,0.7l0,0
		c0,0.4-0.3,0.7-0.7,0.7l0,0C93.1,18.2,92.8,17.9,92.8,17.5z M90.2,17.5c0-0.4,0.3-0.7,0.7-0.7l0,0c0.4,0,0.7,0.3,0.7,0.7l0,0
		c0,0.4-0.3,0.7-0.7,0.7l0,0C90.5,18.2,90.2,17.9,90.2,17.5z M87.5,17.5c0-0.4,0.3-0.7,0.7-0.7l0,0c0.4,0,0.7,0.3,0.7,0.7l0,0
		c0,0.4-0.3,0.7-0.7,0.7l0,0C87.8,18.2,87.5,17.9,87.5,17.5z M84.8,17.5c0-0.4,0.3-0.7,0.7-0.7l0,0c0.4,0,0.7,0.3,0.7,0.7l0,0
		c0,0.4-0.3,0.7-0.7,0.7l0,0C85.1,18.2,84.8,17.9,84.8,17.5z M82.2,17.5c0-0.4,0.3-0.7,0.7-0.7l0,0c0.4,0,0.7,0.3,0.7,0.7l0,0
		c0,0.4-0.3,0.7-0.7,0.7l0,0C82.5,18.2,82.2,17.9,82.2,17.5z M79.5,17.5c0-0.4,0.3-0.7,0.7-0.7l0,0c0.4,0,0.7,0.3,0.7,0.7l0,0
		c0,0.4-0.3,0.7-0.7,0.7l0,0C79.8,18.2,79.5,17.9,79.5,17.5z M76.8,17.5c0-0.4,0.3-0.7,0.7-0.7l0,0c0.4,0,0.7,0.3,0.7,0.7l0,0
		c0,0.4-0.3,0.7-0.7,0.7l0,0C77.1,18.2,76.8,17.9,76.8,17.5z M74.2,17.5c0-0.4,0.3-0.7,0.7-0.7l0,0c0.4,0,0.7,0.3,0.7,0.7l0,0
		c0,0.4-0.3,0.7-0.7,0.7l0,0C74.5,18.2,74.2,17.9,74.2,17.5z M71.5,17.5c0-0.4,0.3-0.7,0.7-0.7l0,0c0.4,0,0.7,0.3,0.7,0.7l0,0
		c0,0.4-0.3,0.7-0.7,0.7l0,0C71.8,18.2,71.5,17.9,71.5,17.5z M68.8,17.5c0-0.4,0.3-0.7,0.7-0.7l0,0c0.4,0,0.7,0.3,0.7,0.7l0,0
		c0,0.4-0.3,0.7-0.7,0.7l0,0C69.1,18.2,68.8,17.9,68.8,17.5z M66.2,17.5c0-0.4,0.3-0.7,0.7-0.7l0,0c0.4,0,0.7,0.3,0.7,0.7l0,0
		c0,0.4-0.3,0.7-0.7,0.7l0,0C66.5,18.2,66.2,17.9,66.2,17.5z M63.5,17.5c0-0.4,0.3-0.7,0.7-0.7l0,0c0.4,0,0.7,0.3,0.7,0.7l0,0
		c0,0.4-0.3,0.7-0.7,0.7l0,0C63.8,18.2,63.5,17.9,63.5,17.5z M60.8,17.5c0-0.4,0.3-0.7,0.7-0.7l0,0c0.4,0,0.7,0.3,0.7,0.7l0,0
		c0,0.4-0.3,0.7-0.7,0.7l0,0C61.1,18.2,60.8,17.9,60.8,17.5z M58.2,17.5c0-0.4,0.3-0.7,0.7-0.7l0,0c0.4,0,0.7,0.3,0.7,0.7l0,0
		c0,0.4-0.3,0.7-0.7,0.7l0,0C58.5,18.2,58.2,17.9,58.2,17.5z M55.5,17.5c0-0.4,0.3-0.7,0.7-0.7l0,0c0.4,0,0.7,0.3,0.7,0.7l0,0
		c0,0.4-0.3,0.7-0.7,0.7l0,0C55.8,18.2,55.5,17.9,55.5,17.5z M52.8,17.5c0-0.4,0.3-0.7,0.7-0.7l0,0c0.4,0,0.7,0.3,0.7,0.7l0,0
		c0,0.4-0.3,0.7-0.7,0.7l0,0C53.1,18.2,52.8,17.9,52.8,17.5z M50.2,17.5c0-0.4,0.3-0.7,0.7-0.7l0,0c0.4,0,0.7,0.3,0.7,0.7l0,0
		c0,0.4-0.3,0.7-0.7,0.7l0,0C50.5,18.2,50.2,17.9,50.2,17.5z M47.5,17.5c0-0.4,0.3-0.7,0.7-0.7l0,0c0.4,0,0.7,0.3,0.7,0.7l0,0
		c0,0.4-0.3,0.7-0.7,0.7l0,0C47.8,18.2,47.5,17.9,47.5,17.5z M44.8,17.5c0-0.4,0.3-0.7,0.7-0.7l0,0c0.4,0,0.7,0.3,0.7,0.7l0,0
		c0,0.4-0.3,0.7-0.7,0.7l0,0C45.1,18.2,44.8,17.9,44.8,17.5z M42.2,17.5c0-0.4,0.3-0.7,0.7-0.7l0,0c0.4,0,0.7,0.3,0.7,0.7l0,0
		c0,0.4-0.3,0.7-0.7,0.7l0,0C42.5,18.2,42.2,17.9,42.2,17.5z M39.5,17.5c0-0.4,0.3-0.7,0.7-0.7l0,0c0.4,0,0.7,0.3,0.7,0.7l0,0
		c0,0.4-0.3,0.7-0.7,0.7l0,0C39.8,18.2,39.5,17.9,39.5,17.5z M36.8,17.5c0-0.4,0.3-0.7,0.7-0.7l0,0c0.4,0,0.7,0.3,0.7,0.7l0,0
		c0,0.4-0.3,0.7-0.7,0.7l0,0C37.1,18.2,36.8,17.9,36.8,17.5z M34.2,17.5c0-0.4,0.3-0.7,0.7-0.7l0,0c0.4,0,0.7,0.3,0.7,0.7l0,0
		c0,0.4-0.3,0.7-0.7,0.7l0,0C34.5,18.2,34.2,17.9,34.2,17.5z M31.5,17.5c0-0.4,0.3-0.7,0.7-0.7l0,0c0.4,0,0.7,0.3,0.7,0.7l0,0
		c0,0.4-0.3,0.7-0.7,0.7l0,0C31.8,18.2,31.5,17.9,31.5,17.5z M28.8,17.5c0-0.4,0.3-0.7,0.7-0.7l0,0c0.4,0,0.7,0.3,0.7,0.7l0,0
		c0,0.4-0.3,0.7-0.7,0.7l0,0C29.1,18.2,28.8,17.9,28.8,17.5z M26.2,17.5c0-0.4,0.3-0.7,0.7-0.7l0,0c0.4,0,0.7,0.3,0.7,0.7l0,0
		c0,0.4-0.3,0.7-0.7,0.7l0,0C26.5,18.2,26.2,17.9,26.2,17.5z M23.5,17.5c0-0.4,0.3-0.7,0.7-0.7l0,0c0.4,0,0.7,0.3,0.7,0.7l0,0
		c0,0.4-0.3,0.7-0.7,0.7l0,0C23.8,18.2,23.5,17.9,23.5,17.5z M20.8,17.5c0-0.4,0.3-0.7,0.7-0.7l0,0c0.4,0,0.7,0.3,0.7,0.7l0,0
		c0,0.4-0.3,0.7-0.7,0.7l0,0C21.1,18.2,20.8,17.9,20.8,17.5z M18.2,17.5c0-0.4,0.3-0.7,0.7-0.7l0,0c0.4,0,0.7,0.3,0.7,0.7l0,0
		c0,0.4-0.3,0.7-0.7,0.7l0,0C18.5,18.2,18.2,17.9,18.2,17.5z M15.5,17.5c0-0.4,0.3-0.7,0.7-0.7l0,0c0.4,0,0.7,0.3,0.7,0.7l0,0
		c0,0.4-0.3,0.7-0.7,0.7l0,0C15.8,18.2,15.5,17.9,15.5,17.5z M241.9,17.5c0-0.4,0.3-0.7,0.7-0.7l0,0c0.4,0,0.7,0.3,0.7,0.7l0,0
		c0,0.4-0.3,0.7-0.7,0.7l0,0c0,0,0,0,0,0l0,0C242.2,18.2,241.9,17.9,241.9,17.5z M188.6,17.5c0-0.4,0.3-0.7,0.7-0.7l0,0
		c0.4,0,0.7,0.3,0.7,0.7l0,0c0,0.4-0.3,0.7-0.7,0.7l0,0C188.9,18.2,188.6,17.9,188.6,17.5z M185.9,17.5c0-0.4,0.3-0.7,0.7-0.7l0,0
		c0.4,0,0.7,0.3,0.7,0.7l0,0c0,0.4-0.3,0.7-0.7,0.7l0,0C186.2,18.2,185.9,17.9,185.9,17.5z M183.3,17.5c0-0.4,0.3-0.7,0.7-0.7l0,0
		c0.4,0,0.7,0.3,0.7,0.7l0,0c0,0.4-0.3,0.7-0.7,0.7l0,0C183.6,18.2,183.3,17.9,183.3,17.5z M180.6,17.5c0-0.4,0.3-0.7,0.7-0.7l0,0
		c0.4,0,0.7,0.3,0.7,0.7l0,0c0,0.4-0.3,0.7-0.7,0.7l0,0C180.9,18.2,180.6,17.9,180.6,17.5z M177.9,17.5c0-0.4,0.3-0.7,0.7-0.7l0,0
		c0.4,0,0.7,0.3,0.7,0.7l0,0c0,0.4-0.3,0.7-0.7,0.7l0,0C178.2,18.2,177.9,17.9,177.9,17.5z M175.3,17.5c0-0.4,0.3-0.7,0.7-0.7l0,0
		c0.4,0,0.7,0.3,0.7,0.7l0,0c0,0.4-0.3,0.7-0.7,0.7l0,0C175.6,18.2,175.3,17.9,175.3,17.5z M172.6,17.5c0-0.4,0.3-0.7,0.7-0.7l0,0
		c0.4,0,0.7,0.3,0.7,0.7l0,0c0,0.4-0.3,0.7-0.7,0.7l0,0C172.9,18.2,172.6,17.9,172.6,17.5z M169.9,17.5c0-0.4,0.3-0.7,0.7-0.7l0,0
		c0.4,0,0.7,0.3,0.7,0.7l0,0c0,0.4-0.3,0.7-0.7,0.7l0,0C170.2,18.2,169.9,17.9,169.9,17.5z M167.3,17.5c0-0.4,0.3-0.7,0.7-0.7l0,0
		c0.4,0,0.7,0.3,0.7,0.7l0,0c0,0.4-0.3,0.7-0.7,0.7l0,0C167.6,18.2,167.3,17.9,167.3,17.5z M164.6,17.5c0-0.4,0.3-0.7,0.7-0.7l0,0
		c0.4,0,0.7,0.3,0.7,0.7l0,0c0,0.4-0.3,0.7-0.7,0.7l0,0C164.9,18.2,164.6,17.9,164.6,17.5z M161.9,17.5c0-0.4,0.3-0.7,0.7-0.7l0,0
		c0.4,0,0.7,0.3,0.7,0.7l0,0c0,0.4-0.3,0.7-0.7,0.7l0,0C162.2,18.2,161.9,17.9,161.9,17.5z M159.3,17.5c0-0.4,0.3-0.7,0.7-0.7l0,0
		c0.4,0,0.7,0.3,0.7,0.7l0,0c0,0.4-0.3,0.7-0.7,0.7l0,0C159.6,18.2,159.3,17.9,159.3,17.5z M156.6,17.5c0-0.4,0.3-0.7,0.7-0.7l0,0
		c0.4,0,0.7,0.3,0.7,0.7l0,0c0,0.4-0.3,0.7-0.7,0.7l0,0C156.9,18.2,156.6,17.9,156.6,17.5z M153.9,17.5c0-0.4,0.3-0.7,0.7-0.7l0,0
		c0.4,0,0.7,0.3,0.7,0.7l0,0c0,0.4-0.3,0.7-0.7,0.7l0,0C154.2,18.2,153.9,17.9,153.9,17.5z M151.3,17.5c0-0.4,0.3-0.7,0.7-0.7l0,0
		c0.4,0,0.7,0.3,0.7,0.7l0,0c0,0.4-0.3,0.7-0.7,0.7l0,0C151.6,18.2,151.3,17.9,151.3,17.5z M148.6,17.5c0-0.4,0.3-0.7,0.7-0.7l0,0
		c0.4,0,0.7,0.3,0.7,0.7l0,0c0,0.4-0.3,0.7-0.7,0.7l0,0C148.9,18.2,148.6,17.9,148.6,17.5z M145.9,17.5c0-0.4,0.3-0.7,0.7-0.7l0,0
		c0.4,0,0.7,0.3,0.7,0.7l0,0c0,0.4-0.3,0.7-0.7,0.7l0,0C146.2,18.2,145.9,17.9,145.9,17.5z M143.3,17.5c0-0.4,0.3-0.7,0.7-0.7l0,0
		c0.4,0,0.7,0.3,0.7,0.7l0,0c0,0.4-0.3,0.7-0.7,0.7l0,0C143.6,18.2,143.3,17.9,143.3,17.5z M140.6,17.5c0-0.4,0.3-0.7,0.7-0.7l0,0
		c0.4,0,0.7,0.3,0.7,0.7l0,0c0,0.4-0.3,0.7-0.7,0.7l0,0C140.9,18.2,140.6,17.9,140.6,17.5z"/>
	<g>
		<path class="st4" d="M126.9,125.9v14.7c2.5,0,4.5-2,4.5-4.5c0-0.8-0.2-1.6-0.6-2.2L126.9,125.9z"/>
		<path class="st0" d="M126.9,125.9v14.7h0c-2.5,0-4.5-2-4.5-4.5c0-0.8,0.2-1.6,0.6-2.2L126.9,125.9z"/>
	</g>
</g>
</svg>
