<?xml version="1.0" encoding="utf-8"?>
<!-- Generator: Adobe Illustrator 17.1.0, SVG Export Plug-In . SVG Version: 6.00 Build 0)  -->
<!DOCTYPE svg PUBLIC "-//W3C//DTD SVG 1.1//EN" "http://www.w3.org/Graphics/SVG/1.1/DTD/svg11.dtd">
<svg version="1.1" id="Layer_1" xmlns="http://www.w3.org/2000/svg" xmlns:xlink="http://www.w3.org/1999/xlink" x="0px" y="0px"
	 viewBox="0 0 394.5 153.3" style="enable-background:new 0 0 394.5 153.3;" xml:space="preserve">
<style type="text/css">
	.st0{fill-rule:evenodd;clip-rule:evenodd;fill:#45BFB9;}
	.st1{fill:none;stroke:#FFFFFF;stroke-width:0.2065;stroke-miterlimit:3.8637;}
	.st2{fill-rule:evenodd;clip-rule:evenodd;fill:#FFFFFF;}
	.st3{fill:none;}
	.st4{fill:#C1E3DF;}
	.st5{fill:#45BFB9;}
	.st6{fill:#F2A093;}
</style>
<g>
	<path class="st0" d="M34.4,93.4c-0.1-0.4-0.1-0.7-0.1-1.1c0-0.4,0.1-0.7,0.3-1.1c0.2-0.3,0.3-0.5,0.6-0.6c0.2,0,0.3,0,0.4,0.1
		c0.2,0.1,0.3,0.3,0.4,0.5c0.2,0.3,0.1,0.6,0.2,0.9c0.1,0.2,0.1,0.3,0.2,0.5c0.1,0.1,0.1,0.2,0.2,0.3c0.1,0.2,0.2,0.2,0.4,0.4
		c0.2,0.2,0.3,0.3,0.4,0.5c0.1,0.3,0,0.6-0.2,0.9c-0.2,0.2-0.4,0.3-0.7,0.4c-0.4,0.1-0.7-0.1-1.1-0.3C34.8,94.5,34.6,94,34.4,93.4z"
		/>
	<g>
		<path class="st0" d="M35.7,37.4c0,0-1.3-6.6-0.9-10.7c0.5-5.5,2.8-8.2,4.7-13.4c0.4-1.2,0.8-1.9,1.1-3.1c0.5-1.7-0.1-3.1,1-4.5
			c0.5-0.6,0.9-0.9,1.7-1.3c1.4-0.8,2.4-1.2,4-0.9c1.7,0.3,2.3,1.4,3.6,2.5c4.9,3.7,6.9,6.7,10.7,11.5c2.2,2.8,3.1,4.6,5.4,7.3
			c2.3,2.8,3.9,4.2,6.4,6.8c0,0,3.3-0.6,5.4-0.6c3.2-0.1,4.9,0.6,8.1,0.8c3.2,0.2,5,0.3,8.3,0.1c3.2-0.2,4.9-0.8,8.1-0.9
			c3.3-0.2,5.1-0.3,8.4,0.2c3.4,0.5,5.3,1.4,8.6,2.6c3.3,1.2,5.2,1.8,8.3,3.5c1.8,1,2.8,1.6,4.4,2.8c0.9,0.6,1.4,1,2.2,1.8
			c0.5,0.6,1.2,0.8,1.2,1.5c0,0.6-0.1,1-0.5,1.3c-0.5,0.4-0.9,0.2-1.5,0.2c-1.3-0.1-1.9-0.9-3.1-1.5c-1.1-0.6-1.7-1.1-2.9-1.4
			c-1.2-0.4-2-0.2-3.3-0.3c-1.9-0.1-3,0.3-5,0.1c-1.8-0.2-3,0-4.4-1c-0.9-0.6-1.1-1.3-1.8-2.1c0,0-0.9,0-1.5,0
			c-1.9,0.1-3,0.4-4.9,0.8c-2.8,0.6-4.2,1.5-7,2.3c-2.7,0.7-4.1,1.6-6.9,1.7c-2.4,0-3.8-0.4-6.1-1.1c-1.3-0.4-2-0.9-3.3-1.2
			c-1.1-0.3-1.8-0.5-3-0.6c-0.5,0-0.8,0-1.3,0c0,0,1.1,2.4,1.7,4c0.4,1.3,0.6,2.1,0.9,3.5c0.2,0.9,0.6,1.4,0.5,2.4
			c-0.1,0.5,0,1-0.4,1.3c-0.3,0.2-0.5,0.3-0.9,0.3c-1,0-1.1-1.1-1.8-1.9c-0.7-0.7-1.1-1.2-1.9-1.9c-0.8-0.7-1.3-1.1-2.3-1.7
			c-0.7-0.4-1.2-0.6-1.9-1c-1-0.7-1.3-1.3-2.2-2.2c0,0-1.1,0.3-1.9,0.5c-2.5,0.8-3.8,1.7-6.3,2.4c-2.9,0.7-4.6,0.6-7.5,1
			c0,0-0.7,2.4-1.5,3.7c-0.9,1.2-1.5,1.9-2.8,2.7c-2.7,1.6-5,0.8-8.2,0.3c-1.7-0.3-2.5-1.1-4.2-1.1c-0.8,0-1.3-0.1-2.1,0.1
			c-1.5,0.4-2.2,1.2-3.3,2.3c-0.9,0.9-1.4,1.4-2,2.5c-0.8,1.4-0.9,2.4-1,4c-0.2,2.3,0.6,3.6,0.8,5.9c0.2,2.4,0.2,3.7,0.1,6.1
			c-0.1,2.3-0.1,3.6-0.6,5.9c-0.4,1.6-0.7,2.5-1.2,4c-0.6,1.8-1.1,2.8-1.8,4.5c0,0,1.2,0.9,1.8,1.8c0.4,0.6,0.5,1,0.7,1.7
			c0.2,0.9,0.1,1.4,0.2,2.3c0,0.6-0.4,1-0.1,1.5c0.3,0.3,0.6,0.4,1,0.4c0.4,0,0.7-0.2,1.1-0.2c0.3,0,0.6,0,0.9,0.2
			c0.3,0.2,0.4,0.4,0.6,0.6c0.2,0.2,0.3,0.4,0.5,0.6c0,0,0.3-0.3,0.5-0.4c1.1-0.9,1.9-0.9,3.2-1.4c1.5-0.5,2.4-0.6,4-1
			c1-0.2,1.8,0.1,2.7-0.5c0.3-0.2,0.5-0.3,0.7-0.6c0.2-0.4,0.1-0.7,0.2-1.1c0,0-1,0.3-1.7,0.4c-0.8,0.1-1.2,0.1-2,0.1
			c-1.3-0.1-2.1-0.2-3.3-0.7c-1-0.4-1.5-0.7-2.4-1.4c-0.6-0.5-0.9-0.8-1.3-1.4c-0.2-0.3-0.4-0.5-0.4-0.8c0-0.4,0.1-0.6,0.3-1
			c0.1-0.4,0.3-0.7,0.4-1.1c0.1-0.4,0.2-0.6,0-1c-0.2-0.3-0.5-0.4-0.8-0.5c-0.4-0.1-0.6,0-1,0.1c-0.4,0.1-0.6,0.2-0.9,0.4
			c-0.4,0.2-0.5,0.5-0.8,0.8c-0.2,0.2-0.3,0.5-0.6,0.6c-0.3,0-0.4-0.1-0.6-0.2c-0.5-0.4-0.2-1-0.3-1.7c-0.2-2.7,0.1-4.5,1.3-6.9
			c2.2-4.2,5.5-6.2,10.3-6.5c3.9-0.2,7,0.5,9.5,3.6c2.3,2.8,2.1,5.6,1.7,9.2c-0.3,2.5-0.8,4-2.1,6.2c-0.8,1.5-1.3,2.4-2.6,3.5
			c-1.6,1.4-2.9,1.7-5,2.2c-1.4,0.3-2.2,0.1-3.6,0.5c-1.3,0.3-2.2,0.4-3.3,1.3c-0.5,0.4-0.6,0.8-1.1,1.3c-0.3,0.3-0.3,0.8-0.8,0.8
			c-0.2,0-0.4-0.1-0.6-0.2c-0.5-0.3-0.6-0.6-1-1.1c-0.2-0.2-0.2-0.4-0.4-0.6c-0.1-0.1-0.2-0.1-0.4-0.2c-0.6-0.2-1,0.1-1.7,0.1
			c-0.6,0-1,0.3-1.5-0.1c-0.4-0.2-0.4-0.5-0.6-0.9c-0.4-0.8-0.1-1.4-0.1-2.4c0-0.6,0.2-1,0.2-1.7c-0.1-0.6-0.2-0.9-0.5-1.4
			c-0.2-0.4-0.5-0.5-0.8-0.8c0,0-0.5,2.7-0.5,4.4c-0.1,2,0.2,3.1,0.3,5c0.1,2.6,0.2,4,0,6.6c-0.2,2.7-0.8,4.2-1,6.9
			c-0.1,2.8,0.1,4.3,0.3,7.1c0.2,2.7,0.5,4.2,0.6,6.9c0.1,2.3,0.4,3.6,0.1,5.9c-0.3,2.4-0.9,3.6-1.8,5.9c-0.5,1.3-0.8,2.1-1.4,3.3
			c-0.4,0.8-0.5,1.3-1.1,1.9c-0.4,0.4-0.6,1-1.2,0.9c-0.2,0-0.4-0.1-0.6-0.3c-0.3-0.3-0.1-0.7-0.2-1.1c-0.2-1.8,0.4-2.8,0.4-4.6
			c0.1-2.9-0.4-4.5-0.6-7.3c-0.1-2.1-0.7-3.3-0.3-5.3c0.3-1.6,0.8-2.3,1.3-3.8c0,0-0.5-1.4-0.8-2.3c-0.5-1.5-0.8-2.3-1.2-3.8
			c-0.7-2.8-0.9-4.4-1.1-7.3c-0.2-2.4-0.2-3.8-0.1-6.3c0.1-2.3,0.2-3.5,0.4-5.8c0.2-2.9,0.6-4.5,0.4-7.3c-0.2-2.1-0.4-3.3-1.1-5.3
			c-0.8-2.4-1.5-3.7-2.9-5.7c-1.1-1.6-1.9-2.3-3.1-3.8c-0.3-0.4-0.6-0.6-0.8-1c-0.9-1.5-0.4-2.7,0.1-4.4c0.4-1.6,1.3-2.3,2.1-3.8
			c1.9-3.4,2.8-5.5,5-8.8c3.2-4.8,5.2-7.5,9.4-11.4c1-1,1.7-1.5,2.7-2.4c0,0,0.8-1.4,1.4-2.3C33.3,39.5,35.7,37.4,35.7,37.4z"/>
		<path class="st1" d="M35.7,37.4c0,0-1.3-6.6-0.9-10.7c0.5-5.5,2.8-8.2,4.7-13.4c0.4-1.2,0.8-1.9,1.1-3.1c0.5-1.7-0.1-3.1,1-4.5
			c0.5-0.6,0.9-0.9,1.7-1.3c1.4-0.8,2.4-1.2,4-0.9c1.7,0.3,2.3,1.4,3.6,2.5c4.9,3.7,6.9,6.7,10.7,11.5c2.2,2.8,3.1,4.6,5.4,7.3
			c2.3,2.8,3.9,4.2,6.4,6.8c0,0,3.3-0.6,5.4-0.6c3.2-0.1,4.9,0.6,8.1,0.8c3.2,0.2,5,0.3,8.3,0.1c3.2-0.2,4.9-0.8,8.1-0.9
			c3.3-0.2,5.1-0.3,8.4,0.2c3.4,0.5,5.3,1.4,8.6,2.6c3.3,1.2,5.2,1.8,8.3,3.5c1.8,1,2.8,1.6,4.4,2.8c0.9,0.6,1.4,1,2.2,1.8
			c0.5,0.6,1.2,0.8,1.2,1.5c0,0.6-0.1,1-0.5,1.3c-0.5,0.4-0.9,0.2-1.5,0.2c-1.3-0.1-1.9-0.9-3.1-1.5c-1.1-0.6-1.7-1.1-2.9-1.4
			c-1.2-0.4-2-0.2-3.3-0.3c-1.9-0.1-3,0.3-5,0.1c-1.8-0.2-3,0-4.4-1c-0.9-0.6-1.1-1.3-1.8-2.1c0,0-0.9,0-1.5,0
			c-1.9,0.1-3,0.4-4.9,0.8c-2.8,0.6-4.2,1.5-7,2.3c-2.7,0.7-4.1,1.6-6.9,1.7c-2.4,0-3.8-0.4-6.1-1.1c-1.3-0.4-2-0.9-3.3-1.2
			c-1.1-0.3-1.8-0.5-3-0.6c-0.5,0-0.8,0-1.3,0c0,0,1.1,2.4,1.7,4c0.4,1.3,0.6,2.1,0.9,3.5c0.2,0.9,0.6,1.4,0.5,2.4
			c-0.1,0.5,0,1-0.4,1.3c-0.3,0.2-0.5,0.3-0.9,0.3c-1,0-1.1-1.1-1.8-1.9c-0.7-0.7-1.1-1.2-1.9-1.9c-0.8-0.7-1.3-1.1-2.3-1.7
			c-0.7-0.4-1.2-0.6-1.9-1c-1-0.7-1.3-1.3-2.2-2.2c0,0-1.1,0.3-1.9,0.5c-2.5,0.8-3.8,1.7-6.3,2.4c-2.9,0.7-4.6,0.6-7.5,1
			c0,0-0.7,2.4-1.5,3.7c-0.9,1.2-1.5,1.9-2.8,2.7c-2.7,1.6-5,0.8-8.2,0.3c-1.7-0.3-2.5-1.1-4.2-1.1c-0.8,0-1.3-0.1-2.1,0.1
			c-1.5,0.4-2.2,1.2-3.3,2.3c-0.9,0.9-1.4,1.4-2,2.5c-0.8,1.4-0.9,2.4-1,4c-0.2,2.3,0.6,3.6,0.8,5.9c0.2,2.4,0.2,3.7,0.1,6.1
			c-0.1,2.3-0.1,3.6-0.6,5.9c-0.4,1.6-0.7,2.5-1.2,4c-0.6,1.8-1.1,2.8-1.8,4.5c0,0,1.2,0.9,1.8,1.8c0.4,0.6,0.5,1,0.7,1.7
			c0.2,0.9,0.1,1.4,0.2,2.3c0,0.6-0.4,1-0.1,1.5c0.3,0.3,0.6,0.4,1,0.4c0.4,0,0.7-0.2,1.1-0.2c0.3,0,0.6,0,0.9,0.2
			c0.3,0.2,0.4,0.4,0.6,0.6c0.2,0.2,0.3,0.4,0.5,0.6c0,0,0.3-0.3,0.5-0.4c1.1-0.9,1.9-0.9,3.2-1.4c1.5-0.5,2.4-0.6,4-1
			c1-0.2,1.8,0.1,2.7-0.5c0.3-0.2,0.5-0.3,0.7-0.6c0.2-0.4,0.1-0.7,0.2-1.1c0,0-1,0.3-1.7,0.4c-0.8,0.1-1.2,0.1-2,0.1
			c-1.3-0.1-2.1-0.2-3.3-0.7c-1-0.4-1.5-0.7-2.4-1.4c-0.6-0.5-0.9-0.8-1.3-1.4c-0.2-0.3-0.4-0.5-0.4-0.8c0-0.4,0.1-0.6,0.3-1
			c0.1-0.4,0.3-0.7,0.4-1.1c0.1-0.4,0.2-0.6,0-1c-0.2-0.3-0.5-0.4-0.8-0.5c-0.4-0.1-0.6,0-1,0.1c-0.4,0.1-0.6,0.2-0.9,0.4
			c-0.4,0.2-0.5,0.5-0.8,0.8c-0.2,0.2-0.3,0.5-0.6,0.6c-0.3,0-0.4-0.1-0.6-0.2c-0.5-0.4-0.2-1-0.3-1.7c-0.2-2.7,0.1-4.5,1.3-6.9
			c2.2-4.2,5.5-6.2,10.3-6.5c3.9-0.2,7,0.5,9.5,3.6c2.3,2.8,2.1,5.6,1.7,9.2c-0.3,2.5-0.8,4-2.1,6.2c-0.8,1.5-1.3,2.4-2.6,3.5
			c-1.6,1.4-2.9,1.7-5,2.2c-1.4,0.3-2.2,0.1-3.6,0.5c-1.3,0.3-2.2,0.4-3.3,1.3c-0.5,0.4-0.6,0.8-1.1,1.3c-0.3,0.3-0.3,0.8-0.8,0.8
			c-0.2,0-0.4-0.1-0.6-0.2c-0.5-0.3-0.6-0.6-1-1.1c-0.2-0.2-0.2-0.4-0.4-0.6c-0.1-0.1-0.2-0.1-0.4-0.2c-0.6-0.2-1,0.1-1.7,0.1
			c-0.6,0-1,0.3-1.5-0.1c-0.4-0.2-0.4-0.5-0.6-0.9c-0.4-0.8-0.1-1.4-0.1-2.4c0-0.6,0.2-1,0.2-1.7c-0.1-0.6-0.2-0.9-0.5-1.4
			c-0.2-0.4-0.5-0.5-0.8-0.8c0,0-0.5,2.7-0.5,4.4c-0.1,2,0.2,3.1,0.3,5c0.1,2.6,0.2,4,0,6.6c-0.2,2.7-0.8,4.2-1,6.9
			c-0.1,2.8,0.1,4.3,0.3,7.1c0.2,2.7,0.5,4.2,0.6,6.9c0.1,2.3,0.4,3.6,0.1,5.9c-0.3,2.4-0.9,3.6-1.8,5.9c-0.5,1.3-0.8,2.1-1.4,3.3
			c-0.4,0.8-0.5,1.3-1.1,1.9c-0.4,0.4-0.6,1-1.2,0.9c-0.2,0-0.4-0.1-0.6-0.3c-0.3-0.3-0.1-0.7-0.2-1.1c-0.2-1.8,0.4-2.8,0.4-4.6
			c0.1-2.9-0.4-4.5-0.6-7.3c-0.1-2.1-0.7-3.3-0.3-5.3c0.3-1.6,0.8-2.3,1.3-3.8c0,0-0.5-1.4-0.8-2.3c-0.5-1.5-0.8-2.3-1.2-3.8
			c-0.7-2.8-0.9-4.4-1.1-7.3c-0.2-2.4-0.2-3.8-0.1-6.3c0.1-2.3,0.2-3.5,0.4-5.8c0.2-2.9,0.6-4.5,0.4-7.3c-0.2-2.1-0.4-3.3-1.1-5.3
			c-0.8-2.4-1.5-3.7-2.9-5.7c-1.1-1.6-1.9-2.3-3.1-3.8c-0.3-0.4-0.6-0.6-0.8-1c-0.9-1.5-0.4-2.7,0.1-4.4c0.4-1.6,1.3-2.3,2.1-3.8
			c1.9-3.4,2.8-5.5,5-8.8c3.2-4.8,5.2-7.5,9.4-11.4c1-1,1.7-1.5,2.7-2.4c0,0,0.8-1.4,1.4-2.3C33.3,39.5,35.7,37.4,35.7,37.4z"/>
		<path class="st2" d="M62.9,34.3c-2.3-0.1-3.6-0.3-5.9-0.5c-2.8-0.2-4.4-0.5-7.3-0.5c-1.6,0-2.6-0.3-4.1,0.3
			c-0.8,0.3-1.3,0.4-1.9,1c-0.6,0.7-0.7,1.3-0.7,2.3c0,1.1,0.5,1.7,1,2.6c0.6,1.1,1.2,1.6,2.1,2.4c1.8,1.5,3.1,2.1,5.4,2.6
			c2.5,0.6,4,0.3,6.6,0.1c3.3-0.3,5.1-1,8.2-2c2.9-0.9,4.4-1.7,7.2-2.8c1.6-0.6,2.5-1.1,4.2-1.6c1-0.3,1.6-0.5,2.6-0.6
			c0.8,0,1.2,0.1,2,0.2c1.7,0.3,2.6,0.6,4.2,1.1c1.8,0.5,2.6,1.2,4.4,1.5c0.9,0.2,1.4,0.3,2.4,0.3c1.6,0,2.5-0.3,4-0.7
			c1.8-0.5,2.8-1.1,4.5-1.7c1.1-0.4,1.8-0.6,2.9-0.9c1.4-0.4,2.2-0.7,3.7-1.1c1.5-0.4,2.3-0.6,3.8-0.7c0.8-0.1,1.4-0.3,2.2-0.1
			c0.6,0.2,1.1,0.3,1.4,0.8c0.2,0.3,0.2,0.6,0.4,1c0.2,0.5,0.2,0.9,0.6,1.2c0.4,0.3,0.7,0.4,1.1,0.6c0.7,0.2,1.2,0.1,2,0.1
			c1.1,0,1.7-0.2,2.8-0.2c1.2,0,1.8,0,3,0.2c0.9,0.2,1.4,0.4,2.3,0.7c0,0-2.3-1.5-3.8-2.3c-2.1-1.1-3.4-1.6-5.6-2.4
			c-1.9-0.7-2.9-1.1-4.9-1.5c-3-0.6-4.8-0.5-7.9-0.4c-3,0.1-4.7,0.7-7.7,0.9c-3.8,0.3-6,0.6-9.8,0.1c-1.3-0.2-2.1-0.6-3.4-0.7
			c-1.8-0.2-2.8-0.1-4.5-0.1c-3,0-4.6,0.2-7.6,0.4c-2.7,0.1-4.2,0.3-6.8,0.3C64.9,34.4,64.2,34.4,62.9,34.3z"/>
		<path class="st2" d="M74,42.1c0,0,0.9-0.3,1.5-0.6c0.5-0.2,0.9-0.4,1.4-0.6c0,0,1,1.6,1.6,2.6c1,1.8,1.3,3,2.1,5
			c0,0-1.5-1.9-2.6-3c-0.6-0.7-1-1.1-1.7-1.7c-0.5-0.4-0.9-0.4-1.3-0.8C74.5,42.7,74,42.1,74,42.1z"/>
		<path class="st2" d="M70.7,31.9c0,0-2.3-2-3.7-3.4c-2.8-2.8-3.9-4.8-6.3-7.9c-2.1-2.6-3.2-4.2-5.4-6.8c-1.6-1.8-2.5-2.8-4.2-4.4
			c-1.4-1.3-1.9-2.5-3.7-3.1c-0.8-0.3-1.2-0.6-2-0.4c-0.7,0.2-0.9,0.6-1.4,1.1c-0.8,0.9-0.7,1.8-1,2.9c-0.2,0.8-0.3,1.2-0.5,2
			c-0.7,2.4-1.6,3.6-2.5,5.9c-0.7,1.8-1.3,2.8-1.8,4.6c-0.4,1.7-0.4,2.7-0.4,4.4c0,2,0.2,3.1,0.6,5.1c0.2,1.1,0.4,1.8,0.7,2.9
			c0,0,0.9-0.8,1.6-1.2c1-0.7,1.7-0.9,2.9-1.3c1.4-0.5,2.2-0.7,3.7-0.9c1.4-0.2,2.3-0.1,3.7-0.1c0,0-0.5-0.7-0.8-1.2
			c-0.6-0.9-0.9-1.5-1.3-2.5c-0.6-1.4-0.7-2.3-0.8-3.9c-0.1-1.5-0.1-2.4,0.1-3.9c0.1-0.9,0.2-1.4,0.3-2.4c0-1.2-0.1-1.8-0.3-3
			c-0.1-0.8-0.1-1.2-0.4-2c-0.1-0.4-0.4-0.5-0.5-0.9c0-0.3-0.1-0.5,0.1-0.7c0.1-0.1,0.2-0.2,0.4-0.2c0.4-0.1,0.7,0,1.1,0.3
			c0.6,0.4,0.7,0.9,1,1.6c0.7,1.3,0.8,2.1,1.3,3.5c0.5,1.4,0.7,2.3,1.4,3.6c0.7,1.3,1.2,1.9,2.2,3c1.4,1.4,2.4,1.9,4.1,3
			c1.4,0.9,2.4,1.1,3.8,2.1c0.9,0.6,1.4,1,2.1,1.8c0.8,0.8,0.9,1.7,1.9,2.3C68,32.6,70.7,31.9,70.7,31.9z"/>
		<path class="st2" d="M34.2,52.4c0,0-3.3-0.2-5.3,0.2c-1.7,0.3-2.5,0.9-4.1,1.4c0,0-1.2,1.6-1.8,2.7c-0.9,1.6-1.2,2.6-1.8,4.3
			c-0.8,2.5-0.8,4.1-1.6,6.6c-0.5,1.6-0.8,2.5-1.5,4c-0.5,1.1-1.2,1.5-1.4,2.6c-0.2,0.9-0.3,1.5,0,2.4c0.4,1.4,1.6,1.6,2.4,2.9
			c1,1.6,1.3,2.6,1.8,4.4c0.6,2.3,0.3,3.7,0.4,6.1c0.1,4-0.2,6.2-0.3,10.2c-0.1,2.9-0.4,4.6-0.2,7.5c0.2,3.3,0.4,5.1,1.4,8.3
			c0.4,1.2,0.7,1.9,1.1,3.1c0.3,0.8,0.5,1.2,0.6,2.1c0.1,0.8,0,1.3-0.1,2.1c-0.2,1.3-0.8,2-0.9,3.3c-0.2,1.7,0.2,2.6,0.4,4.3
			c0.2,1.7,0.4,2.7,0.4,4.4c0,1.1,0,1.7-0.1,2.8c0,0,1.1-2.4,1.4-4c0.3-1.4,0.4-2.2,0.4-3.7c0-1.9-0.6-3-0.8-4.9
			c-0.2-2.1-0.2-3.2-0.3-5.3c0-2,0.1-3.1,0.2-5.2c0.2-3.7,0.4-5.8,0.6-9.5c0.1-2,0.3-3.1,0.3-5c0-2.5-0.5-3.9-0.6-6.4
			c-0.1-1.4-0.3-2.2-0.1-3.6c0.2-1.3,0.7-2,1.2-3.3c0.8-1.9,1.6-2.9,2.3-4.9c0.3-0.7,0.4-1.2,0.6-1.9c0.2-0.5,0.3-0.8,0.4-1.3
			c0.3-1.6-0.1-2.5-0.3-4.1c-0.2-2.6-0.4-4-0.7-6.6c-0.3-2.3-0.9-3.6-0.9-5.9c0-1.4-0.1-2.3,0.4-3.6c0.5-1.2,1.1-1.8,2-2.8
			c0.9-1,1.4-1.6,2.4-2.4C32.9,53.2,34.2,52.4,34.2,52.4z"/>
		<path class="st0" d="M15.3,128.7v-2.8c0.2,0,0.4,0,0.8,0c0.3,0,0.5,0,0.6,0c0.2,0,0.4,0.1,0.5,0.1c0.2,0.1,0.4,0.4,0.4,0.7
			c0,0.2-0.1,0.4-0.2,0.5c-0.1,0.1-0.3,0.2-0.5,0.2c0.2,0,0.3,0.1,0.4,0.2c0.2,0.1,0.2,0.3,0.2,0.6v0.2c0,0,0,0.1,0,0.1
			c0,0,0,0.1,0,0.1l0,0.1h-0.7c0-0.1,0-0.2,0-0.4c0-0.2,0-0.3,0-0.3c0-0.1-0.1-0.2-0.2-0.2c-0.1,0-0.1,0-0.2,0l-0.2,0H16v1H15.3z
			 M16.6,126.4c-0.1,0-0.2-0.1-0.4-0.1H16v0.8h0.3c0.2,0,0.3,0,0.4-0.1c0.1-0.1,0.1-0.2,0.1-0.3C16.8,126.6,16.8,126.5,16.6,126.4z
			 M18.2,129.1c-0.5,0.5-1.1,0.7-1.8,0.7c-0.7,0-1.3-0.2-1.8-0.7c-0.5-0.5-0.7-1.1-0.7-1.8c0-0.7,0.3-1.3,0.8-1.8
			c0.5-0.5,1.1-0.7,1.7-0.7c0.7,0,1.3,0.2,1.8,0.7c0.5,0.5,0.7,1.1,0.7,1.8C18.9,128,18.7,128.6,18.2,129.1z M14.9,125.8
			c-0.4,0.4-0.6,0.9-0.6,1.5c0,0.6,0.2,1.1,0.6,1.5c0.4,0.4,0.9,0.6,1.5,0.6c0.6,0,1.1-0.2,1.5-0.6c0.4-0.4,0.6-0.9,0.6-1.5
			c0-0.6-0.2-1-0.6-1.5c-0.4-0.4-0.9-0.6-1.5-0.6C15.8,125.2,15.3,125.4,14.9,125.8z"/>
	</g>
</g>
<path class="st3" d="M-75.8-1789.6"/>
<path class="st3" d="M-75.8,2210.4"/>
<path class="st3" d="M-75.8-1789.6"/>
<path class="st3" d="M-75.8,2210.4"/>
<path class="st3" d="M-75.8-1789.6"/>
<path class="st3" d="M-75.8,2210.4"/>
<path class="st3" d="M-75.8-1789.6"/>
<path class="st3" d="M-75.8,2210.4"/>
<path class="st3" d="M-75.8-1789.6"/>
<path class="st3" d="M-75.8,2210.4"/>
<path class="st3" d="M-75.8-1789.6"/>
<path class="st3" d="M-75.8,2210.4"/>
<path class="st3" d="M-75.8-1789.6"/>
<path class="st3" d="M-75.8,2210.4"/>
<path class="st3" d="M-75.8-1789.6"/>
<path class="st3" d="M-75.8,2210.4"/>
<path class="st3" d="M-75.8-1789.6"/>
<path class="st3" d="M-75.8,2210.4"/>
<path class="st3" d="M-75.8-1789.6"/>
<path class="st3" d="M-75.8,2210.4"/>
<path class="st3" d="M-75.8-1789.6"/>
<path class="st3" d="M-75.8,2210.4"/>
<path class="st3" d="M-75.8-1789.6"/>
<path class="st3" d="M-75.8,2210.4"/>
<path class="st3" d="M-75.8-1789.6"/>
<path class="st3" d="M-75.8,2210.4"/>
<path class="st3" d="M-75.8-1789.6"/>
<path class="st3" d="M-75.8,2210.4"/>
<path class="st3" d="M-75.8-1789.6"/>
<path class="st3" d="M-75.8,2210.4"/>
<path class="st3" d="M-75.8-1789.6"/>
<path class="st3" d="M-75.8,2210.4"/>
<path class="st3" d="M-75.8-1789.6"/>
<path class="st3" d="M-75.8,2210.4"/>
<path class="st3" d="M-75.8-1789.6"/>
<path class="st3" d="M-75.8,2210.4"/>
<path class="st3" d="M-75.8-1789.6"/>
<path class="st3" d="M-75.8,2210.4"/>
<path class="st3" d="M-75.8-1789.6"/>
<path class="st3" d="M-75.8,2210.4"/>
<path class="st3" d="M-75.8-1789.6"/>
<path class="st3" d="M-75.8,2210.4"/>
<path class="st3" d="M-75.8-1789.6"/>
<path class="st3" d="M-75.8,2210.4"/>
<path class="st3" d="M-75.8-1789.6"/>
<path class="st3" d="M-75.8,2210.4"/>
<path class="st3" d="M-75.8-1789.6"/>
<path class="st3" d="M-75.8,2210.4"/>
<path class="st3" d="M-75.8-1789.6"/>
<path class="st3" d="M-75.8,2210.4"/>
<path class="st3" d="M-75.8-1789.6"/>
<path class="st3" d="M-75.8,2210.4"/>
<path class="st3" d="M-75.8-1789.6"/>
<path class="st3" d="M-75.8,2210.4"/>
<path class="st3" d="M-75.8-1789.6"/>
<path class="st3" d="M-75.8,2210.4"/>
<path class="st3" d="M-75.8-1789.6"/>
<path class="st3" d="M-75.8,2210.4"/>
<path class="st3" d="M-75.8-1789.6"/>
<path class="st3" d="M-75.8,2210.4"/>
<path class="st3" d="M-75.8-1789.6"/>
<path class="st3" d="M-75.8,2210.4"/>
<path class="st3" d="M-75.8-1789.6"/>
<path class="st3" d="M-75.8,2210.4"/>
<path class="st3" d="M-75.8-1789.6"/>
<path class="st3" d="M-75.8,2210.4"/>
<path class="st3" d="M-75.8-1789.6"/>
<path class="st3" d="M-75.8,2210.4"/>
<path class="st3" d="M-75.8-1789.6"/>
<path class="st3" d="M-75.8,2210.4"/>
<path class="st3" d="M-75.8-1789.6"/>
<path class="st3" d="M-75.8,2210.4"/>
<path class="st3" d="M-75.8-1789.6"/>
<path class="st3" d="M-75.8,2210.4"/>
<path class="st3" d="M-75.8-1789.6"/>
<path class="st3" d="M-75.8,2210.4"/>
<path class="st3" d="M-75.8-1789.6"/>
<path class="st3" d="M-75.8,2210.4"/>
<path class="st3" d="M-75.8-1789.6"/>
<path class="st3" d="M-75.8,2210.4"/>
<path class="st3" d="M-75.8-1789.6"/>
<path class="st3" d="M-75.8,2210.4"/>
<path class="st3" d="M-75.8-1789.6"/>
<path class="st3" d="M-75.8,2210.4"/>
<path class="st3" d="M-75.8-1789.6"/>
<path class="st3" d="M-75.8,2210.4"/>
<path class="st3" d="M-75.8-1789.6"/>
<path class="st3" d="M-75.8,2210.4"/>
<path class="st3" d="M-75.8-1789.6"/>
<path class="st3" d="M-75.8,2210.4"/>
<path class="st3" d="M-75.8-1789.6"/>
<path class="st3" d="M-75.8,2210.4"/>
<path class="st3" d="M-75.8-1789.6"/>
<path class="st3" d="M-75.8,2210.4"/>
<path class="st3" d="M-75.8-1789.6"/>
<path class="st3" d="M-75.8,2210.4"/>
<path class="st3" d="M-75.8-1789.6"/>
<path class="st3" d="M-75.8,2210.4"/>
<path class="st3" d="M-75.8-1789.6"/>
<path class="st3" d="M-75.8,2210.4"/>
<path class="st3" d="M-75.8-1789.6"/>
<path class="st3" d="M-75.8,2210.4"/>
<g>
	<path class="st4" d="M54,130.3l6.6,5.1h-2.3l-6.6-5.1H54z M58.8,130.3l6.6,5.1H63l-6.6-5.1H58.8z M62.1,129.1l6.7,5.2l-0.4,1.1
		h-0.6l-6.7-5.1h0.5L62.1,129.1z M63.1,126.2l6.8,5.2l-0.5,1.5l-6.7-5.2L63.1,126.2z M64.2,123.3l6.7,5.2l-0.5,1.4l-6.7-5.2
		L64.2,123.3z M67.8,122.4l6.6,5.1H72l-6.6-5.1H67.8z M69.3,108.6l3,2.4h-2.4l-1-0.9L69.3,108.6z M74.7,111l-4.9-3.8l0.5-1.4l6.7,5
		l-0.1,0.2H74.7z M72.6,122.4l6.6,5.1h-2.3l-6.7-5.1H72.6z M71.3,102.9L78,108l-0.5,1.5l-6.7-5.2L71.3,102.9z M72.3,99.9l5,3.9
		l0.9,2.6l-6.4-5L72.3,99.9z M75.6,98.8l0.8,2.4l-3.6-2.7l0.5-1.4L75.6,98.8z M74.2,94.6l0.6,1.7l-0.9-0.8L74.2,94.6z M77.4,122.4
		l6.6,5.1h-2.3l-6.7-5.1H77.4z M86.2,82.2l0.3,0.9L80,78l-0.3-0.9L86.2,82.2z M82.3,122.4l2.3,1.7l0.9,2.6l-5.6-4.3H82.3z
		 M80.9,80.7l6.6,5.1l1,2.6l-6.6-5.1L80.9,80.7z M82.8,85.8l6.6,5.1l1,2.6l-6.6-5.1L82.8,85.8z M84.8,91l6.6,5l1,2.7l-6.6-5.1
		L84.8,91z M86.7,96.2l6.6,5.1l1,2.6l-6.6-5.1L86.7,96.2z M88.6,101.3l6.5,5.1l1,2.7l-6.6-5.2L88.6,101.3z M92.5,130.3l6.5,5.1h-2.3
		l-6.5-5.1H92.5z M90.5,106.5l6.6,5.1l1,2.6l-6.6-5.1L90.5,106.5z M92.3,111.6l6.6,5.2l1,2.6l-6.6-5.1L92.3,111.6z M94.3,116.8
		l6.5,5.1l1,2.6l-6.6-5.1L94.3,116.8z M97.3,130.3l6.6,5.1h-2.5l-6.5-5.1H97.3z M96.1,121.9l6.5,5.2l1,2.6l-6.6-5.1L96.1,121.9z
		 M98.1,127.1l6.5,5.1l0.9,2.6l-6.5-5.1L98.1,127.1z"/>
	<path class="st4" d="M113.8,106.7v1.9l-6.7-5.2v-1.8L113.8,106.7z M114,105.1l-6.7-5.1c0-0.5,0.1-1.1,0.2-1.7l6.7,5.2L114,105.1z
		 M107.8,107.7c-0.2-0.8-0.4-1.5-0.4-2.2l6.5,5.1c0.1,0.7,0.1,1.4,0.3,2L107.8,107.7z M114.7,101.9l-6.6-5.2c0.1-0.5,0.3-1,0.5-1.4
		l6.7,5.1C114.9,100.9,114.9,101.4,114.7,101.9z M108.5,110.1l6.1,4.6c0.1,0.9,0.4,1.7,0.7,2.4l-5-3.9
		C109.6,112.4,109,111.3,108.5,110.1z M115.8,99l-6.8-5.2c0.2-0.4,0.5-0.9,0.8-1.3l6.7,5.2C116.2,98.2,116,98.6,115.8,99z
		 M117.3,96.5l-6.7-5.2c0.3-0.4,0.6-0.8,0.9-1.1l6.8,5.2L117.3,96.5z M112.2,129.4c1,0.4,2.1,0.7,3.3,1l6,4.6
		c-2.1-0.6-4.5-2.1-7.4-4.3L112.2,129.4z M119.3,94.3l-6.7-5.1c0.3-0.4,0.7-0.7,1.2-1l6.7,5.2L119.3,94.3z M121.8,92.6l-6.7-5.2
		l1.4-0.8l6.7,5.2L121.8,92.6z M124.9,91.3l-6.7-5.2c0.6-0.2,1.3-0.3,2-0.4l6.5,5.1L124.9,91.3z M131.8,91c-0.9-0.2-1.9-0.3-2.8-0.3
		l-6.5-5.1c1,0,2.1,0.2,3,0.5L131.8,91z M136.4,142.7l5.4,4.2c-3.1-1.2-7-3.6-8.3-4.5l-2.4-1.8C132.6,141.2,134.5,142.1,136.4,142.7
		z M132.2,129.1c0.2-0.1,0.4-0.2,0.6-0.3l2,1.6C133.8,130,132.9,129.5,132.2,129.1z M135.7,127.4l6.4,4.9c-0.9-0.1-2-0.2-3.2-0.6
		l-4.5-3.6L135.7,127.4z M138.3,125.7l6.6,5.1l-1.3,0.9l-6.5-5.1L138.3,125.7z M140.5,123.7l6.7,5l-1.1,1l-6.6-5.1L140.5,123.7z
		 M143.3,144.3l6.5,5c-1.2-0.2-2.3-0.5-3.4-0.8l-6.2-4.7C141.2,144,142.2,144.1,143.3,144.3z M142.6,121.5l6.6,5.1l-0.9,1.1
		l-6.7-5.1L142.6,121.5z M144.3,119.1l6.7,5.1l-0.8,1.2l-6.7-5L144.3,119.1z M151.7,93.3l-6.1-4.7c-0.6-1.1-1.3-2.4-2-3.4l3.5,2.9
		C148.7,89.4,150.3,91.1,151.7,93.3z M145.7,116.5l6.7,5.1l-0.8,1.4l-6.7-5.1L145.7,116.5z M148.2,144.2l6.7,5.2l-0.1,0.3
		c-0.6,0-1.5,0-2.2,0l-6.6-5.1c0.7,0.1,1.4,0.1,2.1,0.1L148.2,144.2z M146.9,113.7l6.7,5.2l-0.6,1.4l-6.6-5.2L146.9,113.7z
		 M154.2,98.9l-6.5-5c-0.3-0.8-0.6-1.7-0.8-2.5l6.4,5C153.6,97.2,153.9,98.1,154.2,98.9z M147.8,110.8l6.7,5.1
		c-0.1,0.5-0.3,1.1-0.4,1.6l-6.7-5.2C147.5,111.7,147.7,111.3,147.8,110.8z M148.4,107.5l6.7,5.2c-0.1,0.6-0.1,1.1-0.3,1.6l-6.7-5.1
		C148.3,108.6,148.4,108.1,148.4,107.5z M155.2,103.4l-6.6-5.1l-0.3-2.2l6.6,5.1C154.9,101.9,155.1,102.7,155.2,103.4z M149.1,141.3
		l6.7,5.2c-0.2,0.5-0.4,1.1-0.5,1.4l-6.7-5.2L149.1,141.3z M148.7,104l6.7,5.2l-0.1,1.7l-6.7-5.2C148.7,105.3,148.7,104.6,148.7,104
		z M155.5,107.3l-6.7-5.2l-0.1-1.9l6.7,5.1L155.5,107.3z M150.2,138.4l6.7,5.2l-0.6,1.4l-6.7-5.2L150.2,138.4z M157.4,142.2
		l-6.7-5.2l0.4-1.5l6.7,5.2C157.7,141.2,157.6,141.7,157.4,142.2z"/>
	<path class="st4" d="M163.6,78.3l6.7,5.2v1.9l-6.7-5.2V78.3z M163.6,82l6.7,5.2V89l-6.7-5.1V82z M163.6,85.7l6.7,5.2v1.8l-6.7-5.1
		V85.7z M163.6,89.5l6.7,5.2v1.8l-6.7-5.2V89.5z M163.6,93.2l6.7,5.1v1.9l-6.7-5.2V93.2z M163.6,96.9l6.7,5.1v1.9l-6.7-5.2V96.9z
		 M163.6,100.5l6.7,5.2v1.9l-6.7-5.2V100.5z M163.6,104.2l6.7,5.2v1.8l-6.7-5.1V104.2z M163.6,108l6.7,5.2c0,0.6,0,1.3,0.1,1.9
		l-6.7-5.1C163.7,109.3,163.6,108.6,163.6,108z M165.1,114.7c-0.4-0.8-0.8-1.6-1-2.6l6.5,5c0.1,0.8,0.4,1.6,0.7,2.3L165.1,114.7z
		 M165.9,130.1c1,0.4,2.2,0.7,3.5,0.8l6.3,4.9c-2.1-0.5-4-1.4-5.9-2.8L165.9,130.1z M178.6,136.2l-6.6-5h2.3l6.6,5
		c-0.3,0.1-0.8,0.1-1.2,0.1C179.4,136.2,179,136.2,178.6,136.2z M178.4,130.6l6.7,5.1c-0.7,0.2-1.3,0.3-1.9,0.4l-6.6-5.1
		L178.4,130.6z M186.9,135.1l-6.7-5.1c0.5-0.2,1.1-0.4,1.7-0.6l6.6,5.2C187.9,134.8,187.4,135,186.9,135.1z M190,133.9l-6.7-5.2
		l1.4-0.8l6.7,5.2L190,133.9z M192.6,132.2l-6.7-5.2l1.1-0.9l6.7,5.2C193.3,131.6,193,131.9,192.6,132.2z M194.8,130.2l-6.7-5.2
		l0.9-1.1l6.7,5.2L194.8,130.2z M196.7,127.9l-6.7-5.2l0.8-1.2l6.7,5.2L196.7,127.9z M192.1,118.8l6.7,5.1c-0.2,0.5-0.4,1.1-0.7,1.4
		l-6.7-5.2L192.1,118.8z M199.3,122.5l-6.7-5.2l0.4-1.5l6.7,5.2C199.6,121.5,199.4,122.1,199.3,122.5z M200.1,119.4l-6.7-5.2
		l0.3-1.6l6.7,5.2C200.3,118.3,200.2,119,200.1,119.4z M200.7,116.1L194,111c0.1-0.5,0.1-1.1,0.1-1.7l6.7,5.2L200.7,116.1z
		 M200.9,82v1l-6.7-5.2v-1L200.9,82z M194.2,79.7l6.7,5.2v1.8l-6.7-5.2V79.7z M194.2,83.4l6.7,5.2v1.8l-6.7-5.2V83.4z M194.2,87
		l6.7,5.2v1.8l-6.7-5.2V87z M194.2,90.7l6.7,5.2v1.8l-6.7-5.2V90.7z M194.2,94.5l6.7,5.2v1.9l-6.7-5.2V94.5z M194.2,98.2l6.7,5.2
		v1.9l-6.7-5.2V98.2z M194.2,101.9l6.7,5.2v1.8l-6.7-5.1V101.9z M200.9,112.6l-6.7-5.1v-1.9l6.7,5.2V112.6z"/>
	<path class="st4" d="M205.2,130.3l6.5,5.1h-2.3l-6.6-5.1H205.2z M210,130.3l6.6,5.1h-2.3l-6.6-5.1H210z M214.8,130.3l6.6,5.1H219
		l-6.6-5.1H214.8z M212.5,87.7l6.7,5.2v1.8l-6.7-5.2V87.7z M219.2,98.4l-6.7-5.2v-1.8l6.7,5.1V98.4z M212.5,95.1l4.3,3.3h-2.5
		l-1.9-1.4V95.1z M219.2,115.1v1.8l-6.7-5.2v-1.8L219.2,115.1z M216.7,118.7l-4.3-3.3v-1.8l6.7,5.1H216.7z M212.5,117.3l1.8,1.4
		h-1.8V117.3z M215.6,86.4l6.7,5.1h-2.4l-6.6-5.1H215.6z M217.3,109.9l6.7,5.1h-2.5l-6.6-5.1H217.3z M219.6,130.3l6.6,5.1h-2.3
		l-6.6-5.1H219.6z M220.4,86.4l6.7,5.1h-2.5l-6.5-5.1H220.4z M222.1,109.9l6.6,5.1h-2.4l-6.7-5.1H222.1z M224.5,130.3l6.5,5.1h-2.3
		l-6.6-5.1H224.5z M225.2,86.4l6.6,5.1h-2.4l-6.7-5.1H225.2z M226.9,109.9l6.6,5.1h-2.3l-6.6-5.1H226.9z M229.3,130.3l6.5,5.1h-2.4
		l-6.6-5.1H229.3z M230,86.4l6.7,5.1h-2.4l-6.7-5.1H230z M229,100.4l6.7,5.2v1.9l-6.7-5.2V100.4z M229,104.1l6.7,5.2v1.8L229,106
		V104.1z M229,107.8l6.7,5.2v1.8l-6.7-5.2V107.8z M238.3,135.3l-6.5-5.1h1.1v-1l6.7,5.2v0.9H238.3z M232.2,76.9l6.7,5.2v1.9
		l-6.7-5.2V76.9z M232.2,80.6l6.7,5.2v1.9l-6.7-5.2V80.6z M232.2,84.2l6.7,5.2v1.9l-6.7-5.2V84.2z M232.8,121.9l6.7,5.1v1.9
		l-6.7-5.2V121.9z M232.8,125.5l6.7,5.2v1.8l-6.7-5.2V125.5z"/>
	<path class="st4" d="M235.9,86.4h1.6l6.6,5.1h-1.6L235.9,86.4z M246.5,91.5l-6.5-5.1h2.4l4.1,3.2V91.5z M246.5,87.8l-1.7-1.4h1.7
		V87.8z M248.8,130.3h2.3l6.5,5.1h-2.3L248.8,130.3z M256,130.3l6.5,5.1H260l-6.5-5.1H256z M258.4,128.4l6.7,5.2v1.7h-0.2l-6.6-5.1
		h0.1V128.4z M258.4,87.7l6.7,5.2v1.8l-6.7-5.1V87.7z M258.4,91.4l6.7,5.2v1.8l-6.7-5.1V91.4z M258.4,95.1l6.7,5.2v1.8l-6.7-5.2
		V95.1z M258.4,98.9l6.7,5.1v1.9l-6.7-5.2V98.9z M258.4,102.6l6.7,5.1v1.9l-6.7-5.2V102.6z M258.4,106.2l6.7,5.2v1.9l-6.7-5.2V106.2
		z M258.4,109.9l6.7,5.2v1.8l-6.7-5.1V109.9z M258.4,113.6l6.7,5.2v1.8l-6.7-5.2V113.6z M258.4,117.4l6.7,5.2v1.8l-6.7-5.2V117.4z
		 M258.4,121.1l6.7,5.1v1.9l-6.7-5.2V121.1z M258.4,124.8l6.7,5.1v1.9l-6.7-5.2V124.8z M261.6,86.4l6.5,5.1h-2.4l-6.5-5.1H261.6z
		 M266.3,86.4l6.6,5.1h-2.4l-6.6-5.1H266.3z M271.1,86.4l6.7,5.1h-2.4l-6.6-5.1H271.1z M278,82v0.5l-6.7-5.2v-0.5L278,82z
		 M271.3,79.1l6.7,5.2v1.9l-6.7-5.2V79.1z M271.3,82.9L278,88v1.8l-6.7-5.2V82.9z"/>
	<path class="st4" d="M273,86.4h1.6l6.6,5.1h-1.6L273,86.4z M283.5,91.5l-6.5-5.1h2.4l4.1,3.2V91.5z M283.5,87.8l-1.7-1.4h1.7V87.8z
		 M285.9,130.3h2.3l6.5,5.1h-2.3L285.9,130.3z M293.1,130.3l6.5,5.1h-2.5l-6.5-5.1H293.1z M295.5,128.4l6.7,5.2v1.7H302l-6.6-5.1
		h0.1V128.4z M295.5,87.7l6.7,5.2v1.8l-6.7-5.1V87.7z M295.5,91.4l6.7,5.2v1.8l-6.7-5.1V91.4z M295.5,95.1l6.7,5.2v1.8l-6.7-5.2
		V95.1z M295.5,98.9l6.7,5.1v1.9l-6.7-5.2V98.9z M295.5,102.6l6.7,5.1v1.9l-6.7-5.2V102.6z M295.5,106.2l6.7,5.2v1.9l-6.7-5.2V106.2
		z M295.5,109.9l6.7,5.2v1.8l-6.7-5.1V109.9z M295.5,113.6l6.7,5.2v1.8l-6.7-5.2V113.6z M295.5,117.4l6.7,5.2v1.8l-6.7-5.2V117.4z
		 M295.5,121.1l6.7,5.1v1.9l-6.7-5.2V121.1z M295.5,124.8l6.7,5.1v1.9l-6.7-5.2V124.8z M298.6,86.4l6.5,5.1h-2.4l-6.5-5.1H298.6z
		 M303.4,86.4l6.6,5.1h-2.4l-6.6-5.1H303.4z M308.2,86.4l6.7,5.1h-2.4l-6.6-5.1H308.2z M315.1,82v0.5l-6.7-5.2v-0.5L315.1,82z
		 M308.4,79.1l6.7,5.2v1.9l-6.7-5.2V79.1z M308.4,82.9l6.7,5.2v1.8l-6.7-5.2V82.9z"/>
	<path class="st4" d="M315.9,130.3l6.5,5.1h-2.3l-6.6-5.1H315.9z M320.7,130.3l6.6,5.1H325l-6.6-5.1H320.7z M325.5,130.3l6.6,5.1
		h-2.4l-6.6-5.1H325.5z M323.2,87.7l6.7,5.2v1.8l-6.7-5.2V87.7z M329.9,98.4l-6.7-5.2v-1.8l6.7,5.1V98.4z M323.2,95.1l4.3,3.3H325
		l-1.9-1.4V95.1z M329.9,115.1v1.8l-6.7-5.2v-1.8L329.9,115.1z M327.5,118.7l-4.3-3.3v-1.8l6.7,5.1H327.5z M323.2,117.3l1.8,1.4
		h-1.8V117.3z M326.3,86.4l6.7,5.1h-2.4l-6.6-5.1H326.3z M328,109.9l6.7,5.1h-2.5l-6.6-5.1H328z M330.3,130.3l6.6,5.1h-2.3l-6.6-5.1
		H330.3z M331.1,86.4l6.7,5.1h-2.5l-6.5-5.1H331.1z M332.8,109.9l6.6,5.1H337l-6.7-5.1H332.8z M335.2,130.3l6.5,5.1h-2.3l-6.6-5.1
		H335.2z M335.9,86.4l6.6,5.1h-2.4l-6.7-5.1H335.9z M337.6,109.9l6.6,5.1h-2.3l-6.6-5.1H337.6z M340,130.3l6.5,5.1h-2.4l-6.6-5.1
		H340z M340.7,86.4l6.7,5.1H345l-6.7-5.1H340.7z M339.7,100.4l6.7,5.2v1.9l-6.7-5.2V100.4z M339.7,104.1l6.7,5.2v1.8l-6.7-5.2V104.1
		z M339.7,107.8l6.7,5.2v1.8l-6.7-5.2V107.8z M349,135.3l-6.5-5.1h1.1v-1l6.7,5.2v0.9H349z M342.9,76.9l6.7,5.2v1.9l-6.7-5.2V76.9z
		 M342.9,80.6l6.7,5.2v1.9l-6.7-5.2V80.6z M342.9,84.2l6.7,5.2v1.9l-6.7-5.2V84.2z M343.5,121.9l6.7,5.1v1.9l-6.7-5.2V121.9z
		 M343.5,125.5l6.7,5.2v1.8l-6.7-5.2V125.5z"/>
	<path class="st4" d="M349.4,128.7c1.2,0.6,2.7,1.1,4.3,1.6l5.9,4.5c-2.8-1-5.5-2.5-8.1-4.4l-0.8-0.6L349.4,128.7z M359.6,131.1
		l6.6,5.1c-0.9-0.1-1.9-0.2-2.8-0.4l-6.5-5C357.8,131,358.6,131.1,359.6,131.1z M358.1,89.1l6.7,5.2c0,0.4,0,0.8,0.1,1.1
		C360.3,93.3,358.3,91.5,358.1,89.1z M358.4,87.7c0.2-0.4,0.6-0.8,1.1-1.1l6.7,5.2c-0.5,0.3-0.8,0.8-1,1.1L358.4,87.7z M359.7,107
		c3,1.7,4.9,2.7,6.1,4.2l-2.6-1.4L359.7,107z M363.1,85.7l6.6,5.1c-0.8,0.1-1.5,0.2-2,0.3l-6.7-5.2
		C361.6,85.8,362.4,85.7,363.1,85.7z M368.7,136.2l-6.7-5.2c0.7,0,1.4-0.1,2.1-0.2l6.7,5.1C370.1,136.2,369.4,136.2,368.7,136.2z
		 M372.3,90.9l-6.5-5c1.4,0.3,3,0.9,4.4,1.6l5.6,4.3C374.6,91.3,373.4,91,372.3,90.9z M372.7,135.7l-6.6-5.1l1.8-0.5l6.7,5.2
		L372.7,135.7z M376.2,134.7l-6.6-5.2c0.5-0.2,1-0.5,1.4-0.7l6.7,5.2L376.2,134.7z M379,133.2l-6.6-5.2l1.2-0.9l6.7,5.2
		C379.9,132.6,379.4,132.9,379,133.2z M373.9,86.6l6.7,5.2l-0.5,1.5l-6.7-5.2L373.9,86.6z M375,83.7l6.7,5.2l-0.5,1.4l-6.7-5.2
		L375,83.7z M381.4,131.2l-6.7-5.2l0.9-1l6.8,5.1L381.4,131.2z M383,110.2l-6.2-4.8c-0.5-0.9-1.3-1.9-2-2.7l3.4,2.5
		C380.1,106.7,381.8,108.3,383,110.2z M376,80.7l6.7,5.2l-0.5,1.5l-6.7-5.2L376,80.7z M383.2,128.9l-6.7-5.2
		c0.2-0.4,0.4-0.8,0.7-1.3l6.7,5.2C383.6,128.1,383.4,128.5,383.2,128.9z M384.5,126.2l-6.7-5.2c0.1-0.4,0.3-0.9,0.5-1.4l6.7,5.2
		C384.8,125.2,384.6,125.7,384.5,126.2z M385.3,115.7l-6.6-5.1c-0.2-0.8-0.3-1.6-0.6-2.4l6.5,5.1
		C384.9,114.1,385.1,114.8,385.3,115.7z M385.3,123.1l-6.7-5.2c0.1-0.5,0.2-1,0.2-1.7l6.7,5.2C385.5,122,385.4,122.6,385.3,123.1z
		 M385.6,117.7c0.1,0.7,0.1,1.3,0.1,1.9l-6.7-5.1c0-0.6,0-1.2-0.1-1.9L385.6,117.7z"/>
</g>
<g>
	<path class="st5" d="M84.6,121.2H63.8l-2.8,7.9H50.7L70.2,76h8l19.5,53.1H87.4L84.6,121.2z M90.5,125.3H92L74.7,79.9h-1.1
		l-17.2,45.4h1.5l3-8h26.5L90.5,125.3z M74.2,82.1L86.9,116H61.4L74.2,82.1z M66.9,112.1h14.5l-7.2-20.6L66.9,112.1z"/>
	<path class="st5" d="M121.9,75.1c14.5,0,25.9,11.4,25.9,27.5c0,13.1-7.5,23.1-18.1,26.3c4.3,2.7,9.9,4.9,17.2,4.9
		c1.1,0,2.3-0.1,3.5-0.2c0,3.4-2.3,6.4-3,9.9c-11.9,0-21-6.1-30.1-13.9c-12.2-2-21.2-12.7-21.2-27C96,86.5,107.4,75.1,121.9,75.1z
		 M119.8,125.9c5.9,7.3,14.1,12.1,24.7,13.2c0.1-0.5,0.5-0.9,0.6-1.4c-9.8-0.7-18.1-5.2-23.6-11.7h0.4c12.1,0,21.5-9.8,21.5-23.4
		c0-13.7-9.4-23.4-21.5-23.4s-21.5,9.8-21.5,23.4C100.4,115.5,108.7,124.9,119.8,125.9z M121.9,80.5c11.2,0,20.1,9,20.1,22.1
		c0,13-8.9,22.1-20.1,22.1c-11.2,0-20.1-9-20.1-22.1C101.8,89.5,110.7,80.5,121.9,80.5z M137.7,102.6c0-10.7-6.6-18-15.8-18
		s-15.8,7.4-15.8,18c0,10.8,7.3,18,15.8,18S137.7,113.3,137.7,102.6z"/>
	<path class="st5" d="M152.6,106.7V76h9.9v31.3c0,9.3,5,13.3,10.3,13.3c5.4,0,10.3-3.9,10.3-13.3V76h9.9v30.6
		c0,16.1-9.2,23.4-20.3,23.4S152.6,122.7,152.6,106.7z M188.9,106.7V79.8h-1.4v27.5c0,11.9-6.8,17.3-14.6,17.3s-14.6-5.4-14.6-17.3
		V79.8h-1.4v26.8c0,13.5,7.2,19.3,16,19.3S188.9,120.2,188.9,106.7z"/>
	<path class="st5" d="M201.5,76h29.6v9.3h-19.7v14.3H228v9.3h-16.5v11.1h20.3v9.3h-30.3V76z M205.8,125.2H228v-1.4h-20.8v-19h17
		v-1.4h-17V81.3h20.2V80h-21.6V125.2z"/>
	<path class="st5" d="M247.5,85.3h-12.9V76h35.7v9.3h-12.9v43.8h-9.9V85.3z M251.8,125.3h1.4v-44h13.4V80h-28.1v1.4h13.4V125.3z"/>
	<path class="st5" d="M284.6,85.3h-12.9V76h35.7v9.3h-12.9v43.8h-9.9V85.3z M288.9,125.3h1.4v-44h13.4V80h-28.1v1.4h13.4V125.3z"/>
	<path class="st5" d="M312.2,76h29.6v9.3h-19.7v14.3h16.5v9.3h-16.5v11.1h20.3v9.3h-30.3V76z M316.5,125.2h22.2v-1.4h-20.8v-19h17
		v-1.4h-17V81.3h20.2V80h-21.6V125.2z"/>
	<path class="st5" d="M347,89.5c0-8.6,5.5-14.4,15.5-14.4c4.6,0,9.4,1.4,13,3.7l-3,8.6c-2.5-1.8-5.8-3-9-3c-4.3,0-6.4,1.7-6.4,4.5
		c0,3,1.8,4.7,8.3,8c8.4,4.2,12.5,8.9,12.5,16.9c0,9.8-6.1,16.1-17.4,16.1c-5,0-10.4-1.6-14.5-4.3l3-8.8c3.1,2.4,7.3,3.7,11,3.7
		c4.8,0,7.8-2.1,7.8-5.8c0-3.9-2.5-6.1-8.4-8.9C349.8,101.3,347,96.4,347,89.5z M372.2,114.6c0,6.2-3.9,10-11.8,10
		c-3,0-6.8-0.8-9.6-2.5l-0.5,1.4c2.8,1.7,6.8,2.5,10.1,2.5c8.2,0,13.1-3.9,13.1-11.4c0-6.8-3.1-9.8-10.3-13.5
		C355,97,352.8,94,352.8,89.5c0-5.5,3.7-9,10-9c2.8,0,5.4,0.5,7.8,1.7L371,81c-2.2-1.1-5.3-1.8-8.3-1.8c-6.7,0-11.2,3.8-11.2,10.4
		c0,5.7,3.2,8.9,10.8,12.7C369.4,105.8,372.2,108.6,372.2,114.6z"/>
</g>
<g>
	<path class="st6" d="M118.9,49.1h7c2,0,3.5,0.6,4.5,1.6c0.9,0.9,1.3,2.1,1.3,3.5v0c0,2.5-1.3,4-3.3,4.8l3.8,5.5h-4l-3.3-4.9h0h-2.6
		v4.9h-3.4V49.1z M125.7,56.6c1.6,0,2.6-0.9,2.6-2.2v0c0-1.5-1-2.2-2.7-2.2h-3.4v4.4H125.7z"/>
	<path class="st6" d="M143.7,49.1h3.4v15.4h-3.4V49.1z"/>
	<path class="st6" d="M158.4,49.1h3.7l4,10.8l4-10.8h3.7l-6.2,15.5h-3L158.4,49.1z"/>
	<path class="st6" d="M185.1,49.1h11.6v3h-8.3v3.1h7.3v3h-7.3v3.2h8.4v3h-11.7V49.1z"/>
	<path class="st6" d="M208.6,49.1h7c2,0,3.5,0.6,4.5,1.6c0.9,0.9,1.3,2.1,1.3,3.5v0c0,2.5-1.3,4-3.3,4.8l3.8,5.5h-4l-3.3-4.9h0H212
		v4.9h-3.4V49.1z M215.4,56.6c1.6,0,2.6-0.9,2.6-2.2v0c0-1.5-1-2.2-2.7-2.2H212v4.4H215.4z"/>
	<path class="st6" d="M232.2,62.3l2-2.4c1.4,1.1,2.8,1.9,4.6,1.9c1.4,0,2.2-0.5,2.2-1.5v0c0-0.9-0.5-1.3-3.1-2
		c-3.1-0.8-5.1-1.7-5.1-4.7v0c0-2.8,2.2-4.6,5.4-4.6c2.2,0,4.2,0.7,5.7,2l-1.8,2.6c-1.4-0.9-2.7-1.5-4-1.5c-1.3,0-2,0.6-2,1.3v0
		c0,1,0.7,1.3,3.3,2c3.1,0.8,4.9,1.9,4.9,4.6v0c0,3.1-2.3,4.8-5.7,4.8C236.4,64.8,234.1,64,232.2,62.3z"/>
	<path class="st6" d="M256.3,49.1h3.4v15.4h-3.4V49.1z"/>
	<path class="st6" d="M272.4,49.1h6c4.8,0,8.2,3.3,8.2,7.7v0c0,4.3-3.3,7.7-8.2,7.7h-6V49.1z M278.4,61.5c2.8,0,4.6-1.9,4.6-4.6v0
		c0-2.7-1.9-4.6-4.6-4.6h-2.6v9.3H278.4z"/>
	<path class="st6" d="M298.4,49.1H310v3h-8.3v3.1h7.3v3h-7.3v3.2h8.4v3h-11.7V49.1z"/>
</g>
<path class="st3" d="M-75.8-1789.6"/>
<path class="st3" d="M-75.8,2210.4"/>
<path class="st3" d="M-75.8-1789.6"/>
<path class="st3" d="M-75.8,2210.4"/>
<path class="st3" d="M-75.8-1789.6"/>
<path class="st3" d="M-75.8,2210.4"/>
<path class="st3" d="M-75.8-1789.6"/>
<path class="st3" d="M-75.8,2210.4"/>
<path class="st3" d="M-75.8-1789.6"/>
<path class="st3" d="M-75.8,2210.4"/>
<path class="st3" d="M-75.8-1789.6"/>
<path class="st3" d="M-75.8,2210.4"/>
<path class="st3" d="M-75.8-1789.6"/>
<path class="st3" d="M-75.8,2210.4"/>
<path class="st3" d="M-75.8-1789.6"/>
<path class="st3" d="M-75.8,2210.4"/>
<path class="st3" d="M-75.8-1789.6"/>
<path class="st3" d="M-75.8,2210.4"/>
<path class="st3" d="M-75.8,2210.4"/>
<path class="st3" d="M-75.8-1789.6"/>
</svg>
