<?xml version="1.0" encoding="utf-8"?>
<!-- Generator: Adobe Illustrator 17.1.0, SVG Export Plug-In . SVG Version: 6.00 Build 0)  -->
<!DOCTYPE svg PUBLIC "-//W3C//DTD SVG 1.1//EN" "http://www.w3.org/Graphics/SVG/1.1/DTD/svg11.dtd">
<svg version="1.1" id="Layer_1" xmlns="http://www.w3.org/2000/svg" xmlns:xlink="http://www.w3.org/1999/xlink" x="0px" y="0px"
	 viewBox="0 0 229.2 26.5" style="enable-background:new 0 0 229.2 26.5;" xml:space="preserve">
<style type="text/css">
	.st0{fill:#C1B900;}
</style>
<g>
	<path class="st0" d="M11.5,0h3.4L3.4,26.5H0L11.5,0z"/>
	<path class="st0" d="M25.8,0h3.4L17.7,26.5h-3.4L25.8,0z"/>
	<path class="st0" d="M40.1,0h3.4L31.9,26.5h-3.4L40.1,0z"/>
	<path class="st0" d="M54.4,0h3.4L46.2,26.5h-3.4L54.4,0z"/>
	<path class="st0" d="M68.7,0H72L60.5,26.5h-3.4L68.7,0z"/>
	<path class="st0" d="M83,0h3.4L74.8,26.5h-3.4L83,0z"/>
	<path class="st0" d="M97.3,0h3.4L89.1,26.5h-3.4L97.3,0z"/>
	<path class="st0" d="M111.6,0h3.4l-11.5,26.5H100L111.6,0z"/>
	<path class="st0" d="M125.9,0h3.4l-11.5,26.5h-3.4L125.9,0z"/>
	<path class="st0" d="M140.1,0h3.4L132,26.5h-3.4L140.1,0z"/>
	<path class="st0" d="M154.4,0h3.4l-11.5,26.5h-3.4L154.4,0z"/>
	<path class="st0" d="M168.7,0h3.4l-11.5,26.5h-3.4L168.7,0z"/>
	<path class="st0" d="M183,0h3.4l-11.5,26.5h-3.4L183,0z"/>
	<path class="st0" d="M197.3,0h3.4l-11.5,26.5h-3.4L197.3,0z"/>
	<path class="st0" d="M211.6,0h3.4l-11.5,26.5H200L211.6,0z"/>
	<path class="st0" d="M225.8,0h3.4l-11.5,26.5h-3.4L225.8,0z"/>
</g>
</svg>
