<?xml version="1.0" encoding="utf-8"?>
<!-- Generator: Adobe Illustrator 17.1.0, SVG Export Plug-In . SVG Version: 6.00 Build 0)  -->
<!DOCTYPE svg PUBLIC "-//W3C//DTD SVG 1.1//EN" "http://www.w3.org/Graphics/SVG/1.1/DTD/svg11.dtd">
<svg version="1.1" id="Layer_1" xmlns="http://www.w3.org/2000/svg" xmlns:xlink="http://www.w3.org/1999/xlink" x="0px" y="0px"
	 viewBox="0 0 323.643 216" enable-background="new 0 0 323.643 216" xml:space="preserve">
<path fill="#0071CE" d="M323.583,216V109.039c-3.542-0.37-6.606-1.578-8.606-3.273c-2.423,2.053-6.404,3.395-10.909,3.395
	c-4.505,0-8.486-1.341-10.909-3.395c-2.423,2.053-6.404,3.395-10.909,3.395c-4.505,0-8.486-1.341-10.909-3.395
	c-2.423,2.053-6.404,3.395-10.909,3.395c-4.505,0-8.486-1.341-10.909-3.395c-2.413,2.045-6.373,3.383-10.856,3.394
	c-4.483-0.011-8.442-1.348-10.856-3.394c-0.017,0.014-0.036,0.028-0.053,0.042c-0.017-0.014-0.036-0.028-0.053-0.043
	c-2.413,2.045-6.373,3.383-10.856,3.394c-4.483-0.011-8.442-1.348-10.856-3.394c-0.017,0.014-0.036,0.028-0.053,0.042
	c-0.017-0.014-0.036-0.028-0.053-0.043c-2.413,2.045-6.373,3.383-10.856,3.394c-0.056,0-0.111-0.003-0.167-0.003
	c-0.391-0.002-0.776-0.019-1.158-0.042c-3.932-0.243-7.358-1.508-9.531-3.349c-2.423,2.053-6.404,3.395-10.909,3.395
	c-4.505,0-8.486-1.341-10.909-3.395c-2.423,2.053-6.404,3.395-10.909,3.395c-4.505,0-8.486-1.341-10.909-3.395
	c-2.166,1.836-5.579,3.099-9.496,3.347l0-0.001c-0.251,0.018-0.513,0.029-0.776,0.037c-0.052,0.001-0.104,0.002-0.156,0.003
	c-0.189,0.004-0.378,0.007-0.564,0.007c-4.47-0.016-8.418-1.352-10.826-3.393c-0.032,0.027-0.067,0.053-0.1,0.08
	c-0.033-0.027-0.068-0.052-0.1-0.079c-2.399,2.033-6.327,3.366-10.778,3.392c-0.503-0.002-0.999-0.019-1.488-0.053l0.002,0.012
	c-3.942-0.239-7.378-1.505-9.555-3.35c-2.423,2.053-6.404,3.395-10.909,3.395c-4.505,0-8.486-1.341-10.909-3.395
	c-2.423,2.053-6.404,3.395-10.909,3.395c-4.505,0-8.486-1.341-10.909-3.395c-2.423,2.053-6.404,3.395-10.909,3.395
	c-4.505,0-8.486-1.341-10.909-3.395c-2.423,2.053-6.404,3.395-10.909,3.395c-4.505,0-8.486-1.341-10.909-3.395
	c-2.154,1.826-5.542,3.086-9.432,3.343V216H323.583z"/>
<rect x="0" y="186" fill="#46BFB8" width="323.583" height="30"/>
<g display="none">
	<g display="inline">
		<path fill-rule="evenodd" clip-rule="evenodd" fill="#46BFB8" d="M62.498,42.628c-0.089-0.307-0.104-0.498-0.078-0.817
			c0.028-0.337,0.054-0.549,0.233-0.836c0.128-0.205,0.189-0.414,0.428-0.447c0.122-0.017,0.202,0,0.311,0.058
			c0.169,0.091,0.191,0.235,0.272,0.408c0.119,0.253,0.08,0.431,0.156,0.7c0.041,0.145,0.052,0.233,0.117,0.369
			c0.05,0.104,0.084,0.162,0.156,0.253c0.096,0.122,0.187,0.157,0.292,0.272c0.12,0.133,0.219,0.198,0.272,0.369
			c0.078,0.251,0.025,0.453-0.136,0.661c-0.139,0.18-0.283,0.245-0.506,0.292c-0.322,0.068-0.535-0.043-0.817-0.214
			C62.772,43.439,62.638,43.107,62.498,42.628z"/>
		<g>
			<path fill-rule="evenodd" clip-rule="evenodd" fill="#46BFB8" d="M63.49,0.437c0,0-1.006-4.937-0.7-8.088
				c0.405-4.163,2.146-6.18,3.578-10.11c0.332-0.911,0.571-1.407,0.855-2.333c0.402-1.308-0.087-2.361,0.778-3.422
				c0.395-0.485,0.704-0.696,1.244-1.011c1.048-0.612,1.837-0.91,3.033-0.7c1.268,0.223,1.696,1.089,2.722,1.867
				c3.678,2.786,5.2,5.035,8.088,8.633c1.671,2.082,2.34,3.467,4.044,5.522c1.753,2.114,2.941,3.131,4.822,5.133
				c0,0,2.457-0.422,4.044-0.467c2.377-0.067,3.692,0.485,6.066,0.622c2.423,0.14,3.798,0.203,6.222,0.078
				c2.378-0.123,3.687-0.59,6.066-0.7c2.455-0.114,3.871-0.222,6.3,0.156c2.598,0.404,3.983,1.05,6.455,1.944
				c2.479,0.897,3.911,1.375,6.222,2.644c1.35,0.741,2.108,1.181,3.344,2.1c0.658,0.489,1.066,0.731,1.633,1.322
				c0.403,0.421,0.897,0.585,0.933,1.167c0.026,0.422-0.064,0.741-0.389,1.011c-0.353,0.293-0.708,0.178-1.167,0.156
				c-1.016-0.051-1.423-0.712-2.333-1.167c-0.849-0.425-1.265-0.825-2.178-1.089c-0.937-0.27-1.515-0.187-2.489-0.233
				c-1.455-0.069-2.285,0.236-3.733,0.078c-1.331-0.146-2.263,0.012-3.344-0.778c-0.643-0.47-0.807-0.949-1.322-1.555
				c0,0-0.712-0.018-1.167,0c-1.445,0.058-2.246,0.298-3.655,0.622c-2.112,0.486-3.201,1.127-5.288,1.711
				c-2.012,0.563-3.121,1.223-5.211,1.244c-1.82,0.019-2.847-0.325-4.589-0.855c-0.992-0.302-1.491-0.651-2.489-0.933
				c-0.864-0.245-1.359-0.411-2.255-0.467c-0.394-0.024-0.617,0-1.011,0c0,0,0.844,1.819,1.244,3.033
				c0.334,1.013,0.455,1.606,0.7,2.644c0.164,0.695,0.469,1.079,0.389,1.789c-0.046,0.41,0.003,0.744-0.311,1.011
				c-0.219,0.187-0.412,0.224-0.7,0.233c-0.751,0.023-0.799-0.861-1.322-1.4c-0.538-0.554-0.814-0.897-1.4-1.4
				c-0.626-0.538-1.012-0.806-1.711-1.244c-0.529-0.332-0.892-0.414-1.4-0.778c-0.733-0.524-0.996-0.996-1.633-1.633
				c0,0-0.857,0.226-1.4,0.389c-1.894,0.567-2.831,1.29-4.744,1.789c-2.163,0.564-3.463,0.474-5.677,0.778
				c0,0-0.495,1.826-1.167,2.8c-0.645,0.936-1.123,1.44-2.1,2.022c-2.06,1.228-3.776,0.61-6.144,0.233
				c-1.272-0.202-1.903-0.792-3.189-0.855c-0.607-0.03-0.965-0.064-1.555,0.078c-1.145,0.275-1.643,0.891-2.489,1.711
				c-0.667,0.646-1.041,1.047-1.478,1.867c-0.574,1.078-0.667,1.817-0.778,3.033c-0.158,1.739,0.484,2.693,0.622,4.433
				c0.141,1.784,0.158,2.8,0.078,4.589c-0.078,1.737-0.091,2.736-0.467,4.433c-0.268,1.208-0.531,1.863-0.933,3.033
				c-0.465,1.353-0.807,2.087-1.322,3.422c0,0,0.929,0.708,1.322,1.322c0.285,0.446,0.408,0.733,0.544,1.244
				c0.172,0.646,0.113,1.042,0.117,1.711c0.003,0.44-0.316,0.786-0.039,1.128c0.206,0.254,0.453,0.28,0.778,0.311
				c0.323,0.031,0.492-0.16,0.817-0.156c0.262,0.003,0.429-0.005,0.661,0.117c0.228,0.119,0.299,0.271,0.467,0.467
				c0.148,0.173,0.213,0.285,0.35,0.467c0,0,0.208-0.196,0.35-0.311c0.798-0.644,1.442-0.715,2.411-1.05
				c1.137-0.393,1.818-0.487,2.994-0.739c0.785-0.168,1.35,0.051,2.022-0.389c0.216-0.141,0.371-0.207,0.506-0.428
				c0.167-0.275,0.071-0.498,0.117-0.817c0,0-0.774,0.234-1.283,0.311c-0.571,0.087-0.901,0.102-1.478,0.078
				c-0.975-0.041-1.545-0.141-2.45-0.506c-0.75-0.302-1.166-0.534-1.789-1.05c-0.438-0.363-0.709-0.569-1.011-1.05
				c-0.144-0.23-0.278-0.353-0.311-0.622c-0.036-0.296,0.112-0.453,0.194-0.739c0.097-0.336,0.224-0.509,0.272-0.855
				c0.04-0.285,0.14-0.487,0-0.739c-0.139-0.25-0.345-0.317-0.622-0.389c-0.279-0.073-0.459-0.032-0.739,0.039
				c-0.276,0.07-0.426,0.15-0.661,0.311c-0.265,0.182-0.35,0.361-0.583,0.583c-0.179,0.17-0.222,0.394-0.467,0.428
				c-0.19,0.026-0.309-0.046-0.467-0.156c-0.403-0.281-0.151-0.755-0.194-1.244c-0.182-2.047,0.051-3.354,1.011-5.172
				c1.664-3.152,4.18-4.658,7.738-4.861c2.975-0.169,5.294,0.356,7.155,2.683c1.715,2.144,1.592,4.194,1.283,6.922
				c-0.217,1.921-0.605,3.022-1.555,4.705c-0.634,1.123-0.999,1.812-1.983,2.644c-1.218,1.03-2.186,1.284-3.733,1.672
				c-1.024,0.257-1.662,0.083-2.683,0.35c-0.995,0.26-1.679,0.292-2.45,0.972c-0.38,0.336-0.473,0.638-0.817,1.011
				c-0.218,0.237-0.262,0.572-0.583,0.583c-0.177,0.006-0.271-0.072-0.428-0.156c-0.379-0.202-0.474-0.478-0.739-0.817
				c-0.127-0.163-0.139-0.314-0.311-0.428c-0.108-0.071-0.186-0.082-0.311-0.117c-0.468-0.13-0.758,0.071-1.244,0.078
				c-0.455,0.006-0.789,0.215-1.167-0.039c-0.272-0.183-0.336-0.399-0.467-0.7c-0.278-0.64-0.071-1.092-0.039-1.789
				c0.022-0.487,0.178-0.761,0.117-1.244c-0.055-0.428-0.113-0.689-0.35-1.05c-0.188-0.287-0.38-0.38-0.622-0.622
				c0,0-0.346,2.008-0.389,3.305c-0.049,1.473,0.182,2.299,0.233,3.772c0.067,1.925,0.131,3.017,0,4.939
				c-0.14,2.048-0.637,3.161-0.739,5.211c-0.104,2.092,0.093,3.276,0.233,5.366c0.136,2.021,0.363,3.149,0.467,5.172
				c0.089,1.742,0.31,2.743,0.078,4.472c-0.24,1.788-0.675,2.749-1.322,4.433c-0.38,0.989-0.591,1.554-1.089,2.489
				c-0.307,0.576-0.402,0.969-0.855,1.439c-0.316,0.328-0.486,0.784-0.933,0.7c-0.187-0.035-0.299-0.093-0.428-0.233
				c-0.228-0.248-0.086-0.52-0.117-0.855c-0.125-1.365,0.282-2.13,0.311-3.5c0.047-2.161-0.317-3.366-0.467-5.522
				c-0.108-1.561-0.494-2.462-0.233-4.005c0.198-1.173,0.617-1.755,1.011-2.878c0,0-0.387-1.041-0.622-1.711
				c-0.385-1.1-0.636-1.712-0.933-2.839c-0.552-2.09-0.65-3.327-0.817-5.483c-0.142-1.845-0.123-2.894-0.078-4.744
				c0.042-1.701,0.176-2.656,0.272-4.355c0.122-2.153,0.476-3.375,0.272-5.522c-0.151-1.587-0.311-2.493-0.817-4.005
				c-0.598-1.788-1.124-2.753-2.178-4.316c-0.812-1.206-1.46-1.745-2.372-2.878c-0.244-0.303-0.429-0.441-0.622-0.778
				c-0.642-1.118-0.291-2.059,0.039-3.305c0.324-1.22,0.943-1.735,1.555-2.839c1.44-2.596,2.126-4.14,3.772-6.611
				c2.407-3.613,3.92-5.614,7.077-8.594c0.781-0.737,1.257-1.115,2.061-1.828c0,0,0.593-1.075,1.05-1.711
				C61.69,2.009,63.49,0.437,63.49,0.437z"/>
			<path fill="none" stroke="#FFFFFF" stroke-width="0.1555" stroke-miterlimit="3.8637" d="M63.49,0.437c0,0-1.006-4.937-0.7-8.088
				c0.405-4.163,2.146-6.18,3.578-10.11c0.332-0.911,0.571-1.407,0.855-2.333c0.402-1.308-0.087-2.361,0.778-3.422
				c0.395-0.485,0.704-0.696,1.244-1.011c1.048-0.612,1.837-0.91,3.033-0.7c1.268,0.223,1.696,1.089,2.722,1.867
				c3.678,2.786,5.2,5.035,8.088,8.633c1.671,2.082,2.34,3.467,4.044,5.522c1.753,2.114,2.941,3.131,4.822,5.133
				c0,0,2.457-0.422,4.044-0.467c2.377-0.067,3.692,0.485,6.066,0.622c2.423,0.14,3.798,0.203,6.222,0.078
				c2.378-0.123,3.687-0.59,6.066-0.7c2.455-0.114,3.871-0.222,6.3,0.156c2.598,0.404,3.983,1.05,6.455,1.944
				c2.479,0.897,3.911,1.375,6.222,2.644c1.35,0.741,2.108,1.181,3.344,2.1c0.658,0.489,1.066,0.731,1.633,1.322
				c0.403,0.421,0.897,0.585,0.933,1.167c0.026,0.422-0.064,0.741-0.389,1.011c-0.353,0.293-0.708,0.178-1.167,0.156
				c-1.016-0.051-1.423-0.712-2.333-1.167c-0.849-0.425-1.265-0.825-2.178-1.089c-0.937-0.27-1.515-0.187-2.489-0.233
				c-1.455-0.069-2.285,0.236-3.733,0.078c-1.331-0.146-2.263,0.012-3.344-0.778c-0.643-0.47-0.807-0.949-1.322-1.555
				c0,0-0.712-0.018-1.167,0c-1.445,0.058-2.246,0.298-3.655,0.622c-2.112,0.486-3.201,1.127-5.288,1.711
				c-2.012,0.563-3.121,1.223-5.211,1.244c-1.82,0.019-2.847-0.325-4.589-0.855c-0.992-0.302-1.491-0.651-2.489-0.933
				c-0.864-0.245-1.359-0.411-2.255-0.467c-0.394-0.024-0.617,0-1.011,0c0,0,0.844,1.819,1.244,3.033
				c0.334,1.013,0.455,1.606,0.7,2.644c0.164,0.695,0.469,1.079,0.389,1.789c-0.046,0.41,0.003,0.744-0.311,1.011
				c-0.219,0.187-0.412,0.224-0.7,0.233c-0.751,0.023-0.799-0.861-1.322-1.4c-0.538-0.554-0.814-0.897-1.4-1.4
				c-0.626-0.538-1.012-0.806-1.711-1.244c-0.529-0.332-0.892-0.414-1.4-0.778c-0.733-0.524-0.996-0.996-1.633-1.633
				c0,0-0.857,0.226-1.4,0.389c-1.894,0.567-2.831,1.29-4.744,1.789c-2.163,0.564-3.463,0.474-5.677,0.778
				c0,0-0.495,1.826-1.167,2.8c-0.645,0.936-1.123,1.44-2.1,2.022c-2.06,1.228-3.776,0.61-6.144,0.233
				c-1.272-0.202-1.903-0.792-3.189-0.855c-0.607-0.03-0.965-0.064-1.555,0.078c-1.145,0.275-1.643,0.891-2.489,1.711
				c-0.667,0.646-1.041,1.047-1.478,1.867c-0.574,1.078-0.667,1.817-0.778,3.033c-0.158,1.739,0.484,2.693,0.622,4.433
				c0.141,1.784,0.158,2.8,0.078,4.589c-0.078,1.737-0.091,2.736-0.467,4.433c-0.268,1.208-0.531,1.863-0.933,3.033
				c-0.465,1.353-0.807,2.087-1.322,3.422c0,0,0.929,0.708,1.322,1.322c0.285,0.446,0.408,0.733,0.544,1.244
				c0.172,0.646,0.113,1.042,0.117,1.711c0.003,0.44-0.316,0.786-0.039,1.128c0.206,0.254,0.453,0.28,0.778,0.311
				c0.323,0.031,0.492-0.16,0.817-0.156c0.262,0.003,0.429-0.005,0.661,0.117c0.228,0.119,0.299,0.271,0.467,0.467
				c0.148,0.173,0.213,0.285,0.35,0.467c0,0,0.208-0.196,0.35-0.311c0.798-0.644,1.442-0.715,2.411-1.05
				c1.137-0.393,1.818-0.487,2.994-0.739c0.785-0.168,1.35,0.051,2.022-0.389c0.216-0.141,0.371-0.207,0.506-0.428
				c0.167-0.275,0.071-0.498,0.117-0.817c0,0-0.774,0.234-1.283,0.311c-0.571,0.087-0.901,0.102-1.478,0.078
				c-0.975-0.041-1.545-0.141-2.45-0.506c-0.75-0.302-1.166-0.534-1.789-1.05c-0.438-0.363-0.709-0.569-1.011-1.05
				c-0.144-0.23-0.278-0.353-0.311-0.622c-0.036-0.296,0.112-0.453,0.194-0.739c0.097-0.336,0.224-0.509,0.272-0.855
				c0.04-0.285,0.14-0.487,0-0.739c-0.139-0.25-0.345-0.317-0.622-0.389c-0.279-0.073-0.459-0.032-0.739,0.039
				c-0.276,0.07-0.426,0.15-0.661,0.311c-0.265,0.182-0.35,0.361-0.583,0.583c-0.179,0.17-0.222,0.394-0.467,0.428
				c-0.19,0.026-0.309-0.046-0.467-0.156c-0.403-0.281-0.151-0.755-0.194-1.244c-0.182-2.047,0.051-3.354,1.011-5.172
				c1.664-3.152,4.18-4.658,7.738-4.861c2.975-0.169,5.294,0.356,7.155,2.683c1.715,2.144,1.592,4.194,1.283,6.922
				c-0.217,1.921-0.605,3.022-1.555,4.705c-0.634,1.123-0.999,1.812-1.983,2.644c-1.218,1.03-2.186,1.284-3.733,1.672
				c-1.024,0.257-1.662,0.083-2.683,0.35c-0.995,0.26-1.679,0.292-2.45,0.972c-0.38,0.336-0.473,0.638-0.817,1.011
				c-0.218,0.237-0.262,0.572-0.583,0.583c-0.177,0.006-0.271-0.072-0.428-0.156c-0.379-0.202-0.474-0.478-0.739-0.817
				c-0.127-0.163-0.139-0.314-0.311-0.428c-0.108-0.071-0.186-0.082-0.311-0.117c-0.468-0.13-0.758,0.071-1.244,0.078
				c-0.455,0.006-0.789,0.215-1.167-0.039c-0.272-0.183-0.336-0.399-0.467-0.7c-0.278-0.64-0.071-1.092-0.039-1.789
				c0.022-0.487,0.178-0.761,0.117-1.244c-0.055-0.428-0.113-0.689-0.35-1.05c-0.188-0.287-0.38-0.38-0.622-0.622
				c0,0-0.346,2.008-0.389,3.305c-0.049,1.473,0.182,2.299,0.233,3.772c0.067,1.925,0.131,3.017,0,4.939
				c-0.14,2.048-0.637,3.161-0.739,5.211c-0.104,2.092,0.093,3.276,0.233,5.366c0.136,2.021,0.363,3.149,0.467,5.172
				c0.089,1.742,0.31,2.743,0.078,4.472c-0.24,1.788-0.675,2.749-1.322,4.433c-0.38,0.989-0.591,1.554-1.089,2.489
				c-0.307,0.576-0.402,0.969-0.855,1.439c-0.316,0.328-0.486,0.784-0.933,0.7c-0.187-0.035-0.299-0.093-0.428-0.233
				c-0.228-0.248-0.086-0.52-0.117-0.855c-0.125-1.365,0.282-2.13,0.311-3.5c0.047-2.161-0.317-3.366-0.467-5.522
				c-0.108-1.561-0.494-2.462-0.233-4.005c0.198-1.173,0.617-1.755,1.011-2.878c0,0-0.387-1.041-0.622-1.711
				c-0.385-1.1-0.636-1.712-0.933-2.839c-0.552-2.09-0.65-3.327-0.817-5.483c-0.142-1.845-0.123-2.894-0.078-4.744
				c0.042-1.701,0.176-2.656,0.272-4.355c0.122-2.153,0.476-3.375,0.272-5.522c-0.151-1.587-0.311-2.493-0.817-4.005
				c-0.598-1.788-1.124-2.753-2.178-4.316c-0.812-1.206-1.46-1.745-2.372-2.878c-0.244-0.303-0.429-0.441-0.622-0.778
				c-0.642-1.118-0.291-2.059,0.039-3.305c0.324-1.22,0.943-1.735,1.555-2.839c1.44-2.596,2.126-4.14,3.772-6.611
				c2.407-3.613,3.92-5.614,7.077-8.594c0.781-0.737,1.257-1.115,2.061-1.828c0,0,0.593-1.075,1.05-1.711
				C61.69,2.009,63.49,0.437,63.49,0.437z"/>
			<path fill-rule="evenodd" clip-rule="evenodd" fill="#FFFFFF" d="M83.944-1.896c-1.732-0.084-2.703-0.225-4.433-0.35
				c-2.137-0.154-3.341-0.388-5.483-0.35c-1.2,0.021-1.941-0.209-3.072,0.194c-0.581,0.208-0.992,0.276-1.4,0.739
				c-0.463,0.525-0.546,1.011-0.544,1.711c0.002,0.831,0.35,1.271,0.778,1.983c0.481,0.801,0.885,1.181,1.594,1.789
				c1.344,1.152,2.363,1.563,4.083,1.983c1.871,0.457,3.022,0.227,4.939,0.039c2.467-0.243,3.817-0.735,6.183-1.478
				c2.171-0.682,3.317-1.29,5.444-2.1c1.242-0.473,1.907-0.851,3.189-1.205c0.748-0.207,1.168-0.4,1.944-0.428
				c0.594-0.021,0.929,0.066,1.517,0.156c1.255,0.19,1.935,0.45,3.15,0.817c1.323,0.399,1.99,0.893,3.344,1.167
				c0.69,0.139,1.085,0.219,1.789,0.233c1.199,0.025,1.871-0.21,3.033-0.506c1.376-0.35,2.075-0.794,3.422-1.244
				c0.86-0.287,1.349-0.435,2.217-0.7c1.088-0.332,1.694-0.551,2.8-0.817c1.111-0.267,1.739-0.451,2.878-0.544
				c0.635-0.052,1.022-0.218,1.633-0.039c0.469,0.137,0.806,0.223,1.089,0.622c0.186,0.262,0.149,0.481,0.272,0.778
				c0.156,0.376,0.175,0.65,0.467,0.933c0.268,0.26,0.498,0.32,0.855,0.428c0.552,0.166,0.901,0.047,1.478,0.039
				c0.836-0.012,1.302-0.152,2.139-0.156c0.882-0.003,1.392-0.022,2.255,0.156c0.686,0.141,1.044,0.332,1.711,0.544
				c0,0-1.719-1.108-2.878-1.711c-1.579-0.822-2.527-1.178-4.2-1.789c-1.419-0.519-2.215-0.857-3.694-1.167
				c-2.274-0.475-3.627-0.391-5.95-0.311c-2.29,0.078-3.547,0.543-5.833,0.7c-2.86,0.197-4.516,0.475-7.349,0.039
				c-1.011-0.156-1.551-0.419-2.566-0.544c-1.325-0.164-2.087-0.053-3.422-0.039c-2.232,0.024-3.487,0.169-5.716,0.272
				c-2.002,0.093-3.129,0.245-5.133,0.233C85.485-1.824,84.929-1.849,83.944-1.896z"/>
			<path fill-rule="evenodd" clip-rule="evenodd" fill="#FFFFFF" d="M92.343,3.976c0,0,0.693-0.248,1.128-0.428
				c0.414-0.171,0.64-0.285,1.05-0.467c0,0,0.779,1.185,1.205,1.983c0.744,1.391,0.949,2.277,1.555,3.733
				c0,0-1.161-1.444-1.983-2.294c-0.484-0.501-0.724-0.829-1.283-1.244c-0.372-0.276-0.652-0.33-1.011-0.622
				C92.722,4.407,92.343,3.976,92.343,3.976z"/>
			<path fill-rule="evenodd" clip-rule="evenodd" fill="#FFFFFF" d="M89.816-3.685c0,0-1.733-1.515-2.761-2.566
				c-2.081-2.129-2.919-3.628-4.783-5.95c-1.594-1.986-2.386-3.196-4.083-5.094C76.995-18.63,76.314-19.382,75-20.6
				c-1.05-0.973-1.455-1.883-2.8-2.372c-0.567-0.207-0.934-0.469-1.517-0.311c-0.501,0.135-0.714,0.421-1.05,0.817
				c-0.594,0.698-0.533,1.334-0.778,2.217c-0.162,0.585-0.189,0.931-0.35,1.517c-0.5,1.823-1.172,2.714-1.867,4.472
				c-0.536,1.357-1.004,2.076-1.322,3.5c-0.285,1.278-0.319,2.034-0.311,3.344c0.009,1.512,0.167,2.367,0.467,3.85
				c0.173,0.858,0.332,1.328,0.544,2.178c0,0,0.705-0.611,1.205-0.933c0.787-0.507,1.296-0.697,2.178-1.011
				c1.057-0.377,1.687-0.517,2.8-0.661c1.083-0.14,1.708-0.047,2.8-0.078c0,0-0.392-0.561-0.622-0.933
				c-0.442-0.716-0.706-1.122-1.011-1.905c-0.422-1.084-0.509-1.759-0.622-2.916c-0.11-1.132-0.043-1.782,0.039-2.916
				c0.051-0.7,0.179-1.087,0.194-1.789c0.02-0.883-0.068-1.382-0.194-2.255c-0.084-0.58-0.052-0.935-0.272-1.478
				c-0.11-0.27-0.303-0.373-0.35-0.661c-0.035-0.21-0.101-0.384,0.039-0.544c0.089-0.102,0.18-0.12,0.311-0.156
				c0.316-0.086,0.531,0.034,0.817,0.194c0.488,0.274,0.508,0.715,0.778,1.205c0.532,0.967,0.615,1.613,1.011,2.644
				c0.408,1.062,0.499,1.727,1.05,2.722c0.53,0.958,0.914,1.465,1.672,2.255c1.029,1.072,1.812,1.467,3.072,2.255
				c1.081,0.677,1.836,0.818,2.878,1.555c0.659,0.467,1.019,0.755,1.594,1.322c0.621,0.612,0.68,1.282,1.439,1.711
				C87.839-3.188,89.816-3.685,89.816-3.685z"/>
			<path fill-rule="evenodd" clip-rule="evenodd" fill="#FFFFFF" d="M62.323,11.753c0,0-2.472-0.15-4.005,0.156
				c-1.256,0.25-1.898,0.64-3.111,1.05c0,0-0.868,1.221-1.322,2.061c-0.647,1.197-0.884,1.94-1.322,3.228
				c-0.639,1.877-0.587,3.055-1.205,4.939c-0.396,1.204-0.619,1.89-1.167,3.033c-0.381,0.796-0.893,1.123-1.089,1.983
				c-0.158,0.695-0.19,1.141,0,1.828c0.296,1.069,1.242,1.236,1.828,2.178c0.741,1.191,0.992,1.981,1.322,3.344
				c0.422,1.742,0.223,2.797,0.272,4.589c0.082,2.988-0.127,4.672-0.194,7.661c-0.05,2.199-0.266,3.444-0.117,5.638
				c0.167,2.455,0.334,3.867,1.05,6.222c0.286,0.941,0.553,1.436,0.855,2.372c0.195,0.603,0.391,0.927,0.467,1.555
				c0.074,0.618,0.006,0.977-0.078,1.594c-0.135,0.999-0.582,1.487-0.7,2.489c-0.149,1.27,0.16,1.993,0.272,3.266
				c0.115,1.305,0.278,2.035,0.311,3.344c0.021,0.834-0.024,1.305-0.039,2.139c0,0,0.824-1.804,1.089-3.033
				c0.228-1.058,0.283-1.679,0.272-2.761c-0.015-1.458-0.431-2.244-0.583-3.694c-0.163-1.555-0.181-2.441-0.194-4.005
				c-0.013-1.517,0.053-2.373,0.117-3.889c0.119-2.809,0.309-4.387,0.467-7.194c0.083-1.471,0.209-2.299,0.194-3.772
				c-0.019-1.888-0.35-2.935-0.428-4.822c-0.044-1.061-0.22-1.676-0.039-2.722c0.174-1.002,0.51-1.508,0.894-2.45
				c0.598-1.463,1.208-2.17,1.75-3.655c0.202-0.554,0.302-0.872,0.467-1.439c0.114-0.392,0.198-0.609,0.272-1.011
				c0.22-1.196-0.096-1.899-0.194-3.111c-0.156-1.931-0.293-3.017-0.544-4.939c-0.226-1.733-0.671-2.685-0.661-4.433
				c0.006-1.067-0.108-1.725,0.272-2.722c0.357-0.936,0.833-1.333,1.478-2.1c0.649-0.772,1.051-1.185,1.828-1.828
				C61.368,12.378,62.323,11.753,62.323,11.753z"/>
			<path fill-rule="evenodd" clip-rule="evenodd" fill="#46BFB8" d="M48.11,69.205v-2.093c0.13,0,0.324,0.001,0.581,0.003
				c0.26,0,0.404,0.001,0.433,0.003c0.166,0.012,0.303,0.048,0.412,0.108c0.186,0.102,0.279,0.269,0.279,0.499
				c0,0.176-0.05,0.303-0.149,0.382c-0.097,0.079-0.218,0.125-0.361,0.141c0.131,0.027,0.23,0.067,0.297,0.12
				c0.123,0.099,0.184,0.255,0.184,0.469v0.187c0,0.02,0.001,0.041,0.003,0.061c0.003,0.02,0.009,0.041,0.015,0.061l0.018,0.059
				h-0.523c-0.017-0.067-0.028-0.163-0.033-0.289c-0.005-0.126-0.016-0.212-0.033-0.256c-0.027-0.073-0.079-0.125-0.154-0.154
				c-0.041-0.017-0.103-0.028-0.187-0.033l-0.12-0.008h-0.115v0.74H48.11z M49.109,67.525c-0.075-0.029-0.181-0.043-0.318-0.044
				h-0.133v0.607h0.213c0.128,0,0.228-0.026,0.3-0.077c0.072-0.051,0.108-0.134,0.108-0.248
				C49.278,67.649,49.222,67.57,49.109,67.525z M50.259,69.51c-0.367,0.355-0.808,0.533-1.322,0.533
				c-0.531,0-0.978-0.182-1.342-0.546c-0.364-0.364-0.546-0.811-0.546-1.342c0-0.551,0.196-1.01,0.589-1.375
				c0.369-0.341,0.802-0.512,1.299-0.512c0.521,0,0.966,0.184,1.335,0.553c0.369,0.369,0.553,0.814,0.553,1.335
				C50.825,68.692,50.637,69.143,50.259,69.51z M47.828,67.062c-0.301,0.307-0.451,0.672-0.451,1.094
				c0,0.437,0.153,0.809,0.459,1.114c0.304,0.306,0.671,0.458,1.101,0.458c0.429,0,0.795-0.154,1.099-0.461
				c0.304-0.309,0.456-0.68,0.456-1.112c0-0.42-0.151-0.785-0.453-1.094c-0.306-0.314-0.673-0.471-1.101-0.471
				C48.504,66.59,48.134,66.747,47.828,67.062z"/>
		</g>
	</g>
	<g display="inline">
		<path fill="#C0E1DD" d="M77.256,70.396l4.986,3.828h-1.766l-4.986-3.828H77.256z M80.891,70.396l4.986,3.828h-1.818l-4.986-3.828
			H80.891z M83.384,69.539l5.064,3.885l-0.286,0.8h-0.415l-5.038-3.828h0.364L83.384,69.539z M84.137,67.31l5.09,3.885l-0.389,1.143
			l-5.064-3.942L84.137,67.31z M84.917,65.14l5.064,3.885l-0.39,1.086l-5.064-3.885L84.917,65.14z M87.695,64.454l4.986,3.827
			h-1.818l-4.986-3.827H87.695z M88.786,54.113l2.233,1.771h-1.818l-0.779-0.685L88.786,54.113z M92.837,55.884l-3.662-2.857
			l0.364-1.085l5.064,3.799l-0.052,0.143H92.837z M91.279,64.454l4.986,3.827h-1.766l-5.038-3.827H91.279z M90.292,49.771
			l5.038,3.857l-0.39,1.114l-5.012-3.885L90.292,49.771z M91.071,47.543l3.791,2.913l0.675,1.942l-4.83-3.771L91.071,47.543z
			 M93.564,46.686l0.623,1.829l-2.727-2.057l0.364-1.086L93.564,46.686z M92.473,43.544l0.441,1.257l-0.675-0.571L92.473,43.544z
			 M94.914,64.454l4.986,3.827h-1.766l-5.038-3.827H94.914z M101.562,34.174l0.26,0.714l-4.986-3.857l-0.26-0.685L101.562,34.174z
			 M98.55,64.454l1.714,1.314l0.675,1.942l-4.207-3.256H98.55z M97.563,33.031l4.986,3.829l0.727,1.971l-4.986-3.857L97.563,33.031z
			 M98.991,36.917l4.986,3.856l0.727,1.943l-4.986-3.857L98.991,36.917z M100.445,40.829l4.96,3.8l0.727,2l-4.986-3.857
			L100.445,40.829z M101.874,44.743l4.986,3.828l0.727,1.971l-4.986-3.857L101.874,44.743z M103.302,48.571l4.934,3.828l0.727,2
			l-4.96-3.885L103.302,48.571z M106.236,70.396l4.934,3.828h-1.766l-4.934-3.828H106.236z M104.73,52.514l4.96,3.827l0.727,1.942
			l-4.96-3.827L104.73,52.514z M106.132,56.341l4.986,3.885l0.727,1.943l-4.96-3.829L106.132,56.341z M107.613,60.283l4.934,3.829
			l0.727,1.942l-4.96-3.828L107.613,60.283z M109.872,70.396l4.986,3.828h-1.869l-4.934-3.828H109.872z M109.015,64.112l4.934,3.885
			l0.753,1.942l-4.96-3.827L109.015,64.112z M110.469,68.054l4.934,3.828l0.701,1.942l-4.934-3.828L110.469,68.054z"/>
		<path fill="#C0E1DD" d="M122.335,52.685v1.429l-5.038-3.885v-1.371L122.335,52.685z M122.465,51.428l-5.012-3.857
			c0-0.4,0.078-0.856,0.182-1.314l5.038,3.914L122.465,51.428z M117.764,53.37c-0.182-0.571-0.285-1.143-0.312-1.657l4.934,3.828
			c0.052,0.514,0.104,1.029,0.208,1.543L117.764,53.37z M122.958,49.028l-4.986-3.885c0.052-0.343,0.208-0.743,0.363-1.086
			l5.038,3.829C123.166,48.286,123.114,48.629,122.958,49.028z M118.336,55.199l4.571,3.484c0.104,0.686,0.312,1.257,0.519,1.829
			l-3.791-2.914C119.167,56.913,118.7,56.113,118.336,55.199z M123.841,46.858l-5.09-3.885c0.156-0.286,0.363-0.657,0.571-0.972
			l5.038,3.886C124.153,46.229,123.997,46.572,123.841,46.858z M124.984,44.972l-5.038-3.885c0.208-0.285,0.416-0.571,0.675-0.856
			l5.09,3.885L124.984,44.972z M121.14,69.768c0.779,0.285,1.584,0.543,2.467,0.771l4.492,3.485
			c-1.558-0.457-3.428-1.571-5.609-3.228L121.14,69.768z M126.49,43.344l-5.038-3.857c0.26-0.285,0.546-0.514,0.883-0.743
			l5.038,3.885L126.49,43.344z M128.359,42.001l-5.038-3.885l1.091-0.571l5.038,3.885L128.359,42.001z M130.697,41.03l-5.038-3.885
			c0.467-0.115,0.987-0.228,1.506-0.285l4.934,3.857L130.697,41.03z M135.89,40.859c-0.701-0.172-1.428-0.229-2.13-0.229
			l-4.934-3.828c0.779,0.029,1.558,0.171,2.285,0.343L135.89,40.859z M139.37,79.766l4.103,3.141
			c-2.337-0.914-5.297-2.713-6.232-3.399l-1.818-1.343C136.514,78.68,137.916,79.308,139.37,79.766z M136.202,69.539
			c0.156-0.057,0.312-0.114,0.467-0.229l1.506,1.2C137.396,70.225,136.721,69.825,136.202,69.539z M138.851,68.225l4.83,3.713
			c-0.675-0.057-1.506-0.171-2.441-0.456l-3.428-2.685L138.851,68.225z M140.772,66.94l4.986,3.827l-0.987,0.715l-4.934-3.857
			L140.772,66.94z M142.46,65.483l5.012,3.799l-0.805,0.742l-4.986-3.828L142.46,65.483z M144.564,80.965l4.882,3.771
			c-0.935-0.172-1.766-0.343-2.597-0.628l-4.674-3.543C142.954,80.737,143.681,80.851,144.564,80.965z M143.992,63.826l4.986,3.827
			l-0.675,0.8l-5.038-3.829L143.992,63.826z M145.291,61.997l5.012,3.857l-0.623,0.886l-5.038-3.799L145.291,61.997z
			 M150.848,42.572l-4.571-3.542c-0.415-0.856-0.987-1.771-1.506-2.571l2.649,2.171C148.615,39.601,149.809,40.915,150.848,42.572z
			 M146.381,60.026l5.038,3.857l-0.571,1.029l-5.012-3.857L146.381,60.026z M148.251,80.88l5.038,3.913l-0.052,0.229
			c-0.467,0-1.116,0-1.662-0.029l-4.986-3.857c0.519,0.057,1.039,0.057,1.61,0.057L148.251,80.88z M147.238,57.941l5.064,3.885
			l-0.468,1.085l-4.986-3.943L147.238,57.941z M152.744,46.8l-4.908-3.771c-0.208-0.628-0.416-1.314-0.623-1.885l4.83,3.771
			C152.302,45.486,152.536,46.172,152.744,46.8z M147.94,55.713l5.038,3.828c-0.078,0.4-0.207,0.857-0.312,1.2l-5.038-3.942
			C147.732,56.456,147.836,56.113,147.94,55.713z M148.407,53.256l5.038,3.885c-0.052,0.457-0.104,0.828-0.208,1.199l-5.038-3.827
			C148.277,54.113,148.355,53.713,148.407,53.256z M153.471,50.171l-4.986-3.829l-0.26-1.627l4.96,3.827
			C153.289,49.057,153.419,49.656,153.471,50.171z M148.875,78.738l5.064,3.885c-0.156,0.372-0.285,0.8-0.363,1.086l-5.064-3.885
			L148.875,78.738z M148.641,50.628l5.038,3.885l-0.052,1.314l-5.064-3.885C148.615,51.599,148.641,51.085,148.641,50.628z
			 M153.705,53.142l-5.038-3.885l-0.052-1.428l5.038,3.827L153.705,53.142z M149.757,76.566l5.038,3.943l-0.416,1.029l-5.064-3.885
			L149.757,76.566z M155.185,79.423l-5.064-3.943l0.286-1.143l5.038,3.885C155.393,78.623,155.289,79.023,155.185,79.423z"/>
		<path fill="#C0E1DD" d="M159.831,31.261l5.038,3.885v1.429l-5.038-3.886V31.261z M159.831,34.059l5.038,3.885v1.371l-5.038-3.828
			V34.059z M159.831,36.86l5.038,3.885v1.371l-5.038-3.828V36.86z M159.831,39.659l5.038,3.885v1.371l-5.038-3.885V39.659z
			 M159.831,42.458l5.038,3.828v1.428l-5.038-3.885V42.458z M159.831,45.258l5.038,3.828v1.429l-5.038-3.885V45.258z M159.831,48
			l5.038,3.885v1.428l-5.038-3.885V48z M159.831,50.8l5.038,3.885v1.371l-5.038-3.828V50.8z M159.831,53.599l5.038,3.885
			c0,0.457,0.026,0.971,0.078,1.428l-5.012-3.828C159.883,54.627,159.831,54.113,159.831,53.599z M160.974,58.684
			c-0.312-0.628-0.571-1.199-0.727-1.942l4.934,3.771c0.104,0.628,0.312,1.199,0.519,1.713L160.974,58.684z M161.545,70.281
			c0.727,0.286,1.662,0.515,2.649,0.629l4.778,3.713c-1.61-0.343-3.012-1.029-4.415-2.114L161.545,70.281z M171.153,74.852
			l-4.986-3.771h1.766l4.986,3.771c-0.26,0.057-0.623,0.057-0.883,0.057C171.724,74.909,171.465,74.909,171.153,74.852z
			 M170.997,70.624l5.038,3.829c-0.519,0.143-0.987,0.228-1.454,0.285l-4.986-3.857L170.997,70.624z M177.386,74.053l-5.038-3.828
			c0.363-0.114,0.831-0.286,1.246-0.457l4.986,3.885C178.165,73.824,177.749,73.938,177.386,74.053z M179.749,73.109l-5.064-3.885
			l1.039-0.6l5.012,3.914L179.749,73.109z M181.67,71.853l-5.012-3.914l0.857-0.714l5.038,3.914
			C182.242,71.425,181.982,71.625,181.67,71.853z M183.358,70.339l-5.012-3.942l0.701-0.8l5.038,3.886L183.358,70.339z
			 M184.735,68.597l-5.038-3.914l0.571-0.914l5.064,3.885L184.735,68.597z M181.281,61.769l5.064,3.827
			c-0.156,0.4-0.338,0.8-0.494,1.086l-5.038-3.885L181.281,61.769z M186.734,64.569l-5.038-3.913l0.338-1.115l5.038,3.885
			C186.968,63.826,186.838,64.226,186.734,64.569z M187.357,62.226l-5.038-3.885l0.234-1.199l5.012,3.885
			C187.513,61.426,187.409,61.883,187.357,62.226z M187.773,59.769l-5.064-3.885c0.052-0.399,0.104-0.857,0.104-1.314l5.064,3.885
			L187.773,59.769z M187.929,34.059v0.743l-5.038-3.885v-0.743L187.929,34.059z M182.891,32.289l5.038,3.885v1.371l-5.038-3.885
			V32.289z M182.891,35.088l5.038,3.885v1.371l-5.038-3.885V35.088z M182.891,37.831l5.038,3.942v1.371l-5.038-3.885V37.831z
			 M182.891,40.63l5.038,3.942v1.371l-5.038-3.885V40.63z M182.891,43.429l5.038,3.885v1.429l-5.038-3.885V43.429z M182.891,46.229
			l5.038,3.885v1.429l-5.038-3.943V46.229z M182.891,49.028l5.038,3.885v1.371l-5.038-3.828V49.028z M187.929,57.084l-5.038-3.828
			v-1.428l5.038,3.885V57.084z"/>
		<path fill="#C0E1DD" d="M191.198,70.396l4.934,3.828h-1.766l-4.986-3.828H191.198z M194.782,70.396l4.986,3.828h-1.766
			l-4.986-3.828H194.782z M198.418,70.396l4.986,3.828h-1.818l-4.986-3.828H198.418z M196.652,38.344l5.038,3.886v1.371
			l-5.038-3.885V38.344z M201.69,46.4l-5.038-3.885v-1.371l5.038,3.828V46.4z M196.652,43.944l3.272,2.457h-1.869l-1.403-1.085
			V43.944z M201.69,58.969v1.371l-5.038-3.885v-1.371L201.69,58.969z M199.872,61.712l-3.22-2.457v-1.371l5.038,3.828H199.872z
			 M196.652,60.626l1.35,1.086h-1.35V60.626z M198.989,37.373l5.038,3.829h-1.818l-4.986-3.829H198.989z M200.287,55.084
			l5.038,3.828h-1.87l-4.986-3.828H200.287z M202.001,70.396l4.986,3.828h-1.766l-4.986-3.828H202.001z M202.624,37.373l5.038,3.829
			h-1.869l-4.934-3.829H202.624z M203.923,55.084l4.986,3.828h-1.818l-5.038-3.828H203.923z M205.689,70.396l4.934,3.828h-1.766
			l-4.986-3.828H205.689z M206.26,37.373l4.986,3.829h-1.818l-5.038-3.829H206.26z M207.507,55.084l4.986,3.828h-1.766l-4.986-3.828
			H207.507z M209.324,70.396l4.934,3.828h-1.818l-4.986-3.828H209.324z M209.844,37.373l5.038,3.829h-1.818l-5.038-3.829H209.844z
			 M209.117,47.886l5.038,3.885V53.2l-5.038-3.886V47.886z M209.117,50.685l5.038,3.942v1.371l-5.038-3.885V50.685z M209.117,53.485
			l5.038,3.885v1.371l-5.038-3.885V53.485z M216.076,74.224l-4.934-3.828h0.831v-0.743l5.037,3.885v0.686H216.076z M211.505,30.175
			l5.038,3.885v1.429l-5.038-3.942V30.175z M211.505,32.974l5.038,3.885v1.428l-5.038-3.942V32.974z M211.505,35.716l5.038,3.943
			v1.428l-5.038-3.942V35.716z M211.973,64.112l5.037,3.827v1.429l-5.037-3.885V64.112z M211.973,66.854l5.037,3.885v1.371
			l-5.037-3.885V66.854z"/>
		<path fill="#C0E1DD" d="M214.309,37.373h1.195l4.986,3.829h-1.195L214.309,37.373z M222.255,41.202l-4.934-3.829h1.817l3.116,2.4
			V41.202z M222.255,38.402l-1.246-1.029h1.246V38.402z M224.021,70.396h1.766l4.934,3.828h-1.714L224.021,70.396z M229.422,70.396
			l4.934,3.828h-1.869l-4.882-3.828H229.422z M231.292,69.025l5.038,3.942v1.257h-0.156l-4.986-3.828h0.104V69.025z M231.292,38.344
			l5.038,3.886v1.371l-5.038-3.828V38.344z M231.292,41.144l5.038,3.885V46.4l-5.038-3.828V41.144z M231.292,43.944l5.038,3.885
			V49.2l-5.038-3.885V43.944z M231.292,46.743l5.038,3.828v1.428l-5.038-3.885V46.743z M231.292,49.543l5.038,3.827v1.429
			l-5.038-3.885V49.543z M231.292,52.285l5.038,3.885v1.428l-5.038-3.885V52.285z M231.292,55.084l5.038,3.885v1.371l-5.038-3.827
			V55.084z M231.292,57.884l5.038,3.885v1.371l-5.038-3.885V57.884z M231.292,60.683l5.038,3.885v1.371l-5.038-3.885V60.683z
			 M231.292,63.483l5.038,3.827v1.429l-5.038-3.885V63.483z M231.292,66.282l5.038,3.829v1.428l-5.038-3.885V66.282z
			 M233.629,37.373l4.934,3.829h-1.817l-4.934-3.829H233.629z M237.213,37.373l4.986,3.829h-1.818l-4.986-3.829H237.213z
			 M240.796,37.373l5.038,3.829h-1.818l-4.986-3.829H240.796z M246.042,34.059v0.343l-5.038-3.885v-0.343L246.042,34.059z
			 M241.004,31.889l5.038,3.885v1.429l-5.038-3.942V31.889z M241.004,34.688l5.038,3.886v1.371l-5.038-3.885V34.688z"/>
		<path fill="#C0E1DD" d="M242.249,37.373h1.195l4.986,3.829h-1.195L242.249,37.373z M250.195,41.202l-4.934-3.829h1.817l3.116,2.4
			V41.202z M250.195,38.402l-1.246-1.029h1.246V38.402z M251.961,70.396h1.766l4.934,3.828h-1.714L251.961,70.396z M257.362,70.396
			l4.934,3.828h-1.869l-4.882-3.828H257.362z M259.232,69.025l5.038,3.942v1.257h-0.156l-4.986-3.828h0.104V69.025z M259.232,38.344
			l5.038,3.886v1.371l-5.038-3.828V38.344z M259.232,41.144l5.038,3.885V46.4l-5.038-3.828V41.144z M259.232,43.944l5.038,3.885
			V49.2l-5.038-3.885V43.944z M259.232,46.743l5.038,3.828v1.428l-5.038-3.885V46.743z M259.232,49.543l5.038,3.827v1.429
			l-5.038-3.885V49.543z M259.232,52.285l5.038,3.885v1.428l-5.038-3.885V52.285z M259.232,55.084l5.038,3.885v1.371l-5.038-3.827
			V55.084z M259.232,57.884l5.038,3.885v1.371l-5.038-3.885V57.884z M259.232,60.683l5.038,3.885v1.371l-5.038-3.885V60.683z
			 M259.232,63.483l5.038,3.827v1.429l-5.038-3.885V63.483z M259.232,66.282l5.038,3.829v1.428l-5.038-3.885V66.282z
			 M261.569,37.373l4.934,3.829h-1.817l-4.934-3.829H261.569z M265.153,37.373l4.986,3.829h-1.818l-4.986-3.829H265.153z
			 M268.736,37.373l5.038,3.829h-1.818l-4.986-3.829H268.736z M273.982,34.059v0.343l-5.038-3.885v-0.343L273.982,34.059z
			 M268.944,31.889l5.038,3.885v1.429l-5.038-3.942V31.889z M268.944,34.688l5.038,3.886v1.371l-5.038-3.885V34.688z"/>
		<path fill="#C0E1DD" d="M274.604,70.396l4.934,3.828h-1.766l-4.986-3.828H274.604z M278.187,70.396l4.986,3.828h-1.766
			l-4.986-3.828H278.187z M281.823,70.396l4.986,3.828h-1.818l-4.986-3.828H281.823z M280.057,38.344l5.038,3.886v1.371
			l-5.038-3.885V38.344z M285.095,46.4l-5.038-3.885v-1.371l5.038,3.828V46.4z M280.057,43.944l3.272,2.457h-1.869l-1.403-1.085
			V43.944z M285.095,58.969v1.371l-5.038-3.885v-1.371L285.095,58.969z M283.277,61.712l-3.22-2.457v-1.371l5.038,3.828H283.277z
			 M280.057,60.626l1.351,1.086h-1.351V60.626z M282.394,37.373l5.038,3.829h-1.818l-4.986-3.829H282.394z M283.692,55.084
			l5.038,3.828h-1.87l-4.986-3.828H283.692z M285.407,70.396l4.986,3.828h-1.766l-4.986-3.828H285.407z M286.03,37.373l5.037,3.829
			h-1.869l-4.934-3.829H286.03z M287.328,55.084l4.986,3.828h-1.818l-5.038-3.828H287.328z M289.094,70.396l4.934,3.828h-1.766
			l-4.986-3.828H289.094z M289.665,37.373l4.986,3.829h-1.817l-5.038-3.829H289.665z M290.912,55.084l4.986,3.828h-1.766
			l-4.986-3.828H290.912z M292.729,70.396l4.934,3.828h-1.818l-4.986-3.828H292.729z M293.249,37.373l5.038,3.829h-1.818
			l-5.037-3.829H293.249z M292.522,47.886l5.038,3.885V53.2l-5.038-3.886V47.886z M292.522,50.685l5.038,3.942v1.371l-5.038-3.885
			V50.685z M292.522,53.485l5.038,3.885v1.371l-5.038-3.885V53.485z M299.482,74.224l-4.934-3.828h0.831v-0.743l5.037,3.885v0.686
			H299.482z M294.911,30.175l5.038,3.885v1.429l-5.038-3.942V30.175z M294.911,32.974l5.038,3.885v1.428l-5.038-3.942V32.974z
			 M294.911,35.716l5.038,3.943v1.428l-5.038-3.942V35.716z M295.378,64.112l5.037,3.827v1.429l-5.037-3.885V64.112z
			 M295.378,66.854l5.037,3.885v1.371l-5.037-3.885V66.854z"/>
		<path fill="#C0E1DD" d="M299.791,69.196c0.935,0.457,2.025,0.857,3.272,1.2l4.415,3.428c-2.078-0.742-4.155-1.886-6.077-3.314
			l-0.597-0.457L299.791,69.196z M307.478,71.053l4.986,3.856c-0.675-0.057-1.402-0.171-2.13-0.285l-4.881-3.771
			C306.127,70.967,306.75,71.053,307.478,71.053z M306.387,39.43l5.038,3.942c0,0.285,0,0.572,0.052,0.858
			C308.023,42.544,306.491,41.172,306.387,39.43z M306.621,38.316c0.156-0.314,0.441-0.6,0.805-0.857l5.064,3.943
			c-0.363,0.257-0.623,0.571-0.753,0.828L306.621,38.316z M307.556,52.913c2.285,1.257,3.662,2.056,4.596,3.142l-1.973-1.086
			L307.556,52.913z M310.126,36.802l4.986,3.828c-0.571,0.057-1.143,0.143-1.506,0.257l-5.012-3.885
			C308.984,36.887,309.581,36.831,310.126,36.802z M314.333,74.909l-5.037-3.885c0.519,0,1.09-0.057,1.61-0.114l5.038,3.828
			C315.424,74.852,314.853,74.909,314.333,74.909z M317.034,40.744l-4.882-3.771c1.091,0.199,2.234,0.657,3.324,1.171l4.207,3.228
			C318.8,41.087,317.865,40.829,317.034,40.744z M317.397,74.509l-4.986-3.856l1.351-0.372l5.037,3.885L317.397,74.509z
			 M319.995,73.738l-4.986-3.912c0.363-0.115,0.727-0.343,1.09-0.515l5.038,3.885L319.995,73.738z M322.124,72.596l-4.986-3.914
			l0.883-0.686l5.038,3.885C322.799,72.167,322.436,72.424,322.124,72.596z M318.28,37.488l5.064,3.885l-0.389,1.143l-5.038-3.942
			L318.28,37.488z M319.059,35.317l5.038,3.885l-0.39,1.085l-5.037-3.885L319.059,35.317z M323.889,71.139l-5.037-3.943l0.701-0.772
			l5.09,3.829L323.889,71.139z M325.136,55.313l-4.648-3.599c-0.39-0.657-0.987-1.428-1.533-2l2.597,1.886
			C322.955,52.628,324.201,53.885,325.136,55.313z M319.813,33.088l5.064,3.885l-0.39,1.143l-5.064-3.942L319.813,33.088z
			 M325.24,69.396l-5.038-3.913c0.156-0.286,0.338-0.6,0.546-1.001l5.012,3.914C325.604,68.739,325.448,69.053,325.24,69.396z
			 M326.227,67.368l-5.037-3.942c0.104-0.285,0.26-0.686,0.363-1.086l5.037,3.885C326.512,66.625,326.357,66.997,326.227,67.368z
			 M326.85,59.427l-4.986-3.828c-0.156-0.572-0.26-1.2-0.467-1.771l4.934,3.827C326.539,58.227,326.694,58.77,326.85,59.427z
			 M326.85,65.025l-5.037-3.885c0.078-0.4,0.129-0.772,0.155-1.257l5.038,3.885C326.98,64.169,326.928,64.625,326.85,65.025z
			 M327.058,60.969c0.051,0.543,0.051,0.971,0.051,1.429l-5.037-3.828c0-0.457,0-0.914-0.052-1.428L327.058,60.969z"/>
	</g>
	<g display="inline">
		<path fill="#46BFB8" d="M100.316,63.597H84.631l-2.077,5.942h-7.79l14.698-39.992h6.025l14.698,39.992h-7.791L100.316,63.597z
			 M104.73,66.682h1.143L92.889,32.46h-0.831L79.074,66.682h1.143l2.233-5.999h19.996L104.73,66.682z M92.473,34.117l9.608,25.538
			H82.865L92.473,34.117z M87.02,56.741h10.907l-5.453-15.54L87.02,56.741z"/>
		<path fill="#46BFB8" d="M128.412,28.861c10.907,0,19.476,8.57,19.476,20.682c0,9.884-5.661,17.368-13.659,19.824
			c3.272,2.057,7.479,3.714,12.932,3.714c0.831,0,1.714-0.057,2.649-0.172c0,2.571-1.714,4.857-2.233,7.428
			c-8.933,0-15.789-4.57-22.644-10.455c-9.193-1.543-15.997-9.541-15.997-20.339C108.935,37.43,117.505,28.861,128.412,28.861z
			 M126.801,67.14c4.415,5.484,10.595,9.084,18.645,9.941c0.104-0.4,0.363-0.686,0.416-1.086c-7.375-0.514-13.66-3.885-17.763-8.798
			h0.312c9.141,0,16.204-7.37,16.204-17.653c0-10.284-7.063-17.654-16.204-17.654c-9.141,0-16.204,7.37-16.204,17.654
			C112.207,59.255,118.44,66.339,126.801,67.14z M128.412,32.918c8.465,0,15.165,6.798,15.165,16.626
			c0,9.826-6.7,16.626-15.165,16.626c-8.466,0-15.166-6.799-15.166-16.626C113.246,39.716,119.946,32.918,128.412,32.918z
			 M140.305,49.543c0-8.056-4.986-13.598-11.893-13.598c-6.908,0-11.893,5.542-11.893,13.598c0,8.112,5.505,13.597,11.893,13.597
			C134.8,63.14,140.305,57.655,140.305,49.543z"/>
		<path fill="#46BFB8" d="M151.573,52.628V29.547h7.479v23.596c0,7.027,3.739,9.998,7.79,9.998c4.051,0,7.79-2.971,7.79-9.998
			V29.547h7.479v23.081c0,12.112-6.959,17.597-15.269,17.597S151.573,64.74,151.573,52.628z M178.892,52.628V32.403h-1.038v20.74
			c0,8.97-5.142,13.026-11.011,13.026c-5.869,0-11.011-4.057-11.011-13.026v-20.74h-1.039v20.225
			c0,10.17,5.453,14.569,12.049,14.569C173.438,67.196,178.892,62.798,178.892,52.628z"/>
		<path fill="#46BFB8" d="M188.394,29.547h22.332v6.97h-14.854v10.741h12.465v6.97h-12.465v8.341h15.321v6.97h-22.8V29.547z
			 M191.614,66.568h16.724V65.54h-15.685V51.257h12.828v-1.029h-12.828V33.546h15.217v-1.029h-16.256V66.568z"/>
		<path fill="#46BFB8" d="M223.034,36.517h-9.712v-6.97h26.903v6.97h-9.712v33.022h-7.478V36.517z M226.254,66.682h1.039V33.546
			h10.076v-1.029h-21.19v1.029h10.076V66.682z"/>
		<path fill="#46BFB8" d="M250.974,36.517h-9.712v-6.97h26.903v6.97h-9.712v33.022h-7.478V36.517z M254.194,66.682h1.039V33.546
			h10.076v-1.029h-21.19v1.029h10.076V66.682z"/>
		<path fill="#46BFB8" d="M271.799,29.547h22.332v6.97h-14.853v10.741h12.464v6.97h-12.464v8.341h15.321v6.97h-22.8V29.547z
			 M275.019,66.568h16.723V65.54h-15.685V51.257h12.828v-1.029h-12.828V33.546h15.217v-1.029h-16.256V66.568z"/>
		<path fill="#46BFB8" d="M298.026,39.716c0-6.455,4.155-10.855,11.685-10.855c3.48,0,7.064,1.029,9.764,2.799l-2.285,6.513
			c-1.87-1.371-4.363-2.228-6.752-2.228c-3.272,0-4.831,1.314-4.831,3.371c0,2.228,1.351,3.57,6.284,6.056
			c6.362,3.2,9.401,6.742,9.401,12.741c0,7.37-4.571,12.112-13.14,12.112c-3.792,0-7.843-1.2-10.907-3.257l2.285-6.627
			c2.337,1.772,5.505,2.8,8.31,2.8c3.636,0,5.869-1.6,5.869-4.371c0-2.942-1.896-4.599-6.362-6.741
			C300.129,48.571,298.026,44.886,298.026,39.716z M316.982,58.626c0,4.685-2.908,7.542-8.881,7.542c-2.285,0-5.09-0.629-7.22-1.886
			l-0.363,1.029c2.13,1.257,5.142,1.886,7.635,1.886c6.18,0,9.867-2.914,9.867-8.57c0-5.141-2.363-7.398-7.738-10.141
			c-6.232-3.17-7.946-5.399-7.946-8.77c0-4.113,2.805-6.798,7.531-6.798c2.078,0,4.103,0.399,5.869,1.314l0.312-0.971
			c-1.662-0.858-3.999-1.371-6.284-1.371c-5.038,0-8.466,2.856-8.466,7.826c0,4.285,2.415,6.685,8.154,9.57
			C314.853,51.999,316.982,54.113,316.982,58.626z"/>
	</g>
	<g display="inline">
		<path fill="#3071B8" d="M126.145,9.291h5.304c1.475,0,2.619,0.415,3.382,1.177c0.646,0.646,0.995,1.558,0.995,2.652v0.033
			c0,1.873-1.011,3.05-2.487,3.597l2.835,4.144h-2.984l-2.487-3.713h-0.033h-1.972v3.713h-2.553V9.291z M131.283,14.927
			c1.243,0,1.956-0.663,1.956-1.641v-0.033c0-1.094-0.763-1.658-2.006-1.658h-2.536v3.332H131.283z"/>
		<path fill="#3071B8" d="M144.873,9.291h2.553v11.604h-2.553V9.291z"/>
		<path fill="#3071B8" d="M155.945,9.291h2.818l3.034,8.172l3.033-8.172h2.752l-4.691,11.686h-2.255L155.945,9.291z"/>
		<path fill="#3071B8" d="M175.635,9.291h8.752v2.271h-6.216v2.354h5.47v2.271h-5.47v2.437h6.299v2.271h-8.835V9.291z"/>
		<path fill="#3071B8" d="M193.733,9.291h5.304c1.475,0,2.619,0.415,3.382,1.177c0.646,0.646,0.995,1.558,0.995,2.652v0.033
			c0,1.873-1.011,3.05-2.487,3.597l2.835,4.144h-2.984l-2.487-3.713h-0.033h-1.972v3.713h-2.553V9.291z M198.872,14.927
			c1.243,0,1.956-0.663,1.956-1.641v-0.033c0-1.094-0.763-1.658-2.006-1.658h-2.536v3.332H198.872z"/>
		<path fill="#3071B8" d="M211.55,19.204l1.508-1.807c1.045,0.862,2.139,1.409,3.464,1.409c1.045,0,1.674-0.414,1.674-1.094v-0.033
			c0-0.647-0.398-0.978-2.337-1.475c-2.337-0.597-3.846-1.243-3.846-3.548v-0.033c0-2.105,1.691-3.498,4.061-3.498
			c1.691,0,3.133,0.53,4.31,1.475l-1.326,1.923c-1.028-0.713-2.039-1.144-3.017-1.144c-0.978,0-1.492,0.448-1.492,1.012v0.032
			c0,0.763,0.497,1.012,2.503,1.526c2.354,0.613,3.68,1.458,3.68,3.481v0.033c0,2.304-1.757,3.598-4.26,3.598
			C214.716,21.061,212.942,20.447,211.55,19.204z"/>
		<path fill="#3071B8" d="M229.7,9.291h2.552v11.604H229.7V9.291z"/>
		<path fill="#3071B8" d="M241.765,9.291h4.525c3.647,0,6.167,2.503,6.167,5.769v0.033c0,3.265-2.52,5.802-6.167,5.802h-4.525V9.291
			z M246.291,18.59c2.089,0,3.498-1.409,3.498-3.464v-0.033c0-2.056-1.409-3.498-3.498-3.498h-1.972v6.995H246.291z"/>
		<path fill="#3071B8" d="M261.356,9.291h8.752v2.271h-6.216v2.354h5.47v2.271h-5.47v2.437h6.299v2.271h-8.835V9.291z"/>
	</g>
</g>
<path display="none" fill="#0071CE" d="M465.92,190.387V95.448c-6.151-0.643-11.472-2.74-14.945-5.684
	c-4.207,3.566-11.121,5.895-18.944,5.895c-7.823,0-14.736-2.329-18.944-5.895c-4.207,3.566-11.121,5.895-18.944,5.895
	c-7.823,0-14.736-2.329-18.944-5.895c-4.207,3.566-11.121,5.895-18.944,5.895c-7.822,0-14.736-2.329-18.944-5.895
	c-4.191,3.552-11.067,5.875-18.852,5.893c-7.784-0.018-14.66-2.342-18.851-5.893c-0.03,0.025-0.063,0.049-0.092,0.074
	c-0.03-0.025-0.063-0.049-0.093-0.074c-4.191,3.552-11.067,5.875-18.852,5.893c-7.784-0.018-14.66-2.342-18.851-5.893
	c-0.03,0.025-0.063,0.049-0.092,0.074c-0.03-0.025-0.063-0.049-0.093-0.074c-4.191,3.552-11.067,5.875-18.852,5.893
	c-0.097,0-0.193-0.004-0.29-0.005c-0.679-0.004-1.347-0.034-2.011-0.072c-6.828-0.422-12.778-2.618-16.55-5.815
	c-4.207,3.566-11.121,5.895-18.944,5.895c-7.822,0-14.736-2.329-18.944-5.895c-4.208,3.566-11.122,5.895-18.944,5.895
	c-7.822,0-14.736-2.329-18.944-5.895c-3.761,3.188-9.688,5.381-16.491,5.812l0-0.002c-0.436,0.031-0.89,0.051-1.347,0.064
	c-0.09,0.003-0.18,0.003-0.27,0.005c-0.328,0.008-0.656,0.012-0.98,0.013c-7.763-0.028-14.619-2.348-18.8-5.892
	c-0.056,0.047-0.117,0.091-0.173,0.138c-0.056-0.047-0.118-0.091-0.173-0.138c-4.166,3.531-10.987,5.845-18.716,5.89
	c-0.873-0.003-1.735-0.034-2.583-0.093l0.004,0.02c-6.846-0.415-12.813-2.614-16.593-5.818c-4.207,3.566-11.121,5.895-18.944,5.895
	c-7.823,0-14.736-2.329-18.944-5.895c-4.207,3.566-11.121,5.895-18.944,5.895c-7.822,0-14.736-2.329-18.944-5.895
	c-4.208,3.566-11.121,5.895-18.944,5.895c-7.822,0-14.736-2.329-18.944-5.895c-4.208,3.566-11.122,5.895-18.944,5.895
	c-7.822,0-14.736-2.329-18.944-5.895c-3.741,3.17-9.623,5.358-16.379,5.806v94.817H465.92z"/>
<text transform="matrix(1 0 0 1.1 23.9194 247.4843)" display="none" fill="#46BFB8" font-family="'TradeGothicLTStd-BdCn20'" font-size="36">SATURDAY, SEPTEMBER 6</text>
<text transform="matrix(0.8241 -0.3917 0.4722 0.9935 -81.3205 56.8307)" display="none" fill="#E27C00" font-family="'TradeGothicLTStd-BdCn20'" font-size="46.8791" letter-spacing="-1.096">OPEN</text>
<text transform="matrix(0.8241 -0.3917 0.4722 0.9935 -66.0856 81.6715)" display="none" fill="#E27C00" font-family="'TradeGothicLTStd-Cn18'" font-size="31.8436" letter-spacing="1.096">HOUSE</text>
<text transform="matrix(0.7458 0.5256 -0.6337 0.8991 374.7213 16.8217)" display="none" fill="#E27C00" font-family="'TradeGothicLTStd-BdCn20'" font-size="46.8791" letter-spacing="-1.096">OPEN</text>
<text transform="matrix(0.7458 0.5256 -0.6337 0.8991 360.2737 41.9686)" display="none" fill="#E27C00" font-family="'TradeGothicLTStd-Cn18'" font-size="31.8436" letter-spacing="1.096">HOUSE</text>
<text transform="matrix(1 0 0 1.1 -59.2591 168.8894)" display="none" fill="#FFFFFF" font-family="'TradeGothicLTStd-BdCn20'" font-size="65" letter-spacing="3">REGISTRATION DAY</text>
<g>
	<g>
		<path fill-rule="evenodd" clip-rule="evenodd" fill="#46BFB8" d="M53.911,64.407c-0.078-0.268-0.091-0.435-0.068-0.713
			c0.025-0.295,0.047-0.48,0.204-0.73c0.112-0.179,0.165-0.362,0.374-0.391c0.107-0.015,0.177,0,0.272,0.051
			c0.147,0.079,0.167,0.205,0.238,0.357c0.104,0.221,0.069,0.376,0.136,0.611c0.036,0.127,0.045,0.204,0.102,0.323
			c0.044,0.091,0.073,0.141,0.136,0.221c0.084,0.107,0.164,0.137,0.255,0.238c0.105,0.116,0.191,0.173,0.238,0.323
			c0.068,0.22,0.022,0.396-0.119,0.577c-0.122,0.157-0.247,0.214-0.442,0.255c-0.281,0.059-0.467-0.038-0.713-0.187
			C54.151,65.115,54.033,64.825,53.911,64.407z"/>
		<g>
			<path fill-rule="evenodd" clip-rule="evenodd" fill="#46BFB8" d="M54.778,27.553c0,0-0.879-4.312-0.611-7.065
				c0.354-3.636,1.874-5.398,3.125-8.831c0.29-0.795,0.498-1.229,0.747-2.038c0.351-1.143-0.076-2.062,0.679-2.989
				c0.345-0.423,0.615-0.608,1.087-0.883c0.916-0.535,1.605-0.795,2.649-0.611c1.107,0.195,1.481,0.952,2.378,1.63
				c3.213,2.433,4.542,4.398,7.065,7.541c1.46,1.818,2.044,3.028,3.533,4.823c1.531,1.847,2.569,2.735,4.212,4.484
				c0,0,2.146-0.369,3.533-0.408c2.077-0.058,3.225,0.423,5.299,0.543c2.116,0.122,3.318,0.178,5.435,0.068
				c2.078-0.108,3.221-0.515,5.299-0.611c2.145-0.099,3.381-0.194,5.503,0.136c2.269,0.352,3.479,0.917,5.639,1.698
				c2.166,0.784,3.416,1.201,5.435,2.31c1.179,0.648,1.841,1.032,2.921,1.834c0.575,0.427,0.931,0.638,1.427,1.155
				c0.352,0.367,0.783,0.511,0.815,1.019c0.023,0.368-0.056,0.647-0.34,0.883c-0.309,0.256-0.619,0.156-1.019,0.136
				c-0.888-0.044-1.243-0.622-2.038-1.019c-0.742-0.371-1.105-0.721-1.902-0.951c-0.818-0.236-1.323-0.163-2.174-0.204
				c-1.271-0.061-1.996,0.206-3.261,0.068c-1.163-0.127-1.977,0.011-2.921-0.679c-0.561-0.41-0.704-0.829-1.155-1.359
				c0,0-0.622-0.016-1.019,0c-1.262,0.051-1.962,0.26-3.193,0.543c-1.845,0.425-2.796,0.984-4.62,1.495
				c-1.758,0.492-2.727,1.068-4.552,1.087c-1.59,0.017-2.487-0.284-4.008-0.747c-0.866-0.264-1.303-0.569-2.174-0.815
				c-0.755-0.214-1.187-0.359-1.97-0.408c-0.344-0.021-0.539,0-0.883,0c0,0,0.738,1.589,1.087,2.649
				c0.291,0.885,0.397,1.403,0.611,2.31c0.143,0.607,0.409,0.943,0.34,1.562c-0.04,0.358,0.003,0.649-0.272,0.883
				c-0.191,0.163-0.36,0.196-0.611,0.204c-0.656,0.02-0.698-0.752-1.155-1.223c-0.47-0.484-0.711-0.783-1.223-1.223
				c-0.547-0.47-0.884-0.704-1.495-1.087c-0.462-0.29-0.779-0.362-1.223-0.679c-0.64-0.458-0.87-0.87-1.427-1.427
				c0,0-0.749,0.198-1.223,0.34c-1.655,0.495-2.473,1.126-4.144,1.562c-1.889,0.493-3.025,0.414-4.959,0.679
				c0,0-0.432,1.595-1.019,2.446c-0.564,0.818-0.981,1.258-1.834,1.766c-1.799,1.072-3.298,0.533-5.367,0.204
				c-1.111-0.177-1.662-0.691-2.785-0.747c-0.53-0.026-0.843-0.056-1.359,0.068c-1,0.24-1.435,0.779-2.174,1.495
				c-0.582,0.564-0.91,0.915-1.291,1.63c-0.501,0.942-0.583,1.587-0.679,2.649c-0.138,1.519,0.423,2.352,0.543,3.872
				c0.123,1.559,0.138,2.446,0.068,4.008c-0.068,1.517-0.079,2.39-0.408,3.872c-0.234,1.055-0.464,1.627-0.815,2.649
				c-0.406,1.182-0.704,1.823-1.155,2.989c0,0,0.812,0.618,1.155,1.155c0.249,0.39,0.356,0.64,0.476,1.087
				c0.15,0.565,0.098,0.91,0.102,1.495c0.002,0.384-0.276,0.687-0.034,0.985c0.18,0.222,0.395,0.245,0.679,0.272
				c0.282,0.027,0.43-0.139,0.713-0.136c0.229,0.003,0.375-0.004,0.577,0.102c0.199,0.104,0.261,0.237,0.408,0.408
				c0.13,0.151,0.186,0.249,0.306,0.408c0,0,0.182-0.172,0.306-0.272c0.697-0.563,1.259-0.624,2.106-0.917
				c0.993-0.343,1.588-0.426,2.615-0.645c0.686-0.147,1.179,0.045,1.766-0.34c0.189-0.124,0.324-0.181,0.442-0.374
				c0.146-0.24,0.062-0.435,0.102-0.713c0,0-0.676,0.204-1.121,0.272c-0.498,0.076-0.787,0.089-1.291,0.068
				c-0.851-0.036-1.349-0.123-2.14-0.442c-0.656-0.264-1.018-0.466-1.562-0.917c-0.382-0.317-0.619-0.497-0.883-0.917
				c-0.126-0.201-0.243-0.308-0.272-0.543c-0.031-0.258,0.098-0.395,0.17-0.645c0.085-0.294,0.195-0.444,0.238-0.747
				c0.035-0.249,0.122-0.425,0-0.645c-0.122-0.218-0.302-0.277-0.543-0.34c-0.244-0.063-0.401-0.028-0.645,0.034
				c-0.241,0.061-0.372,0.131-0.577,0.272c-0.232,0.159-0.306,0.316-0.51,0.51c-0.156,0.149-0.194,0.344-0.408,0.374
				c-0.166,0.023-0.27-0.04-0.408-0.136c-0.352-0.245-0.132-0.66-0.17-1.087c-0.159-1.788,0.045-2.93,0.883-4.518
				c1.454-2.753,3.651-4.069,6.759-4.246c2.599-0.148,4.624,0.311,6.25,2.344c1.498,1.873,1.39,3.663,1.121,6.046
				c-0.19,1.678-0.529,2.64-1.359,4.11c-0.554,0.981-0.872,1.583-1.732,2.31c-1.064,0.899-1.909,1.122-3.261,1.461
				c-0.894,0.224-1.452,0.073-2.344,0.306c-0.869,0.227-1.467,0.255-2.14,0.849c-0.332,0.293-0.413,0.557-0.713,0.883
				c-0.19,0.207-0.229,0.499-0.51,0.51c-0.155,0.006-0.237-0.063-0.374-0.136c-0.331-0.176-0.414-0.418-0.645-0.713
				c-0.111-0.142-0.121-0.275-0.272-0.374c-0.095-0.062-0.163-0.072-0.272-0.102c-0.409-0.114-0.662,0.062-1.087,0.068
				c-0.398,0.005-0.689,0.188-1.019-0.034c-0.238-0.16-0.294-0.348-0.408-0.611c-0.243-0.559-0.062-0.954-0.034-1.562
				c0.02-0.425,0.156-0.665,0.102-1.087c-0.048-0.374-0.099-0.602-0.306-0.917c-0.164-0.251-0.332-0.332-0.543-0.543
				c0,0-0.302,1.754-0.34,2.887c-0.043,1.287,0.159,2.008,0.204,3.295c0.059,1.682,0.115,2.635,0,4.314
				c-0.122,1.789-0.556,2.761-0.645,4.552c-0.091,1.828,0.081,2.862,0.204,4.687c0.119,1.765,0.317,2.751,0.408,4.518
				c0.078,1.522,0.271,2.396,0.068,3.906c-0.21,1.562-0.589,2.401-1.155,3.872c-0.332,0.864-0.516,1.357-0.951,2.174
				c-0.268,0.503-0.351,0.846-0.747,1.257c-0.276,0.286-0.425,0.685-0.815,0.611c-0.163-0.031-0.261-0.082-0.374-0.204
				c-0.199-0.217-0.075-0.454-0.102-0.747c-0.109-1.192,0.246-1.86,0.272-3.057c0.041-1.887-0.277-2.94-0.408-4.823
				c-0.094-1.364-0.431-2.151-0.204-3.499c0.173-1.025,0.539-1.533,0.883-2.514c0,0-0.338-0.909-0.543-1.495
				c-0.337-0.961-0.555-1.495-0.815-2.48c-0.482-1.826-0.568-2.906-0.713-4.789c-0.124-1.612-0.108-2.528-0.068-4.144
				c0.037-1.486,0.154-2.32,0.238-3.804c0.107-1.88,0.416-2.948,0.238-4.823c-0.132-1.386-0.271-2.178-0.713-3.499
				c-0.523-1.562-0.982-2.404-1.902-3.77c-0.71-1.054-1.275-1.524-2.072-2.514c-0.213-0.264-0.375-0.385-0.543-0.679
				c-0.561-0.977-0.255-1.799,0.034-2.887c0.283-1.066,0.824-1.515,1.359-2.48c1.258-2.268,1.857-3.616,3.295-5.774
				c2.103-3.156,3.424-4.904,6.182-7.507c0.682-0.644,1.098-0.974,1.8-1.596c0,0,0.518-0.939,0.917-1.495
				C53.205,28.926,54.778,27.553,54.778,27.553z"/>
			<path fill="none" stroke="#FFFFFF" stroke-width="0.1359" stroke-miterlimit="3.8637" d="M54.778,27.553
				c0,0-0.879-4.312-0.611-7.065c0.354-3.636,1.874-5.398,3.125-8.831c0.29-0.795,0.498-1.229,0.747-2.038
				c0.351-1.143-0.076-2.062,0.679-2.989c0.345-0.423,0.615-0.608,1.087-0.883c0.916-0.535,1.605-0.795,2.649-0.611
				c1.107,0.195,1.481,0.952,2.378,1.63c3.213,2.433,4.542,4.398,7.065,7.541c1.46,1.818,2.044,3.028,3.533,4.823
				c1.531,1.847,2.569,2.735,4.212,4.484c0,0,2.146-0.369,3.533-0.408c2.077-0.058,3.225,0.423,5.299,0.543
				c2.116,0.122,3.318,0.178,5.435,0.068c2.078-0.108,3.221-0.515,5.299-0.611c2.145-0.099,3.381-0.194,5.503,0.136
				c2.269,0.352,3.479,0.917,5.639,1.698c2.166,0.784,3.416,1.201,5.435,2.31c1.179,0.648,1.841,1.032,2.921,1.834
				c0.575,0.427,0.931,0.638,1.427,1.155c0.352,0.367,0.783,0.511,0.815,1.019c0.023,0.368-0.056,0.647-0.34,0.883
				c-0.309,0.256-0.619,0.156-1.019,0.136c-0.888-0.044-1.243-0.622-2.038-1.019c-0.742-0.371-1.105-0.721-1.902-0.951
				c-0.818-0.236-1.323-0.163-2.174-0.204c-1.271-0.061-1.996,0.206-3.261,0.068c-1.163-0.127-1.977,0.011-2.921-0.679
				c-0.561-0.41-0.704-0.829-1.155-1.359c0,0-0.622-0.016-1.019,0c-1.262,0.051-1.962,0.26-3.193,0.543
				c-1.845,0.425-2.796,0.984-4.62,1.495c-1.758,0.492-2.727,1.068-4.552,1.087c-1.59,0.017-2.487-0.284-4.008-0.747
				c-0.866-0.264-1.303-0.569-2.174-0.815c-0.755-0.214-1.187-0.359-1.97-0.408c-0.344-0.021-0.539,0-0.883,0
				c0,0,0.738,1.589,1.087,2.649c0.291,0.885,0.397,1.403,0.611,2.31c0.143,0.607,0.409,0.943,0.34,1.562
				c-0.04,0.358,0.003,0.649-0.272,0.883c-0.191,0.163-0.36,0.196-0.611,0.204c-0.656,0.02-0.698-0.752-1.155-1.223
				c-0.47-0.484-0.711-0.783-1.223-1.223c-0.547-0.47-0.884-0.704-1.495-1.087c-0.462-0.29-0.779-0.362-1.223-0.679
				c-0.64-0.458-0.87-0.87-1.427-1.427c0,0-0.749,0.198-1.223,0.34c-1.655,0.495-2.473,1.126-4.144,1.562
				c-1.889,0.493-3.025,0.414-4.959,0.679c0,0-0.432,1.595-1.019,2.446c-0.564,0.818-0.981,1.258-1.834,1.766
				c-1.799,1.072-3.298,0.533-5.367,0.204c-1.111-0.177-1.662-0.691-2.785-0.747c-0.53-0.026-0.843-0.056-1.359,0.068
				c-1,0.24-1.435,0.779-2.174,1.495c-0.582,0.564-0.91,0.915-1.291,1.63c-0.501,0.942-0.583,1.587-0.679,2.649
				c-0.138,1.519,0.423,2.352,0.543,3.872c0.123,1.559,0.138,2.446,0.068,4.008c-0.068,1.517-0.079,2.39-0.408,3.872
				c-0.234,1.055-0.464,1.627-0.815,2.649c-0.406,1.182-0.704,1.823-1.155,2.989c0,0,0.812,0.618,1.155,1.155
				c0.249,0.39,0.356,0.64,0.476,1.087c0.15,0.565,0.098,0.91,0.102,1.495c0.002,0.384-0.276,0.687-0.034,0.985
				c0.18,0.222,0.395,0.245,0.679,0.272c0.282,0.027,0.43-0.139,0.713-0.136c0.229,0.003,0.375-0.004,0.577,0.102
				c0.199,0.104,0.261,0.237,0.408,0.408c0.13,0.151,0.186,0.249,0.306,0.408c0,0,0.182-0.172,0.306-0.272
				c0.697-0.563,1.259-0.624,2.106-0.917c0.993-0.343,1.588-0.426,2.615-0.645c0.686-0.147,1.179,0.045,1.766-0.34
				c0.189-0.124,0.324-0.181,0.442-0.374c0.146-0.24,0.062-0.435,0.102-0.713c0,0-0.676,0.204-1.121,0.272
				c-0.498,0.076-0.787,0.089-1.291,0.068c-0.851-0.036-1.349-0.123-2.14-0.442c-0.656-0.264-1.018-0.466-1.562-0.917
				c-0.382-0.317-0.619-0.497-0.883-0.917c-0.126-0.201-0.243-0.308-0.272-0.543c-0.031-0.258,0.098-0.395,0.17-0.645
				c0.085-0.294,0.195-0.444,0.238-0.747c0.035-0.249,0.122-0.425,0-0.645c-0.122-0.218-0.302-0.277-0.543-0.34
				c-0.244-0.063-0.401-0.028-0.645,0.034c-0.241,0.061-0.372,0.131-0.577,0.272c-0.232,0.159-0.306,0.316-0.51,0.51
				c-0.156,0.149-0.194,0.344-0.408,0.374c-0.166,0.023-0.27-0.04-0.408-0.136c-0.352-0.245-0.132-0.66-0.17-1.087
				c-0.159-1.788,0.045-2.93,0.883-4.518c1.454-2.753,3.651-4.069,6.759-4.246c2.599-0.148,4.624,0.311,6.25,2.344
				c1.498,1.873,1.39,3.663,1.121,6.046c-0.19,1.678-0.529,2.64-1.359,4.11c-0.554,0.981-0.872,1.583-1.732,2.31
				c-1.064,0.899-1.909,1.122-3.261,1.461c-0.894,0.224-1.452,0.073-2.344,0.306c-0.869,0.227-1.467,0.255-2.14,0.849
				c-0.332,0.293-0.413,0.557-0.713,0.883c-0.19,0.207-0.229,0.499-0.51,0.51c-0.155,0.006-0.237-0.063-0.374-0.136
				c-0.331-0.176-0.414-0.418-0.645-0.713c-0.111-0.142-0.121-0.275-0.272-0.374c-0.095-0.062-0.163-0.072-0.272-0.102
				c-0.409-0.114-0.662,0.062-1.087,0.068c-0.398,0.005-0.689,0.188-1.019-0.034c-0.238-0.16-0.294-0.348-0.408-0.611
				c-0.243-0.559-0.062-0.954-0.034-1.562c0.02-0.425,0.156-0.665,0.102-1.087c-0.048-0.374-0.099-0.602-0.306-0.917
				c-0.164-0.251-0.332-0.332-0.543-0.543c0,0-0.302,1.754-0.34,2.887c-0.043,1.287,0.159,2.008,0.204,3.295
				c0.059,1.682,0.115,2.635,0,4.314c-0.122,1.789-0.556,2.761-0.645,4.552c-0.091,1.828,0.081,2.862,0.204,4.687
				c0.119,1.765,0.317,2.751,0.408,4.518c0.078,1.522,0.271,2.396,0.068,3.906c-0.21,1.562-0.589,2.401-1.155,3.872
				c-0.332,0.864-0.516,1.357-0.951,2.174c-0.268,0.503-0.351,0.846-0.747,1.257c-0.276,0.286-0.425,0.685-0.815,0.611
				c-0.163-0.031-0.261-0.082-0.374-0.204c-0.199-0.217-0.075-0.454-0.102-0.747c-0.109-1.192,0.246-1.86,0.272-3.057
				c0.041-1.887-0.277-2.94-0.408-4.823c-0.094-1.364-0.431-2.151-0.204-3.499c0.173-1.025,0.539-1.533,0.883-2.514
				c0,0-0.338-0.909-0.543-1.495c-0.337-0.961-0.555-1.495-0.815-2.48c-0.482-1.826-0.568-2.906-0.713-4.789
				c-0.124-1.612-0.108-2.528-0.068-4.144c0.037-1.486,0.154-2.32,0.238-3.804c0.107-1.88,0.416-2.948,0.238-4.823
				c-0.132-1.386-0.271-2.178-0.713-3.499c-0.523-1.562-0.982-2.404-1.902-3.77c-0.71-1.054-1.275-1.524-2.072-2.514
				c-0.213-0.264-0.375-0.385-0.543-0.679c-0.561-0.977-0.255-1.799,0.034-2.887c0.283-1.066,0.824-1.515,1.359-2.48
				c1.258-2.268,1.857-3.616,3.295-5.774c2.103-3.156,3.424-4.904,6.182-7.507c0.682-0.644,1.098-0.974,1.8-1.596
				c0,0,0.518-0.939,0.917-1.495C53.205,28.926,54.778,27.553,54.778,27.553z"/>
			<path fill-rule="evenodd" clip-rule="evenodd" fill="#FFFFFF" d="M72.644,25.515c-1.513-0.073-2.361-0.197-3.872-0.306
				c-1.867-0.135-2.918-0.339-4.789-0.306c-1.048,0.019-1.696-0.183-2.683,0.17c-0.508,0.181-0.866,0.241-1.223,0.645
				c-0.404,0.459-0.477,0.883-0.476,1.495c0.002,0.726,0.306,1.11,0.679,1.732c0.42,0.7,0.773,1.031,1.393,1.562
				c1.174,1.006,2.064,1.365,3.567,1.732c1.634,0.399,2.639,0.199,4.314,0.034c2.155-0.212,3.334-0.642,5.401-1.291
				c1.897-0.595,2.898-1.127,4.755-1.834c1.085-0.413,1.666-0.743,2.785-1.053c0.654-0.181,1.021-0.349,1.698-0.374
				c0.519-0.019,0.811,0.058,1.325,0.136c1.096,0.166,1.69,0.393,2.751,0.713c1.155,0.348,1.738,0.78,2.921,1.019
				c0.602,0.122,0.948,0.191,1.562,0.204c1.047,0.022,1.634-0.183,2.649-0.442c1.202-0.306,1.813-0.694,2.989-1.087
				c0.751-0.251,1.179-0.38,1.936-0.611c0.95-0.29,1.479-0.481,2.446-0.713c0.97-0.233,1.519-0.394,2.514-0.476
				c0.555-0.046,0.892-0.19,1.427-0.034c0.41,0.12,0.704,0.195,0.951,0.543c0.162,0.229,0.13,0.42,0.238,0.679
				c0.136,0.328,0.153,0.568,0.408,0.815c0.234,0.227,0.435,0.28,0.747,0.374c0.482,0.145,0.787,0.041,1.291,0.034
				c0.73-0.01,1.138-0.133,1.868-0.136c0.77-0.003,1.216-0.019,1.97,0.136c0.599,0.123,0.912,0.29,1.495,0.476
				c0,0-1.502-0.968-2.514-1.495c-1.379-0.718-2.208-1.029-3.668-1.562c-1.24-0.453-1.935-0.749-3.227-1.019
				c-1.987-0.415-3.169-0.341-5.197-0.272c-2,0.068-3.098,0.474-5.095,0.611c-2.498,0.172-3.945,0.415-6.42,0.034
				c-0.883-0.136-1.355-0.366-2.242-0.476c-1.157-0.143-1.823-0.046-2.989-0.034c-1.95,0.021-3.046,0.147-4.993,0.238
				c-1.749,0.081-2.733,0.214-4.484,0.204C73.991,25.578,73.505,25.556,72.644,25.515z"/>
			<path fill-rule="evenodd" clip-rule="evenodd" fill="#FFFFFF" d="M79.981,30.644c0,0,0.605-0.217,0.985-0.374
				c0.362-0.149,0.559-0.249,0.917-0.408c0,0,0.68,1.035,1.053,1.732c0.65,1.215,0.829,1.989,1.359,3.261
				c0,0-1.014-1.261-1.732-2.004c-0.423-0.438-0.632-0.724-1.121-1.087c-0.325-0.241-0.569-0.288-0.883-0.543
				C80.311,31.02,79.981,30.644,79.981,30.644z"/>
			<path fill-rule="evenodd" clip-rule="evenodd" fill="#FFFFFF" d="M77.773,23.952c0,0-1.514-1.323-2.412-2.242
				c-1.818-1.86-2.55-3.169-4.178-5.197c-1.392-1.734-2.084-2.792-3.567-4.45c-1.043-1.166-1.638-1.823-2.785-2.887
				c-0.917-0.85-1.271-1.644-2.446-2.072c-0.496-0.18-0.816-0.409-1.325-0.272c-0.437,0.118-0.623,0.368-0.917,0.713
				c-0.519,0.61-0.465,1.165-0.679,1.936c-0.142,0.511-0.165,0.813-0.306,1.325c-0.437,1.592-1.024,2.371-1.63,3.906
				c-0.468,1.185-0.877,1.813-1.155,3.057c-0.249,1.117-0.279,1.777-0.272,2.921c0.008,1.321,0.146,2.068,0.408,3.363
				c0.151,0.75,0.29,1.16,0.476,1.902c0,0,0.616-0.534,1.053-0.815c0.688-0.443,1.132-0.609,1.902-0.883
				c0.923-0.329,1.474-0.452,2.446-0.577c0.946-0.122,1.492-0.041,2.446-0.068c0,0-0.343-0.49-0.543-0.815
				c-0.386-0.625-0.616-0.98-0.883-1.664c-0.369-0.947-0.445-1.536-0.543-2.548c-0.096-0.989-0.038-1.556,0.034-2.548
				c0.044-0.611,0.156-0.95,0.17-1.562c0.017-0.771-0.059-1.207-0.17-1.97c-0.073-0.507-0.045-0.817-0.238-1.291
				c-0.096-0.236-0.264-0.326-0.306-0.577c-0.03-0.183-0.088-0.335,0.034-0.476c0.078-0.089,0.157-0.105,0.272-0.136
				c0.276-0.075,0.464,0.03,0.713,0.17c0.426,0.239,0.444,0.625,0.679,1.053c0.465,0.845,0.537,1.409,0.883,2.31
				c0.356,0.928,0.436,1.508,0.917,2.378c0.463,0.837,0.798,1.28,1.461,1.97c0.899,0.937,1.583,1.281,2.683,1.97
				c0.945,0.591,1.604,0.715,2.514,1.359c0.576,0.408,0.89,0.659,1.393,1.155c0.542,0.535,0.594,1.12,1.257,1.495
				C76.046,24.386,77.773,23.952,77.773,23.952z"/>
			<path fill-rule="evenodd" clip-rule="evenodd" fill="#FFFFFF" d="M53.759,37.437c0,0-2.159-0.131-3.499,0.136
				c-1.097,0.218-1.658,0.559-2.717,0.917c0,0-0.758,1.066-1.155,1.8c-0.565,1.045-0.772,1.694-1.155,2.819
				c-0.558,1.639-0.512,2.668-1.053,4.314c-0.346,1.052-0.541,1.651-1.019,2.649c-0.333,0.695-0.78,0.981-0.951,1.732
				c-0.138,0.607-0.166,0.996,0,1.596c0.258,0.933,1.085,1.08,1.596,1.902c0.647,1.04,0.867,1.73,1.155,2.921
				c0.368,1.522,0.195,2.443,0.238,4.008c0.072,2.61-0.111,4.081-0.17,6.691c-0.044,1.921-0.232,3.008-0.102,4.925
				c0.146,2.145,0.292,3.378,0.917,5.435c0.25,0.822,0.483,1.255,0.747,2.072c0.17,0.526,0.341,0.809,0.408,1.359
				c0.065,0.54,0.005,0.854-0.068,1.393c-0.118,0.873-0.509,1.299-0.611,2.174c-0.13,1.109,0.14,1.741,0.238,2.853
				c0.1,1.14,0.243,1.777,0.272,2.921c0.018,0.729-0.021,1.14-0.034,1.868c0,0,0.72-1.576,0.951-2.649
				c0.199-0.924,0.247-1.467,0.238-2.412c-0.013-1.274-0.377-1.96-0.51-3.227c-0.142-1.359-0.158-2.133-0.17-3.499
				c-0.011-1.325,0.046-2.073,0.102-3.397c0.104-2.454,0.27-3.832,0.408-6.284c0.072-1.285,0.183-2.008,0.17-3.295
				c-0.016-1.649-0.306-2.564-0.374-4.212c-0.038-0.927-0.193-1.464-0.034-2.378c0.152-0.875,0.445-1.317,0.781-2.14
				c0.522-1.278,1.055-1.896,1.529-3.193c0.177-0.484,0.263-0.762,0.408-1.257c0.1-0.342,0.173-0.532,0.238-0.883
				c0.192-1.044-0.084-1.659-0.17-2.717c-0.136-1.687-0.256-2.635-0.476-4.314c-0.198-1.514-0.586-2.345-0.577-3.872
				c0.006-0.932-0.095-1.507,0.238-2.378c0.312-0.817,0.728-1.165,1.291-1.834c0.567-0.674,0.918-1.035,1.596-1.596
				C52.924,37.983,53.759,37.437,53.759,37.437z"/>
			<path fill-rule="evenodd" clip-rule="evenodd" fill="#46BFB8" d="M41.343,87.622v-1.828c0.113,0,0.283,0.001,0.508,0.002
				c0.227,0,0.353,0.001,0.378,0.002c0.145,0.01,0.265,0.042,0.36,0.094c0.163,0.09,0.244,0.235,0.244,0.436
				c0,0.154-0.043,0.265-0.13,0.333c-0.085,0.069-0.19,0.11-0.315,0.123c0.115,0.024,0.201,0.059,0.26,0.105
				c0.107,0.087,0.161,0.223,0.161,0.409v0.163c0,0.018,0.001,0.036,0.002,0.054c0.003,0.018,0.007,0.036,0.013,0.054l0.016,0.051
				h-0.456c-0.015-0.058-0.025-0.142-0.029-0.253c-0.004-0.11-0.014-0.185-0.029-0.224c-0.024-0.064-0.069-0.109-0.134-0.134
				c-0.036-0.015-0.09-0.025-0.163-0.029l-0.105-0.007h-0.101v0.647H41.343z M42.216,86.154c-0.066-0.025-0.158-0.038-0.277-0.038
				h-0.116v0.53h0.186c0.112,0,0.199-0.022,0.262-0.067c0.063-0.045,0.094-0.117,0.094-0.217
				C42.364,86.262,42.314,86.193,42.216,86.154z M43.22,87.888c-0.321,0.31-0.706,0.465-1.155,0.465
				c-0.464,0-0.855-0.159-1.172-0.477c-0.318-0.318-0.477-0.708-0.477-1.172c0-0.482,0.172-0.882,0.515-1.201
				c0.322-0.298,0.7-0.447,1.134-0.447c0.455,0,0.843,0.161,1.166,0.483c0.322,0.322,0.483,0.711,0.483,1.166
				C43.715,87.173,43.55,87.568,43.22,87.888z M41.097,85.749c-0.263,0.269-0.394,0.587-0.394,0.955
				c0,0.382,0.133,0.706,0.401,0.973c0.265,0.267,0.586,0.4,0.962,0.4c0.374,0,0.694-0.134,0.96-0.403
				c0.265-0.27,0.398-0.594,0.398-0.971c0-0.367-0.132-0.685-0.396-0.955c-0.267-0.274-0.588-0.412-0.962-0.412
				C41.687,85.338,41.364,85.475,41.097,85.749z"/>
		</g>
	</g>
	<g>
		<path fill="#C0E1DD" d="M66.802,88.662l4.355,3.344h-1.543l-4.355-3.344H66.802z M69.978,88.662l4.355,3.344h-1.588l-4.355-3.344
			H69.978z M72.155,87.913l4.423,3.394l-0.25,0.699h-0.363l-4.401-3.344h0.318L72.155,87.913z M72.813,85.967l4.446,3.394
			l-0.34,0.998l-4.423-3.443L72.813,85.967z M73.494,84.071l4.423,3.393l-0.34,0.949l-4.423-3.394L73.494,84.071z M75.921,83.472
			l4.355,3.343h-1.588l-4.355-3.343H75.921z M76.873,74.439l1.951,1.547h-1.588l-0.681-0.598L76.873,74.439z M80.412,75.986
			l-3.198-2.495l0.318-0.948l4.423,3.319l-0.045,0.125H80.412z M79.051,83.472l4.355,3.343h-1.542l-4.4-3.343H79.051z
			 M78.189,70.646l4.4,3.369l-0.34,0.973l-4.378-3.393L78.189,70.646z M78.87,68.7l3.312,2.545l0.59,1.697l-4.219-3.294L78.87,68.7z
			 M81.047,67.951l0.544,1.598l-2.382-1.797l0.318-0.949L81.047,67.951z M80.095,65.207l0.386,1.098l-0.59-0.499L80.095,65.207z
			 M82.227,83.472l4.355,3.343h-1.542l-4.4-3.343H82.227z M88.033,57.022l0.227,0.623l-4.355-3.369l-0.227-0.598L88.033,57.022z
			 M85.402,83.472l1.497,1.148l0.59,1.697l-3.675-2.844H85.402z M84.54,56.023l4.355,3.344l0.635,1.722l-4.355-3.369L84.54,56.023z
			 M85.788,59.418l4.355,3.368l0.635,1.697l-4.355-3.369L85.788,59.418z M87.058,62.836l4.332,3.319l0.635,1.747l-4.355-3.369
			L87.058,62.836z M88.306,66.254l4.355,3.344l0.635,1.722l-4.355-3.369L88.306,66.254z M89.553,69.598l4.31,3.344l0.635,1.747
			l-4.333-3.393L89.553,69.598z M92.116,88.662l4.31,3.344h-1.542l-4.31-3.344H92.116z M90.801,73.042l4.332,3.343l0.635,1.697
			l-4.332-3.343L90.801,73.042z M92.026,76.385l4.355,3.394l0.635,1.697l-4.333-3.344L92.026,76.385z M93.319,79.828l4.31,3.344
			l0.635,1.697l-4.332-3.344L93.319,79.828z M95.292,88.662l4.355,3.344h-1.633l-4.31-3.344H95.292z M94.544,83.173l4.31,3.393
			l0.658,1.697l-4.333-3.343L94.544,83.173z M95.814,86.616l4.31,3.344l0.612,1.697l-4.31-3.344L95.814,86.616z"/>
		<path fill="#C0E1DD" d="M106.179,73.191v1.248l-4.4-3.394v-1.197L106.179,73.191z M106.292,72.093l-4.378-3.369
			c0-0.35,0.068-0.748,0.159-1.148l4.4,3.419L106.292,72.093z M102.186,73.79c-0.159-0.499-0.249-0.998-0.272-1.447l4.31,3.344
			c0.045,0.449,0.091,0.898,0.182,1.348L102.186,73.79z M106.723,69.997l-4.355-3.393c0.045-0.299,0.182-0.649,0.317-0.949
			l4.4,3.344C106.905,69.349,106.859,69.648,106.723,69.997z M102.685,75.388l3.992,3.044c0.091,0.599,0.272,1.098,0.454,1.598
			l-3.312-2.546C103.411,76.884,103.003,76.186,102.685,75.388z M107.494,68.101l-4.446-3.394c0.136-0.25,0.317-0.574,0.499-0.849
			l4.4,3.394C107.766,67.552,107.63,67.851,107.494,68.101z M108.492,66.454l-4.4-3.394c0.182-0.249,0.363-0.499,0.59-0.748
			l4.446,3.393L108.492,66.454z M105.135,88.113c0.681,0.249,1.384,0.474,2.155,0.673l3.924,3.044
			c-1.361-0.399-2.994-1.372-4.9-2.819L105.135,88.113z M109.808,65.032l-4.401-3.369c0.227-0.249,0.477-0.449,0.771-0.649
			l4.4,3.394L109.808,65.032z M111.441,63.859l-4.4-3.393l0.953-0.499l4.4,3.393L111.441,63.859z M113.483,63.01l-4.4-3.393
			c0.408-0.1,0.862-0.199,1.315-0.249l4.31,3.369L113.483,63.01z M118.019,62.861c-0.612-0.15-1.248-0.2-1.86-0.2l-4.31-3.344
			c0.681,0.025,1.361,0.15,1.996,0.299L118.019,62.861z M121.059,96.847l3.584,2.744c-2.041-0.798-4.627-2.37-5.444-2.969
			l-1.588-1.173C118.564,95.898,119.789,96.447,121.059,96.847z M118.292,87.913c0.136-0.049,0.272-0.1,0.408-0.2l1.316,1.048
			C119.335,88.512,118.745,88.163,118.292,87.913z M120.605,86.766l4.219,3.243c-0.59-0.049-1.316-0.149-2.132-0.398l-2.994-2.346
			L120.605,86.766z M122.284,85.643l4.355,3.343l-0.862,0.625l-4.31-3.369L122.284,85.643z M123.758,84.37l4.378,3.319l-0.703,0.648
			l-4.355-3.344L123.758,84.37z M125.596,97.894l4.265,3.294c-0.817-0.15-1.543-0.299-2.269-0.549l-4.083-3.095
			C124.189,97.695,124.824,97.795,125.596,97.894z M125.097,82.923l4.355,3.343l-0.59,0.699l-4.4-3.344L125.097,82.923z
			 M126.231,81.326l4.378,3.369l-0.544,0.774l-4.4-3.319L126.231,81.326z M131.085,64.358l-3.992-3.094
			c-0.363-0.748-0.862-1.547-1.315-2.245l2.314,1.896C129.134,61.763,130.178,62.911,131.085,64.358z M127.183,79.604l4.401,3.369
			l-0.499,0.898l-4.378-3.369L127.183,79.604z M128.816,97.82l4.4,3.418l-0.045,0.2c-0.408,0-0.975,0-1.452-0.025l-4.355-3.369
			c0.454,0.05,0.907,0.05,1.406,0.05L128.816,97.82z M127.932,77.783l4.423,3.394l-0.408,0.948l-4.355-3.444L127.932,77.783z
			 M132.741,68.051l-4.287-3.294c-0.182-0.549-0.363-1.148-0.544-1.646l4.219,3.294C132.355,66.903,132.559,67.502,132.741,68.051z
			 M128.544,75.836l4.4,3.344c-0.068,0.35-0.181,0.749-0.272,1.048l-4.4-3.443C128.363,76.485,128.454,76.186,128.544,75.836z
			 M128.953,73.69l4.4,3.394c-0.045,0.399-0.091,0.724-0.182,1.048l-4.4-3.343C128.839,74.439,128.907,74.089,128.953,73.69z
			 M133.376,70.996l-4.355-3.344l-0.227-1.422l4.332,3.343C133.217,70.022,133.33,70.546,133.376,70.996z M129.361,95.948
			l4.423,3.393c-0.136,0.325-0.249,0.699-0.317,0.949l-4.423-3.394L129.361,95.948z M129.157,71.395l4.4,3.394l-0.045,1.148
			l-4.423-3.394C129.134,72.243,129.157,71.794,129.157,71.395z M133.58,73.591l-4.4-3.394l-0.045-1.247l4.4,3.343L133.58,73.591z
			 M130.132,94.051l4.4,3.444l-0.363,0.898L129.747,95L130.132,94.051z M134.873,96.547l-4.423-3.444l0.25-0.998l4.4,3.394
			C135.055,95.848,134.964,96.198,134.873,96.547z"/>
		<path fill="#C0E1DD" d="M138.931,54.477l4.401,3.393v1.248l-4.401-3.394V54.477z M138.931,56.922l4.401,3.394v1.198l-4.401-3.344
			V56.922z M138.931,59.368l4.401,3.393v1.198l-4.401-3.344V59.368z M138.931,61.813l4.401,3.394v1.197l-4.401-3.394V61.813z
			 M138.931,64.258l4.401,3.344v1.247l-4.401-3.393V64.258z M138.931,66.704l4.401,3.344v1.248l-4.401-3.394V66.704z
			 M138.931,69.099l4.401,3.394v1.247l-4.401-3.393V69.099z M138.931,71.545l4.401,3.393v1.198l-4.401-3.344V71.545z M138.931,73.99
			l4.401,3.394c0,0.399,0.022,0.848,0.068,1.247l-4.378-3.344C138.977,74.888,138.931,74.439,138.931,73.99z M139.93,78.431
			c-0.272-0.549-0.499-1.048-0.635-1.697l4.31,3.294c0.091,0.549,0.272,1.048,0.454,1.497L139.93,78.431z M140.429,88.562
			c0.635,0.25,1.452,0.45,2.314,0.549l4.174,3.243c-1.406-0.299-2.631-0.898-3.856-1.846L140.429,88.562z M148.821,92.555
			l-4.355-3.294h1.543l4.355,3.294c-0.227,0.049-0.544,0.049-0.771,0.049C149.32,92.604,149.093,92.604,148.821,92.555z
			 M148.685,88.861l4.4,3.344c-0.454,0.125-0.862,0.199-1.27,0.249l-4.355-3.369L148.685,88.861z M154.265,91.856l-4.4-3.344
			c0.317-0.1,0.726-0.25,1.089-0.399l4.355,3.393C154.946,91.656,154.583,91.756,154.265,91.856z M156.33,91.032l-4.423-3.393
			l0.907-0.524l4.378,3.419L156.33,91.032z M158.008,89.934l-4.378-3.419l0.749-0.623l4.4,3.419
			C158.507,89.56,158.28,89.735,158.008,89.934z M159.482,88.612l-4.378-3.443l0.612-0.699l4.4,3.394L159.482,88.612z
			 M160.685,87.09l-4.4-3.419l0.499-0.798l4.423,3.393L160.685,87.09z M157.668,81.126l4.423,3.343
			c-0.136,0.35-0.295,0.699-0.431,0.949l-4.4-3.393L157.668,81.126z M162.431,83.572l-4.401-3.418l0.295-0.974l4.4,3.394
			C162.636,82.923,162.522,83.272,162.431,83.572z M162.976,81.525l-4.4-3.394l0.204-1.048l4.378,3.393
			C163.112,80.827,163.021,81.226,162.976,81.525z M163.339,79.38l-4.423-3.394c0.045-0.349,0.091-0.749,0.091-1.148l4.423,3.394
			L163.339,79.38z M163.475,56.922v0.649l-4.4-3.393v-0.649L163.475,56.922z M159.074,55.375l4.4,3.394v1.198l-4.4-3.394V55.375z
			 M159.074,57.82l4.4,3.394v1.197l-4.4-3.393V57.82z M159.074,60.216l4.4,3.443v1.198l-4.4-3.394V60.216z M159.074,62.661
			l4.4,3.443v1.198l-4.4-3.394V62.661z M159.074,65.107l4.4,3.393v1.248l-4.4-3.393V65.107z M159.074,67.552l4.4,3.394v1.248
			l-4.4-3.444V67.552z M159.074,69.997l4.4,3.394v1.198l-4.4-3.344V69.997z M163.475,77.034l-4.4-3.344v-1.247l4.4,3.393V77.034z"/>
		<path fill="#C0E1DD" d="M166.331,88.662l4.31,3.344h-1.543l-4.355-3.344H166.331z M169.461,88.662l4.355,3.344h-1.543
			l-4.355-3.344H169.461z M172.637,88.662l4.355,3.344h-1.588l-4.355-3.344H172.637z M171.094,60.665l4.401,3.394v1.197
			l-4.401-3.394V60.665z M175.495,67.702l-4.401-3.393v-1.198l4.401,3.344V67.702z M171.094,65.556l2.858,2.146h-1.633l-1.225-0.948
			V65.556z M175.495,78.68v1.198l-4.401-3.393v-1.198L175.495,78.68z M173.907,81.076l-2.813-2.146v-1.198l4.401,3.344H173.907z
			 M171.094,80.128l1.18,0.949h-1.18V80.128z M173.136,59.816l4.4,3.344h-1.588l-4.355-3.344H173.136z M174.27,75.287l4.4,3.344
			h-1.633l-4.355-3.344H174.27z M175.767,88.662l4.355,3.344h-1.543l-4.355-3.344H175.767z M176.312,59.816l4.4,3.344h-1.633
			l-4.31-3.344H176.312z M177.446,75.287l4.355,3.344h-1.588l-4.4-3.344H177.446z M178.988,88.662l4.31,3.344h-1.542l-4.355-3.344
			H178.988z M179.487,59.816l4.355,3.344h-1.588l-4.401-3.344H179.487z M180.576,75.287l4.356,3.344h-1.543l-4.355-3.344H180.576z
			 M182.164,88.662l4.31,3.344h-1.588l-4.355-3.344H182.164z M182.618,59.816l4.401,3.344h-1.588l-4.4-3.344H182.618z M181.983,69
			l4.401,3.393v1.248l-4.401-3.394V69z M181.983,71.444l4.401,3.443v1.198l-4.401-3.393V71.444z M181.983,73.89l4.401,3.393v1.198
			l-4.401-3.393V73.89z M188.062,92.006l-4.31-3.344h0.726v-0.649l4.4,3.394v0.599H188.062z M184.069,53.529l4.401,3.393v1.248
			l-4.401-3.443V53.529z M184.069,55.974l4.401,3.394v1.247l-4.401-3.443V55.974z M184.069,58.369l4.401,3.444v1.247l-4.401-3.443
			V58.369z M184.478,83.173l4.4,3.343v1.248l-4.4-3.393V83.173z M184.478,85.568l4.4,3.394v1.198l-4.4-3.394V85.568z"/>
		<path fill="#C0E1DD" d="M186.518,59.816h1.044l4.355,3.344h-1.044L186.518,59.816z M193.459,63.161l-4.31-3.344h1.587l2.722,2.096
			V63.161z M193.459,60.715l-1.089-0.898h1.089V60.715z M195.001,88.662h1.542l4.31,3.344h-1.497L195.001,88.662z M199.72,88.662
			l4.31,3.344h-1.633l-4.265-3.344H199.72z M201.352,87.464l4.401,3.443v1.098h-0.136l-4.355-3.344h0.091V87.464z M201.352,60.665
			l4.401,3.394v1.197l-4.401-3.344V60.665z M201.352,63.111l4.401,3.393v1.198l-4.401-3.344V63.111z M201.352,65.556l4.401,3.394
			v1.198l-4.401-3.394V65.556z M201.352,68.001l4.401,3.344v1.247l-4.401-3.393V68.001z M201.352,70.447l4.401,3.343v1.248
			l-4.401-3.394V70.447z M201.352,72.842l4.401,3.394v1.247l-4.401-3.394V72.842z M201.352,75.287l4.401,3.393v1.198l-4.401-3.343
			V75.287z M201.352,77.733l4.401,3.394v1.198l-4.401-3.394V77.733z M201.352,80.178l4.401,3.394v1.197l-4.401-3.393V80.178z
			 M201.352,82.624l4.401,3.343v1.248l-4.401-3.394V82.624z M201.352,85.068l4.401,3.344v1.247l-4.401-3.394V85.068z
			 M203.394,59.816l4.31,3.344h-1.587l-4.31-3.344H203.394z M206.524,59.816l4.355,3.344h-1.588l-4.355-3.344H206.524z
			 M209.655,59.816l4.401,3.344h-1.588l-4.355-3.344H209.655z M214.237,56.922v0.299l-4.401-3.393v-0.299L214.237,56.922z
			 M209.836,55.026l4.401,3.393v1.248l-4.401-3.443V55.026z M209.836,57.471l4.401,3.394v1.197l-4.401-3.394V57.471z"/>
		<path fill="#C0E1DD" d="M210.923,59.816h1.044l4.355,3.344h-1.044L210.923,59.816z M217.865,63.161l-4.31-3.344h1.587l2.722,2.096
			V63.161z M217.865,60.715l-1.089-0.898h1.089V60.715z M219.407,88.662h1.542l4.31,3.344h-1.497L219.407,88.662z M224.125,88.662
			l4.31,3.344h-1.633l-4.265-3.344H224.125z M225.758,87.464l4.401,3.443v1.098h-0.136l-4.355-3.344h0.091V87.464z M225.758,60.665
			l4.401,3.394v1.197l-4.401-3.344V60.665z M225.758,63.111l4.401,3.393v1.198l-4.401-3.344V63.111z M225.758,65.556l4.401,3.394
			v1.198l-4.401-3.394V65.556z M225.758,68.001l4.401,3.344v1.247l-4.401-3.393V68.001z M225.758,70.447l4.401,3.343v1.248
			l-4.401-3.394V70.447z M225.758,72.842l4.401,3.394v1.247l-4.401-3.394V72.842z M225.758,75.287l4.401,3.393v1.198l-4.401-3.343
			V75.287z M225.758,77.733l4.401,3.394v1.198l-4.401-3.394V77.733z M225.758,80.178l4.401,3.394v1.197l-4.401-3.393V80.178z
			 M225.758,82.624l4.401,3.343v1.248l-4.401-3.394V82.624z M225.758,85.068l4.401,3.344v1.247l-4.401-3.394V85.068z M227.8,59.816
			l4.31,3.344h-1.587l-4.31-3.344H227.8z M230.93,59.816l4.355,3.344h-1.588l-4.355-3.344H230.93z M234.06,59.816l4.401,3.344
			h-1.588l-4.355-3.344H234.06z M238.642,56.922v0.299l-4.401-3.393v-0.299L238.642,56.922z M234.242,55.026l4.401,3.393v1.248
			l-4.401-3.443V55.026z M234.242,57.471l4.401,3.394v1.197l-4.401-3.394V57.471z"/>
		<path fill="#C0E1DD" d="M239.185,88.662l4.31,3.344h-1.543l-4.355-3.344H239.185z M242.316,88.662l4.355,3.344h-1.542
			l-4.355-3.344H242.316z M245.492,88.662l4.355,3.344h-1.588l-4.355-3.344H245.492z M243.949,60.665l4.401,3.394v1.197
			l-4.401-3.394V60.665z M248.35,67.702l-4.401-3.393v-1.198l4.401,3.344V67.702z M243.949,65.556l2.858,2.146h-1.633l-1.226-0.948
			V65.556z M248.35,78.68v1.198l-4.401-3.393v-1.198L248.35,78.68z M246.762,81.076l-2.813-2.146v-1.198l4.401,3.344H246.762z
			 M243.949,80.128l1.18,0.949h-1.18V80.128z M245.99,59.816l4.401,3.344h-1.588l-4.355-3.344H245.99z M247.125,75.287l4.401,3.344
			h-1.634l-4.355-3.344H247.125z M248.622,88.662l4.355,3.344h-1.543l-4.355-3.344H248.622z M249.166,59.816l4.4,3.344h-1.633
			l-4.31-3.344H249.166z M250.301,75.287l4.355,3.344h-1.588l-4.401-3.344H250.301z M251.843,88.662l4.31,3.344h-1.542l-4.355-3.344
			H251.843z M252.342,59.816l4.355,3.344h-1.587l-4.401-3.344H252.342z M253.431,75.287l4.355,3.344h-1.543l-4.355-3.344H253.431z
			 M255.018,88.662l4.31,3.344h-1.588l-4.355-3.344H255.018z M255.472,59.816l4.401,3.344h-1.588l-4.4-3.344H255.472z M254.837,69
			l4.401,3.393v1.248l-4.401-3.394V69z M254.837,71.444l4.401,3.443v1.198l-4.401-3.393V71.444z M254.837,73.89l4.401,3.393v1.198
			l-4.401-3.393V73.89z M260.916,92.006l-4.31-3.344h0.726v-0.649l4.4,3.394v0.599H260.916z M256.924,53.529l4.401,3.393v1.248
			l-4.401-3.443V53.529z M256.924,55.974l4.401,3.394v1.247l-4.401-3.443V55.974z M256.924,58.369l4.401,3.444v1.247l-4.401-3.443
			V58.369z M257.332,83.173l4.4,3.343v1.248l-4.4-3.393V83.173z M257.332,85.568l4.4,3.394v1.198l-4.4-3.394V85.568z"/>
		<path fill="#C0E1DD" d="M261.187,87.614c0.817,0.399,1.769,0.749,2.858,1.048l3.857,2.994c-1.815-0.648-3.63-1.647-5.308-2.894
			l-0.521-0.399L261.187,87.614z M267.901,89.236l4.355,3.368c-0.59-0.049-1.225-0.149-1.86-0.249l-4.264-3.294
			C266.721,89.161,267.266,89.236,267.901,89.236z M266.948,61.613l4.401,3.443c0,0.249,0,0.499,0.046,0.749
			C268.378,64.333,267.04,63.135,266.948,61.613z M267.153,60.64c0.136-0.274,0.386-0.524,0.703-0.749l4.423,3.444
			c-0.317,0.224-0.544,0.499-0.658,0.724L267.153,60.64z M267.969,73.391c1.996,1.098,3.198,1.796,4.015,2.745l-1.724-0.949
			L267.969,73.391z M270.215,59.318l4.355,3.344c-0.499,0.049-0.998,0.125-1.315,0.224l-4.378-3.393
			C269.217,59.392,269.739,59.343,270.215,59.318z M273.889,92.604l-4.4-3.393c0.454,0,0.952-0.05,1.406-0.1l4.401,3.344
			C274.842,92.555,274.343,92.604,273.889,92.604z M276.249,62.761l-4.265-3.294c0.953,0.174,1.951,0.574,2.903,1.023l3.675,2.819
			C277.791,63.06,276.975,62.836,276.249,62.761z M276.566,92.255l-4.355-3.368l1.18-0.325l4.4,3.394L276.566,92.255z
			 M278.835,91.581l-4.355-3.418c0.317-0.1,0.635-0.299,0.952-0.45l4.401,3.394L278.835,91.581z M280.694,90.584l-4.355-3.419
			l0.771-0.599l4.401,3.394C281.284,90.209,280.967,90.433,280.694,90.584z M277.337,59.917l4.423,3.393l-0.34,0.999l-4.401-3.443
			L277.337,59.917z M278.018,58.02l4.401,3.394l-0.341,0.948l-4.4-3.394L278.018,58.02z M282.237,89.311l-4.4-3.444l0.612-0.674
			l4.446,3.344L282.237,89.311z M283.326,75.487l-4.06-3.144c-0.341-0.574-0.862-1.247-1.339-1.747l2.269,1.647
			C281.421,73.142,282.509,74.239,283.326,75.487z M278.676,56.074l4.423,3.394l-0.341,0.998l-4.423-3.443L278.676,56.074z
			 M283.417,87.789l-4.401-3.418c0.136-0.25,0.295-0.524,0.477-0.874l4.378,3.419C283.734,87.215,283.598,87.489,283.417,87.789z
			 M284.278,86.017l-4.4-3.443c0.091-0.249,0.227-0.599,0.317-0.949l4.4,3.394C284.528,85.368,284.392,85.693,284.278,86.017z
			 M284.823,79.08l-4.355-3.344c-0.136-0.499-0.227-1.048-0.408-1.547l4.31,3.343C284.551,78.032,284.686,78.506,284.823,79.08z
			 M284.823,83.971l-4.4-3.393c0.068-0.35,0.113-0.674,0.136-1.098l4.401,3.394C284.936,83.223,284.891,83.621,284.823,83.971z
			 M285.005,80.427c0.045,0.474,0.045,0.848,0.045,1.248l-4.4-3.344c0-0.399,0-0.799-0.046-1.247L285.005,80.427z"/>
	</g>
	<g>
		<path fill="#46BFB8" d="M86.945,82.723H73.244l-1.814,5.19h-6.805L77.463,52.98h5.263l12.839,34.933h-6.805L86.945,82.723z
			 M90.801,85.418h0.998L80.457,55.525h-0.726L68.39,85.418h0.998l1.951-5.24h17.466L90.801,85.418z M80.095,56.972l8.393,22.307
			H71.702L80.095,56.972z M75.331,76.735h9.527l-4.763-13.574L75.331,76.735z"/>
		<path fill="#46BFB8" d="M111.487,52.381c9.527,0,17.012,7.485,17.012,18.066c0,8.633-4.945,15.171-11.931,17.317
			c2.858,1.797,6.533,3.244,11.296,3.244c0.726,0,1.497-0.05,2.314-0.15c0,2.246-1.497,4.243-1.951,6.488
			c-7.803,0-13.791-3.992-19.78-9.133c-8.03-1.348-13.973-8.334-13.973-17.766C94.474,59.866,101.959,52.381,111.487,52.381z
			 M110.08,85.818c3.856,4.79,9.255,7.935,16.286,8.683c0.091-0.35,0.317-0.599,0.363-0.949c-6.442-0.449-11.932-3.393-15.516-7.685
			h0.272c7.985,0,14.154-6.437,14.154-15.42c0-8.983-6.17-15.421-14.154-15.421s-14.155,6.437-14.155,15.421
			C97.332,78.93,102.776,85.118,110.08,85.818z M111.487,55.925c7.395,0,13.247,5.938,13.247,14.522
			c0,8.583-5.852,14.522-13.247,14.522c-7.395,0-13.247-5.939-13.247-14.522C98.24,61.863,104.092,55.925,111.487,55.925z
			 M121.876,70.447c0-7.037-4.355-11.878-10.389-11.878c-6.034,0-10.389,4.841-10.389,11.878c0,7.086,4.809,11.877,10.389,11.877
			C117.067,82.324,121.876,77.533,121.876,70.447z"/>
		<path fill="#46BFB8" d="M131.718,73.142V52.98h6.533v20.611c0,6.139,3.266,8.734,6.805,8.734c3.538,0,6.805-2.595,6.805-8.734
			V52.98h6.533v20.162c0,10.58-6.079,15.371-13.338,15.371C137.797,88.512,131.718,83.721,131.718,73.142z M155.581,73.142V55.475
			h-0.907v18.116c0,7.835-4.491,11.379-9.618,11.379s-9.618-3.544-9.618-11.379V55.475h-0.907v17.667
			c0,8.883,4.764,12.726,10.525,12.726S155.581,82.025,155.581,73.142z"/>
		<path fill="#46BFB8" d="M163.881,52.98h19.507v6.088h-12.975v9.382h10.888v6.088h-10.888v7.286h13.383v6.088h-19.916V52.98z
			 M166.694,85.318h14.608V84.42h-13.701V71.944h11.205v-0.898h-11.205V56.473h13.292v-0.898h-14.2V85.318z"/>
		<path fill="#46BFB8" d="M194.139,59.068h-8.484V52.98h23.499v6.088h-8.484v28.845h-6.532V59.068z M196.952,85.418h0.907V56.473
			h8.801v-0.898h-18.509v0.898h8.801V85.418z"/>
		<path fill="#46BFB8" d="M218.545,59.068h-8.484V52.98h23.499v6.088h-8.484v28.845h-6.532V59.068z M221.358,85.418h0.907V56.473
			h8.801v-0.898h-18.509v0.898h8.801V85.418z"/>
		<path fill="#46BFB8" d="M236.736,52.98h19.507v6.088h-12.974v9.382h10.888v6.088h-10.888v7.286h13.383v6.088h-19.916V52.98z
			 M239.549,85.318h14.608V84.42h-13.701V71.944h11.205v-0.898h-11.205V56.473h13.292v-0.898h-14.2V85.318z"/>
		<path fill="#46BFB8" d="M259.645,61.863c0-5.639,3.629-9.482,10.207-9.482c3.04,0,6.17,0.898,8.529,2.445l-1.996,5.689
			c-1.634-1.198-3.811-1.947-5.898-1.947c-2.858,0-4.22,1.148-4.22,2.945c0,1.947,1.18,3.119,5.489,5.29
			c5.558,2.795,8.212,5.889,8.212,11.129c0,6.438-3.993,10.58-11.478,10.58c-3.312,0-6.851-1.048-9.527-2.845l1.996-5.789
			c2.042,1.547,4.809,2.446,7.259,2.446c3.176,0,5.126-1.398,5.126-3.818c0-2.57-1.656-4.017-5.558-5.889
			C261.482,69.598,259.645,66.379,259.645,61.863z M276.203,78.381c0,4.092-2.54,6.588-7.757,6.588
			c-1.996,0-4.446-0.549-6.306-1.648l-0.317,0.898c1.86,1.098,4.491,1.647,6.669,1.647c5.398,0,8.619-2.546,8.619-7.486
			c0-4.491-2.064-6.462-6.759-8.858c-5.444-2.769-6.941-4.716-6.941-7.66c0-3.593,2.45-5.938,6.578-5.938
			c1.815,0,3.584,0.349,5.126,1.148l0.272-0.848c-1.452-0.749-3.493-1.198-5.489-1.198c-4.401,0-7.395,2.495-7.395,6.836
			c0,3.743,2.11,5.839,7.122,8.359C274.343,72.592,276.203,74.439,276.203,78.381z"/>
	</g>
	<g>
		<path fill="#3071B8" d="M109.506,35.287h4.633c1.289,0,2.288,0.362,2.954,1.028c0.565,0.564,0.869,1.361,0.869,2.317v0.029
			c0,1.636-0.883,2.664-2.172,3.142l2.476,3.62h-2.606l-2.172-3.243h-0.029h-1.723v3.243h-2.23V35.287z M113.995,40.21
			c1.086,0,1.708-0.579,1.708-1.434v-0.029c0-0.956-0.666-1.448-1.752-1.448h-2.215v2.911H113.995z"/>
		<path fill="#3071B8" d="M125.866,35.287h2.23v10.136h-2.23V35.287z"/>
		<path fill="#3071B8" d="M135.537,35.287h2.461l2.65,7.138l2.65-7.138h2.403l-4.097,10.208h-1.969L135.537,35.287z"/>
		<path fill="#3071B8" d="M152.736,35.287h7.645v1.984h-5.43v2.056h4.778v1.984h-4.778v2.128h5.502v1.984h-7.718V35.287z"/>
		<path fill="#3071B8" d="M168.545,35.287h4.633c1.289,0,2.288,0.362,2.954,1.028c0.565,0.564,0.869,1.361,0.869,2.317v0.029
			c0,1.636-0.883,2.664-2.172,3.142l2.476,3.62h-2.606l-2.172-3.243h-0.029h-1.723v3.243h-2.23V35.287z M173.034,40.21
			c1.086,0,1.708-0.579,1.708-1.434v-0.029c0-0.956-0.666-1.448-1.752-1.448h-2.215v2.911H173.034z"/>
		<path fill="#3071B8" d="M184.108,43.946l1.317-1.578c0.913,0.753,1.868,1.231,3.026,1.231c0.913,0,1.463-0.362,1.463-0.956v-0.029
			c0-0.565-0.348-0.854-2.042-1.288c-2.042-0.522-3.359-1.086-3.359-3.099v-0.029c0-1.839,1.477-3.055,3.547-3.055
			c1.477,0,2.736,0.463,3.765,1.288l-1.158,1.68c-0.898-0.623-1.781-0.999-2.635-0.999c-0.855,0-1.303,0.391-1.303,0.884v0.028
			c0,0.666,0.434,0.884,2.186,1.333c2.056,0.535,3.214,1.274,3.214,3.04v0.029c0,2.013-1.535,3.143-3.721,3.143
			C186.874,45.568,185.324,45.032,184.108,43.946z"/>
		<path fill="#3071B8" d="M199.962,35.287h2.229v10.136h-2.229V35.287z"/>
		<path fill="#3071B8" d="M210.501,35.287h3.953c3.186,0,5.387,2.186,5.387,5.039v0.029c0,2.852-2.201,5.068-5.387,5.068h-3.953
			V35.287z M214.454,43.41c1.824,0,3.055-1.231,3.055-3.026v-0.029c0-1.796-1.231-3.055-3.055-3.055h-1.723v6.11H214.454z"/>
		<path fill="#3071B8" d="M227.613,35.287h7.645v1.984h-5.43v2.056h4.778v1.984h-4.778v2.128h5.502v1.984h-7.717V35.287z"/>
	</g>
</g>
<g>
	<path fill="#FFFFFF" d="M81.706,162.806c-0.097-1.32-0.736-1.704-1.278-1.704c-0.774,0-1.2,0.554-1.2,1.513
		c0,2.62,4.879,3.877,4.879,8.052c0,2.534-1.549,3.94-3.795,3.94c-2.227,0-3.504-1.96-3.602-4.26l2.285-0.362
		c0.097,1.555,0.658,2.321,1.433,2.321c0.833,0,1.395-0.489,1.395-1.405c0-3.046-4.88-3.855-4.88-8.265
		c0-2.45,1.355-3.835,3.718-3.835c1.956,0,3.118,1.556,3.331,3.728L81.706,162.806z"/>
	<path fill="#FFFFFF" d="M87.13,174.394h-2.324l2.575-15.38h2.982l2.576,15.38h-2.324l-0.426-3.408h-2.633L87.13,174.394z
		 M87.905,168.685h1.936l-0.949-6.604h-0.039L87.905,168.685z"/>
	<path fill="#FFFFFF" d="M95.536,161.314h-2.324v-2.301h7.048v2.301h-2.324v13.079h-2.401V161.314z"/>
	<path fill="#FFFFFF" d="M101.483,159.014h2.401v11.609c0,1.129,0.407,1.683,1.278,1.683c0.872,0,1.278-0.554,1.278-1.683v-11.609
		h2.401v11.503c0,2.642-1.395,4.09-3.679,4.09s-3.679-1.448-3.679-4.09V159.014z"/>
	<path fill="#FFFFFF" d="M113.376,174.394h-2.401v-15.38h3.37c2.691,0,4.066,1.257,4.066,4.537c0,2.472-0.871,3.473-1.685,3.877
		l2.033,6.966h-2.439l-1.704-6.369c-0.31,0.043-0.813,0.064-1.239,0.064V174.394z M113.376,165.916h0.852
		c1.297,0,1.781-0.533,1.781-2.365c0-1.831-0.484-2.364-1.781-2.364h-0.852V165.916z"/>
	<path fill="#FFFFFF" d="M120.466,159.014h3.563c2.479,0,3.795,1.491,3.795,4.644v6.093c0,3.152-1.317,4.644-3.795,4.644h-3.563
		V159.014z M122.867,172.221h0.833c1.278,0,1.723-0.532,1.723-2.151v-6.731c0-1.618-0.445-2.151-1.723-2.151h-0.833V172.221z"/>
	<path fill="#FFFFFF" d="M131.352,174.394h-2.324l2.575-15.38h2.982l2.576,15.38h-2.324l-0.426-3.408h-2.633L131.352,174.394z
		 M132.126,168.685h1.936l-0.949-6.604h-0.039L132.126,168.685z"/>
	<path fill="#FFFFFF" d="M142.701,174.394H140.3v-6.391l-2.904-8.989h2.439l1.685,5.858h0.039l1.607-5.858h2.44l-2.905,8.989
		V174.394z"/>
	<path fill="#FFFFFF" d="M148.901,174.394l-1.336,2.642h-1.026l0.949-2.642h-0.872v-2.514h2.285V174.394z"/>
	<path fill="#FFFFFF" d="M159.359,162.806c-0.097-1.32-0.736-1.704-1.278-1.704c-0.774,0-1.2,0.554-1.2,1.513
		c0,2.62,4.879,3.877,4.879,8.052c0,2.534-1.549,3.94-3.795,3.94c-2.227,0-3.504-1.96-3.602-4.26l2.285-0.362
		c0.097,1.555,0.658,2.321,1.433,2.321c0.833,0,1.395-0.489,1.395-1.405c0-3.046-4.88-3.855-4.88-8.265
		c0-2.45,1.355-3.835,3.718-3.835c1.956,0,3.118,1.556,3.331,3.728L159.359,162.806z"/>
	<path fill="#FFFFFF" d="M163.389,174.394v-15.38h6.429v2.301h-4.027v3.962h3.098v2.301h-3.098v4.516h4.298v2.301H163.389z"/>
	<path fill="#FFFFFF" d="M171.795,174.394v-15.38h3.447c2.963,0,4.337,1.257,4.337,4.537c0,3.281-1.375,4.538-4.337,4.538h-1.045
		v6.305H171.795z M174.197,165.916h0.929c1.568,0,2.053-0.533,2.053-2.365c0-1.831-0.484-2.364-2.053-2.364h-0.929V165.916z"/>
	<path fill="#FFFFFF" d="M182.681,161.314h-2.324v-2.301h7.047v2.301h-2.323v13.079h-2.4V161.314z"/>
	<path fill="#FFFFFF" d="M188.628,174.394v-15.38h6.429v2.301h-4.028v3.962h3.099v2.301h-3.099v4.516h4.299v2.301H188.628z"/>
	<path fill="#FFFFFF" d="M206.658,159.014v15.38h-2.091V162.38h-0.039l-2.169,12.014h-1.161l-2.169-12.014h-0.039v12.014h-2.091
		v-15.38h3.156l1.704,8.989h0.038l1.704-8.989H206.658z"/>
	<path fill="#FFFFFF" d="M208.675,159.014h3.562c2.575,0,3.718,1.449,3.718,4.069c0,1.32-0.503,2.705-1.665,3.216
		c1.22,0.597,1.937,1.662,1.937,3.643c0,2.535-1.026,4.452-3.757,4.452h-3.795V159.014z M211.075,165.319h0.872
		c0.91,0,1.606-0.682,1.606-1.96c0-1.427-0.503-2.173-1.568-2.173h-0.91V165.319z M211.075,172.221h1.007
		c1.278,0,1.743-0.81,1.743-2.364c0-1.576-0.542-2.364-1.975-2.364h-0.775V172.221z"/>
	<path fill="#FFFFFF" d="M218.167,174.394v-15.38h6.429v2.301h-4.028v3.962h3.099v2.301h-3.099v4.516h4.299v2.301H218.167z"/>
	<path fill="#FFFFFF" d="M228.974,174.394h-2.4v-15.38h3.369c2.691,0,4.066,1.257,4.066,4.537c0,2.472-0.872,3.473-1.685,3.877
		l2.033,6.966h-2.44l-1.704-6.369c-0.31,0.043-0.812,0.064-1.239,0.064V174.394z M228.974,165.916h0.853
		c1.297,0,1.781-0.533,1.781-2.365c0-1.831-0.484-2.364-1.781-2.364h-0.853V165.916z"/>
	<path fill="#FFFFFF" d="M244.334,163.146v-0.788c0-1.001-0.311-1.47-1.026-1.47c-0.717,0-1.123,0.469-1.123,1.47v3.6
		c0.619-0.682,1.007-1.022,1.975-1.022c1.395,0,2.557,0.895,2.557,3.153v1.831c0,3.238-1.007,4.687-3.408,4.687
		s-3.408-1.32-3.408-4.218v-7.37c0-2.896,1.007-4.218,3.408-4.218c1.897-0.042,3.117,1.448,3.117,3.408v0.938H244.334z
		 M242.185,171.049c0,1.002,0.406,1.47,1.123,1.47c0.716,0,1.123-0.468,1.123-1.47v-2.556c0-1.001-0.407-1.47-1.007-1.47
		c-0.426,0-0.949,0.447-1.239,0.703V171.049z"/>
</g>
<g>
	<path fill="#FFFFFF" d="M26.893,153.58h-4.642v-29.724h6.513c5.203,0,7.86,2.429,7.86,8.769c0,4.776-1.684,6.711-3.256,7.493
		l3.93,13.462h-4.716l-3.294-12.31c-0.599,0.083-1.572,0.124-2.396,0.124V153.58z M26.893,137.195h1.647
		c2.508,0,3.443-1.029,3.443-4.57c0-3.54-0.936-4.569-3.443-4.569h-1.647V137.195z"/>
	<path fill="#FFFFFF" d="M42.839,153.58v-29.724h12.427v4.446H47.48v7.657h5.989v4.446H47.48v8.728h8.309v4.446H42.839z"/>
	<path fill="#FFFFFF" d="M67.73,138.513h7.598v15.067h-2.246l-0.861-2.223c-1.385,1.811-2.508,2.635-4.679,2.635
		c-3.668,0-6.213-2.882-6.213-7.616v-15.314c0-4.199,2.246-7.616,6.813-7.616c4.641,0,6.962,3.705,6.962,8.151v1.894h-4.417
		c0-4.446-0.823-5.599-2.657-5.599c-1.123,0-2.059,0.74-2.059,3.252v15.273c0,1.894,0.562,3.129,2.171,3.129
		c1.872,0,2.545-1.153,2.545-4.117v-2.882H67.73V138.513z"/>
	<path fill="#FFFFFF" d="M82.553,153.58v-29.724h4.641v29.724H82.553z"/>
	<path fill="#FFFFFF" d="M102.653,131.185c-0.188-2.553-1.422-3.293-2.471-3.293c-1.497,0-2.32,1.07-2.32,2.923
		c0,5.063,9.432,7.492,9.432,15.562c0,4.898-2.994,7.616-7.336,7.616c-4.304,0-6.774-3.788-6.962-8.234l4.417-0.699
		c0.187,3.005,1.272,4.487,2.77,4.487c1.61,0,2.695-0.947,2.695-2.718c0-5.887-9.433-7.451-9.433-15.973
		c0-4.734,2.62-7.41,7.187-7.41c3.781,0,6.026,3.005,6.438,7.204L102.653,131.185z"/>
	<path fill="#FFFFFF" d="M115.378,128.303h-4.492v-4.446h13.625v4.446h-4.492v25.277h-4.641V128.303z"/>
	<path fill="#FFFFFF" d="M133.757,153.58h-4.642v-29.724h6.513c5.203,0,7.86,2.429,7.86,8.769c0,4.776-1.684,6.711-3.256,7.493
		l3.93,13.462h-4.716l-3.294-12.31c-0.599,0.083-1.572,0.124-2.396,0.124V153.58z M133.757,137.195h1.647
		c2.508,0,3.443-1.029,3.443-4.57c0-3.54-0.936-4.569-3.443-4.569h-1.647V137.195z"/>
	<path fill="#FFFFFF" d="M152.397,153.58h-4.492l4.978-29.724h5.764l4.978,29.724h-4.491l-0.824-6.587h-5.09L152.397,153.58z
		 M153.894,142.547h3.743l-1.834-12.762h-0.075L153.894,142.547z"/>
	<path fill="#FFFFFF" d="M170.887,128.303h-4.492v-4.446h13.625v4.446h-4.492v25.277h-4.641V128.303z"/>
	<path fill="#FFFFFF" d="M185.259,153.58v-29.724h4.642v29.724H185.259z"/>
	<path fill="#FFFFFF" d="M196.901,131.062c0-4.199,2.245-7.616,7.111-7.616s7.111,3.417,7.111,7.616v15.314
		c0,4.199-2.245,7.616-7.111,7.616s-7.111-3.417-7.111-7.616V131.062z M201.541,146.252c0,2.224,0.6,3.294,2.471,3.294
		s2.471-1.07,2.471-3.294v-15.067c0-2.223-0.6-3.293-2.471-3.293s-2.471,1.07-2.471,3.293V146.252z"/>
	<path fill="#FFFFFF" d="M217.488,153.58v-29.724h4.304l5.652,17.003h0.075v-17.003h4.191v29.724h-4.042l-5.914-18.566h-0.075
		v18.566H217.488z"/>
	<path fill="#FFFFFF" d="M248.255,123.856h6.887c4.791,0,7.336,2.882,7.336,8.975v11.774c0,6.093-2.545,8.975-7.336,8.975h-6.887
		V123.856z M252.896,149.381h1.609c2.471,0,3.332-1.029,3.332-4.158v-13.009c0-3.129-0.861-4.158-3.332-4.158h-1.609V149.381z"/>
	<path fill="#FFFFFF" d="M271.536,153.58h-4.491l4.979-29.724h5.764l4.979,29.724h-4.492l-0.823-6.587h-5.09L271.536,153.58z
		 M273.033,142.547h3.743l-1.834-12.762h-0.074L273.033,142.547z"/>
	<path fill="#FFFFFF" d="M295.716,153.58h-4.641v-12.351l-5.615-17.373h4.717l3.256,11.321h0.075l3.106-11.321h4.716l-5.614,17.373
		V153.58z"/>
</g>
<g>
	<path fill="#FFFFFF" d="M45.056,195.022h4.68c1.32,0,2.355,0.429,3.03,1.154c0.555,0.627,0.87,1.484,0.87,2.491v0.032
		c0,1.897-1.035,3.035-2.505,3.497l2.835,4.371h-2.175l-2.58-4.024h-0.03h-2.28v4.024h-1.845V195.022z M49.601,200.746
		c1.32,0,2.16-0.759,2.16-1.93v-0.033c0-1.237-0.81-1.913-2.175-1.913h-2.685v3.876H49.601z"/>
	<path fill="#FFFFFF" d="M55.046,204.886l1.11-1.451c1.005,0.957,2.01,1.501,3.315,1.501c1.14,0,1.86-0.577,1.86-1.451v-0.033
		c0-0.825-0.42-1.271-2.37-1.765c-2.235-0.594-3.495-1.32-3.495-3.448v-0.032c0-1.979,1.5-3.349,3.585-3.349
		c1.53,0,2.745,0.512,3.81,1.451l-0.99,1.534c-0.945-0.775-1.89-1.188-2.85-1.188c-1.08,0-1.71,0.61-1.71,1.369v0.033
		c0,0.891,0.48,1.286,2.49,1.814c2.22,0.594,3.375,1.468,3.375,3.381v0.033c0,2.161-1.545,3.447-3.75,3.447
		C57.821,206.733,56.306,206.123,55.046,204.886z"/>
	<path fill="#FFFFFF" d="M64.302,195.022h2.04l3.165,8.874l3.15-8.874h1.995l-4.365,11.629h-1.62L64.302,195.022z"/>
	<path fill="#FFFFFF" d="M76.301,195.022h4.14c2.445,0,3.99,1.534,3.99,3.859v0.033c0,2.59-1.89,3.942-4.2,3.942h-2.085v3.711
		h-1.845V195.022z M80.291,201.026c1.395,0,2.265-0.857,2.265-2.062v-0.033c0-1.353-0.885-2.062-2.265-2.062h-2.145v4.156H80.291z"
		/>
	<path fill="#FFFFFF" d="M93.101,196.902h-3.33v-1.88h8.52v1.88h-3.33v9.666h-1.86V196.902z"/>
	<path fill="#FFFFFF" d="M99.626,200.828v-0.032c0-3.25,2.28-5.972,5.505-5.972c3.225,0,5.475,2.688,5.475,5.938v0.033
		c0,3.249-2.28,5.971-5.505,5.971C101.876,206.767,99.626,204.078,99.626,200.828z M108.671,200.828v-0.032
		c0-2.244-1.485-4.107-3.57-4.107s-3.54,1.831-3.54,4.074v0.033c0,2.243,1.485,4.106,3.57,4.106S108.671,203.071,108.671,200.828z"
		/>
	<path fill="#FFFFFF" d="M112.691,195.022h3.915c3.3,0,5.58,2.49,5.58,5.74v0.033c0,3.249-2.28,5.772-5.58,5.772h-3.915V195.022z
		 M116.605,204.721c2.205,0,3.645-1.633,3.645-3.893v-0.032c0-2.26-1.44-3.926-3.645-3.926h-2.07v7.851H116.605z"/>
	<path fill="#FFFFFF" d="M127.991,194.939h1.71l4.62,11.629h-1.95l-1.065-2.787h-4.965l-1.08,2.787h-1.89L127.991,194.939z
		 M130.63,201.983l-1.815-4.619l-1.8,4.619H130.63z"/>
	<path fill="#FFFFFF" d="M139.061,202.016l-4.17-6.993h2.175l2.94,5.113l2.97-5.113h2.115l-4.17,6.944v4.602h-1.86V202.016z"/>
	<path fill="#FFFFFF" d="M163.554,201.835c0-3.118,1.425-5.41,4.155-7.061l0.795,1.337c-2.13,1.55-3.135,3.266-3.135,5.724
		c0,2.457,1.005,4.173,3.135,5.724l-0.795,1.336C164.979,207.245,163.554,204.952,163.554,201.835z"/>
	<path fill="#FFFFFF" d="M170.184,205.381l1.005-1.551c0.795,0.742,1.5,1.089,2.4,1.089c1.545,0,2.475-1.501,2.534-3.629
		c-0.524,0.693-1.335,1.221-2.46,1.221c-2.234,0-3.72-1.435-3.72-3.662v-0.032c0-2.26,1.59-3.992,3.915-3.992
		c1.32,0,2.175,0.412,2.91,1.221c0.779,0.857,1.274,2.128,1.274,4.404v0.033c0,3.711-1.68,6.284-4.5,6.284
		C172.09,206.767,171.069,206.189,170.184,205.381z M176.064,198.733V198.7c0-1.204-0.855-2.127-2.19-2.127
		c-1.305,0-2.085,0.956-2.085,2.144v0.033c0,1.204,0.841,2.062,2.146,2.062C175.269,200.812,176.064,199.855,176.064,198.733z"/>
	<path fill="#FFFFFF" d="M179.455,205.002l1.14-1.469c0.839,0.858,1.725,1.386,2.7,1.386c1.26,0,2.085-0.792,2.085-1.996v-0.032
		c0-1.172-0.9-1.914-2.175-1.914c-0.75,0-1.396,0.231-1.936,0.512l-1.109-0.809l0.3-5.657h6.269v1.798h-4.68l-0.165,2.705
		c0.495-0.198,0.96-0.33,1.665-0.33c2.04,0,3.645,1.188,3.645,3.629v0.033c0,2.358-1.56,3.909-3.885,3.909
		C181.704,206.767,180.445,206.058,179.455,205.002z"/>
	<path fill="#FFFFFF" d="M190.599,197.002l-1.89,0.577l-0.391-1.649l2.82-0.99h1.29v11.629h-1.83V197.002z"/>
	<path fill="#FFFFFF" d="M194.439,207.559c2.13-1.551,3.135-3.267,3.135-5.724c0-2.458-1.005-4.174-3.135-5.724l0.795-1.337
		c2.715,1.65,4.155,3.942,4.155,7.061c0,3.117-1.44,5.41-4.155,7.06L194.439,207.559z"/>
	<path fill="#FFFFFF" d="M205.644,205.381l1.005-1.551c0.795,0.742,1.5,1.089,2.4,1.089c1.545,0,2.475-1.501,2.534-3.629
		c-0.524,0.693-1.335,1.221-2.46,1.221c-2.234,0-3.72-1.435-3.72-3.662v-0.032c0-2.26,1.59-3.992,3.915-3.992
		c1.32,0,2.175,0.412,2.91,1.221c0.779,0.857,1.274,2.128,1.274,4.404v0.033c0,3.711-1.68,6.284-4.5,6.284
		C207.549,206.767,206.529,206.189,205.644,205.381z M211.524,198.733V198.7c0-1.204-0.855-2.127-2.19-2.127
		c-1.305,0-2.085,0.956-2.085,2.144v0.033c0,1.204,0.841,2.062,2.146,2.062C210.729,200.812,211.524,199.855,211.524,198.733z"/>
	<path fill="#FFFFFF" d="M215.063,200.828v-0.032c0-3.3,1.83-5.972,4.59-5.972c2.745,0,4.561,2.64,4.561,5.938v0.033
		c0,3.299-1.83,5.971-4.59,5.971S215.063,204.127,215.063,200.828z M222.308,200.828v-0.032c0-2.276-1.064-4.141-2.685-4.141
		s-2.655,1.814-2.655,4.107v0.033c0,2.275,1.05,4.14,2.685,4.14C221.288,204.936,222.308,203.104,222.308,200.828z"/>
	<path fill="#FFFFFF" d="M225.773,200.828v-0.032c0-3.3,1.83-5.972,4.59-5.972c2.745,0,4.561,2.64,4.561,5.938v0.033
		c0,3.299-1.83,5.971-4.59,5.971S225.773,204.127,225.773,200.828z M233.018,200.828v-0.032c0-2.276-1.064-4.141-2.685-4.141
		s-2.655,1.814-2.655,4.107v0.033c0,2.275,1.05,4.14,2.685,4.14C231.998,204.936,233.018,203.104,233.018,200.828z"/>
	<path fill="#FFFFFF" d="M236.468,200.531h4.439v1.963h-4.439V200.531z"/>
	<path fill="#FFFFFF" d="M242.242,204.737l1.29-1.319c0.75,0.974,1.59,1.518,2.76,1.518c1.035,0,1.815-0.692,1.815-1.748v-0.033
		c0-1.139-0.945-1.781-2.415-1.781h-0.854l-0.301-1.271l2.835-3.315h-4.545v-1.765h6.945v1.518l-2.925,3.299
		c1.59,0.23,3.09,1.105,3.09,3.249c0,0,0,0.017,0,0.033c0,2.128-1.5,3.646-3.675,3.646
		C244.433,206.767,243.128,205.926,242.242,204.737z"/>
	<path fill="#FFFFFF" d="M251.573,200.828v-0.032c0-3.3,1.83-5.972,4.59-5.972c2.745,0,4.561,2.64,4.561,5.938v0.033
		c0,3.299-1.83,5.971-4.59,5.971S251.573,204.127,251.573,200.828z M258.818,200.828v-0.032c0-2.276-1.064-4.141-2.685-4.141
		s-2.655,1.814-2.655,4.107v0.033c0,2.275,1.05,4.14,2.685,4.14C257.798,204.936,258.818,203.104,258.818,200.828z"/>
	<path fill="#FFFFFF" d="M262.133,205.002l1.14-1.469c0.84,0.858,1.726,1.386,2.7,1.386c1.26,0,2.085-0.792,2.085-1.996v-0.032
		c0-1.172-0.9-1.914-2.175-1.914c-0.75,0-1.396,0.231-1.936,0.512l-1.109-0.809l0.3-5.657h6.27v1.798h-4.68l-0.165,2.705
		c0.495-0.198,0.96-0.33,1.665-0.33c2.04,0,3.645,1.188,3.645,3.629v0.033c0,2.358-1.56,3.909-3.885,3.909
		C264.383,206.767,263.123,206.058,262.133,205.002z"/>
	<path fill="#FFFFFF" d="M271.327,203.435v-0.033c0-1.401,0.705-2.276,1.891-2.82c-0.886-0.512-1.53-1.287-1.53-2.573v-0.033
		c0-1.765,1.545-3.117,3.645-3.117c2.101,0,3.646,1.336,3.646,3.117v0.033c0,1.286-0.646,2.062-1.53,2.573
		c1.14,0.577,1.89,1.402,1.89,2.771v0.032c0,2.062-1.71,3.349-4.005,3.349S271.327,205.414,271.327,203.435z M277.537,203.303
		v-0.033c0-1.056-0.96-1.748-2.205-1.748s-2.205,0.692-2.205,1.748v0.033c0,0.94,0.825,1.731,2.205,1.731
		S277.537,204.26,277.537,203.303z M277.207,198.206v-0.033c0-0.891-0.75-1.616-1.875-1.616s-1.875,0.726-1.875,1.6v0.033
		c0,1.006,0.795,1.715,1.875,1.715S277.207,199.195,277.207,198.206z"/>
</g>
</svg>
