<?xml version="1.0" encoding="utf-8"?>
<!-- Generator: Adobe Illustrator 17.1.0, SVG Export Plug-In . SVG Version: 6.00 Build 0)  -->
<!DOCTYPE svg PUBLIC "-//W3C//DTD SVG 1.1//EN" "http://www.w3.org/Graphics/SVG/1.1/DTD/svg11.dtd">
<svg version="1.1" id="Layer_1" xmlns="http://www.w3.org/2000/svg" xmlns:xlink="http://www.w3.org/1999/xlink" x="0px" y="0px"
	 viewBox="0 0 343 342" style="enable-background:new 0 0 343 342;" xml:space="preserve">
<style type="text/css">
	.st0{clip-path:url(#SVGID_2_);fill:#C1B900;}
	.st1{fill:none;stroke:#BBBDBF;stroke-width:4.539;stroke-miterlimit:10;}
	.st2{fill:none;stroke:#BBBDBF;stroke-width:2.269;stroke-miterlimit:10;}
	.st3{fill:#E27C00;}
	.st4{fill:#45BFB9;}
	.st5{fill:#BBBDBF;}
	.st6{fill:#FFFFFF;}
	.st7{clip-path:url(#SVGID_4_);fill:#C1B900;}
</style>
<g>
	<g>
		<defs>
			<rect id="SVGID_1_" x="61.2" y="301.3" width="11.3" height="13.3"/>
		</defs>
		<clipPath id="SVGID_2_">
			<use xlink:href="#SVGID_1_"  style="overflow:visible;"/>
		</clipPath>
		<rect x="61.2" y="301.3" class="st0" width="11.3" height="13.3"/>
	</g>
</g>
<polyline class="st1" points="59,328 101.3,289.1 111.9,261.5 136.1,236.9 142.2,188.1 165.6,140.4 167.1,128.3 231.1,48.9 
	255.3,11.1 "/>
<polyline class="st2" points="23,263 211,263 219.4,269.6 223.5,285.1 235.7,290.3 247.1,320.9 "/>
<polyline class="st2" points="19.3,312.2 35.5,301.2 112.3,162 131.2,142 177,57.6 171.3,42.5 187.4,12.3 "/>
<polyline class="st2" points="94.1,118.1 190.6,172.2 207.6,173.3 222,184.3 313.1,184.3 "/>
<polyline class="st1" points="326.8,143.9 262.6,69 165.1,14 114.6,10.6 "/>
<rect x="226.8" y="150.7" class="st3" width="15.3" height="12.2"/>
<polygon class="st4" points="88.9,163 95.1,152.7 110.9,161 120.9,151.4 126.5,158.2 142.7,166.7 132,185.5 "/>
<line class="st2" x1="268.8" y1="36.2" x2="268.8" y2="221.3"/>
<polyline class="st2" points="23.8,300.8 176.6,300.8 188.8,309.1 223.5,307.6 235.7,314.2 258.5,305 277.7,282.9 278.4,250.4 
	268.5,219.4 269,31.7 "/>
<path class="st5" d="M254.5,27.7c0,5.8-4.7,10.6-10.6,10.6c-5.8,0-10.6-4.7-10.6-10.6c0-5.8,4.7-10.6,10.6-10.6
	C249.8,17.1,254.5,21.9,254.5,27.7"/>
<path class="st5" d="M208.4,89.8c0,5.8-4.7,10.6-10.6,10.6s-10.6-4.7-10.6-10.6c0-5.8,4.7-10.6,10.6-10.6S208.4,83.9,208.4,89.8"/>
<path class="st5" d="M313.9,116.4c0,5.8-4.7,10.6-10.6,10.6c-5.8,0-10.6-4.7-10.6-10.6c0-5.8,4.7-10.6,10.6-10.6
	C309.2,105.9,313.9,110.6,313.9,116.4"/>
<g>
	<path class="st6" d="M236.5,32.7v-1.3c1.9-3.1,3-4.8,3-6.2c0-0.8-0.3-1.1-0.7-1.1c-0.5,0-0.7,0.4-0.7,1v0.7h-1.5v-0.5
		c0-1.5,0.8-2.6,2.3-2.6c1.3,0,2.1,1,2.1,2.2c0,1.6-0.4,2.7-2.9,6.5h2.7v1.4H236.5z"/>
	<path class="st6" d="M243.1,24.8h-1.2v-0.9c0.7-0.4,1.3-0.8,1.8-1.3h0.8v10.1h-1.4V24.8z"/>
	<path class="st6" d="M247.8,29.8v0.8c0,0.5,0.3,0.9,0.7,0.9c0.5,0,0.8-0.3,0.8-1.2V28c0-0.6-0.3-0.9-0.6-0.9
		c-0.5,0-0.7,0.3-0.8,0.8h-1.2c0-1.5,0.1-2.7,0.1-5.1h3.8l0,1.4H248l-0.1,2.1l0,0c0.4-0.5,0.7-0.6,1.2-0.6c1.2,0,1.6,0.9,1.6,2.6
		v1.4c0,2.1-0.6,3.1-2.1,3.1c-1.2,0-2.2-0.6-2.2-2.3v-0.8H247.8z"/>
</g>
<g>
	<path class="st6" d="M195,91.9v0.5c0,0.6,0.2,0.9,0.7,0.9c0.5,0,0.7-0.3,0.7-0.9v-2.3c-0.4,0.4-0.6,0.7-1.3,0.7
		c-0.9,0-1.6-0.6-1.6-2v-1.2c0-2.1,0.6-3,2.2-3c1.5,0,2.2,0.9,2.2,2.7V92c0,1.9-0.6,2.7-2.2,2.7c-1.2,0-2-0.9-2-2.2v-0.6H195z
		 M196.4,86.8c0-0.6-0.3-0.9-0.7-0.9c-0.5,0-0.7,0.3-0.7,0.9v1.6c0,0.6,0.3,0.9,0.6,0.9c0.3,0,0.6-0.3,0.8-0.5V86.8z"/>
	<path class="st6" d="M200,86.7h-1.2v-0.9c0.7-0.4,1.3-0.8,1.8-1.3h0.8v10.1H200V86.7z"/>
</g>
<g>
	<path class="st6" d="M301.4,114.2v-0.5c0-0.6-0.2-0.9-0.7-0.9c-0.5,0-0.7,0.3-0.7,0.9v2.3c0.4-0.4,0.6-0.7,1.3-0.7
		c0.9,0,1.6,0.6,1.6,2v1.2c0,2.1-0.6,3-2.2,3c-1.5,0-2.2-0.9-2.2-2.7v-4.8c0-1.9,0.6-2.7,2.2-2.7c1.2,0,2,0.9,2,2.2v0.6H301.4z
		 M300,119.3c0,0.6,0.3,0.9,0.7,0.9c0.5,0,0.7-0.3,0.7-0.9v-1.6c0-0.6-0.3-0.9-0.6-0.9c-0.3,0-0.6,0.3-0.8,0.5V119.3z"/>
	<path class="st6" d="M303.8,114.1c0-1.9,0.6-2.7,2.2-2.7c1.5,0,2.2,0.9,2.2,2.7v4.8c0,1.9-0.6,2.7-2.2,2.7c-1.5,0-2.2-0.9-2.2-2.7
		V114.1z M306.7,113.7c0-0.6-0.3-0.9-0.7-0.9c-0.5,0-0.7,0.3-0.7,0.9v5.6c0,0.6,0.3,0.9,0.7,0.9c0.5,0,0.7-0.3,0.7-0.9V113.7z"/>
</g>
<g>
	<path class="st5" d="M112,315.1h-1.4l1.6-9.3h1.8l1.6,9.3h-1.4l-0.3-2.1h-1.6L112,315.1z M112.5,311.7h1.2l-0.6-4h0L112.5,311.7z"
		/>
	<path class="st5" d="M117.7,315.1h-1.5v-9.3h2c1.6,0,2.5,0.8,2.5,2.7c0,1.5-0.5,2.1-1,2.3l1.2,4.2h-1.5l-1-3.9c-0.2,0-0.5,0-0.8,0
		V315.1z M117.7,310h0.5c0.8,0,1.1-0.3,1.1-1.4c0-1.1-0.3-1.4-1.1-1.4h-0.5V310z"/>
	<path class="st5" d="M121.9,315.1v-9.3h1.5v7.9h2.3v1.4H121.9z"/>
	<path class="st5" d="M126.5,315.1v-9.3h1.5v9.3H126.5z"/>
	<path class="st5" d="M129.4,315.1v-9.3h1.3l1.8,5.3h0v-5.3h1.3v9.3h-1.3l-1.9-5.8h0v5.8H129.4z"/>
	<path class="st5" d="M137.1,310.4h2.4v4.7h-0.7l-0.3-0.7c-0.4,0.6-0.8,0.8-1.5,0.8c-1.1,0-1.9-0.9-1.9-2.4v-4.8
		c0-1.3,0.7-2.4,2.1-2.4c1.5,0,2.2,1.2,2.2,2.6v0.6H138c0-1.4-0.3-1.8-0.8-1.8c-0.4,0-0.6,0.2-0.6,1v4.8c0,0.6,0.2,1,0.7,1
		c0.6,0,0.8-0.4,0.8-1.3v-0.9h-0.9V310.4z"/>
	<path class="st5" d="M141.7,307.2h-1.4v-1.4h4.3v1.4h-1.4v7.9h-1.5V307.2z"/>
	<path class="st5" d="M145.2,308.1c0-1.3,0.7-2.4,2.2-2.4s2.2,1.1,2.2,2.4v4.8c0,1.3-0.7,2.4-2.2,2.4s-2.2-1.1-2.2-2.4V308.1z
		 M146.7,312.8c0,0.7,0.2,1,0.8,1s0.8-0.3,0.8-1v-4.7c0-0.7-0.2-1-0.8-1s-0.8,0.3-0.8,1V312.8z"/>
	<path class="st5" d="M150.9,315.1v-9.3h1.3l1.8,5.3h0v-5.3h1.3v9.3h-1.3l-1.9-5.8h0v5.8H150.9z"/>
</g>
<g>
	<path class="st5" d="M142.8,270.3v-0.7c0-0.8-0.3-1.1-0.7-1.1c-0.6,0-0.8,0.3-0.8,1v4.7c0,0.7,0.2,1,0.8,1c0.5,0,0.7-0.3,0.7-0.9
		v-1.1h1.5v1.1c0,1.3-0.7,2.4-2.2,2.4c-1.5,0-2.2-1.1-2.2-2.4v-4.8c0-1.3,0.7-2.4,2.2-2.4c1.5,0,2.2,1.2,2.2,2.6v0.7H142.8z"/>
	<path class="st5" d="M145.6,276.5v-9.3h3.9v1.4H147v2.4h1.9v1.4H147v2.7h2.6v1.4H145.6z"/>
	<path class="st5" d="M150.6,276.5v-9.3h1.3l1.8,5.3h0v-5.3h1.3v9.3h-1.3l-1.9-5.8h0v5.8H150.6z"/>
	<path class="st5" d="M157.1,268.6h-1.4v-1.4h4.3v1.4h-1.4v7.9h-1.5V268.6z"/>
	<path class="st5" d="M162.1,276.5h-1.5v-9.3h2c1.6,0,2.5,0.8,2.5,2.7c0,1.5-0.5,2.1-1,2.3l1.2,4.2h-1.5l-1-3.9c-0.2,0-0.5,0-0.8,0
		V276.5z M162.1,271.3h0.5c0.8,0,1.1-0.3,1.1-1.4c0-1.1-0.3-1.4-1.1-1.4h-0.5V271.3z"/>
	<path class="st5" d="M167.2,276.5h-1.4l1.6-9.3h1.8l1.6,9.3h-1.4l-0.3-2.1h-1.6L167.2,276.5z M167.7,273h1.2l-0.6-4h0L167.7,273z"
		/>
	<path class="st5" d="M171.4,276.5v-9.3h1.5v7.9h2.3v1.4H171.4z"/>
</g>
<g>
	<path class="st5" d="M164.2,164.2l-1-0.6l0.4-0.8c0.7,0,1.4-0.1,2.1-0.2l0.6,0.4l-4.5,8.3l-1.2-0.6L164.2,164.2z"/>
	<path class="st5" d="M166.7,171.5l-2.2-1.2l0.6-1l5-4l1.2,0.7l-2.8,5.2l0.7,0.4l-0.6,1l-0.7-0.4l-1.1,2l-1.2-0.6L166.7,171.5z
		 M167.3,170.4l1.7-3.2l0,0l-3,2.5L167.3,170.4z"/>
	<path class="st5" d="M172.8,168.4l-1.2-0.7l0.7-1.2l3.7,2l-0.7,1.2l-1.2-0.7l-3.8,6.9l-1.3-0.7L172.8,168.4z"/>
	<path class="st5" d="M172.2,177l4.5-8.2l1.3,0.7l-1.8,3.3l1.4,0.7l1.8-3.3l1.3,0.7l-4.5,8.2l-1.3-0.7l2-3.6l-1.4-0.7l-2,3.6
		L172.2,177z"/>
</g>
<g>
	<path class="st5" d="M84.2,226l8.2,4.5l-0.6,1.1l-6.4-3.5l0,0l5.7,4.7l-0.3,0.6l-7-2.4l0,0l6.4,3.5l-0.6,1.1l-8.2-4.5l0.9-1.7
		l5.3,1.7l0,0l-4.3-3.5L84.2,226z"/>
	<path class="st5" d="M93.3,228.7l-0.7,1.2l-7.4-5.9l0.9-1.6l8.9,3.1l-0.7,1.2l-1.9-0.8l-0.8,1.4L93.3,228.7z M90.5,226.7l0.6-1
		l-3.8-1.4l0,0L90.5,226.7z"/>
	<path class="st5" d="M92.2,221l1.1-2.1l4.1,2.3l-0.3,0.6l-0.7-0.1c0.3,0.7,0.3,1.1,0,1.7c-0.6,1-1.7,1.3-3,0.6l-4.2-2.3
		c-1.2-0.6-1.8-1.8-1.1-3c0.7-1.3,2.1-1.3,3.3-0.7l0.5,0.3l-0.7,1.2c-1.2-0.7-1.7-0.6-1.9-0.1c-0.2,0.3-0.1,0.7,0.6,1.1l4.2,2.3
		c0.5,0.3,0.9,0.3,1.2-0.1c0.3-0.5,0.1-0.9-0.7-1.3l-0.8-0.4l-0.4,0.8L92.2,221z"/>
	<path class="st5" d="M98.1,220.1l-8.2-4.5l0.6-1.2l5.5,1l0,0l-4.7-2.6l0.6-1.1l8.2,4.5l-0.6,1.1l-6-1.2l0,0l5.1,2.8L98.1,220.1z"/>
	<path class="st5" d="M94.6,211.7c-1.2-0.6-1.8-1.8-1-3.1c0.7-1.3,2-1.4,3.2-0.8l4.2,2.3c1.2,0.6,1.8,1.8,1,3.1
		c-0.7,1.3-2,1.4-3.2,0.8L94.6,211.7z M99.5,212.7c0.6,0.3,1,0.3,1.3-0.2c0.3-0.5,0.1-0.8-0.5-1.2l-4.1-2.3c-0.6-0.3-1-0.3-1.3,0.2
		c-0.3,0.5-0.1,0.8,0.5,1.2L99.5,212.7z"/>
	<path class="st5" d="M103.5,210.1l-8.2-4.5l0.7-1.3l6.9,3.8l1.1-2l1.2,0.7L103.5,210.1z"/>
	<path class="st5" d="M105.8,206.1l-8.2-4.5l0.7-1.3l8.2,4.5L105.8,206.1z"/>
	<path class="st5" d="M107.6,202.8l-0.7,1.2l-7.4-5.9l0.9-1.6l8.9,3.1l-0.7,1.2l-1.9-0.8l-0.8,1.4L107.6,202.8z M104.8,200.7l0.6-1
		l-3.8-1.4l0,0L104.8,200.7z"/>
</g>
<g>
	<path class="st5" d="M157.5,104l8.2,4.5l-0.6,1.1l-6.4-3.5l0,0l5.7,4.7l-0.3,0.6l-7-2.4l0,0l6.4,3.5l-0.6,1.1l-8.2-4.5l0.9-1.7
		l5.3,1.7l0,0l-4.3-3.5L157.5,104z"/>
	<path class="st5" d="M166.6,106.7L166,108l-7.4-5.9l0.9-1.6l8.9,3.1l-0.7,1.2l-1.9-0.8l-0.8,1.4L166.6,106.7z M163.8,104.7l0.6-1
		l-3.8-1.4l0,0L163.8,104.7z"/>
	<path class="st5" d="M169.4,101.8l-0.7,1.3l-8.2-4.5l1-1.8c0.8-1.4,1.9-1.8,3.6-0.8c1.3,0.7,1.6,1.5,1.6,2l4.3,1l-0.7,1.3l-3.9-1
		c-0.1,0.2-0.2,0.4-0.3,0.7L169.4,101.8z M164.9,99.3l0.2-0.5c0.4-0.7,0.2-1.1-0.7-1.6c-1-0.5-1.4-0.4-1.8,0.3l-0.2,0.5L164.9,99.3z
		"/>
	<path class="st5" d="M171.4,98.1l-8.2-4.5l0.7-1.3l3,1.7l0,0l-2.3-3l0.7-1.3l2.3,3l6,1.3l-0.7,1.3l-4.4-1.1l0,0l0.7,0.9l2.9,1.6
		L171.4,98.1z"/>
	<path class="st5" d="M173.8,93.6l-8.2-4.5l1.9-3.4l1.2,0.7l-1.2,2.1l2.1,1.2l0.9-1.6l1.2,0.7l-0.9,1.6l2.4,1.3l1.3-2.3l1.2,0.7
		L173.8,93.6z"/>
	<path class="st5" d="M169.7,84.7l-0.7,1.2l-1.2-0.7l2.1-3.7l1.2,0.7l-0.7,1.2l6.9,3.8l-0.7,1.3L169.7,84.7z"/>
</g>
<g>
	<path class="st5" d="M277.4,171.7h-0.7c-0.8,0-1.1,0.3-1.1,0.7c0,0.6,0.3,0.8,1,0.8h4.7c0.7,0,1-0.2,1-0.8c0-0.5-0.3-0.7-0.9-0.7
		h-1.1v-1.5h1.1c1.3,0,2.4,0.7,2.4,2.2c0,1.5-1.1,2.2-2.4,2.2h-4.8c-1.3,0-2.4-0.7-2.4-2.2c0-1.5,1.2-2.2,2.6-2.2h0.7V171.7z"/>
</g>
<g>
	<path class="st5" d="M283.6,169.4h-9.3v-1.5h3.8v-1.5h-3.8v-1.5h9.3v1.5h-4.1v1.5h4.1V169.4z"/>
	<path class="st5" d="M283.6,163.5h-9.3V162h9.3V163.5z"/>
	<path class="st5" d="M277.4,157.7h-0.7c-0.8,0-1.1,0.3-1.1,0.7c0,0.6,0.3,0.8,1,0.8h4.7c0.7,0,1-0.2,1-0.8c0-0.5-0.3-0.7-0.9-0.7
		h-1.1v-1.5h1.1c1.3,0,2.4,0.7,2.4,2.2c0,1.5-1.1,2.2-2.4,2.2h-4.8c-1.3,0-2.4-0.7-2.4-2.2c0-1.5,1.2-2.2,2.6-2.2h0.7V157.7z"/>
	<path class="st5" d="M283.6,154.1v1.4l-9.3-1.6v-1.8l9.3-1.6v1.4l-2.1,0.3v1.6L283.6,154.1z M280.2,153.6v-1.2l-4,0.6v0
		L280.2,153.6z"/>
	<path class="st5" d="M278.9,147.9v-2.4h4.7v0.7l-0.7,0.3c0.6,0.4,0.8,0.8,0.8,1.5c0,1.1-0.9,1.9-2.4,1.9h-4.8
		c-1.3,0-2.4-0.7-2.4-2.1c0-1.5,1.2-2.2,2.6-2.2h0.6v1.4c-1.4,0-1.8,0.3-1.8,0.8c0,0.4,0.2,0.6,1,0.6h4.8c0.6,0,1-0.2,1-0.7
		c0-0.6-0.4-0.8-1.3-0.8h-0.9v0.9H278.9z"/>
	<path class="st5" d="M276.6,144.2c-1.3,0-2.4-0.7-2.4-2.2s1.1-2.2,2.4-2.2h4.8c1.3,0,2.4,0.7,2.4,2.2s-1.1,2.2-2.4,2.2H276.6z
		 M281.4,142.7c0.7,0,1-0.2,1-0.8s-0.3-0.8-1-0.8h-4.7c-0.7,0-1,0.2-1,0.8s0.3,0.8,1,0.8H281.4z"/>
</g>
<path class="st4" d="M89.7,148.2c0,7.5-6.1,13.6-13.6,13.6c-7.5,0-13.6-6.1-13.6-13.6c0-7.5,6.1-13.6,13.6-13.6
	C83.6,134.6,89.7,140.7,89.7,148.2"/>
<g>
	<path class="st6" d="M74.4,144.4l-2.3,0.6l-0.7-3.2l4-1.2h2.8v15.1h-3.7V144.4z"/>
</g>
<path class="st3" d="M229,140.6c0,7.5-6.1,13.6-13.6,13.6c-7.5,0-13.6-6.1-13.6-13.6c0-7.5,6.1-13.6,13.6-13.6
	C222.9,127,229,133.1,229,140.6"/>
<g>
	<path class="st6" d="M210.2,144.8l5.1-4.3c1.3-1.1,1.8-1.8,1.8-2.7c0-0.9-0.6-1.5-1.5-1.5c-0.9,0-1.6,0.6-2.7,1.9l-2.6-2.3
		c1.5-2.1,2.9-3.2,5.6-3.2c3,0,5,2,5,4.8v0c0,2.4-1.1,3.6-3.2,5.3l-2.3,1.8h5.6v3.4h-10.8V144.8z"/>
</g>
<g>
	<g>
		<defs>
			<rect id="SVGID_3_" x="54.2" y="269.9" width="27.1" height="27.1"/>
		</defs>
		<clipPath id="SVGID_4_">
			<use xlink:href="#SVGID_3_"  style="overflow:visible;"/>
		</clipPath>
		<path class="st7" d="M81.3,283.4c0,7.5-6.1,13.6-13.6,13.6c-7.5,0-13.6-6.1-13.6-13.6c0-7.5,6.1-13.6,13.6-13.6
			C75.2,269.9,81.3,275.9,81.3,283.4"/>
	</g>
</g>
<g>
	<path class="st6" d="M62,288.8l2.4-2.6c1,1.1,2,1.7,3.3,1.7c1.1,0,1.8-0.6,1.8-1.5v0c0-1-0.8-1.5-2.2-1.5h-1.6l-0.5-2.2l3.1-3.1
		h-5.2v-3.4h9.9v3l-3.3,3.1c2,0.5,3.5,1.7,3.5,4.2v0c0,3-2.2,5-5.3,5C65.2,291.4,63.3,290.4,62,288.8z"/>
</g>
</svg>
